<?xml version="1.0" encoding="UTF-8"?>
<svg width="204px" height="118px" viewBox="0 0 204 118" version="1.1" xmlns="http://www.w3.org/2000/svg" xmlns:xlink="http://www.w3.org/1999/xlink">
    <title>36666D69-4C9A-4987-9458-630F1E469D87</title>
    <defs>
        <linearGradient x1="9.69535961%" y1="50%" x2="100%" y2="50%" id="linearGradient-1">
            <stop stop-color="#ACFECB" offset="0%"></stop>
            <stop stop-color="#66CE9C" offset="100%"></stop>
        </linearGradient>
        <linearGradient x1="9.69535961%" y1="50%" x2="100%" y2="50%" id="linearGradient-2">
            <stop stop-color="#ACFECB" offset="0%"></stop>
            <stop stop-color="#66CE9C" offset="100%"></stop>
        </linearGradient>
        <linearGradient x1="9.69535961%" y1="50%" x2="100%" y2="50%" id="linearGradient-3">
            <stop stop-color="#ACFECB" offset="0%"></stop>
            <stop stop-color="#66CE9C" offset="100%"></stop>
        </linearGradient>
        <linearGradient x1="0%" y1="50%" x2="100%" y2="50%" id="linearGradient-4">
            <stop stop-color="#ACFECB" offset="0%"></stop>
            <stop stop-color="#66CE9C" offset="100%"></stop>
        </linearGradient>
        <linearGradient x1="3.64407897%" y1="44.5778892%" x2="88.4017351%" y2="46.6366622%" id="linearGradient-5">
            <stop stop-color="#FE82D8" offset="0%"></stop>
            <stop stop-color="#FFCFD0" offset="100%"></stop>
        </linearGradient>
        <linearGradient x1="19.4179376%" y1="0%" x2="88.4017351%" y2="0%" id="linearGradient-6">
            <stop stop-color="#FE82D8" offset="0%"></stop>
            <stop stop-color="#FFCFD0" offset="100%"></stop>
        </linearGradient>
        <linearGradient x1="19.4179376%" y1="0%" x2="88.4017351%" y2="0%" id="linearGradient-7">
            <stop stop-color="#FE82D8" offset="0%"></stop>
            <stop stop-color="#FFCFD0" offset="100%"></stop>
        </linearGradient>
        <linearGradient x1="14.9388453%" y1="50.5860161%" x2="88.4017351%" y2="49.4139839%" id="linearGradient-8">
            <stop stop-color="#FE82D8" offset="0%"></stop>
            <stop stop-color="#FFCFD0" offset="100%"></stop>
        </linearGradient>
        <linearGradient x1="16.0197224%" y1="52.2372608%" x2="88.4017351%" y2="46.9828098%" id="linearGradient-9">
            <stop stop-color="#FE82D8" offset="0%"></stop>
            <stop stop-color="#FFCFD0" offset="100%"></stop>
        </linearGradient>
        <linearGradient x1="16.7782662%" y1="50.6907093%" x2="88.4017351%" y2="46.4804134%" id="linearGradient-10">
            <stop stop-color="#FE82D8" offset="0%"></stop>
            <stop stop-color="#FFCFD0" offset="100%"></stop>
        </linearGradient>
        <linearGradient x1="19.4179376%" y1="0%" x2="88.4017351%" y2="0%" id="linearGradient-11">
            <stop stop-color="#FE82D8" offset="0%"></stop>
            <stop stop-color="#FFCFD0" offset="100%"></stop>
        </linearGradient>
        <linearGradient x1="50%" y1="0%" x2="50%" y2="100%" id="linearGradient-12">
            <stop stop-color="#DEF2F2" offset="0%"></stop>
            <stop stop-color="#EFF8F7" offset="100%"></stop>
        </linearGradient>
        <filter x="-15.2%" y="-1299.7%" width="130.4%" height="2699.4%" filterUnits="objectBoundingBox" id="filter-13">
            <feGaussianBlur stdDeviation="4.66560025" in="SourceGraphic"></feGaussianBlur>
        </filter>
    </defs>
    <g id="Page-1" stroke="none" stroke-width="1" fill="none" fill-rule="evenodd">
        <g id="assets-homepage" transform="translate(-74.000000, -354.000000)">
            <g id="icon-forecast" transform="translate(74.000000, 354.000000)">
                <rect id="Rectangle" fill-opacity="0" fill="#D8D8D8" x="0" y="0" width="204" height="108"></rect>
                <g id="icon/forecast" transform="translate(24.000000, 10.000000)">
                    <path d="M42.3074111,58.9079848 C52.7198547,54.0753283 63.0869896,52.0205957 73.3923262,52.7558298 L73.7045902,52.7789636 L73.5133522,55.268272 C63.6441207,54.5100809 53.6993815,56.4273891 43.6626448,61.0322397 L43.3584731,61.1726033 C32.9660069,65.9959879 23.4833715,68.2702272 14.9093829,67.9744689 L14.6498432,67.9647198 L14.7512169,65.4701354 C22.8793282,65.8004416 31.9636166,63.6669111 42.0028982,59.0486914 L42.3074111,58.9079848 Z" id="Path-10" fill="url(#linearGradient-1)" fill-rule="nonzero"></path>
                    <path d="M44.3585232,51.4392941 C52.4381347,48.3188118 62.1538916,47.3207436 73.4954489,48.4097712 L73.8396301,48.4434109 L73.38078,53.0572741 C62.6766858,51.9927487 53.6373036,52.8784593 46.2522885,55.6790876 L46.0290066,55.7645412 C38.0681848,58.8391449 29.972363,60.4362442 21.7533961,60.5506322 L21.4763057,60.5539264 L21.4305898,55.9175283 C29.0940474,55.841965 36.6461014,54.3842243 44.0985929,51.5391052 L44.3585232,51.4392941 Z" id="Path-11" fill="url(#linearGradient-2)" fill-rule="nonzero" transform="translate(47.635110, 54.269070) rotate(-2.000000) translate(-47.635110, -54.269070) "></path>
                    <path d="M41.3450302,44.4405992 C50.7192328,42.649696 61.080487,42.2209596 72.4279556,43.1470428 L72.7828851,43.1764239 L72.4099378,47.6190893 C61.4264387,46.6970603 51.4450346,47.0818366 42.4648887,48.7660735 L42.181638,48.8196919 C41.9723761,48.8596705 41.7636736,48.8991428 41.5555305,48.9381086 L40.9327787,49.0534866 C40.725754,49.0914395 40.5192885,49.1288858 40.3133821,49.1658254 L39.6973401,49.2751246 C39.5949459,49.2930878 39.4926915,49.3109243 39.3905769,49.3286341 L38.7795657,49.4333727 C38.1702311,49.536591 37.5659262,49.6352478 36.9666484,49.729341 L36.3690462,49.8219128 C36.1704039,49.852263 35.9723201,49.8821059 35.7747947,49.9114417 L35.1838935,49.9979271 C34.9874847,50.0262483 34.7916342,50.0540621 34.5963418,50.0813685 L34.0121392,50.1617655 C33.9150512,50.1749113 33.8181026,50.1879302 33.7212936,50.2008222 L33.1421135,50.2766515 C32.5646072,50.3509581 31.9921223,50.420696 31.4246561,50.4858631 L30.8588627,50.5495066 C28.3203197,50.8290449 25.883388,51.0160083 23.5478279,51.1101906 L23.0304831,51.1295927 C21.13967,51.195133 19.3161481,51.1990636 17.5597875,51.1412731 L17.3207001,51.13301 L17.4820927,46.6776404 C19.596785,46.7542436 21.8237584,46.7350866 24.1627456,46.6199393 L24.6656715,46.5937956 C25.3385251,46.556978 26.0205212,46.5123232 26.7116534,46.4598258 L27.2317156,46.4189821 C27.7534905,46.3766678 28.2804037,46.3299413 28.8124525,46.2788002 L29.346213,46.2261876 C29.9709306,46.1630892 30.6026371,46.0939812 31.2413283,46.01886 L31.7904884,45.9529976 C32.1577354,45.9081075 32.5272627,45.8612536 32.8990695,45.8124351 L33.4584894,45.737734 C34.0196187,45.6615593 34.5858762,45.5809637 35.1572592,45.4959449 L35.7303506,45.4094516 C36.2093504,45.3361451 36.6919089,45.2597664 37.1780247,45.1803143 L37.763071,45.0834963 L38.3515316,44.9837274 C38.4498929,44.9668532 38.5483964,44.9498561 38.6470422,44.9327361 L39.2406233,44.8285396 C39.3398379,44.8109275 39.4391948,44.7931924 39.5386938,44.7753342 L40.1373941,44.6667091 C40.4375973,44.6116583 40.73908,44.5555001 41.0418419,44.4982343 L41.3450302,44.4405992 Z" id="Path-12" fill="url(#linearGradient-3)" fill-rule="nonzero" transform="translate(45.051793, 46.927218) rotate(-2.000000) translate(-45.051793, -46.927218) "></path>
                    <path d="M0,0.64702573 C18.1716463,-1.54353314 34.6120336,1.82448115 48.8683873,10.8069127 C58.6521787,16.9713388 67.3418661,19.3918257 75.1464603,18.4976519 L75.3826925,18.4695416 L78.1788736,41.1240857 C64.7919976,42.7763869 51.0366483,39.0532109 37.1218366,30.3838362 L36.7001271,30.1196143 C27.112114,24.0785414 16.0667385,21.7749927 3.12467397,23.2631538 L2.73190918,23.3094102 L0,0.64702573 Z" id="Path-13" fill="url(#linearGradient-4)" fill-rule="nonzero"></path>
                    <path d="M86.2859646,46.8217154 C93.6846499,46.2976325 104.179666,48.321412 117.865467,52.8564384 L118.281165,52.994632 C131.505593,57.4050168 141.30882,59.1761224 147.562495,58.3667369 L147.750914,58.3414203 L148.341656,62.5804158 C141.357944,63.5536586 131.068188,61.7383628 117.344038,57.1933163 L116.927103,57.0547522 C103.659401,52.6299354 93.5832596,50.6496508 86.7931317,51.0772828 L86.5883762,51.0909783 L86.2859646,46.8217154 Z" id="Path-2" fill="url(#linearGradient-5)" fill-rule="nonzero" transform="translate(117.313810, 54.788156) rotate(-1.000000) translate(-117.313810, -54.788156) "></path>
                    <path d="M86.3552673,52.793375 C93.5992763,52.2802485 103.983304,54.2828287 117.558513,58.7812823 L117.970859,58.918363 C131.32571,63.3722441 141.256039,65.1662491 147.692323,64.3322215 L147.886292,64.3061436 L148.206278,66.6022661 C141.406302,67.5499036 131.244181,65.7568162 117.650393,61.2548472 L117.237409,61.1175948 C103.859119,56.6558963 93.6724289,54.6539341 86.7285029,55.0918746 L86.5190735,55.1058924 L86.3552673,52.793375 Z" id="Path-2" fill="url(#linearGradient-6)" fill-rule="nonzero"></path>
                    <path d="M80.9767744,42.6458867 C84.9630626,40.5579289 94.3502378,40.5370493 109.904858,42.3134213 L111.723555,42.5222831 L112.605275,42.6223282 L113.904961,42.7679817 L114.756145,42.8621417 L116.009996,42.9989688 L116.830603,43.0872454 L117.638967,43.1731691 L118.828541,43.2976436 L119.606266,43.3776863 L120.749851,43.4933407 L121.496895,43.5675042 L122.231654,43.6393164 L123.310746,43.7426269 L124.014764,43.8085624 L125.047711,43.9030589 L126.052941,43.9922684 L126.707684,44.0488045 L127.350091,44.1029915 L128.290557,44.179868 L128.902094,44.2281834 L129.501271,44.2741506 L130.088081,44.31777 L130.662517,44.3590417 L131.224573,44.3979661 L131.774241,44.4345434 C131.864819,44.4404441 131.954882,44.446247 132.044427,44.4519521 L132.575501,44.4850093 C132.66298,44.4903233 132.749942,44.4955396 132.836387,44.5006581 L133.348851,44.5301959 L133.8489,44.5573878 L134.336527,44.582234 C134.416763,44.5861796 134.496481,44.5900275 134.57568,44.5937776 L135.044662,44.6151058 L135.501204,44.6340891 L135.945301,44.6507277 C136.018279,44.6533054 136.090739,44.6557854 136.16268,44.6581678 L136.588094,44.6712898 L137.001046,44.6820678 L137.401527,44.6905021 C137.467234,44.6917125 137.532422,44.6928253 137.597089,44.6938404 L137.978853,44.6987597 L138.348129,44.7013358 C138.529645,44.7020382 138.706475,44.7018621 138.878615,44.7008075 L139.216644,44.6975273 C139.548418,44.6930761 139.861424,44.6851117 140.155634,44.6736355 L140.301172,44.6676047 L140.528097,49.8342421 C140.011425,49.8569351 139.444417,49.869576 138.82693,49.8721707 L138.45038,49.872522 L138.061708,49.8704626 L137.660907,49.8659925 L137.247971,49.8591122 C137.178137,49.8577647 137.107796,49.8563167 137.03695,49.8547683 L136.605798,49.8442731 C136.532927,49.8423231 136.459549,49.8402727 136.385665,49.8381219 L135.936281,49.8240125 L135.474735,49.8074939 C135.396797,49.8045401 135.318351,49.8014858 135.239398,49.7983313 L134.759595,49.7781995 L134.267611,49.7556592 C134.184598,49.7517018 134.101077,49.747644 134.017049,49.743486 L133.506782,49.7173335 C133.420721,49.7127741 133.334152,49.7081144 133.247075,49.7033544 L132.71851,49.6735904 C132.540287,49.6632678 132.36003,49.652544 132.177737,49.641419 L131.624749,49.6068406 C131.531566,49.6008769 131.437874,49.594813 131.343673,49.5886488 L130.772351,49.5504603 L130.188797,49.5098654 L129.593005,49.4668643 L128.984967,49.4214575 L128.364677,49.3736451 L127.732128,49.3234274 L126.760303,49.2435916 L126.097077,49.1873619 L125.421566,49.128728 L124.733766,49.06769 L124.033669,49.0042482 L122.960452,48.9045792 L121.859527,48.7995032 L121.110174,48.7264492 L120.348489,48.6509929 L119.182826,48.5333045 L117.989378,48.4102124 L117.178299,48.3251493 L115.938494,48.193053 L114.670842,48.0555554 L113.375321,47.9126575 L112.496146,47.8143925 L111.154126,47.662496 L109.784174,47.5052018 C108.9057,47.4036432 108.047298,47.308178 107.209137,47.2187464 L106.377729,47.1313237 L105.559854,47.0479099 C93.5285929,45.8402725 85.9760883,45.9513511 83.4592815,47.1851036 L83.3763533,47.2271157 L80.9767744,42.6458867 Z" id="Path-4" fill="url(#linearGradient-7)" fill-rule="nonzero"></path>
                    <path d="M147.927544,33.8463516 L147.99565,39.0175216 C137.553252,39.1550513 126.831597,39.5199777 115.83074,40.1123557 L114.508348,40.1843442 L113.809376,40.2214201 L113.11445,40.256918 L112.42357,40.2908377 L111.394833,40.3387578 L110.714064,40.3687313 L110.037339,40.3971259 L109.364657,40.4239415 L108.696018,40.4491778 L108.031422,40.4728348 L107.370867,40.4949121 C107.261112,40.49846 107.151525,40.5019421 107.042106,40.5053584 L106.387614,40.525066 L105.737163,40.5431935 C105.629091,40.5460831 105.521187,40.5489068 105.413452,40.5516647 L104.769062,40.5674217 C104.662,40.5699162 104.555106,40.5723448 104.448381,40.5747076 L103.81005,40.5880937 L103.175758,40.5998991 C103.070379,40.6017349 102.965169,40.6035048 102.860126,40.6052088 L102.231892,40.6146426 L101.607696,40.622495 L100.987537,40.6287659 L100.371415,40.6334551 L99.7593303,40.6365625 L99.1512814,40.6380877 L98.5472682,40.6380877 L97.9472902,40.6363913 L97.351347,40.6331693 L96.7594382,40.6283644 L96.1715633,40.6219764 C96.0739203,40.6207799 95.9764454,40.6195173 95.8791385,40.6181888 L95.2973136,40.609426 C95.2006788,40.6078336 95.1042121,40.6061752 95.0079134,40.6044508 L94.4321375,40.5933127 C94.3365109,40.5913244 94.2410523,40.5892701 94.1457616,40.5871498 L93.5760337,40.5736359 C93.481415,40.5712516 93.3869643,40.5688013 93.2926815,40.566285 L92.7290006,40.550395 C92.6353896,40.5476146 92.5419467,40.5447683 92.4486716,40.5418559 L91.8910366,40.5235893 C91.7984333,40.5204128 91.7059979,40.5171703 91.6137304,40.5138618 L91.0621402,40.4932182 C90.9705443,40.4896455 90.8791163,40.4860068 90.7878562,40.482302 L90.24231,40.459281 L89.7007925,40.4346747 L89.1633032,40.4084831 L88.6298418,40.3807059 C88.5412671,40.3759442 88.4528603,40.3711164 88.3646213,40.3662226 L87.8372007,40.3360667 L87.3138067,40.3043247 L86.794439,40.2709964 L86.2790971,40.2360817 C86.1935422,40.2301304 86.108155,40.224113 86.0229356,40.2180294 L85.5136314,40.1807347 L85.2604886,40.1614923 L85.657275,35.0051178 L85.9003486,35.0235954 L86.3895028,35.0594191 L86.882666,35.0937342 L87.3798378,35.1265404 L87.8810178,35.1578377 L88.3862055,35.1876257 L88.8954004,35.2159044 L89.4086021,35.2426734 L89.9258103,35.2679328 C90.0123455,35.2720168 90.0990476,35.276038 90.1859166,35.2799962 L90.7091335,35.3029906 C90.7966701,35.3066971 90.8843736,35.3103407 90.9722439,35.3139214 L91.5014686,35.3346504 L92.0346979,35.3538689 C92.1239031,35.3569461 92.2132752,35.3599603 92.3028141,35.3629116 L92.8420496,35.379864 L93.3852885,35.3953055 L93.9325306,35.4092358 L94.4837753,35.4216548 C94.575983,35.4235987 94.6683574,35.4254796 94.7608985,35.4272975 L95.3181464,35.4374491 C95.4113546,35.4390151 95.5047294,35.4405181 95.598271,35.4419581 L96.1615211,35.449842 L96.728772,35.4562139 L97.3000235,35.4610735 L97.875275,35.4644208 L98.454526,35.4662554 L99.0377763,35.4665772 C99.1353179,35.4665047 99.2330261,35.4663693 99.3309009,35.4661707 L99.920149,35.464223 L100.513395,35.4607621 L101.110639,35.4557877 L101.71188,35.4492997 C101.81242,35.4480922 101.913126,35.4468216 102.013999,35.445488 L102.926352,35.431782 L103.539582,35.420752 L104.156807,35.4082077 L104.778027,35.3941488 L105.403242,35.3785752 L106.032451,35.3614867 L106.665654,35.3428831 L107.30285,35.3227642 C107.409382,35.3192848 107.51608,35.3157422 107.622945,35.3121365 L108.26613,35.2897443 L108.913307,35.2658365 L109.564475,35.2404127 L110.219635,35.2134727 L110.878786,35.1850165 L111.541927,35.1550439 L112.54412,35.1072411 L113.555289,35.0560252 L114.234387,35.0199848 L114.575432,35.0013955 C125.661609,34.39185 136.469506,34.0110875 146.999177,33.8591629 L147.927544,33.8463516 Z" id="Path-6" fill="url(#linearGradient-8)" fill-rule="nonzero"></path>
                    <path d="M140.013058,22.8154652 L140.549097,27.7798962 C131.115042,28.7985473 121.354987,30.5929539 111.268983,33.1642686 L110.764411,33.2934818 C100.201633,36.0105392 91.7785727,36.9583608 85.4300008,36.0912006 L85.2382547,36.0643674 L85.9466228,31.121582 C91.4958113,31.9168558 99.2748467,31.0698948 109.2185,28.534953 L109.520485,28.4576198 C119.841057,25.802865 129.843899,23.9393931 139.529064,22.8683567 L140.013058,22.8154652 Z" id="Path-7" fill="url(#linearGradient-9)" fill-rule="nonzero" transform="translate(112.893676, 29.609013) rotate(2.000000) translate(-112.893676, -29.609013) "></path>
                    <path d="M147.858429,15.0609504 L147.894501,18.9840813 C137.755151,19.0773093 127.22354,21.2982803 116.293194,25.6583222 L115.961849,25.7910994 C104.53482,30.3910531 94.4362441,32.2903136 85.658124,31.4502824 L85.3925245,31.4239883 L85.7918388,27.5210656 C93.850204,28.34553 103.311384,26.6125726 114.167379,22.2835949 L114.496776,22.1516191 C125.869576,17.5734955 136.884737,15.2073788 147.535781,15.0645965 L147.858429,15.0609504 Z" id="Path-8" fill="url(#linearGradient-10)" fill-rule="nonzero" transform="translate(116.643513, 23.352288) rotate(2.000000) translate(-116.643513, -23.352288) "></path>
                    <path d="M155.887784,3.16225279 L156.071243,11.1850807 C144.460743,11.4505784 131.993661,14.1354974 118.667782,19.264177 L118.263705,19.4203395 C103.970322,24.9671132 92.7440994,27.3820608 84.4032845,26.5567941 L84.1514156,26.5307941 L85.0094992,18.551877 C91.7652915,19.2784211 101.809702,17.1617518 114.960976,12.0934812 L115.36045,11.9389936 C129.524626,6.44236083 142.907294,3.5118383 155.506238,3.1717651 L155.887784,3.16225279 Z" id="Path-9" fill="url(#linearGradient-11)" fill-rule="nonzero"></path>
                    <rect id="Rectangle" fill="url(#linearGradient-12)" x="72.3419597" y="18.408562" width="15.5148554" height="37.0929876" rx="2"></rect>
                </g>
                <ellipse id="Oval" fill="#8C8C8C" filter="url(#filter-13)" cx="102" cy="102.538462" rx="46" ry="1"></ellipse>
            </g>
        </g>
    </g>
</svg>