<?xml version="1.0" encoding="UTF-8"?>
<svg width="204px" height="117px" viewBox="0 0 204 117" version="1.1" xmlns="http://www.w3.org/2000/svg" xmlns:xlink="http://www.w3.org/1999/xlink">
    <title>1FC47EA7-65D6-4DED-B483-C86A8C0E2F0A</title>
    <defs>
        <filter x="-15.2%" y="-1399.7%" width="130.4%" height="2899.4%" filterUnits="objectBoundingBox" id="filter-1">
            <feGaussianBlur stdDeviation="4.66560025" in="SourceGraphic"></feGaussianBlur>
        </filter>
    </defs>
    <g id="Page-1" stroke="none" stroke-width="1" fill="none" fill-rule="evenodd">
        <g id="assets-homepage" transform="translate(-734.000000, -354.000000)">
            <g id="icon-fi" transform="translate(734.000000, 354.000000)">
                <rect id="Rectangle-Copy-3" fill-opacity="0" fill="#D8D8D8" x="0" y="0" width="204" height="108"></rect>
                <g id="icon/fi" transform="translate(62.000000, 4.000000)">
                    <g id="fill" transform="translate(0.115328, 0.115005)">
                        <path d="M25.5495099,14.9253254 C16.9471362,19.8751404 11.1462842,29.1468431 11.1048824,39.7733047 L-8.17159643e-15,39.7733047 C0.0414017985,25.0273642 8.0825511,12.1629054 20.0154695,5.2925069 L25.5495099,14.9253254 Z" id="Fill-1" fill="#E3FBF1"></path>
                        <path d="M59.3402087,5.05791971 L53.8199689,14.6999386 C49.6915196,12.4113391 44.9395132,11.1071825 39.8836635,11.1071825 C34.6647368,11.1071825 29.7701242,12.4964428 25.5494409,14.9253484 L20.0154005,5.29252991 C25.8645545,1.92518363 32.6475492,3.26863857e-14 39.8836635,3.26863857e-14 C46.9495705,3.26863857e-14 53.5853587,1.83777983 59.3402087,5.05791971" id="Fill-3" fill="#18D2B5"></path>
                        <path d="M79.7697652,39.7732587 L68.6625827,39.7732587 C68.6211809,28.98349 62.6409211,19.5921821 53.8200379,14.6998696 L59.3402777,5.05785071 C71.4986059,11.8661465 79.7283634,24.8571108 79.7697652,39.7732587" id="Fill-5" fill="#B2ECE3"></path>
                        <path d="M79.7697652,39.7732587 L79.7697652,39.8859636 C79.7697652,54.6804363 71.7148153,67.5906671 59.7542957,74.4771663 L54.2202553,64.8443478 C62.8525303,59.876132 68.6625827,50.5607273 68.6625827,39.8859636 L68.6625827,39.7732587 L79.7697652,39.7732587 Z" id="Fill-7" fill="#FCE5E3"></path>
                        <path d="M59.7544107,74.4771433 C53.9029565,77.8447195 47.1197319,79.7696732 39.8836175,79.7696732 L39.7274407,79.7696732 L39.7274407,68.6647908 L39.8836175,68.6647908 C45.1027742,68.6647908 49.999687,67.2755304 54.2201403,64.8443248 L59.7544107,74.4771433 Z" id="Fill-9" fill="#FEEEED"></path>
                        <path d="M25.2275189,64.6581547 L19.7095792,74.2978735 C7.91696691,67.3699725 2.30009991e-05,54.5535858 2.30009991e-05,39.8860786 L2.30009991e-05,39.7733737 L11.1049054,39.7733737 L11.1049054,39.8860786 C11.1049054,50.4274365 16.7723516,59.6437069 25.2275189,64.6581547" id="Fill-11" fill="#A4EECC"></path>
                        <path d="M68.6625827,39.7732587 L57.7693095,39.7732587 C57.7302078,33.0270657 53.9534437,27.1687112 48.4079028,24.1578804 L53.8200379,14.6998696 C62.6409211,19.5921821 68.6211809,28.98349 68.6625827,39.7732587" id="Fill-13" fill="#09AC8E"></path>
                        <path d="M30.639608,55.202352 L25.2274729,64.6580627 C16.7723056,59.6438449 11.1048594,50.4273445 11.1048594,39.8859866 L11.1048594,39.7732817 L22.0004327,39.7732817 C21.9981326,39.8100833 21.9981326,39.849185 21.9981326,39.8859866 C21.9981326,46.3814688 25.459783,52.0673158 30.639608,55.202352" id="Fill-15" fill="#D6F0EC"></path>
                        <path d="M30.9754226,24.3741588 C25.6414909,27.4424921 22.0395344,33.1858416 22.0004327,39.7733277 L11.1048594,39.7733277 C11.1462612,29.1468661 16.9471132,19.8751634 25.5494869,14.9253484 L30.9754226,24.3741588 Z" id="Fill-17" fill="#D6F0EC"></path>
                        <path d="M39.7273717,57.7693095 L39.7273717,68.6648828 C34.4325417,68.6372816 29.4781265,67.1790182 25.2275419,64.6581087 L30.639677,55.202398 C33.2962924,56.8078677 36.4037274,57.7417083 39.7273717,57.7693095" id="Fill-19" fill="#FEE1DF"></path>
                        <path d="M68.6625827,39.7732587 L68.6625827,39.8859636 C68.6625827,50.5607273 62.8525303,59.876132 54.2202553,64.8443478 L48.7943196,55.3978375 C54.1604527,52.3111034 57.7716096,46.5194518 57.7716096,39.8859636 C57.7716096,39.849162 57.7716096,39.8100603 57.7693095,39.7732587 L68.6625827,39.7732587 Z" id="Fill-21" fill="#FDBCB7"></path>
                        <path d="M54.2202323,64.8443478 C49.999549,67.2755534 45.1026362,68.6648138 39.8837095,68.6648138 L39.7273027,68.6648138 L39.7273027,57.7692405 C39.780205,57.7715406 39.8308072,57.7715406 39.8837095,57.7715406 C43.1270804,57.7715406 46.1698826,56.9090031 48.7942966,55.3978375 L54.2202323,64.8443478 Z" id="Fill-23" fill="#FEC2BD"></path>
                        <path d="M57.7716786,39.8860326 C57.7716786,46.5195208 54.1605217,52.3111724 48.7943886,55.3976765 C46.1699746,56.9090721 43.1269424,57.7716096 39.8835715,57.7716096 C39.8308992,57.7716096 39.780297,57.7716096 39.7273947,57.7693095 C36.4037504,57.7417083 33.2963154,56.8078677 30.6397,55.202398 C25.459875,52.0673618 21.9982246,46.3815148 21.9982246,39.8860326 C21.9982246,39.849231 21.9982246,39.8101293 22.0002947,39.7733277 C22.0393964,33.1858416 25.6415829,27.4424921 30.9755146,24.3741588 C33.5973985,22.8629932 36.6406607,21.9981556 39.8835715,21.9981556 C42.9682355,21.9981556 45.8732617,22.7801896 48.4079718,24.1579494 C53.9532827,27.1687802 57.7300468,33.0271347 57.7691485,39.7733277 C57.7716786,39.8101293 57.7716786,39.849231 57.7716786,39.8860326" id="Fill-25" fill="#FFFFFF"></path>
                        <path d="M53.8199689,14.6999386 L48.4080638,24.1579494 C45.8731237,22.7801896 42.9680975,21.9981556 39.8836635,21.9981556 C36.6407527,21.9981556 33.5974905,22.8629932 30.9753766,24.3741588 L25.5494409,14.9253484 C29.7701242,12.4964428 34.6647368,11.1071825 39.8836635,11.1071825 C44.9395132,11.1071825 49.6915196,12.4113391 53.8199689,14.6999386" id="Fill-27" fill="#09AC8E"></path>
                        <path d="M39.7273717,68.6649058 L39.7273717,79.7695582 C32.4245545,79.742187 25.5863575,77.7503004 19.7096022,74.2978505 L25.2275419,64.6581317 C29.4781265,67.1790412 34.4325417,68.6373046 39.7273717,68.6649058" id="Fill-29" fill="#FEF0EF"></path>
                    </g>
                    <g id="outline" transform="translate(-0.000000, 0.000000)" fill="#FFFFFF" fill-rule="nonzero">
                        <path d="M25.8218086,15.0826938 L20.1731749,5.25040871 L20.0734148,5.30784574 C7.78827043,12.3810389 0.0408476723,25.4547355 0.000323803157,39.8879868 L-1.04596434e-13,40.0033147 L11.3347685,40.0033147 L11.3352149,39.8887578 C11.3754661,29.5575952 16.927744,20.2003481 25.7221949,15.1400116 L25.8218086,15.0826938 Z M20.088706,5.56509175 L25.5082014,14.9982615 L25.3425198,15.0949699 C16.7192793,20.1783471 11.2565303,29.3896259 11.1080884,39.5757407 L11.1061258,39.7730977 L0.231023371,39.7730977 L0.230332888,39.8886326 C0.270221158,25.6817605 7.82014779,12.7999411 19.8230952,5.71994296 L20.088706,5.56509175 Z" id="Fill-1"></path>
                        <path d="M39.9989919,2.288047e-14 C46.845099,2.288047e-14 53.4422461,1.72246019 59.3050769,4.95774854 L59.5116947,5.07256301 L59.4553761,5.1726947 L59.5553424,5.23006519 L53.9787449,14.9705223 L53.8795387,14.9155275 C49.6671513,12.5803972 44.9226525,11.3371925 39.9989919,11.3371925 C34.9938398,11.3371925 30.1760279,12.6216897 25.915411,15.0297986 L25.6223803,15.1974359 L19.9737712,5.36519367 L20.0733499,5.30786642 C26.084507,1.8472553 32.905459,2.288047e-14 39.9989919,2.288047e-14 Z M39.9989919,0.230009992 C33.027071,0.230009992 26.3205122,2.02458249 20.3945113,5.38919663 L20.2878946,5.45008675 L25.7073901,14.8834865 L25.8022418,14.8295554 C30.0320789,12.4388448 34.806863,11.1466814 39.7698009,11.1080737 L39.9989919,11.1071825 C44.8855715,11.1071825 49.5975546,12.3221681 53.7946933,14.6064989 L53.8914344,14.6594568 L59.2975892,5.21685662 L59.1915325,5.15779829 C53.4324937,1.98030604 46.9610676,0.270985324 40.2419583,0.230737537 L39.9989919,0.230009992 Z" id="Fill-3"></path>
                        <path d="M59.4124008,5.01685377 L59.5117956,5.07251186 C71.9014652,12.0103519 79.8004502,25.0221946 79.9965177,39.4503005 L80.0000981,39.8879445 L79.8848635,39.8883327 L79.8850935,40.0032687 L68.6633465,40.0032687 L68.6629069,39.888705 C68.6230477,29.5009736 63.0086902,20.1051974 54.149051,15.0667884 L53.8795862,14.9154466 L53.7776392,14.8589039 L59.4124008,5.01685377 Z M59.4983879,5.32910149 L54.0926931,14.7712417 L54.2627668,14.8668551 C63.103074,19.8942742 68.7380703,29.2259311 68.88998,39.5708289 L68.891766,39.7730977 L79.7691685,39.7730977 L79.7665292,39.4534525 C79.5735589,25.253118 71.875947,12.4327695 59.7713391,5.48407577 L59.4983879,5.32910149 Z" id="Fill-5"></path>
                        <path d="M80.0000985,39.7732587 L68.662906,39.7732587 L68.662906,40.0009686 C68.662906,50.3755972 63.1067152,59.7785272 54.2782166,64.8596775 L54.1786192,64.9169997 L59.8272477,74.7492758 L59.9270083,74.6918367 C72.2455154,67.5992193 80.0000985,54.4767288 80.0000985,40.0009686 L80.0000985,39.7732587 Z M79.7698585,40.0031077 L79.7677787,40.4323394 C79.616975,54.5102926 72.09202,67.2511708 60.1783128,74.2791527 L59.9114859,74.4344534 L54.4922205,65.0010536 L54.6589323,64.9040707 C63.3151909,59.7996545 68.781687,50.5434798 68.8912381,40.3144041 L68.892686,40.0031077 L79.7698585,40.0031077 Z" id="Fill-7"></path>
                        <path d="M60.0267065,74.6345024 L54.377831,64.802205 L54.2780631,64.8596766 C49.972003,67.3401963 45.0818225,68.6647908 39.9989459,68.6647908 L39.7277641,68.6647908 L39.7277641,79.9996832 L39.9989459,79.9996832 C47.0119242,79.9996832 53.7585908,78.1943729 59.7217878,74.8091814 L60.0267065,74.6345024 Z M54.2928018,65.1160586 L59.7125272,74.5494584 L59.6058919,74.6104855 C53.7465939,77.9361711 47.1267937,79.7277311 40.2420462,79.7689457 L39.9576591,79.7695352 L39.9576591,68.8946628 L39.9989459,68.8948008 C45.0470347,68.8948008 49.907078,67.5984778 54.2009891,65.1685431 L54.2928018,65.1160586 Z" id="Fill-9"></path>
                        <path d="M11.3352387,39.7733737 L11.3352387,40.0010836 C11.3352387,50.1403649 16.6431279,59.3577674 25.1429658,64.5190836 L25.4015115,64.6742423 L25.3428242,64.7731137 L25.442657,64.8302925 L19.8669369,74.5709523 L19.7666535,74.512038 C7.74083422,67.4471331 0.153179478,54.6107859 0.00262896461,40.4311754 L0.000346350865,40.0010836 L0.000346350865,39.7733737 L11.3352387,39.7733737 Z M11.1052057,40.0033377 L0.230333341,40.0033377 L0.232625808,40.4287058 C0.380797202,54.384487 7.77461237,67.0313395 19.5221851,74.099106 L19.7830227,74.2543556 L25.1868774,64.8135955 L25.0235705,64.715678 C16.5423274,59.5656478 11.213649,50.4088944 11.1068643,40.3105088 L11.1052057,40.0033377 Z" id="Fill-11"></path>
                        <path d="M53.8919089,14.6592626 L53.9911464,14.7143025 C62.9875031,19.7039377 68.7365202,29.1203709 68.88998,39.5708289 L68.8929152,39.8878224 L68.777681,39.8881027 L68.777911,40.0032687 L57.7702975,40.0032687 L57.7696348,39.8889303 C57.7320783,33.4093383 54.1933657,27.5612939 48.6373381,24.46688 L48.4683577,24.3739549 L48.3650036,24.3178411 L53.8919089,14.6592626 Z M53.9783781,14.9708903 L48.681018,24.2283325 L48.7492664,24.2659405 C54.3201695,27.3686435 57.8889741,33.2047625 57.9974041,39.6889029 L57.9982628,39.7730977 L68.661756,39.7730977 L68.6599951,39.5742324 C68.5092953,29.3116045 62.9191989,20.0543044 54.149051,15.0667884 L53.9783781,14.9708903 Z" id="Fill-13"></path>
                        <path d="M11.1051827,39.7732817 L22.2381782,39.7732817 L22.2293985,39.9193217 L22.2284659,40.0009916 C22.2284659,46.2323402 25.4610443,51.9040557 30.6564485,55.1222025 L30.8144845,55.2189692 L30.7547293,55.317403 L30.8547483,55.374486 L25.3845957,64.9315608 L25.2841389,64.8719863 C16.6516542,59.7526129 11.2146943,50.5119335 11.1068183,40.3104193 L11.1051827,40.0009916 L11.1051827,39.7732817 Z M21.9982489,40.0031077 L11.3349857,40.0031077 L11.3368153,40.3079597 C11.4427501,50.3261542 16.729017,59.4100862 25.1429202,64.5189988 L25.3011924,64.6139468 L30.5994726,55.3569647 L30.5353152,55.3177308 C25.3261004,52.0910239 22.0648101,46.4286631 21.9994569,40.1920847 L21.9982489,40.0031077 Z" id="Fill-15"></path>
                        <path d="M31.2477089,24.5315496 L25.7072264,14.8832655 L25.6074585,14.9406721 C16.7426462,20.0414945 11.1457575,29.4739244 11.1051836,39.8878847 L11.1047338,40.0033377 L22.2300854,40.0033377 L22.230764,39.8890154 C22.2686859,33.5002866 25.7083257,27.7180685 31.1480962,24.5888517 L31.2477089,24.5315496 Z M25.6227464,15.1979102 L30.9341371,24.447072 L30.8687149,24.4853686 C25.5087613,27.6440644 22.107986,33.3639939 22.0029428,39.6936953 L22.0019291,39.7733277 L11.3361358,39.7733277 L11.3351919,39.8887808 C11.3750406,29.6609299 16.8172266,20.3876134 25.4593133,15.2931305 L25.6227464,15.1979102 Z" id="Fill-17"></path>
                        <path d="M30.7136952,55.1580635 L30.8144879,55.2189755 C33.4693635,56.8233938 36.501257,57.7093319 39.6644669,57.7669381 L39.8436551,57.7693134 L39.8426541,57.8843145 L39.9577051,57.8843145 L39.9577051,68.8954938 L39.8421006,68.8948912 C34.7225393,68.8682037 29.8033758,67.506781 25.4747879,64.9840792 L25.2842052,64.8720307 L25.1868056,64.8142655 L30.7136952,55.1580635 Z M30.7965911,55.4761099 L25.499231,64.7314819 L25.5905965,64.7853508 C29.8214768,67.2511104 34.6209191,68.5984387 39.6193572,68.6628578 L39.7276491,68.6637327 L39.7276491,57.9977094 L39.6602484,57.9969094 C36.5167298,57.939657 33.5007938,57.0746338 30.8481549,55.5070469 L30.7965911,55.4761099 Z" id="Fill-19"></path>
                        <path d="M68.892916,39.7732587 L57.7622206,39.7732587 L57.7710003,39.9192987 L57.7717973,39.9573426 L57.7719329,40.0009686 C57.7719329,46.4331204 54.3261364,52.2644684 48.8523044,55.4131536 L48.7526785,55.4704609 L54.2931889,65.116445 L54.3929507,65.0590281 C63.2920631,59.9372368 68.892916,50.4587235 68.892916,40.0009686 L68.892916,39.7732587 Z M68.662676,40.0031077 L68.6612415,40.3119126 C68.5525639,50.459675 63.1296552,59.6420439 54.5420876,64.7059498 L54.3774455,64.801635 L49.0662848,55.5545433 L49.1327082,55.5160384 C54.5258995,52.3374423 57.9326247,46.5690943 58.0008972,40.1962426 L58.0017129,40.0031077 L68.662676,40.0031077 Z" id="Fill-21"></path>
                        <path d="M54.4924959,65.0016747 L48.952008,55.3557299 L48.8522376,55.4131788 C46.2330442,56.9213384 43.2670509,57.7397127 40.1807236,57.7706308 L39.9221122,57.7712602 L39.8476266,57.769349 L39.7276261,57.7641316 L39.7276261,68.8948238 L39.9990379,68.8948238 C45.0468996,68.8948238 49.9069284,67.5985039 54.2010683,65.1685675 L54.4924959,65.0016747 Z M48.8668661,55.6693183 L54.1782568,64.9164099 L54.0849491,64.9699934 C49.8903696,67.3429597 45.1517568,68.6256058 40.2264892,68.6639291 L39.9574291,68.6646528 L39.9574291,58.0013896 L39.9990379,58.0015506 C43.1297576,58.0015506 46.1436211,57.2018823 48.8105368,55.7015673 L48.8668661,55.6693183 Z" id="Fill-23"></path>
                        <path d="M58.0009662,40.1963126 C57.9319964,46.6342261 54.456063,52.4551939 48.9671109,55.6123413 C46.3140463,57.1402368 43.3091491,57.9693731 40.1829331,58.0009376 L39.8938073,58.0009376 L39.8417681,57.9993155 C36.5723397,57.9721645 33.4356083,57.0717298 30.6954801,55.4157908 C25.3930821,52.2065685 22.0655689,46.4923477 21.9995489,40.1921307 L21.9988174,39.9431171 L21.9998296,39.9028402 C22.0000625,39.8971217 22.0003266,39.8920057 22.0006201,39.8876501 C22.039032,33.4163628 25.5234182,27.5591379 31.033414,24.3895241 C33.7375183,22.8309694 36.8087039,21.9981556 39.9988999,21.9981556 C43.0362242,21.9981556 45.9668157,22.7524625 48.5781754,24.1718858 C54.3041262,27.2807952 57.9610535,33.2579784 57.999211,39.8804448 L58.0007987,39.9102628 L58.0019502,39.9675598 L58.0009662,40.1963126 Z M57.7720019,40.0010376 L57.7712687,39.9280672 L57.7694738,39.8889993 C57.7315383,33.3440107 54.1214062,27.4433135 48.4683776,24.3739973 C45.8904786,22.9727618 42.9976147,22.2281656 39.9988999,22.2281656 C36.8492923,22.2281656 33.817674,23.0502499 31.1481882,24.5888517 C25.7083345,27.7181163 22.2685474,33.5003707 22.2304465,39.8947916 L22.2294045,39.918935 L22.2285579,39.957293 L22.2285579,40.0010376 C22.2285579,46.2953292 25.5267708,52.0186247 30.8145109,55.2189755 C33.5194785,56.8536658 36.6158252,57.7425077 39.8477186,57.769418 L39.8983928,57.7709721 L39.9988999,57.7716096 C43.1506315,57.7716096 46.1819377,56.9508921 48.8523766,55.4129907 C54.3261737,52.2645603 57.7720019,46.4332216 57.7720019,40.0010376 Z" id="Fill-25"></path>
                        <path d="M39.9989919,11.1071825 C44.8855715,11.1071825 49.5975546,12.3221681 53.7946933,14.6064989 L53.9910558,14.7143596 L53.9351363,14.8149436 L54.0351162,14.8720603 L48.5673309,24.4277292 L48.4684734,24.3739994 C45.8903325,22.9727595 42.9974774,22.2281656 39.9989919,22.2281656 C36.9099829,22.2281656 33.9344435,23.0189192 31.3025493,24.5008375 L31.0483331,24.6463202 L25.507821,14.9979847 L25.6074068,14.9406753 C29.9500222,12.4416008 34.8774678,11.1071825 39.9989919,11.1071825 Z M39.9989919,11.3371925 C34.9938398,11.3371925 30.1760279,12.6216897 25.915411,15.0297986 L25.821935,15.0831352 L31.1333258,24.332527 L31.1897062,24.3004104 C33.803538,22.8286639 36.7521004,22.0298394 39.8150777,21.9990788 L39.9989919,21.9981556 C42.9741039,21.9981556 45.8470052,22.7219857 48.4180175,24.0858362 L48.4790692,24.1186177 L53.7771194,14.8593355 L53.6847443,14.8085281 C49.5861809,12.5778466 44.9928486,11.3751154 40.2261092,11.3380747 L39.9989919,11.3371925 Z" id="Fill-27"></path>
                        <path d="M19.6686281,74.454414 L25.3010811,64.6146431 L25.4015353,64.6742198 C29.6782542,67.2106288 34.5463155,68.5975002 39.6193572,68.6628808 L39.8432996,68.6649073 L39.8426541,68.7798878 L39.9577051,68.7799108 L39.9577051,80 L39.842269,79.9995673 C32.766196,79.973046 25.9631633,78.1041997 19.970652,74.6310395 L19.7666767,74.5120151 L19.6686281,74.454414 Z M25.384916,64.9311306 L19.9812913,74.3709706 L20.0882921,74.4333718 C25.9772215,77.8459727 32.65311,79.7002801 39.6006652,79.7679244 L39.7276491,79.7686151 L39.7276491,68.8937427 L39.6163689,68.8928714 C34.5779858,68.8279337 29.7397201,67.4697054 25.4747879,64.9841022 L25.384916,64.9311306 Z" id="Fill-29"></path>
                    </g>
                </g>
                <ellipse id="Oval" fill="#8C8C8C" filter="url(#filter-1)" cx="102" cy="102.5" rx="46" ry="1"></ellipse>
            </g>
        </g>
    </g>
</svg>