<?xml version="1.0" encoding="UTF-8"?>
<svg version="1.1" viewBox="0 0 204 118" xmlns="http://www.w3.org/2000/svg">
<defs>
<linearGradient id="b" x1="9.6954%" y1="50%" y2="50%">
<stop stop-color="#ACFECB" offset="0"/>
<stop stop-color="#66CE9C" offset="1"/>
</linearGradient>
<linearGradient id="f" y1="50%" y2="50%">
<stop stop-color="#ACFECB" offset="0"/>
<stop stop-color="#66CE9C" offset="1"/>
</linearGradient>
<linearGradient id="e" x1="3.6441%" x2="88.402%" y1="44.578%" y2="46.637%">
<stop stop-color="#FE82D8" offset="0"/>
<stop stop-color="#FFCFD0" offset="1"/>
</linearGradient>
<linearGradient id="a" x1="19.418%" x2="88.402%">
<stop stop-color="#FE82D8" offset="0"/>
<stop stop-color="#FFCFD0" offset="1"/>
</linearGradient>
<linearGradient id="d" x1="14.939%" x2="88.402%" y1="50.586%" y2="49.414%">
<stop stop-color="#FE82D8" offset="0"/>
<stop stop-color="#FFCFD0" offset="1"/>
</linearGradient>
<linearGradient id="c" x1="16.02%" x2="88.402%" y1="52.237%" y2="46.983%">
<stop stop-color="#FE82D8" offset="0"/>
<stop stop-color="#FFCFD0" offset="1"/>
</linearGradient>
<linearGradient id="h" x1="16.778%" x2="88.402%" y1="50.691%" y2="46.48%">
<stop stop-color="#FE82D8" offset="0"/>
<stop stop-color="#FFCFD0" offset="1"/>
</linearGradient>
<linearGradient id="g" x1="50%" x2="50%" y2="100%">
<stop stop-color="#DEF2F2" offset="0"/>
<stop stop-color="#EFF8F7" offset="1"/>
</linearGradient>
<filter id="i" x="-15.2%" y="-1299.7%" width="130.4%" height="2699.4%">
<feGaussianBlur in="SourceGraphic" stdDeviation="4.66560025"/>
</filter>
</defs>
<g fill="none" fill-rule="evenodd">
<g transform="translate(-74 -354)">
<g transform="translate(74 354)">
<rect id="j" width="204" height="108" fill="#D8D8D8" fill-opacity="0"/>
<g transform="translate(24 10)">
<path d="m42.307 58.908c10.412-4.8327 20.78-6.8874 31.085-6.1522l0.31226 0.023134-0.19124 2.4893c-9.8692-0.75819-19.814 1.1591-29.851 5.764l-0.30417 0.14036c-10.392 4.8234-19.875 7.0976-28.449 6.8019l-0.25954-0.0097491 0.10137-2.4946c8.1281 0.33031 17.212-1.8032 27.252-6.4214l0.30451-0.14071z" fill="url(#b)" fill-rule="nonzero"/>
<path transform="translate(47.635 54.269) rotate(-2) translate(-47.635 -54.269)" d="m44.359 51.439c8.0796-3.1205 17.795-4.1186 29.137-3.0295l0.34418 0.03364-0.45885 4.6139c-10.704-1.0645-19.743-0.17881-27.128 2.6218l-0.22328 0.085454c-7.9608 3.0746-16.057 4.6717-24.276 4.7861l-0.27709 0.0032942-0.045716-4.6364c7.6635-0.075563 15.216-1.5333 22.668-4.3784l0.25993-0.099811z" fill="url(#b)" fill-rule="nonzero"/>
<path transform="translate(45.052 46.927) rotate(-2) translate(-45.052 -46.927)" d="m41.345 44.441c9.3742-1.7909 19.735-2.2196 31.083-1.2936l0.35493 0.029381-0.37295 4.4427c-10.983-0.92203-20.965-0.53725-29.945 1.147l-0.28325 0.053618c-0.20926 0.039979-0.41796 0.079451-0.62611 0.11842l-0.62275 0.11538c-0.20702 0.037953-0.41349 0.075399-0.6194 0.11234l-0.61604 0.1093c-0.10239 0.017963-0.20465 0.0358-0.30676 0.05351l-0.61101 0.10474c-0.60933 0.10322-1.2136 0.20188-1.8129 0.29597l-0.5976 0.092572c-0.19864 0.03035-0.39673 0.060193-0.59425 0.089529l-0.5909 0.086485c-0.19641 0.028321-0.39226 0.056135-0.58755 0.083441l-0.5842 0.080397c-0.097088 0.013146-0.19404 0.026165-0.29085 0.039057l-0.57918 0.075829c-0.57751 0.074307-1.15 0.14404-1.7175 0.20921l-0.56579 0.063644c-2.5385 0.27954-4.9755 0.4665-7.311 0.56068l-0.51734 0.019402c-1.8908 0.06554-3.7143 0.069471-5.4707 0.01168l-0.23909-0.0082631 0.16139-4.4554c2.1147 0.076603 4.3417 0.057446 6.6807-0.057701l0.50293-0.026144c0.67285-0.036818 1.3548-0.081472 2.046-0.13397l0.52006-0.040844c0.52177-0.042314 1.0487-0.089041 1.5807-0.14018l0.53376-0.052613c0.62472-0.063098 1.2564-0.13221 1.8951-0.20733l0.54916-0.065862c0.36725-0.04489 0.73677-0.091744 1.1086-0.14056l0.55942-0.074701c0.56113-0.076175 1.1274-0.15677 1.6988-0.24179l0.57309-0.086493c0.479-0.073306 0.96156-0.14969 1.4477-0.22914l0.58505-0.096818 0.58846-0.099769c0.098361-0.016874 0.19686-0.033871 0.29551-0.050991l0.59358-0.1042c0.099215-0.017612 0.19857-0.035347 0.29807-0.053205l0.5987-0.10863c0.3002-0.055051 0.60169-0.11121 0.90445-0.16847l0.30319-0.057635z" fill="url(#b)" fill-rule="nonzero"/>
<path d="m0 0.64703c18.172-2.1906 34.612 1.1775 48.868 10.16 9.7838 6.1644 18.473 8.5849 26.278 7.6907l0.23623-0.02811 2.7962 22.655c-13.387 1.6523-27.142-2.0709-41.057-10.74l-0.42171-0.26422c-9.588-6.0411-20.633-8.3446-33.575-6.8565l-0.39276 0.046256-2.7319-22.662z" fill="url(#f)" fill-rule="nonzero"/>
<path id="k" transform="translate(117.31 54.788) rotate(-1) translate(-117.31 -54.788)" d="m86.286 46.822c7.3987-0.52408 17.894 1.4997 31.58 6.0347l0.4157 0.13819c13.224 4.4104 23.028 6.1815 29.281 5.3721l0.18842-0.025317 0.59074 4.239c-6.9837 0.97324-17.273-0.84205-30.998-5.3871l-0.41694-0.13856c-13.268-4.4248-23.344-6.4051-30.134-5.9775l-0.20476 0.013696-0.30241-4.2693z" fill="url(#e)" fill-rule="nonzero"/>
<path d="m86.355 52.793c7.244-0.51313 17.628 1.4895 31.203 5.9879l0.41235 0.13708c13.355 4.4539 23.285 6.2479 29.721 5.4139l0.19397-0.026078 0.31999 2.2961c-6.8 0.94764-16.962-0.84545-30.556-5.3474l-0.41298-0.13725c-13.378-4.4617-23.565-6.4637-30.509-6.0257l-0.20943 0.014018-0.16381-2.3125z" fill="url(#a)" fill-rule="nonzero"/>
<path d="m80.977 42.646c3.9863-2.088 13.373-2.1088 28.928-0.33247l1.8187 0.20886 0.88172 0.10005 1.2997 0.14565 0.85118 0.09416 1.2539 0.13683 0.82061 0.088277 0.80836 0.085924 1.1896 0.12447 0.77772 0.080043 1.1436 0.11565 0.74704 0.074164 0.73476 0.071812 1.0791 0.10331 0.70402 0.065936 1.0329 0.094496 1.0052 0.08921 0.65474 0.056536 0.64241 0.054187 0.94047 0.076876 0.61154 0.048315 0.59918 0.045967 0.58681 0.043619 0.57444 0.041272 0.56206 0.038924 0.54967 0.036577c0.090578 0.0059007 0.18064 0.011704 0.27019 0.017409l0.53107 0.033057c0.087479 0.005314 0.17444 0.01053 0.26089 0.015649l0.51246 0.029538 0.50005 0.027192 0.48763 0.024846c0.080236 0.0039456 0.15995 0.0077935 0.23915 0.011544l0.46898 0.021328 0.45654 0.018983 0.4441 0.016639c0.072978 0.0025777 0.14544 0.0050577 0.21738 0.0074401l0.42541 0.013122 0.41295 0.010778 0.40048 0.0084343c0.065707 0.0012104 0.1309 0.0023232 0.19556 0.0033383l0.38176 0.0049193 0.36928 0.0025761c0.18152 7.024e-4 0.35835 5.263e-4 0.53049-5.283e-4l0.33803-0.0032802c0.33177-0.0044512 0.64478-0.012416 0.93899-0.023892l0.14554-0.0060308 0.22692 5.1666c-0.51667 0.022693-1.0837 0.035334-1.7012 0.037929l-0.37655 3.513e-4 -0.38867-0.0020594-0.4008-0.0044701-0.41294-0.0068803c-0.069834-0.0013475-0.14018-0.0027955-0.21102-0.0043439l-0.43115-0.010495c-0.072871-0.00195-0.14625-0.0040004-0.22013-0.0061512l-0.44938-0.014109-0.46155-0.016519c-0.077938-0.0029538-0.15638-0.0060081-0.23534-0.0091626l-0.4798-0.020132-0.49198-0.02254c-0.083013-0.0039574-0.16653-0.0080152-0.25056-0.012173l-0.51027-0.026152c-0.086061-0.0045594-0.17263-0.0092191-0.25971-0.013979l-0.52856-0.029764c-0.17822-0.010323-0.35848-0.021046-0.54077-0.032171l-0.55299-0.034578c-0.093183-0.0059637-0.18688-0.012028-0.28108-0.018192l-0.57132-0.038188-0.58355-0.040595-0.59579-0.043001-0.60804-0.045407-0.62029-0.047812-0.63255-0.050218-0.97182-0.079836-0.66323-0.05623-0.67551-0.058634-0.6878-0.061038-0.7001-0.063442-1.0732-0.099669-1.1009-0.10508-0.74935-0.073054-0.76168-0.075456-1.1657-0.11769-1.1934-0.12309-0.81108-0.085063-1.2398-0.1321-1.2677-0.1375-1.2955-0.1429-0.87918-0.098265-1.342-0.1519-1.37-0.15729c-0.87847-0.10156-1.7369-0.19702-2.575-0.28646l-0.83141-0.087423-0.81788-0.083414c-12.031-1.2076-19.584-1.0966-22.101 0.13719l-0.082928 0.042012-2.3996-4.5812z" fill="url(#a)" fill-rule="nonzero"/>
<path d="m147.93 33.846 0.068106 5.1712c-10.442 0.13753-21.164 0.50246-32.165 1.0948l-1.3224 0.071988-0.69897 0.037076-0.69493 0.035498-0.69088 0.03392-1.0287 0.04792-0.68077 0.029974-0.67672 0.028395-0.67268 0.026816-0.66864 0.025236-0.6646 0.023657-0.66056 0.022077c-0.10976 0.0035479-0.21934 0.00703-0.32876 0.010446l-0.65449 0.019708-0.65045 0.018128c-0.10807 0.0028896-0.21598 0.0057133-0.32371 0.0084712l-0.64439 0.015757c-0.10706 0.0024945-0.21396 0.0049231-0.32068 0.0072859l-0.63833 0.013386-0.63429 0.011805c-0.10538 0.0018358-0.21059 0.0036057-0.31563 0.0053097l-0.62823 0.0094338-0.6242 0.0078524-0.62016 0.0062709-0.61612 0.0046892-0.61208 0.0031074-0.60805 0.0015252h-0.60401l-0.59998-0.0016964-0.59594-0.003222-0.59191-0.0048049-0.58787-0.006388c-0.097643-0.0011965-0.19512-0.0024591-0.29242-0.0037876l-0.58182-0.0087628c-0.096635-0.0015924-0.1931-0.0032508-0.2894-0.0049752l-0.57578-0.011138c-0.095627-0.0019883-0.19109-0.0040426-0.28638-0.0061629l-0.56973-0.013514c-0.094619-0.0023843-0.18907-0.0048346-0.28335-0.0073509l-0.56368-0.01589c-0.093611-0.0027804-0.18705-0.0056267-0.28033-0.0085391l-0.55764-0.018267c-0.092603-0.0031765-0.18504-0.006419-0.27731-0.0097275l-0.55159-0.020644c-0.091596-0.0035727-0.18302-0.0072114-0.27428-0.010916l-0.54555-0.023021-0.54152-0.024606-0.53749-0.026192-0.53346-0.027777c-0.088575-0.0047617-0.17698-0.0095895-0.26522-0.014483l-0.52742-0.030156-0.52339-0.031742-0.51937-0.033328-0.51534-0.034915c-0.085555-0.0059513-0.17094-0.011969-0.25616-0.018052l-0.5093-0.037295-0.25314-0.019242 0.39679-5.1564 0.24307 0.018478 0.48915 0.035824 0.49316 0.034315 0.49717 0.032806 0.50118 0.031297 0.50519 0.029788 0.50919 0.028279 0.5132 0.026769 0.51721 0.025259c0.086535 0.004084 0.17324 0.0081052 0.26011 0.012063l0.52322 0.022994c0.087537 0.0037065 0.17524 0.0073501 0.26311 0.010931l0.52922 0.020729 0.53323 0.019218c0.089205 0.0030772 0.17858 0.0060914 0.26812 0.0090427l0.53924 0.016952 0.54324 0.015442 0.54724 0.01393 0.55124 0.012419c0.092208 0.0019439 0.18458 0.0038248 0.27712 0.0056427l0.55725 0.010152c0.093208 0.001566 0.18658 0.003069 0.28012 0.004509l0.56325 0.0078839 0.56725 0.0063719 0.57125 0.0048596 0.57525 0.0033473 0.57925 0.0018346 0.58325 3.218e-4c0.097542-7.25e-5 0.19525-2.079e-4 0.29312-4.065e-4l0.58925-0.0019477 0.59325-0.0034609 0.59724-0.0049744 0.60124-0.006488c0.10054-0.0012075 0.20125-0.0024781 0.30212-0.0038117l0.91235-0.013706 0.61323-0.01103 0.61722-0.012544 0.62122-0.014059 0.62522-0.015574 0.62921-0.017088 0.6332-0.018604 0.6372-0.020119c0.10653-0.0034794 0.21323-0.007022 0.3201-0.010628l0.64318-0.022392 0.64718-0.023908 0.65117-0.025424 0.65516-0.02694 0.65915-0.028456 0.66314-0.029973 1.0022-0.047803 1.0112-0.051216 0.6791-0.03604 0.34104-0.018589c11.086-0.60955 21.894-0.99031 32.424-1.1422l0.92837-0.012811z" fill="url(#d)" fill-rule="nonzero"/>
<path transform="translate(112.89 29.609) rotate(2) translate(-112.89 -29.609)" d="m140.01 22.815 0.53604 4.9644c-9.4341 1.0187-19.194 2.8131-29.28 5.3844l-0.50457 0.12921c-10.563 2.7171-18.986 3.6649-25.334 2.7977l-0.19175-0.026833 0.70837-4.9428c5.5492 0.79527 13.328-0.051687 23.272-2.5866l0.30198-0.077333c10.321-2.6548 20.323-4.5182 30.009-5.5893l0.48399-0.052892z" fill="url(#c)" fill-rule="nonzero"/>
<path transform="translate(116.64 23.352) rotate(2) translate(-116.64 -23.352)" d="m147.86 15.061 0.036072 3.9231c-10.139 0.093228-20.671 2.3142-31.601 6.6742l-0.33134 0.13278c-11.427 4.6-21.526 6.4992-30.304 5.6592l-0.2656-0.026294 0.39931-3.9029c8.0584 0.82446 17.52-0.90849 28.376-5.2375l0.3294-0.13198c11.373-4.5781 22.388-6.9442 33.039-7.087l0.32265-0.0036461z" fill="url(#h)" fill-rule="nonzero"/>
<path d="m155.89 3.1623 0.18346 8.0228c-11.61 0.2655-24.078 2.9504-37.403 8.0791l-0.40408 0.15616c-14.293 5.5468-25.52 7.9617-33.86 7.1365l-0.25187-0.026 0.85808-7.9789c6.7558 0.72654 16.8-1.3901 29.951-6.4584l0.39947-0.15449c14.164-5.4966 27.547-8.4272 40.146-8.7672l0.38155-0.0095123z" fill="url(#a)" fill-rule="nonzero"/>
<rect x="72.342" y="18.409" width="15.515" height="37.093" rx="2" fill="url(#g)"/>
</g>
<ellipse cx="102" cy="102.54" rx="46" ry="1" fill="#8C8C8C" filter="url(#i)"/>
</g>
</g>
</g>
</svg>
