<?xml version="1.0" encoding="UTF-8"?>
<svg version="1.1" viewBox="0 0 204 117" xmlns="http://www.w3.org/2000/svg">
<defs>
<linearGradient id="b" x1="50%" x2="50%" y1="-15.096%" y2="50%">
<stop stop-color="#EFF9FF" offset="0"/>
<stop stop-color="#fff" offset="1"/>
</linearGradient>
<linearGradient id="a" x1="5.7325%" x2="88.764%" y1="50.46%" y2="49.639%">
<stop stop-color="#FFDD89" offset="0"/>
<stop stop-color="#FDC231" offset="1"/>
</linearGradient>
<filter id="c" x="-16.9%" y="-1551.5%" width="133.7%" height="3202.9%">
<feGaussianBlur in="SourceGraphic" stdDeviation="4.66560025"/>
</filter>
</defs>
<g fill="none" fill-rule="evenodd">
<g transform="translate(-514 -354)">
<g transform="translate(514 354)">
<rect width="204" height="108" fill="#D8D8D8" fill-opacity="0"/>
<g transform="translate(53 8)">
<path id="h" d="m4.6072 40.432h2.5176c1.1046 0 2 0.89543 2 2v28.763h-6.5176v-28.763c0-1.1046 0.89543-2 2-2z" fill="#C7FC37"/>
<rect x=".26083" y=".022636" width="97.504" height="71.955" rx="4" fill="url(#b)" stroke="#EAEAEA"/>
<polygon id="Line-3-Copy-2" points="98.033 13.058 98.033 14.058 0.26083 14.058 0.26083 13.058" fill="#EFEFEF" fill-rule="nonzero"/>
<polygon id="Line-3-Copy-2" points="98.033 21.661 98.033 22.661 0.51367 22.661 0.51367 21.661" fill="#EFEFEF" fill-rule="nonzero"/>
<polygon points="98.033 30.264 98.033 31.264 0.51367 31.264 0.51367 30.264" fill="#EFEFEF" fill-rule="nonzero"/>
<polygon points="98.033 38.868 98.033 39.868 0.51367 39.868 0.51367 38.868" fill="#EFEFEF" fill-rule="nonzero"/>
<polygon id="Line-3-Copy-2" points="98.033 47.471 98.033 48.471 0.51367 48.471 0.51367 47.471" fill="#EFEFEF" fill-rule="nonzero"/>
<polygon id="e" points="98.033 56.074 98.033 57.074 0.51367 57.074 0.51367 56.074" fill="#EFEFEF" fill-rule="nonzero"/>
<polygon points="98.033 64.678 98.033 65.678 0.51367 65.678 0.51367 64.678" fill="#EFEFEF" fill-rule="nonzero"/>
<polygon id="Line-4" points="8.8213 7.4097e-14 8.8213 72 7.8213 72 7.8213 7.4097e-14" fill="#EFEFEF" fill-rule="nonzero"/>
<polygon id="Line-4" points="16.121 7.4097e-14 16.121 72 15.121 72 15.121 7.4097e-14" fill="#EFEFEF" fill-rule="nonzero"/>
<polygon id="Line-4" points="23.421 7.4097e-14 23.421 72 22.421 72 22.421 7.4097e-14" fill="#EFEFEF" fill-rule="nonzero"/>
<polygon id="Line-4" points="30.721 7.4097e-14 30.721 72 29.721 72 29.721 7.4097e-14" fill="#EFEFEF" fill-rule="nonzero"/>
<polygon id="Line-4" points="38.02 7.4097e-14 38.02 72 37.02 72 37.02 7.4097e-14" fill="#EFEFEF" fill-rule="nonzero"/>
<polygon id="Line-4" points="45.32 7.4097e-14 45.32 72 44.32 72 44.32 7.4097e-14" fill="#EFEFEF" fill-rule="nonzero"/>
<polygon id="Line-4" points="52.62 7.4097e-14 52.62 72 51.62 72 51.62 7.4097e-14" fill="#EFEFEF" fill-rule="nonzero"/>
<polygon id="Line-4" points="60.18 7.4097e-14 60.18 72 59.18 72 59.18 7.4097e-14" fill="#EFEFEF" fill-rule="nonzero"/>
<polygon id="Line-4" points="67.48 7.4097e-14 67.48 72 66.48 72 66.48 7.4097e-14" fill="#EFEFEF" fill-rule="nonzero"/>
<polygon id="Line-4" points="75.301 7.4097e-14 75.301 72 74.301 72 74.301 7.4097e-14" fill="#EFEFEF" fill-rule="nonzero"/>
<polygon id="g" points="82.862 7.4097e-14 82.862 72 81.862 72 81.862 7.4097e-14" fill="#EFEFEF" fill-rule="nonzero"/>
<polygon points="90.422 7.4097e-14 90.422 72 89.422 72 89.422 7.4097e-14" fill="#EFEFEF" fill-rule="nonzero"/>
<path d="m97.093 7.4747c0.27582-0.082753 0.5665 0.073759 0.64926 0.34958 0.078991 0.26328-0.060026 0.54011-0.31272 0.6367l-0.036861 0.012552-12.954 3.8865c-0.39374 0.11813-0.8011 0.18396-1.2116 0.19594l-0.13694 0.0019984h-8.8945c-0.27427 0-0.54792-0.024044-0.81782-0.071812l-0.13462-0.025859-18.044-3.7401c-0.61219-0.12689-1.246-0.094276-1.8409 0.09378l-0.11107 0.037081-7.0932 2.4953c-0.9719 0.3419-2.0283 0.35411-3.0062 0.036632l-0.10833-0.036632-6.9714-2.4524c-0.65877-0.23174-1.3694-0.26938-2.0477-0.10968l-0.10681 0.026856-7.6293 2.0411c-0.20521 0.0549-0.41384 0.095786-0.62447 0.1224l-0.15832 0.017283-8.6424 0.79529c-0.42281 0.038908-0.8353 0.15127-1.219 0.33173l-0.10391 0.050902-9.5072 4.8454-0.059189 0.029642-5.2248 2.4803c-0.26015 0.12347-0.57114 0.01267-0.69462-0.24748-0.11759-0.24777-0.022691-0.54164 0.21134-0.67573l0.03614-0.018889 5.2116-2.4739 9.5532-4.8685c0.4927-0.25111 1.0256-0.413 1.574-0.47855l0.12683-0.013411 8.6424-0.79529c0.16452-0.01514 0.32778-0.041429 0.48865-0.078667l0.12019-0.029978 7.6293-2.0411c0.87497-0.23408 1.7981-0.20975 2.6582 0.068726l0.11182 0.037764 6.9714 2.4524c0.75126 0.26428 1.5674 0.27529 2.3241 0.033035l0.098348-0.033035 7.0932-2.4953c0.7673-0.26992 1.5909-0.33554 2.39-0.19144l0.11967 0.023189 18.044 3.7401c0.20308 0.042093 0.4093 0.066785 0.61642 0.073847l0.12436 0.0021193h8.8945c0.31578 0 0.63005-0.040979 0.93497-0.12179l0.11389-0.032167 12.954-3.8865z" fill="url(#a)" fill-rule="nonzero"/>
<g transform="translate(1.0429 18.533)">
<path id="GREEN-TOP-WITH-OPACITY-Copy" d="m9.2998 17.207h2.5176c1.1046 0 2 0.89543 2 2v33.195h-6.5176v-33.195c0-1.1046 0.89543-2 2-2z" fill="#C7FC37"/>
<path id="f" d="m2 23.203h2.5176c1.1046 0 2 0.89543 2 2v27.199h-6.5176v-27.199c-3.5732e-16 -1.1046 0.89543-2 2-2z" fill="#C7FC37"/>
<path d="m2 29.72h2.5176c1.1046 0 2 0.89543 2 2v20.681h-6.5176v-20.681c-1.3527e-16 -1.1046 0.89543-2 2-2z" fill="#90E4FF"/>
<path id="d" d="m9.2998 23.463h2.5176c1.1046 0 2 0.89543 2 2v26.938h-6.5176v-26.938c0-1.1046 0.89543-2 2-2z" fill="#90E4FF"/>
<path d="m16.6 9.6461h2.5176c1.1046 0 2 0.89543 2 2v40.756h-6.5176v-40.756c0-1.1046 0.89543-2 2-2z" fill="#C7FC37"/>
<path d="m31.199 9.3854h2.5176c1.1046 0 2 0.89543 2 2v41.016h-6.5176v-41.016c0-1.1046 0.89543-2 2-2z" fill="#C7FC37"/>
<path d="m23.899 5.2141h2.5176c1.1046 0 2 0.89543 2 2v44.927h-6.5176v-44.927c0-1.1046 0.89543-2 2-2z" fill="#C7FC37"/>
<path d="m38.499 5.7355h2.5176c1.1046 0 2 0.89543 2 2v44.666h-6.5176v-44.666c0-1.1046 0.89543-2 2-2z" fill="#C7FC37"/>
<path d="m45.799 2.0856h2.5176c1.1046 0 2 0.89543 2 2v48.316h-6.5176v-48.316c0-1.1046 0.89543-2 2-2z" fill="#C7FC37"/>
<path d="m75.78 2.3463h2.5176c1.1046 0 2 0.89543 2 2v48.055h-6.5176v-48.055c0-1.1046 0.89543-2 2-2z" fill="#C7FC37"/>
<path d="m83.34 4.432h2.5176c1.1046 0 2 0.89543 2 2v45.97h-6.5176v-45.97c0-1.1046 0.89543-2 2-2z" fill="#C7FC37"/>
<path d="m90.901 0h2.5176c1.1046-2.0291e-16 2 0.89543 2 2v50.402h-6.5176v-50.402c0-1.1046 0.89543-2 2-2z" fill="#C7FC37"/>
<path d="m53.098 5.7355h2.5176c1.1046 0 2 0.89543 2 2v44.666h-6.5176v-44.666c0-1.1046 0.89543-2 2-2z" fill="#C7FC37"/>
<path d="m68.219 5.7355h2.5176c1.1046 0 2 0.89543 2 2v44.666h-6.5176v-44.666c0-1.1046 0.89543-2 2-2z" fill="#C7FC37"/>
<path d="m60.659 9.6461h2.5176c1.1046 0 2 0.89543 2 2v40.756h-6.5176v-40.756c0-1.1046 0.89543-2 2-2z" fill="#C7FC37"/>
<path d="m16.6 20.596h2.5176c1.1046 0 2 0.89543 2 2v29.806h-6.5176v-29.806c0-1.1046 0.89543-2 2-2z" fill="#90E4FF"/>
<path d="m31.199 20.335h2.5176c1.1046 0 2 0.89543 2 2v30.067h-6.5176v-30.067c0-1.1046 0.89543-2 2-2z" fill="#90E4FF"/>
<path d="m23.899 15.642h2.5176c1.1046 0 2 0.89543 2 2v34.759h-6.5176v-34.759c0-1.1046 0.89543-2 2-2z" fill="#90E4FF"/>
<path d="m38.499 16.164h2.5176c1.1046 0 2 0.89543 2 2v34.238h-6.5176v-34.238c0-1.1046 0.89543-2 2-2z" fill="#90E4FF"/>
<path d="m45.799 15.903h2.5176c1.1046 0 2 0.89543 2 2v34.499h-6.5176v-34.499c0-1.1046 0.89543-2 2-2z" fill="#90E4FF"/>
<path d="m75.78 16.164h2.5176c1.1046 0 2 0.89543 2 2v34.238h-6.5176v-34.238c0-1.1046 0.89543-2 2-2z" fill="#90E4FF"/>
<path d="m83.34 17.728h2.5176c1.1046 0 2 0.89543 2 2v32.674h-6.5176v-32.674c0-1.1046 0.89543-2 2-2z" fill="#90E4FF"/>
<path d="m90.901 17.728h2.5176c1.1046 0 2 0.89543 2 2v32.674h-6.5176v-32.674c0-1.1046 0.89543-2 2-2z" fill="#90E4FF"/>
<path d="m53.098 23.463h2.5176c1.1046 0 2 0.89543 2 2v26.938h-6.5176v-26.938c0-1.1046 0.89543-2 2-2z" fill="#90E4FF"/>
<path d="m68.219 23.463h2.5176c1.1046 0 2 0.89543 2 2v26.938h-6.5176v-26.938c0-1.1046 0.89543-2 2-2z" fill="#90E4FF"/>
<path d="m60.659 16.164h2.5176c1.1046 0 2 0.89543 2 2v34.238h-6.5176v-34.238c0-1.1046 0.89543-2 2-2z" fill="#90E4FF"/>
</g>
</g>
<ellipse cx="102.5" cy="102.45" rx="41.5" ry="1" fill="#8C8C8C" filter="url(#c)"/>
</g>
</g>
</g>
</svg>
