<?xml version="1.0" encoding="UTF-8"?>
<svg width="204px" height="117px" viewBox="0 0 204 117" version="1.1" xmlns="http://www.w3.org/2000/svg" xmlns:xlink="http://www.w3.org/1999/xlink">
    <title>6B1AC524-CC78-4FB9-9646-C45B10FECE27</title>
    <defs>
        <linearGradient x1="50%" y1="-15.0959646%" x2="50%" y2="50%" id="linearGradient-1">
            <stop stop-color="#EFF9FF" offset="0%"></stop>
            <stop stop-color="#FFFFFF" offset="100%"></stop>
        </linearGradient>
        <linearGradient x1="5.73246668%" y1="50.4595853%" x2="88.7637918%" y2="49.639036%" id="linearGradient-2">
            <stop stop-color="#FFDD89" offset="0%"></stop>
            <stop stop-color="#FDC231" offset="100%"></stop>
        </linearGradient>
        <filter x="-16.9%" y="-1551.5%" width="133.7%" height="3202.9%" filterUnits="objectBoundingBox" id="filter-3">
            <feGaussianBlur stdDeviation="4.66560025" in="SourceGraphic"></feGaussianBlur>
        </filter>
    </defs>
    <g id="Page-1" stroke="none" stroke-width="1" fill="none" fill-rule="evenodd">
        <g id="assets-homepage" transform="translate(-514.000000, -354.000000)">
            <g id="icon-liquidity-" transform="translate(514.000000, 354.000000)">
                <rect id="Rectangle-Copy-2" fill-opacity="0" fill="#D8D8D8" x="0" y="0" width="204" height="108"></rect>
                <g id="icon/liquidity" transform="translate(53.000000, 8.000000)">
                    <path d="M4.60717741,40.4319941 L7.1248158,40.4319941 C8.2293853,40.4319941 9.1248158,41.3274246 9.1248158,42.4319941 L9.1248158,71.1952473 L9.1248158,71.1952473 L2.60717741,71.1952473 L2.60717741,42.4319941 C2.60717741,41.3274246 3.50260791,40.4319941 4.60717741,40.4319941 Z" id="GREEN-TOP-WITH-OPACITY" fill="#C7FC37"></path>
                    <rect id="Rectangle" stroke="#EAEAEA" fill="url(#linearGradient-1)" x="0.260827592" y="0.0226361094" width="97.5038703" height="71.9547278" rx="4"></rect>
                    <polygon id="Line-3-Copy-2" fill="#EFEFEF" fill-rule="nonzero" points="98.0332639 13.0579129 98.0332639 14.0579129 0.260827592 14.0579129 0.260827592 13.0579129"></polygon>
                    <polygon id="Line-3-Copy-2" fill="#EFEFEF" fill-rule="nonzero" points="98.0332639 21.6611956 98.0332639 22.6611956 0.513672659 22.6611956 0.513672659 21.6611956"></polygon>
                    <polygon id="Line-3" fill="#EFEFEF" fill-rule="nonzero" points="98.0332639 30.2644782 98.0332639 31.2644782 0.513672659 31.2644782 0.513672659 30.2644782"></polygon>
                    <polygon id="Line-3-Copy" fill="#EFEFEF" fill-rule="nonzero" points="98.0332639 38.8677609 98.0332639 39.8677609 0.513672659 39.8677609 0.513672659 38.8677609"></polygon>
                    <polygon id="Line-3-Copy-2" fill="#EFEFEF" fill-rule="nonzero" points="98.0332639 47.4710436 98.0332639 48.4710436 0.513672659 48.4710436 0.513672659 47.4710436"></polygon>
                    <polygon id="Line-3-Copy-2" fill="#EFEFEF" fill-rule="nonzero" points="98.0332639 56.0743262 98.0332639 57.0743262 0.513672659 57.0743262 0.513672659 56.0743262"></polygon>
                    <polygon id="Line-3-Copy-2" fill="#EFEFEF" fill-rule="nonzero" points="98.0332639 64.6776089 98.0332639 65.6776089 0.513672659 65.6776089 0.513672659 64.6776089"></polygon>
                    <polygon id="Line-4" fill="#EFEFEF" fill-rule="nonzero" points="8.82128812 7.40969698e-14 8.82128812 72 7.82128812 72 7.82128812 7.40969698e-14"></polygon>
                    <polygon id="Line-4" fill="#EFEFEF" fill-rule="nonzero" points="16.1210431 7.40969698e-14 16.1210431 72 15.1210431 72 15.1210431 7.40969698e-14"></polygon>
                    <polygon id="Line-4" fill="#EFEFEF" fill-rule="nonzero" points="23.4207981 7.40969698e-14 23.4207981 72 22.4207981 72 22.4207981 7.40969698e-14"></polygon>
                    <polygon id="Line-4" fill="#EFEFEF" fill-rule="nonzero" points="30.7205531 7.40969698e-14 30.7205531 72 29.7205531 72 29.7205531 7.40969698e-14"></polygon>
                    <polygon id="Line-4" fill="#EFEFEF" fill-rule="nonzero" points="38.0203081 7.40969698e-14 38.0203081 72 37.0203081 72 37.0203081 7.40969698e-14"></polygon>
                    <polygon id="Line-4" fill="#EFEFEF" fill-rule="nonzero" points="45.3200631 7.40969698e-14 45.3200631 72 44.3200631 72 44.3200631 7.40969698e-14"></polygon>
                    <polygon id="Line-4" fill="#EFEFEF" fill-rule="nonzero" points="52.6198181 7.40969698e-14 52.6198181 72 51.6198181 72 51.6198181 7.40969698e-14"></polygon>
                    <polygon id="Line-4" fill="#EFEFEF" fill-rule="nonzero" points="60.1802786 7.40969698e-14 60.1802786 72 59.1802786 72 59.1802786 7.40969698e-14"></polygon>
                    <polygon id="Line-4" fill="#EFEFEF" fill-rule="nonzero" points="67.4800336 7.40969698e-14 67.4800336 72 66.4800336 72 66.4800336 7.40969698e-14"></polygon>
                    <polygon id="Line-4" fill="#EFEFEF" fill-rule="nonzero" points="75.3011997 7.40969698e-14 75.3011997 72 74.3011997 72 74.3011997 7.40969698e-14"></polygon>
                    <polygon id="Line-4" fill="#EFEFEF" fill-rule="nonzero" points="82.8616602 7.40969698e-14 82.8616602 72 81.8616602 72 81.8616602 7.40969698e-14"></polygon>
                    <polygon id="Line-4" fill="#EFEFEF" fill-rule="nonzero" points="90.4221207 7.40969698e-14 90.4221207 72 89.4221207 72 89.4221207 7.40969698e-14"></polygon>
                    <path d="M97.0934493,7.47473706 C97.3692701,7.39198408 97.6599517,7.54849654 97.7427047,7.82431742 C97.8216961,8.08760099 97.6826792,8.36442496 97.4299855,8.46102044 L97.3931243,8.47357282 L84.4390702,12.3601043 C84.0453343,12.4782346 83.637975,12.5440607 83.2274697,12.5560446 L83.0905325,12.558043 L74.1960048,12.558043 C73.9217372,12.558043 73.6480861,12.5339986 73.3781886,12.4862314 L73.2435671,12.4603724 L55.1992513,8.72022494 C54.5870658,8.59333379 53.9532123,8.62594888 53.3583336,8.81400473 L53.2472654,8.85108578 L46.154018,11.3463579 C45.1821148,11.6882553 44.1257648,11.7004659 43.1478297,11.3829897 L43.0395012,11.3463579 L36.0681422,8.89396382 C35.4093762,8.66222226 34.6987176,8.62458139 34.0204603,8.78428175 L33.9136486,8.81113803 L26.2843057,10.8522483 C26.0790999,10.9071479 25.8704626,10.9480348 25.6598375,10.9746515 L25.5015184,10.9919343 L16.8591419,11.7872281 C16.4363288,11.8261364 16.0238469,11.9384932 15.6401586,12.1189584 L15.5362441,12.1698609 L6.02909057,17.015272 L5.96990157,17.0449142 L0.745099323,19.5251897 C0.484945851,19.6486619 0.173955797,19.5378599 0.0504835962,19.2777064 C-0.0671089758,19.0299412 0.0277921156,18.7360657 0.261827315,18.6019794 L0.297966931,18.5830907 L5.50952445,16.1092161 L15.0627139,11.2407499 C15.5554169,10.9896392 16.0883226,10.8277451 16.6367564,10.7622045 L16.7635825,10.7487935 L25.405959,9.95349967 C25.5704815,9.93835988 25.7337385,9.91207092 25.8946073,9.87483314 L26.0147936,9.84485503 L33.6441364,7.80374475 C34.5191046,7.56966082 35.4422703,7.59399531 36.3023783,7.87247121 L36.4141996,7.91023506 L43.3855586,10.3626291 C44.1368171,10.6269078 44.9529482,10.6379194 45.7096127,10.3956639 L45.8079606,10.3626291 L52.901208,7.86735702 C53.6685107,7.59743423 54.4921139,7.53181604 55.2912304,7.67591842 L55.4109041,7.69910736 L73.4552199,11.4392549 C73.6582971,11.4813478 73.8645182,11.50604 74.0716409,11.5131015 L74.1960048,11.5152208 L83.0905325,11.5152208 C83.4063103,11.5152208 83.7205845,11.4742416 84.0255041,11.3934355 L84.1393951,11.3612685 L97.0934493,7.47473706 Z" id="Path-9" fill="url(#linearGradient-2)" fill-rule="nonzero"></path>
                    <g id="Group" transform="translate(1.042944, 18.532729)">
                        <path d="M9.29975499,17.2065653 L11.8173934,17.2065653 C12.9219629,17.2065653 13.8173934,18.1019958 13.8173934,19.2065653 L13.8173934,52.4018126 L13.8173934,52.4018126 L7.29975499,52.4018126 L7.29975499,19.2065653 C7.29975499,18.1019958 8.19518549,17.2065653 9.29975499,17.2065653 Z" id="GREEN-TOP-WITH-OPACITY-Copy" fill="#C7FC37"></path>
                        <path d="M2,23.2027927 L4.51763839,23.2027927 C5.62220789,23.2027927 6.51763839,24.0982232 6.51763839,25.2027927 L6.51763839,52.4018126 L6.51763839,52.4018126 L0,52.4018126 L0,25.2027927 C-3.57315355e-16,24.0982232 0.8954305,23.2027927 2,23.2027927 Z" id="GREEN-TOP-WITH-OPACITY-Copy" fill="#C7FC37"></path>
                        <path d="M2,29.720431 L4.51763839,29.720431 C5.62220789,29.720431 6.51763839,30.6158615 6.51763839,31.720431 L6.51763839,52.4018126 L6.51763839,52.4018126 L0,52.4018126 L0,31.720431 C-1.3527075e-16,30.6158615 0.8954305,29.720431 2,29.720431 Z" id="GREEN-TOP-WITH-OPACITY" fill="#90E4FF"></path>
                        <path d="M9.29975499,23.4634982 L11.8173934,23.4634982 C12.9219629,23.4634982 13.8173934,24.3589287 13.8173934,25.4634982 L13.8173934,52.4018126 L13.8173934,52.4018126 L7.29975499,52.4018126 L7.29975499,25.4634982 C7.29975499,24.3589287 8.19518549,23.4634982 9.29975499,23.4634982 Z" id="GREEN-TOP-WITH-OPACITY-Copy-2" fill="#90E4FF"></path>
                        <path d="M16.59951,9.64610481 L19.1171484,9.64610481 C20.2217179,9.64610481 21.1171484,10.5415353 21.1171484,11.6461048 L21.1171484,52.4018126 L21.1171484,52.4018126 L14.59951,52.4018126 L14.59951,11.6461048 C14.59951,10.5415353 15.4949405,9.64610481 16.59951,9.64610481 Z" id="GREEN-TOP-WITH-OPACITY-Copy" fill="#C7FC37"></path>
                        <path d="M31.19902,9.38539928 L33.7166584,9.38539928 C34.8212279,9.38539928 35.7166584,10.2808298 35.7166584,11.3853993 L35.7166584,52.4018126 L35.7166584,52.4018126 L29.19902,52.4018126 L29.19902,11.3853993 C29.19902,10.2808298 30.0944505,9.38539928 31.19902,9.38539928 Z" id="GREEN-TOP-WITH-OPACITY-Copy-5" fill="#C7FC37"></path>
                        <path d="M23.899265,5.21411071 L26.4169034,5.21411071 C27.5214729,5.21411071 28.4169034,6.10954121 28.4169034,7.21411071 L28.4169034,52.1411071 L28.4169034,52.1411071 L21.899265,52.1411071 L21.899265,7.21411071 C21.899265,6.10954121 22.7946955,5.21411071 23.899265,5.21411071 Z" id="GREEN-TOP-WITH-OPACITY-Copy-3" fill="#C7FC37"></path>
                        <path d="M38.498775,5.73552178 L41.0164133,5.73552178 C42.1209828,5.73552178 43.0164133,6.63095228 43.0164133,7.73552178 L43.0164133,52.4018126 L43.0164133,52.4018126 L36.498775,52.4018126 L36.498775,7.73552178 C36.498775,6.63095228 37.3942055,5.73552178 38.498775,5.73552178 Z" id="GREEN-TOP-WITH-OPACITY-Copy-7" fill="#C7FC37"></path>
                        <path d="M45.79853,2.08564428 L48.3161683,2.08564428 C49.4207378,2.08564428 50.3161683,2.98107478 50.3161683,4.08564428 L50.3161683,52.4018126 L50.3161683,52.4018126 L43.79853,52.4018126 L43.79853,4.08564428 C43.79853,2.98107478 44.6939605,2.08564428 45.79853,2.08564428 Z" id="GREEN-TOP-WITH-OPACITY-Copy-9" fill="#C7FC37"></path>
                        <path d="M75.7796665,2.34634982 L78.2973049,2.34634982 C79.4018744,2.34634982 80.2973049,3.24178032 80.2973049,4.34634982 L80.2973049,52.4018126 L80.2973049,52.4018126 L73.7796665,52.4018126 L73.7796665,4.34634982 C73.7796665,3.24178032 74.675097,2.34634982 75.7796665,2.34634982 Z" id="GREEN-TOP-WITH-OPACITY-Copy-17" fill="#C7FC37"></path>
                        <path d="M83.3401271,4.4319941 L85.8577654,4.4319941 C86.9623349,4.4319941 87.8577654,5.3274246 87.8577654,6.4319941 L87.8577654,52.4018126 L87.8577654,52.4018126 L81.3401271,52.4018126 L81.3401271,6.4319941 C81.3401271,5.3274246 82.2355576,4.4319941 83.3401271,4.4319941 Z" id="GREEN-TOP-WITH-OPACITY-Copy-19" fill="#C7FC37"></path>
                        <path d="M90.9005876,0 L93.418226,0 C94.5227955,-2.02906125e-16 95.418226,0.8954305 95.418226,2 L95.418226,52.4018126 L95.418226,52.4018126 L88.9005876,52.4018126 L88.9005876,2 C88.9005876,0.8954305 89.7960181,2.02906125e-16 90.9005876,0 Z" id="GREEN-TOP-WITH-OPACITY-Copy-21" fill="#C7FC37"></path>
                        <path d="M53.0982849,5.73552178 L55.6159233,5.73552178 C56.7204928,5.73552178 57.6159233,6.63095228 57.6159233,7.73552178 L57.6159233,52.4018126 L57.6159233,52.4018126 L51.0982849,52.4018126 L51.0982849,7.73552178 C51.0982849,6.63095228 51.9937154,5.73552178 53.0982849,5.73552178 Z" id="GREEN-TOP-WITH-OPACITY-Copy-11" fill="#C7FC37"></path>
                        <path d="M68.219206,5.73552178 L70.7368444,5.73552178 C71.8414139,5.73552178 72.7368444,6.63095228 72.7368444,7.73552178 L72.7368444,52.4018126 L72.7368444,52.4018126 L66.219206,52.4018126 L66.219206,7.73552178 C66.219206,6.63095228 67.1146365,5.73552178 68.219206,5.73552178 Z" id="GREEN-TOP-WITH-OPACITY-Copy-15" fill="#C7FC37"></path>
                        <path d="M60.6587455,9.64610481 L63.1763839,9.64610481 C64.2809534,9.64610481 65.1763839,10.5415353 65.1763839,11.6461048 L65.1763839,52.4018126 L65.1763839,52.4018126 L58.6587455,52.4018126 L58.6587455,11.6461048 C58.6587455,10.5415353 59.554176,9.64610481 60.6587455,9.64610481 Z" id="GREEN-TOP-WITH-OPACITY-Copy-13" fill="#C7FC37"></path>
                        <path d="M16.59951,20.5957373 L19.1171484,20.5957373 C20.2217179,20.5957373 21.1171484,21.4911678 21.1171484,22.5957373 L21.1171484,52.4018126 L21.1171484,52.4018126 L14.59951,52.4018126 L14.59951,22.5957373 C14.59951,21.4911678 15.4949405,20.5957373 16.59951,20.5957373 Z" id="GREEN-TOP-WITH-OPACITY-Copy-2" fill="#90E4FF"></path>
                        <path d="M31.19902,20.3350318 L33.7166584,20.3350318 C34.8212279,20.3350318 35.7166584,21.2304623 35.7166584,22.3350318 L35.7166584,52.4018126 L35.7166584,52.4018126 L29.19902,52.4018126 L29.19902,22.3350318 C29.19902,21.2304623 30.0944505,20.3350318 31.19902,20.3350318 Z" id="GREEN-TOP-WITH-OPACITY-Copy-6" fill="#90E4FF"></path>
                        <path d="M23.899265,15.6423321 L26.4169034,15.6423321 C27.5214729,15.6423321 28.4169034,16.5377626 28.4169034,17.6423321 L28.4169034,52.4018126 L28.4169034,52.4018126 L21.899265,52.4018126 L21.899265,17.6423321 C21.899265,16.5377626 22.7946955,15.6423321 23.899265,15.6423321 Z" id="GREEN-TOP-WITH-OPACITY-Copy-4" fill="#90E4FF"></path>
                        <path d="M38.498775,16.1637432 L41.0164133,16.1637432 C42.1209828,16.1637432 43.0164133,17.0591737 43.0164133,18.1637432 L43.0164133,52.4018126 L43.0164133,52.4018126 L36.498775,52.4018126 L36.498775,18.1637432 C36.498775,17.0591737 37.3942055,16.1637432 38.498775,16.1637432 Z" id="GREEN-TOP-WITH-OPACITY-Copy-8" fill="#90E4FF"></path>
                        <path d="M45.79853,15.9030377 L48.3161683,15.9030377 C49.4207378,15.9030377 50.3161683,16.7984682 50.3161683,17.9030377 L50.3161683,52.4018126 L50.3161683,52.4018126 L43.79853,52.4018126 L43.79853,17.9030377 C43.79853,16.7984682 44.6939605,15.9030377 45.79853,15.9030377 Z" id="GREEN-TOP-WITH-OPACITY-Copy-10" fill="#90E4FF"></path>
                        <path d="M75.7796665,16.1637432 L78.2973049,16.1637432 C79.4018744,16.1637432 80.2973049,17.0591737 80.2973049,18.1637432 L80.2973049,52.4018126 L80.2973049,52.4018126 L73.7796665,52.4018126 L73.7796665,18.1637432 C73.7796665,17.0591737 74.675097,16.1637432 75.7796665,16.1637432 Z" id="GREEN-TOP-WITH-OPACITY-Copy-18" fill="#90E4FF"></path>
                        <path d="M83.3401271,17.7279764 L85.8577654,17.7279764 C86.9623349,17.7279764 87.8577654,18.6234069 87.8577654,19.7279764 L87.8577654,52.4018126 L87.8577654,52.4018126 L81.3401271,52.4018126 L81.3401271,19.7279764 C81.3401271,18.6234069 82.2355576,17.7279764 83.3401271,17.7279764 Z" id="GREEN-TOP-WITH-OPACITY-Copy-20" fill="#90E4FF"></path>
                        <path d="M90.9005876,17.7279764 L93.418226,17.7279764 C94.5227955,17.7279764 95.418226,18.6234069 95.418226,19.7279764 L95.418226,52.4018126 L95.418226,52.4018126 L88.9005876,52.4018126 L88.9005876,19.7279764 C88.9005876,18.6234069 89.7960181,17.7279764 90.9005876,17.7279764 Z" id="GREEN-TOP-WITH-OPACITY-Copy-22" fill="#90E4FF"></path>
                        <path d="M53.0982849,23.4634982 L55.6159233,23.4634982 C56.7204928,23.4634982 57.6159233,24.3589287 57.6159233,25.4634982 L57.6159233,52.4018126 L57.6159233,52.4018126 L51.0982849,52.4018126 L51.0982849,25.4634982 C51.0982849,24.3589287 51.9937154,23.4634982 53.0982849,23.4634982 Z" id="GREEN-TOP-WITH-OPACITY-Copy-12" fill="#90E4FF"></path>
                        <path d="M68.219206,23.4634982 L70.7368444,23.4634982 C71.8414139,23.4634982 72.7368444,24.3589287 72.7368444,25.4634982 L72.7368444,52.4018126 L72.7368444,52.4018126 L66.219206,52.4018126 L66.219206,25.4634982 C66.219206,24.3589287 67.1146365,23.4634982 68.219206,23.4634982 Z" id="GREEN-TOP-WITH-OPACITY-Copy-16" fill="#90E4FF"></path>
                        <path d="M60.6587455,16.1637432 L63.1763839,16.1637432 C64.2809534,16.1637432 65.1763839,17.0591737 65.1763839,18.1637432 L65.1763839,52.4018126 L65.1763839,52.4018126 L58.6587455,52.4018126 L58.6587455,18.1637432 C58.6587455,17.0591737 59.554176,16.1637432 60.6587455,16.1637432 Z" id="GREEN-TOP-WITH-OPACITY-Copy-14" fill="#90E4FF"></path>
                    </g>
                </g>
                <ellipse id="Oval" fill="#8C8C8C" filter="url(#filter-3)" cx="102.5" cy="102.451087" rx="41.5" ry="1"></ellipse>
            </g>
        </g>
    </g>
</svg>