<?xml version="1.0" encoding="UTF-8"?>
<svg version="1.1" viewBox="0 0 204 115" xmlns="http://www.w3.org/2000/svg">
<defs>
<linearGradient id="a" x1="50%" x2="50%" y1="100%" y2="-32.576%">
<stop stop-color="#FF6EAB" offset="0"/>
<stop stop-color="#FCD2A5" offset="1"/>
<stop stop-color="#FDEFE6" offset="1"/>
</linearGradient>
<filter id="b" x="-18.5%" y="-933.1%" width="137%" height="1966.2%">
<feGaussianBlur in="SourceGraphic" stdDeviation="4.66560025"/>
</filter>
</defs>
<g fill="none" fill-rule="evenodd">
<g transform="translate(-1174 -354)">
<g transform="translate(1174 354)">
<rect width="204" height="108" fill="#D8D8D8" fill-opacity="0"/>
<g transform="translate(54 4)">
<path d="m19.299 0-7.525e-4 11.111h19.007l9.96e-5 -11.111h0.29241l-5.049e-4 11.111h19.006l8.52e-4 -11.111h0.29241l-2.574e-4 11.111h19.006l6.045e-4 -11.111h0.29241l-9.8e-6 11.111 19.006 4.029e-4v0.29241l-19.006-8.083e-4v9.357l19.006 7.792e-4v0.29241l-19.006-1.845e-4v9.357l19.006 1.554e-4v0.29241l-19.006-5.607e-4v9.357l19.006 5.316e-4v0.29241l-19.006-9.37e-4v9.357l19.006 9.079e-4v0.29241l-19.006-3.132e-4v9.357l19.006 2.841e-4v0.29241l-19.006-6.894e-4v9.357l19.006 6.603e-4v0.29241l-19.006-6.57e-5 9.8e-6 10.819h-0.29241l-6.045e-4 -10.819h-19.006l2.574e-4 10.819h-0.29241l-8.52e-4 -10.819h-19.006l5.049e-4 10.819h-0.29241l-9.96e-5 -10.819h-19.007l7.525e-4 10.819h-0.29241l-3.471e-4 -10.819-19.006 6.57e-5v-0.29241l19.006-6.603e-4v-9.357l-19.006 6.894e-4v-0.29241l19.006-2.841e-4v-9.357l-19.006 3.132e-4v-0.29241l19.006-9.079e-4v-9.357l-19.006 9.37e-4v-0.29241l19.006-5.316e-4v-9.357l-19.006 5.607e-4v-0.29241l19.006-1.554e-4v-9.357l-19.006 1.845e-4v-0.29241l19.006-7.792e-4v-9.357l-19.006 8.083e-4v-0.29241l19.006-4.029e-4 3.471e-4 -11.111h0.29241zm19.006 59.65h-19.007v9.357h19.007v-9.357zm19.298 0h-19.006v9.357h19.006v-9.357zm19.299 0h-19.006v9.357h19.006v-9.357zm-38.597-9.649h-19.007v9.357h19.007v-9.357zm19.298 0h-19.006v9.357h19.006v-9.357zm19.299 0h-19.006v9.357h19.006v-9.357zm-38.597-9.65h-19.007v9.357h19.007v-9.357zm19.298 0h-19.006v9.357h19.006v-9.357zm19.299 0h-19.006v9.357h19.006v-9.357zm-38.597-9.649h-19.007v9.357h19.007v-9.357zm19.298 0h-19.006v9.357h19.006v-9.357zm19.299 0h-19.006v9.357h19.006v-9.357zm-38.597-9.649h-19.007v9.357h19.007v-9.357zm19.298 0h-19.006v9.357h19.006v-9.357zm19.299 0h-19.006v9.357h19.006v-9.357zm-38.597-9.65h-19.007v9.357h19.007v-9.357zm19.298 0h-19.006v9.357h19.006v-9.357zm19.299 0h-19.006v9.357h19.006v-9.357z" fill="#F2D1CF"/>
<path id="GREEN-TOP-WITH-OPACITY" d="m7.5557 34.796h4.7722c1.1046 0 2 0.89543 2 2v15.837h-8.7722v-15.837c0-1.1046 0.89543-2 2-2z" fill="#DEE0DA"/>
<path id="RED-BOTTOM" d="m5.5557 45.423 8.7722-5.0069v10.281c0 1.1046-0.89543 2-2 2h-4.7722c-1.1046 0-2-0.89543-2-2v-5.2741z" fill="url(#a)"/>
<path id="c" d="m28.024 24.27h4.7722c1.1046 0 2 0.89543 2 2v9.9886l-8.7722-1.462v-8.5266c0-1.1046 0.89543-2 2-2z" fill="#DEE0DA"/>
<path d="m63.113 25.732h4.7722c1.1046 0 2 0.89543 2 2v34.258h-8.7722v-34.258c0-1.1046 0.89543-2 2-2z" fill="#DEE0DA"/>
<path d="m82.996 16.96h4.7722c1.1046 0 2 0.89543 2 2v34.258h-8.7722v-34.258c0-1.1046 0.89543-2 2-2z" fill="#DEE0DA"/>
<path id="d" d="m26.024 33.919 8.7722 1.7544v19.638c0 1.1046-0.89543 2-2 2h-4.7722c-1.1046 0-2-0.89543-2-2v-21.392z" fill="url(#a)"/>
<path d="m61.113 47.077h8.7722v14.082c0 1.1046-0.89543 2-2 2h-2.3861-2.3861c-1.1046 0-2-0.89543-2-2v-14.082z" fill="url(#a)"/>
<path d="m80.996 30.41h8.7722v24.024c0 1.1046-0.89543 2-2 2h-4.7722c-1.1046 0-2-0.89543-2-2v-24.024z" fill="url(#a)"/>
<path d="m46.153 35.381h4.7722c1.1046 0 2 0.89543 2 2v21.1h-8.7722v-21.1c0-1.1046 0.89543-2 2-2z" fill="#DEE0DA"/>
<path d="m44.153 49.855 8.7722 0.73101v14.082c0 1.1046-0.89543 2-2 2h-4.7722c-1.1046 0-2-0.89543-2-2v-14.813z" fill="url(#a)"/>
<path d="m90.09 30.033c2.1967 0.87142 4.1212 2.3106 5.5776 4.1689l0.11705 0.15158-1.1636 0.88523c-1.3084-1.7198-3.0615-3.0498-5.0702-3.8467-6.094-2.4175-12.994 0.56296-15.411 6.657-2.6912 6.7839-5.9697 10.073-9.8941 9.6213l-0.11912-0.014846c-2.9357-0.39347-5.8622 0.34905-8.8044 2.2487-0.86357 0.55756-1.803 0.98767-2.7893 1.277-5.6092 1.6457-11.488-1.5188-13.218-7.0798l-0.051148-0.16925c-0.31359-1.0688-0.7621-2.0934-1.3347-3.0488-3.7225-6.2117-11.776-8.2295-17.987-4.5069l-0.51723 0.31129-0.50784 0.30832-0.49845 0.30534-0.48906 0.30236-0.47967 0.29938c-0.079162 0.049647-0.15793 0.09917-0.23631 0.14857l-0.46557 0.2949-0.45618 0.29191-0.44678 0.28892-0.43738 0.28593-0.42797 0.28294-0.41857 0.27994-0.40916 0.27694-0.39976 0.27394-0.39035 0.27094-0.38094 0.26794c-0.062706 0.044406-0.12502 0.088687-0.18694 0.13284l-0.36682 0.26343-0.35741 0.26042c-0.058783 0.043153-0.11717 0.08618-0.17517 0.12908l-0.34328 0.25591-0.33387 0.25289c-0.05486 0.041898-0.10933 0.08367-0.1634 0.12532l-0.31974 0.24837c-0.052504 0.041144-0.10462 0.082161-0.15634 0.12305l-0.3056 0.24384c-0.050149 0.040389-0.099905 0.080651-0.14927 0.12079l-0.45044 0.36835-0.29863 0.24248-0.43882 0.35277-0.42794 0.33963-0.41716 0.32648-0.40646 0.31333-0.39585 0.30018-0.25805 0.19281-0.37837 0.27825-0.24648 0.17819-0.36113 0.25631-0.23507 0.16356-0.23055 0.1577-0.22606 0.15185-0.2216 0.14599-0.21716 0.14013-0.21275 0.13427-0.20837 0.12841-0.20401 0.12255-0.19968 0.11669-0.19537 0.11083-0.19109 0.10496c-0.062987 0.034011-0.12527 0.067044-0.18684 0.0991l-0.18261 0.093233-0.17841 0.087366c-0.11755 0.056288-0.23231 0.10866-0.34433 0.15713l-0.16597 0.069758c-0.05464 0.022274-0.1086 0.043569-0.16188 0.063886l-0.15781 0.058013c-0.15579 0.055076-0.30551 0.10134-0.44929 0.13879l-0.14181 0.034511c-0.55933 0.12629-1.0242 0.11149-1.4023-0.044698l-0.046803-0.02026 0.60327-1.3318c0.099944 0.045274 0.3333 0.039513 0.69651-0.065855 0.45094-0.13082 1.0299-0.3966 1.7272-0.79821 0.072338-0.041665 0.14585-0.084731 0.22053-0.1292l0.22756-0.1376c0.038512-0.023633 0.077316-0.047615 0.11641-0.071948l0.23809-0.15019 0.2451-0.15858c0.041434-0.02713 0.083159-0.054609 0.12518-0.082438l0.2556-0.17117c0.043183-0.029227 0.086657-0.058803 0.13042-0.088729l0.26608-0.18374 0.27306-0.19213 0.28003-0.2005 0.287-0.20888 0.29395-0.21725 0.3009-0.22562 0.46437-0.35412 0.31824-0.24653 0.32516-0.25489 0.33208-0.26325 0.33899-0.2716c0.057073-0.045963 0.11443-0.092274 0.17208-0.13893l0.34933-0.28413 0.17725-0.14519c0.19948-0.16378 0.40519-0.32949 0.61715-0.49712l0.32261-0.25289c0.054548-0.042389 0.10949-0.084899 0.16481-0.12753l0.33665-0.25723 0.34601-0.26012c0.1169-0.08719 0.23535-0.17486 0.35537-0.26302l0.36474-0.26592 0.3741-0.26882c0.12626-0.090089 0.25409-0.18066 0.38347-0.27172l0.39284-0.27462 0.40221-0.27753 0.41158-0.28043 0.42096-0.28334 0.43033-0.28625 0.43971-0.28917 0.44909-0.29208 0.45847-0.295 0.46785-0.29792c0.078757-0.049897 0.15791-0.099915 0.23744-0.15006l0.48193-0.3023 0.49131-0.30523 0.5007-0.30815 0.51009-0.31108 0.51948-0.31401c0.087362-0.05258 0.17512-0.10528 0.26326-0.1581 6.9043-4.1376 15.855-1.8948 19.993 5.0095 0.59401 0.9912 1.0679 2.0493 1.4118 3.1518l0.071707 0.23694c1.435 4.891 6.5632 7.6927 11.454 6.2577 0.85145-0.24981 1.6624-0.6211 2.4079-1.1024 3.1666-2.0446 6.3806-2.8818 9.6182-2.4916l0.17347 0.022078c2.4027 0.32203 4.6392-1.2723 6.682-4.8992l0.15879-0.28673c0.39598-0.72713 0.78459-1.5315 1.1656-2.414l0.152-0.35716c0.050533-0.12044 0.10093-0.24228 0.15119-0.36551l0.15038-0.37386c2.7152-6.8446 10.465-10.192 17.31-7.4769z" fill="#9BE5FF" fill-rule="nonzero"/>
</g>
<ellipse cx="101.88" cy="99.75" rx="37.875" ry="1" fill="#8C8C8C" filter="url(#b)"/>
<path d="m148.5 4h-92c-1.3807 0-2.5 1.1193-2.5 2.5v76c0 1.3807 1.1193 2.5 2.5 2.5h92c1.3807 0 2.5-1.1193 2.5-2.5v-76c0-1.3807-1.1193-2.5-2.5-2.5zm0 0.5c1.1046 0 2 0.89543 2 2v76c0 1.1046-0.89543 2-2 2h-92c-1.1046 0-2-0.89543-2-2v-76c0-1.1046 0.89543-2 2-2h92z" fill="#F2D1CF" fill-rule="nonzero"/>
</g>
</g>
</g>
</svg>
