<?xml version="1.0" encoding="UTF-8"?>
<svg version="1.1" viewBox="0 0 204 115" xmlns="http://www.w3.org/2000/svg">
<defs>
<linearGradient id="a" x1="50%" x2="50%" y1="80.492%" y2="-51.904%">
<stop stop-color="#56C491" offset="0"/>
<stop stop-color="#F3FFD4" offset="1"/>
</linearGradient>
<linearGradient id="c" x1="50%" x2="50%" y1="80.492%" y2="-51.904%">
<stop stop-color="#DCDCDC" offset="0"/>
<stop stop-color="#F3FFD4" offset="1"/>
</linearGradient>
<linearGradient id="b" x1="50%" x2="50%" y1="80.492%" y2="-115.63%">
<stop stop-color="#DEE0DA" offset="0"/>
<stop stop-color="#DEE0DA" offset="1"/>
</linearGradient>
<filter id="d" x="-18.5%" y="-933.1%" width="137%" height="1966.2%">
<feGaussianBlur in="SourceGraphic" stdDeviation="4.66560025"/>
</filter>
</defs>
<g fill="none" fill-rule="evenodd">
<g transform="translate(-954 -354)">
<g transform="translate(954 354)">
<rect width="204" height="108" fill="#D8D8D8" fill-opacity="0"/>
<g transform="translate(54 4)">
<path d="m19.299 0-7.525e-4 11.111h19.007l9.96e-5 -11.111h0.29241l-5.049e-4 11.111h19.006l8.52e-4 -11.111h0.29241l-2.574e-4 11.111h19.006l6.045e-4 -11.111h0.29241l-9.8e-6 11.111 19.006 4.029e-4v0.29241l-19.006-8.083e-4v9.357l19.006 7.792e-4v0.29241l-19.006-1.845e-4v9.357l19.006 1.554e-4v0.29241l-19.006-5.607e-4v9.357l19.006 5.316e-4v0.29241l-19.006-9.37e-4v9.357l19.006 9.079e-4v0.29241l-19.006-3.132e-4v9.357l19.006 2.841e-4v0.29241l-19.006-6.894e-4v9.357l19.006 6.603e-4v0.29241l-19.006-6.57e-5 9.8e-6 10.819h-0.29241l-6.045e-4 -10.819h-19.006l2.574e-4 10.819h-0.29241l-8.52e-4 -10.819h-19.006l5.049e-4 10.819h-0.29241l-9.96e-5 -10.819h-19.007l7.525e-4 10.819h-0.29241l-3.471e-4 -10.819-19.006 6.57e-5v-0.29241l19.006-6.603e-4v-9.357l-19.006 6.894e-4v-0.29241l19.006-2.841e-4v-9.357l-19.006 3.132e-4v-0.29241l19.006-9.079e-4v-9.357l-19.006 9.37e-4v-0.29241l19.006-5.316e-4v-9.357l-19.006 5.607e-4v-0.29241l19.006-1.554e-4v-9.357l-19.006 1.845e-4v-0.29241l19.006-7.792e-4v-9.357l-19.006 8.083e-4v-0.29241l19.006-4.029e-4 3.471e-4 -11.111h0.29241zm19.006 59.65h-19.007v9.357h19.007v-9.357zm19.298 0h-19.006v9.357h19.006v-9.357zm19.299 0h-19.006v9.357h19.006v-9.357zm-38.597-9.649h-19.007v9.357h19.007v-9.357zm19.298 0h-19.006v9.357h19.006v-9.357zm19.299 0h-19.006v9.357h19.006v-9.357zm-38.597-9.65h-19.007v9.357h19.007v-9.357zm19.298 0h-19.006v9.357h19.006v-9.357zm19.299 0h-19.006v9.357h19.006v-9.357zm-38.597-9.649h-19.007v9.357h19.007v-9.357zm19.298 0h-19.006v9.357h19.006v-9.357zm19.299 0h-19.006v9.357h19.006v-9.357zm-38.597-9.649h-19.007v9.357h19.007v-9.357zm19.298 0h-19.006v9.357h19.006v-9.357zm19.299 0h-19.006v9.357h19.006v-9.357zm-38.597-9.65h-19.007v9.357h19.007v-9.357zm19.298 0h-19.006v9.357h19.006v-9.357zm19.299 0h-19.006v9.357h19.006v-9.357z" fill="#F2D1CF"/>
<path id="GREEN-TOP-WITH-OPACITY" d="m7.4095 41.668h4.7722c1.1046 0 2 0.89543 2 2v18.761h-8.7722v-18.761c0-1.1046 0.89543-2 2-2z" fill="url(#a)"/>
<polygon id="RED-BOTTOM" points="5.4095 53.483 14.182 46.118 14.182 64.183 5.4095 64.183" fill="url(#c)"/>
<path id="e" d="m25.831 18.568h4.7722c1.1046 0 2 0.89543 2 2v18.761h-8.7722v-18.761c0-1.1046 0.89543-2 2-2z" fill="url(#a)"/>
<path d="m62.674 18.86h4.7722c1.1046 0 2 0.89543 2 2v34.258h-8.7722v-34.258c0-1.1046 0.89543-2 2-2z" fill="url(#a)"/>
<path d="m82.558 18.86h4.7722c1.1046 0 2 0.89543 2 2v34.258h-8.7722v-34.258c0-1.1046 0.89543-2 2-2z" fill="url(#a)"/>
<polygon id="f" points="23.831 38.744 32.603 38.744 32.603 59.212 23.831 59.212" fill="#DEE0DA"/>
<polygon points="60.674 40.206 69.446 40.206 69.446 55.703 60.674 55.703" fill="url(#b)"/>
<polygon points="80.558 34.065 89.33 34.065 89.33 62.136 80.558 62.136" fill="url(#b)"/>
<path d="m44.545 41.668h4.7722c1.1046 0 2 0.89543 2 2v12.035h-8.7722v-12.035c0-1.1046 0.89543-2 2-2z" fill="url(#a)"/>
<polygon points="42.545 51.61 51.317 51.61 51.317 66.815 42.545 66.815" fill="#DEE0DA"/>
<path d="m73.558 36.827c4.0513-2.9244 9.0826-4.1483 14.02-3.416l0.19484 0.029927 8.2611 1.3124-0.22938 1.4439-8.2611-1.3124c-4.5538-0.72342-9.2073 0.35997-12.971 3.0145l-0.1585 0.1131c-2.5659 1.8522-5.6156 2.8248-9.1294 2.9197l-0.21139 0.0046416c-2.2259 0.037686-4.6692 1.3615-7.3082 4.0013l-0.24045 0.24361-0.24152 0.25086c-0.44377 0.46657-0.89295 0.96974-1.3474 1.5097l-0.24842 0.29814c-0.12447 0.1509-0.24934 0.30453-0.37459 0.46089l-0.25103 0.31639c-0.041925 0.05334-0.083894 0.10698-0.12591 0.16093l-0.25259 0.32735c-0.042184 0.055167-0.084412 0.11064-0.12668 0.16642-1.0837 1.43-2.5353 2.539-4.1999 3.2087-5.0275 2.0226-10.736-0.3688-12.832-5.3442l-0.062404-0.15156c-0.53441-1.3284-1.308-2.5474-2.2824-3.5966-4.3992-4.7371-11.806-5.011-16.543-0.61177l-0.6972 0.64536-0.45637 0.42007-0.67191 0.61484-0.87229 0.79132-0.42604 0.38345-0.62642 0.55993-0.4092 0.36312-0.40246 0.35499-0.59107 0.51724-0.57592 0.49894-0.37554 0.32247-0.36881 0.31434-0.36208 0.30621-0.53051 0.44408-0.51539 0.4258-0.33519 0.27371-0.62678 0.50614-0.59703 0.47836-0.43392 0.34524-0.56022 0.44233-0.40649 0.3183-0.65164 0.50496-0.37559 0.2877-0.48295 0.36585-0.34892 0.2611-0.44764 0.33049-0.32262 0.23466-0.4128 0.29534-0.29667 0.20838-0.19166 0.13269-0.27835 0.18971-0.26745 0.17854-0.25661 0.16741-0.24584 0.1563-0.15794 0.098043-0.1532 0.093128-0.14849 0.088222-0.14379 0.083324-0.13911 0.078436-0.13444 0.073555-0.1298 0.068684-0.12518 0.063821-0.12058 0.058966-0.11599 0.054121-0.11143 0.049284-0.10688 0.044455-0.10236 0.039636-0.097854 0.034824-0.093368 0.030022c-0.030377 0.0092079-0.060009 0.017617-0.088901 0.025228l-0.084453 0.020443c-0.013706 0.003009-0.027227 0.0058189-0.040565 0.00843l-0.077818 0.013282-0.20858-1.4471c0.025715-0.0037064 0.053513-0.009299 0.083383-0.016773l0.0625-0.017454c0.010876-0.0033266 0.021981-0.0068617 0.033316-0.010605l0.070751-0.024962 0.076226-0.029956 0.081682-0.034941 0.087117-0.039917 0.092533-0.044884 0.097928-0.049842 0.1033-0.054792 0.16499-0.091448 0.17697-0.10253 0.18889-0.11359 0.20073-0.12462 0.21251-0.13561 0.14819-0.096501 0.232-0.15387 0.32736-0.22213 0.25895-0.17929 0.36306-0.25592 0.38324-0.27513 0.40326-0.29426 0.42312-0.31333 0.55658-0.41836 0.46722-0.35596 0.48656-0.37479 0.76574-0.59735 0.80835-0.63932 0.56231-0.44941 0.58085-0.46789 0.48244-0.39294 0.32972-0.27169 0.3362-0.27947 0.34267-0.28725 0.52614-0.44545 0.5407-0.46295 0.36855-0.31836 0.56496-0.49212 0.38472-0.3378 0.58921-0.52127 0.60375-0.53876 0.61829-0.55625 0.63283-0.57373 0.64736-0.59121 0.66189-0.60869 0.67641-0.62617c5.3287-4.9487 13.66-4.6406 18.609 0.68818 1.0484 1.1289 1.8902 2.4327 2.4875 3.8516l0.079934 0.1942c1.7416 4.3291 6.6629 6.4267 10.992 4.6851 1.4191-0.57089 2.6565-1.5163 3.5803-2.7353 0.21754-0.28705 0.43434-0.56675 0.65041-0.83907l0.25893-0.32325c0.34478-0.42629 0.68769-0.8337 1.0288-1.2222l0.25547-0.28782c0.042522-0.047379 0.085015-0.094461 0.12748-0.14125l0.25445-0.27717 0.25377-0.27006c0.59135-0.62185 1.1772-1.1856 1.7577-1.691l0.24847-0.21304c2.316-1.955 4.5474-2.9761 6.7062-3.0465l0.11558-0.0028652c3.2442-0.054926 6.0248-0.90299 8.3613-2.5423l0.14854-0.10571z" fill="#9BE5FF" fill-rule="nonzero"/>
</g>
<ellipse cx="101.88" cy="99.75" rx="37.875" ry="1" fill="#8C8C8C" filter="url(#d)"/>
<path d="m148 3.5h-92c-1.3807 0-2.5 1.1193-2.5 2.5v76c0 1.3807 1.1193 2.5 2.5 2.5h92c1.3807 0 2.5-1.1193 2.5-2.5v-76c0-1.3807-1.1193-2.5-2.5-2.5zm0 0.5c1.1046 0 2 0.89543 2 2v76c0 1.1046-0.89543 2-2 2h-92c-1.1046 0-2-0.89543-2-2v-76c0-1.1046 0.89543-2 2-2h92z" fill="#F2D1CF" fill-rule="nonzero"/>
</g>
</g>
</g>
</svg>
