<svg width="93" height="24" viewBox="0 0 93 24" fill="none" xmlns="http://www.w3.org/2000/svg">
<path fill-rule="evenodd" clip-rule="evenodd" d="M10.0244 1.22806C10.7786 0.443442 11.8199 0 12.9082 0H93V24H12.976C11.848 24 10.7725 23.5238 10.0143 22.6886L0 11.657L10.0244 1.22806Z" fill="#FFEBA6"/>
<path d="M22.7031 12.3447H20.1807L20.167 11.2852H22.457C22.8353 11.2852 23.1657 11.2214 23.4482 11.0938C23.7308 10.9661 23.9495 10.7839 24.1045 10.5469C24.264 10.3053 24.3438 10.0182 24.3438 9.68555C24.3438 9.32096 24.2731 9.02474 24.1318 8.79688C23.9951 8.56445 23.7832 8.39583 23.4961 8.29102C23.2135 8.18164 22.8535 8.12695 22.416 8.12695H20.4746V17H19.1553V7.04688H22.416C22.9264 7.04688 23.3822 7.09928 23.7832 7.2041C24.1842 7.30436 24.5238 7.46387 24.8018 7.68262C25.0843 7.89681 25.2985 8.17025 25.4443 8.50293C25.5902 8.83561 25.6631 9.23438 25.6631 9.69922C25.6631 10.1094 25.5583 10.4808 25.3486 10.8135C25.139 11.1416 24.8473 11.4105 24.4736 11.6201C24.1045 11.8298 23.6715 11.9642 23.1748 12.0234L22.7031 12.3447ZM22.6416 17H19.6611L20.4062 15.9268H22.6416C23.0609 15.9268 23.4163 15.8538 23.708 15.708C24.0042 15.5622 24.2298 15.3571 24.3848 15.0928C24.5397 14.8239 24.6172 14.5072 24.6172 14.1426C24.6172 13.7734 24.5511 13.4544 24.4189 13.1855C24.2868 12.9167 24.0794 12.7093 23.7969 12.5635C23.5143 12.4176 23.1497 12.3447 22.7031 12.3447H20.8232L20.8369 11.2852H23.4072L23.6875 11.668C24.166 11.709 24.5716 11.8457 24.9043 12.0781C25.237 12.306 25.4899 12.5977 25.6631 12.9531C25.8408 13.3086 25.9297 13.7005 25.9297 14.1289C25.9297 14.7487 25.793 15.2728 25.5195 15.7012C25.2507 16.125 24.8701 16.4486 24.3779 16.6719C23.8857 16.8906 23.307 17 22.6416 17ZM30.7559 17.1367C30.2409 17.1367 29.7738 17.0501 29.3545 16.877C28.9398 16.6992 28.582 16.4508 28.2812 16.1318C27.985 15.8128 27.7572 15.4346 27.5977 14.9971C27.4382 14.5596 27.3584 14.0811 27.3584 13.5615V13.2744C27.3584 12.6729 27.4473 12.1374 27.625 11.668C27.8027 11.194 28.0443 10.793 28.3496 10.4648C28.6549 10.1367 29.0013 9.88835 29.3887 9.71973C29.776 9.55111 30.1771 9.4668 30.5918 9.4668C31.1204 9.4668 31.5762 9.55794 31.959 9.74023C32.3464 9.92253 32.6631 10.1777 32.9092 10.5059C33.1553 10.8294 33.3376 11.2122 33.4561 11.6543C33.5745 12.0918 33.6338 12.5703 33.6338 13.0898V13.6572H28.1104V12.625H32.3691V12.5293C32.3509 12.2012 32.2826 11.8822 32.1641 11.5723C32.0501 11.2624 31.8678 11.0072 31.6172 10.8066C31.3665 10.6061 31.0247 10.5059 30.5918 10.5059C30.3047 10.5059 30.0404 10.5674 29.7988 10.6904C29.5573 10.8089 29.3499 10.9867 29.1768 11.2236C29.0036 11.4606 28.8691 11.75 28.7734 12.0918C28.6777 12.4336 28.6299 12.8278 28.6299 13.2744V13.5615C28.6299 13.9124 28.6777 14.2428 28.7734 14.5527C28.8737 14.8581 29.0173 15.127 29.2041 15.3594C29.3955 15.5918 29.6257 15.7741 29.8945 15.9062C30.168 16.0384 30.4779 16.1045 30.8242 16.1045C31.2708 16.1045 31.6491 16.0133 31.959 15.8311C32.2689 15.6488 32.54 15.4049 32.7725 15.0996L33.5381 15.708C33.3786 15.9495 33.1758 16.1797 32.9297 16.3984C32.6836 16.6172 32.3805 16.7949 32.0205 16.9316C31.665 17.0684 31.2435 17.1367 30.7559 17.1367ZM39.417 15.0381C39.417 14.8558 39.376 14.6872 39.2939 14.5322C39.2165 14.3727 39.0547 14.2292 38.8086 14.1016C38.5671 13.9694 38.2025 13.8555 37.7148 13.7598C37.3047 13.6732 36.9333 13.5706 36.6006 13.4521C36.2725 13.3337 35.9922 13.1901 35.7598 13.0215C35.5319 12.8529 35.3564 12.6546 35.2334 12.4268C35.1104 12.1989 35.0488 11.9323 35.0488 11.627C35.0488 11.3353 35.1126 11.0596 35.2402 10.7998C35.3724 10.54 35.557 10.3099 35.7939 10.1094C36.0355 9.90885 36.3249 9.75163 36.6621 9.6377C36.9993 9.52376 37.3753 9.4668 37.79 9.4668C38.3825 9.4668 38.8883 9.57161 39.3076 9.78125C39.7269 9.99089 40.0482 10.2712 40.2715 10.6221C40.4948 10.9684 40.6064 11.3535 40.6064 11.7773H39.3418C39.3418 11.5723 39.2803 11.374 39.1572 11.1826C39.0387 10.9867 38.8633 10.8249 38.6309 10.6973C38.403 10.5697 38.1227 10.5059 37.79 10.5059C37.4391 10.5059 37.1543 10.5605 36.9355 10.6699C36.7214 10.7747 36.5641 10.9092 36.4639 11.0732C36.3682 11.2373 36.3203 11.4105 36.3203 11.5928C36.3203 11.7295 36.3431 11.8525 36.3887 11.9619C36.4388 12.0667 36.5254 12.1647 36.6484 12.2559C36.7715 12.3424 36.9447 12.4245 37.168 12.502C37.3913 12.5794 37.6761 12.6569 38.0225 12.7344C38.6286 12.8711 39.1276 13.0352 39.5195 13.2266C39.9115 13.418 40.2031 13.6527 40.3945 13.9307C40.5859 14.2087 40.6816 14.5459 40.6816 14.9424C40.6816 15.266 40.6133 15.5622 40.4766 15.8311C40.3444 16.0999 40.1507 16.3324 39.8955 16.5283C39.6449 16.7197 39.3441 16.8701 38.9932 16.9795C38.6468 17.0843 38.2572 17.1367 37.8242 17.1367C37.1725 17.1367 36.6211 17.0205 36.1699 16.7881C35.7188 16.5557 35.377 16.2549 35.1445 15.8857C34.9121 15.5166 34.7959 15.127 34.7959 14.7168H36.0674C36.0856 15.0632 36.1859 15.3389 36.3682 15.5439C36.5505 15.7445 36.7738 15.888 37.0381 15.9746C37.3024 16.0566 37.5645 16.0977 37.8242 16.0977C38.1706 16.0977 38.46 16.0521 38.6924 15.9609C38.9294 15.8698 39.1094 15.7445 39.2324 15.585C39.3555 15.4255 39.417 15.2432 39.417 15.0381ZM45.4395 9.60352V10.5742H41.4404V9.60352H45.4395ZM42.7939 7.80566H44.0586V15.168C44.0586 15.4186 44.0973 15.6077 44.1748 15.7354C44.2523 15.863 44.3525 15.9473 44.4756 15.9883C44.5986 16.0293 44.7308 16.0498 44.8721 16.0498C44.9769 16.0498 45.0863 16.0407 45.2002 16.0225C45.3187 15.9997 45.4076 15.9814 45.4668 15.9678L45.4736 17C45.3734 17.0319 45.2412 17.0615 45.0771 17.0889C44.9176 17.1208 44.724 17.1367 44.4961 17.1367C44.1862 17.1367 43.9014 17.0752 43.6416 16.9521C43.3818 16.8291 43.1745 16.624 43.0195 16.3369C42.8691 16.0452 42.7939 15.6533 42.7939 15.1611V7.80566ZM52.6445 15.8584L54.668 9.60352H55.96L53.3008 17H52.4531L52.6445 15.8584ZM50.9561 9.60352L53.041 15.8926L53.1846 17H52.3369L49.6572 9.60352H50.9561ZM61.4287 15.7354V11.9277C61.4287 11.6361 61.3695 11.3831 61.251 11.1689C61.137 10.9502 60.9639 10.7816 60.7314 10.6631C60.499 10.5446 60.2119 10.4854 59.8701 10.4854C59.5511 10.4854 59.2708 10.54 59.0293 10.6494C58.7923 10.7588 58.6055 10.9023 58.4688 11.0801C58.3366 11.2578 58.2705 11.4492 58.2705 11.6543H57.0059C57.0059 11.39 57.0742 11.1279 57.2109 10.8682C57.3477 10.6084 57.5436 10.3737 57.7988 10.1641C58.0586 9.94987 58.3685 9.78125 58.7285 9.6582C59.0931 9.5306 59.4987 9.4668 59.9453 9.4668C60.4831 9.4668 60.957 9.55794 61.3672 9.74023C61.7819 9.92253 62.1055 10.1982 62.3379 10.5674C62.5749 10.932 62.6934 11.39 62.6934 11.9414V15.3867C62.6934 15.6328 62.7139 15.8949 62.7549 16.1729C62.8005 16.4508 62.8665 16.6901 62.9531 16.8906V17H61.6338C61.57 16.8542 61.5199 16.6605 61.4834 16.4189C61.4469 16.1729 61.4287 15.945 61.4287 15.7354ZM61.6475 12.5156L61.6611 13.4043H60.3828C60.0228 13.4043 59.7015 13.4339 59.4189 13.4932C59.1364 13.5479 58.8994 13.6322 58.708 13.7461C58.5166 13.86 58.3708 14.0036 58.2705 14.1768C58.1702 14.3454 58.1201 14.5436 58.1201 14.7715C58.1201 15.0039 58.1725 15.2158 58.2773 15.4072C58.3822 15.5986 58.5394 15.7513 58.749 15.8652C58.9632 15.9746 59.2253 16.0293 59.5352 16.0293C59.9225 16.0293 60.2643 15.9473 60.5605 15.7832C60.8568 15.6191 61.0915 15.4186 61.2646 15.1816C61.4424 14.9447 61.5381 14.7145 61.5518 14.4912L62.0918 15.0996C62.0599 15.291 61.9733 15.5029 61.832 15.7354C61.6908 15.9678 61.5016 16.1911 61.2646 16.4053C61.0322 16.6149 60.7542 16.7904 60.4307 16.9316C60.1117 17.0684 59.7516 17.1367 59.3506 17.1367C58.8493 17.1367 58.4095 17.0387 58.0312 16.8428C57.6576 16.6468 57.3659 16.3848 57.1562 16.0566C56.9512 15.724 56.8486 15.3525 56.8486 14.9424C56.8486 14.5459 56.9261 14.1973 57.0811 13.8965C57.236 13.5911 57.4593 13.3382 57.751 13.1377C58.0426 12.9326 58.3936 12.7777 58.8037 12.6729C59.2139 12.568 59.6719 12.5156 60.1777 12.5156H61.6475ZM66.0566 6.5V17H64.7852V6.5H66.0566ZM72.6123 15.291V9.60352H73.8838V17H72.6738L72.6123 15.291ZM72.8516 13.7324L73.3779 13.7188C73.3779 14.2109 73.3255 14.6667 73.2207 15.0859C73.1204 15.5007 72.9564 15.8607 72.7285 16.166C72.5007 16.4714 72.2021 16.7106 71.833 16.8838C71.4639 17.0524 71.015 17.1367 70.4863 17.1367C70.1263 17.1367 69.7959 17.0843 69.4951 16.9795C69.1989 16.8747 68.9437 16.7129 68.7295 16.4941C68.5153 16.2754 68.349 15.9906 68.2305 15.6396C68.1165 15.2887 68.0596 14.8672 68.0596 14.375V9.60352H69.3242V14.3887C69.3242 14.7214 69.3607 14.9971 69.4336 15.2158C69.5111 15.43 69.6136 15.6009 69.7412 15.7285C69.8734 15.8516 70.0192 15.9382 70.1787 15.9883C70.3428 16.0384 70.5114 16.0635 70.6846 16.0635C71.2223 16.0635 71.6484 15.9609 71.9629 15.7559C72.2773 15.5462 72.5029 15.266 72.6396 14.915C72.7809 14.5596 72.8516 14.1654 72.8516 13.7324ZM78.8809 17.1367C78.3659 17.1367 77.8988 17.0501 77.4795 16.877C77.0648 16.6992 76.707 16.4508 76.4062 16.1318C76.11 15.8128 75.8822 15.4346 75.7227 14.9971C75.5632 14.5596 75.4834 14.0811 75.4834 13.5615V13.2744C75.4834 12.6729 75.5723 12.1374 75.75 11.668C75.9277 11.194 76.1693 10.793 76.4746 10.4648C76.7799 10.1367 77.1263 9.88835 77.5137 9.71973C77.901 9.55111 78.3021 9.4668 78.7168 9.4668C79.2454 9.4668 79.7012 9.55794 80.084 9.74023C80.4714 9.92253 80.7881 10.1777 81.0342 10.5059C81.2803 10.8294 81.4626 11.2122 81.5811 11.6543C81.6995 12.0918 81.7588 12.5703 81.7588 13.0898V13.6572H76.2354V12.625H80.4941V12.5293C80.4759 12.2012 80.4076 11.8822 80.2891 11.5723C80.1751 11.2624 79.9928 11.0072 79.7422 10.8066C79.4915 10.6061 79.1497 10.5059 78.7168 10.5059C78.4297 10.5059 78.1654 10.5674 77.9238 10.6904C77.6823 10.8089 77.4749 10.9867 77.3018 11.2236C77.1286 11.4606 76.9941 11.75 76.8984 12.0918C76.8027 12.4336 76.7549 12.8278 76.7549 13.2744V13.5615C76.7549 13.9124 76.8027 14.2428 76.8984 14.5527C76.9987 14.8581 77.1423 15.127 77.3291 15.3594C77.5205 15.5918 77.7507 15.7741 78.0195 15.9062C78.293 16.0384 78.6029 16.1045 78.9492 16.1045C79.3958 16.1045 79.7741 16.0133 80.084 15.8311C80.3939 15.6488 80.665 15.4049 80.8975 15.0996L81.6631 15.708C81.5036 15.9495 81.3008 16.1797 81.0547 16.3984C80.8086 16.6172 80.5055 16.7949 80.1455 16.9316C79.79 17.0684 79.3685 17.1367 78.8809 17.1367Z" fill="#6D6E6D"/>
</svg>
