<?xml version="1.0" encoding="UTF-8"?>
<svg width="40px" height="40px" viewBox="0 0 40 40" version="1.1" xmlns="http://www.w3.org/2000/svg" xmlns:xlink="http://www.w3.org/1999/xlink">
    <title>calculator</title>
    <g id="Final" stroke="none" stroke-width="1" fill="none" fill-rule="evenodd">
        <g id="Trial_expired_Centime_Solutions" transform="translate(-198.000000, -929.000000)">
            <g id="calculator" transform="translate(198.000000, 929.000000)">
                <rect id="Rectangle" x="0" y="0" width="40" height="40"></rect>
                <g id="Group" transform="translate(7.000000, 4.000000)" fill-rule="nonzero">
                    <path d="M24.5945946,0 L1.40540541,0 C0.629221081,0 0,0.622907826 0,1.39130435 L0,30.6086957 C0,31.3770922 0.629221081,32 1.40540541,32 L24.5945946,32 C25.3707789,32 26,31.3770922 26,30.6086957 L26,1.39130435 C26,0.622907826 25.3707789,0 24.5945946,0 Z" id="Path" fill="#FDC231"></path>
                    <path d="M22.2962963,4 L4.7037037,4 C4.31474556,4 4,4.3358125 4,4.75 L4,9.25 C4,9.6641875 4.31474556,10 4.7037037,10 L22.2962963,10 C22.6852544,10 23,9.6641875 23,9.25 L23,4.75 C23,4.3358125 22.6852544,4 22.2962963,4 Z" id="Path" fill="#FFFFFF"></path>
                    <path d="M8.28571429,13 L4.71428571,13 C4.31947857,13 4,13.2985 4,13.6666667 L4,16.3333333 C4,16.7015 4.31947857,17 4.71428571,17 L8.28571429,17 C8.68052143,17 9,16.7015 9,16.3333333 L9,13.6666667 C9,13.2985 8.68052143,13 8.28571429,13 Z" id="Path" fill="#FFFFFF"></path>
                    <path d="M15.2857143,13 L11.7142857,13 C11.3194786,13 11,13.2985 11,13.6666667 L11,16.3333333 C11,16.7015 11.3194786,17 11.7142857,17 L15.2857143,17 C15.6805214,17 16,16.7015 16,16.3333333 L16,13.6666667 C16,13.2985 15.6805214,13 15.2857143,13 Z" id="Path" fill="#FFFFFF"></path>
                    <path d="M22.2857143,13 L18.7142857,13 C18.3194786,13 18,13.2985 18,13.6666667 L18,16.3333333 C18,16.7015 18.3194786,17 18.7142857,17 L22.2857143,17 C22.6805214,17 23,16.7015 23,16.3333333 L23,13.6666667 C23,13.2985 22.6805214,13 22.2857143,13 Z" id="Path" fill="#FFFFFF"></path>
                    <path d="M8.28571429,18 L4.71428571,18 C4.31947857,18 4,18.2985 4,18.6666667 L4,21.3333333 C4,21.7015 4.31947857,22 4.71428571,22 L8.28571429,22 C8.68052143,22 9,21.7015 9,21.3333333 L9,18.6666667 C9,18.2985 8.68052143,18 8.28571429,18 Z" id="Path" fill="#FFFFFF"></path>
                    <path d="M15.2857143,18 L11.7142857,18 C11.3194786,18 11,18.2985 11,18.6666667 L11,21.3333333 C11,21.7015 11.3194786,22 11.7142857,22 L15.2857143,22 C15.6805214,22 16,21.7015 16,21.3333333 L16,18.6666667 C16,18.2985 15.6805214,18 15.2857143,18 Z" id="Path" fill="#FFFFFF"></path>
                    <path d="M22.2857143,18 L18.7142857,18 C18.3194786,18 18,18.3198214 18,18.7142857 L18,27.2857143 C18,27.6801786 18.3194786,28 18.7142857,28 L22.2857143,28 C22.6805214,28 23,27.6801786 23,27.2857143 L23,18.7142857 C23,18.3198214 22.6805214,18 22.2857143,18 Z" id="Path" fill="#B51E3A" opacity="0.400000006"></path>
                    <path d="M8.28571429,24 L4.71428571,24 C4.31947857,24 4,24.2985 4,24.6666667 L4,27.3333333 C4,27.7015 4.31947857,28 4.71428571,28 L8.28571429,28 C8.68052143,28 9,27.7015 9,27.3333333 L9,24.6666667 C9,24.2985 8.68052143,24 8.28571429,24 Z" id="Path" fill="#FFFFFF"></path>
                    <path d="M15.2857143,24 L11.7142857,24 C11.3194786,24 11,24.2985 11,24.6666667 L11,27.3333333 C11,27.7015 11.3194786,28 11.7142857,28 L15.2857143,28 C15.6805214,28 16,27.7015 16,27.3333333 L16,24.6666667 C16,24.2985 15.6805214,24 15.2857143,24 Z" id="Path" fill="#FFFFFF"></path>
                </g>
            </g>
        </g>
    </g>
</svg>