<?xml version="1.0" encoding="UTF-8" standalone="no" ?>
<!DOCTYPE svg PUBLIC "-//W3C//DTD SVG 1.1//EN" "http://www.w3.org/Graphics/SVG/1.1/DTD/svg11.dtd">
<svg xmlns="http://www.w3.org/2000/svg" xmlns:xlink="http://www.w3.org/1999/xlink" version="1.1" width="100.00000000000001" height="99.99878" viewBox="110.81494467543251 44.78430084518793 81.00238477456749 81.00139654547323" xml:space="preserve">
<desc>Created with Fabric.js 4.6.0</desc>
<defs>
</defs>
<g transform="matrix(0.39 0 0 0.74 151.26 85.34)" id="HyxVB2jNDBrq_dPw4okMh"  >
<path style="stroke: none; stroke-width: 1; stroke-dasharray: none; stroke-linecap: butt; stroke-dashoffset: 0; stroke-linejoin: miter; stroke-miterlimit: 4; fill: rgb(216,216,216); fill-opacity: 0; fill-rule: nonzero; opacity: 1;" vector-effect="non-scaling-stroke"  transform=" translate(-102, -54)" d="M 0 108 L 0 0 L 204 0 L 204 108 z" stroke-linecap="round" />
</g>
<g transform="matrix(1 0 0 1 124.21 67.93)" id="uGxK8WWrsnRlhufSTJgJN"  >
<path style="stroke: none; stroke-width: 1; stroke-dasharray: none; stroke-linecap: butt; stroke-dashoffset: 0; stroke-linejoin: miter; stroke-miterlimit: 4; fill: rgb(227,251,241); fill-rule: evenodd; opacity: 1;" vector-effect="non-scaling-stroke"  transform=" translate(-12.77, -22.53)" d="M 25.5495099 14.9253254 C 16.9471362 19.8751404 11.1462842 29.1468431 11.1048824 39.7733047 L -8.17159643e-15 39.7733047 C 0.0414017985 25.0273642 8.0825511 12.1629054 20.0154695 5.2925069 L 25.5495099 14.9253254 Z" stroke-linecap="round" />
</g>
<g transform="matrix(1 0 0 1 151.11 52.86)" id="7KSxzBXx6LuLd-euhckye"  >
<path style="stroke: none; stroke-width: 1; stroke-dasharray: none; stroke-linecap: butt; stroke-dashoffset: 0; stroke-linejoin: miter; stroke-miterlimit: 4; fill: rgb(24,210,181); fill-rule: evenodd; opacity: 1;" vector-effect="non-scaling-stroke"  transform=" translate(-39.68, -7.46)" d="M 59.3402087 5.05791971 L 53.8199689 14.6999386 C 49.6915196 12.4113391 44.9395132 11.1071825 39.8836635 11.1071825 C 34.6647368 11.1071825 29.7701242 12.4964428 25.5494409 14.9253484 L 20.0154005 5.29252991 C 25.8645545 1.92518363 32.6475492 3.26863857e-14 39.8836635 3.26863857e-14 C 46.9495705 3.26863857e-14 53.5853587 1.83777983 59.3402087 5.05791971" stroke-linecap="round" />
</g>
<g transform="matrix(1 0 0 1 178.23 67.81)" id="0cRlWsqKcFJXcT1lPShXC"  >
<path style="stroke: none; stroke-width: 1; stroke-dasharray: none; stroke-linecap: butt; stroke-dashoffset: 0; stroke-linejoin: miter; stroke-miterlimit: 4; fill: rgb(178,236,227); fill-rule: evenodd; opacity: 1;" vector-effect="non-scaling-stroke"  transform=" translate(-66.79, -22.42)" d="M 79.7697652 39.7732587 L 68.6625827 39.7732587 C 68.6211809 28.98349 62.6409211 19.5921821 53.8200379 14.6998696 L 59.3402777 5.05785071 C 71.4986059 11.8661465 79.7283634 24.8571108 79.7697652 39.7732587" stroke-linecap="round" />
</g>
<g transform="matrix(1 0 0 1 178.43 102.52)" id="q8l-TQ1g0jl3rXJiCvB8F"  >
<path style="stroke: none; stroke-width: 1; stroke-dasharray: none; stroke-linecap: butt; stroke-dashoffset: 0; stroke-linejoin: miter; stroke-miterlimit: 4; fill: rgb(252,229,227); fill-rule: evenodd; opacity: 1;" vector-effect="non-scaling-stroke"  transform=" translate(-67, -57.13)" d="M 79.7697652 39.7732587 L 79.7697652 39.8859636 C 79.7697652 54.6804363 71.7148153 67.5906671 59.7542957 74.4771663 L 54.2202553 64.8443478 C 62.8525303 59.876132 68.6625827 50.5607273 68.6625827 39.8859636 L 68.6625827 39.7732587 L 79.7697652 39.7732587 Z" stroke-linecap="round" />
</g>
<g transform="matrix(1 0 0 1 161.18 117.7)" id="rbcvc6H3zavGubwDP1SEL"  >
<path style="stroke: none; stroke-width: 1; stroke-dasharray: none; stroke-linecap: butt; stroke-dashoffset: 0; stroke-linejoin: miter; stroke-miterlimit: 4; fill: rgb(254,238,237); fill-rule: evenodd; opacity: 1;" vector-effect="non-scaling-stroke"  transform=" translate(-49.74, -72.31)" d="M 59.7544107 74.4771433 C 53.9029565 77.8447195 47.1197319 79.7696732 39.8836175 79.7696732 L 39.7274407 79.7696732 L 39.7274407 68.6647908 L 39.8836175 68.6647908 C 45.1027742 68.6647908 49.999687 67.2755304 54.2201403 64.8443248 L 59.7544107 74.4771433 Z" stroke-linecap="round" />
</g>
<g transform="matrix(1 0 0 1 124.05 102.43)" id="twHLcz2vGaGVjSnLOEbEl"  >
<path style="stroke: none; stroke-width: 1; stroke-dasharray: none; stroke-linecap: butt; stroke-dashoffset: 0; stroke-linejoin: miter; stroke-miterlimit: 4; fill: rgb(164,238,204); fill-rule: evenodd; opacity: 1;" vector-effect="non-scaling-stroke"  transform=" translate(-12.61, -57.04)" d="M 25.2275189 64.6581547 L 19.7095792 74.2978735 C 7.91696691 67.3699725 0.0000230009991 54.5535858 0.0000230009991 39.8860786 L 0.0000230009991 39.7733737 L 11.1049054 39.7733737 L 11.1049054 39.8860786 C 11.1049054 50.4274365 16.7723516 59.6437069 25.2275189 64.6581547" stroke-linecap="round" />
</g>
<g transform="matrix(1 0 0 1 169.97 72.63)" id="kUq5JpOTfL32ltKFkHJqG"  >
<path style="stroke: none; stroke-width: 1; stroke-dasharray: none; stroke-linecap: butt; stroke-dashoffset: 0; stroke-linejoin: miter; stroke-miterlimit: 4; fill: rgb(9,172,142); fill-rule: evenodd; opacity: 1;" vector-effect="non-scaling-stroke"  transform=" translate(-58.54, -27.24)" d="M 68.6625827 39.7732587 L 57.7693095 39.7732587 C 57.7302078 33.0270657 53.9534437 27.1687112 48.4079028 24.1578804 L 53.8200379 14.6998696 C 62.6409211 19.5921821 68.6211809 28.98349 68.6625827 39.7732587" stroke-linecap="round" />
</g>
<g transform="matrix(1 0 0 1 132.31 97.61)" id="paNoigNvQpWk_JCCK3xwc"  >
<path style="stroke: none; stroke-width: 1; stroke-dasharray: none; stroke-linecap: butt; stroke-dashoffset: 0; stroke-linejoin: miter; stroke-miterlimit: 4; fill: rgb(214,240,236); fill-rule: evenodd; opacity: 1;" vector-effect="non-scaling-stroke"  transform=" translate(-20.87, -52.22)" d="M 30.639608 55.202352 L 25.2274729 64.6580627 C 16.7723056 59.6438449 11.1048594 50.4273445 11.1048594 39.8859866 L 11.1048594 39.7732817 L 22.0004327 39.7732817 C 21.9981326 39.8100833 21.9981326 39.849185 21.9981326 39.8859866 C 21.9981326 46.3814688 25.459783 52.0673158 30.639608 55.202352" stroke-linecap="round" />
</g>
<g transform="matrix(1 0 0 1 132.48 72.74)" id="GxsE2YFzWVQmT7U6kbbdc"  >
<path style="stroke: none; stroke-width: 1; stroke-dasharray: none; stroke-linecap: butt; stroke-dashoffset: 0; stroke-linejoin: miter; stroke-miterlimit: 4; fill: rgb(214,240,236); fill-rule: evenodd; opacity: 1;" vector-effect="non-scaling-stroke"  transform=" translate(-21.04, -27.35)" d="M 30.9754226 24.3741588 C 25.6414909 27.4424921 22.0395344 33.1858416 22.0004327 39.7733277 L 11.1048594 39.7733277 C 11.1462612 29.1468661 16.9471132 19.8751634 25.5494869 14.9253484 L 30.9754226 24.3741588 Z" stroke-linecap="round" />
</g>
<g transform="matrix(1 0 0 1 143.91 107.33)" id="pKv6MQOIwWcPOzB2qKr2g"  >
<path style="stroke: none; stroke-width: 1; stroke-dasharray: none; stroke-linecap: butt; stroke-dashoffset: 0; stroke-linejoin: miter; stroke-miterlimit: 4; fill: rgb(254,225,223); fill-rule: evenodd; opacity: 1;" vector-effect="non-scaling-stroke"  transform=" translate(-32.48, -61.93)" d="M 39.7273717 57.7693095 L 39.7273717 68.6648828 C 34.4325417 68.6372816 29.4781265 67.1790182 25.2275419 64.6581087 L 30.639677 55.202398 C 33.2962924 56.8078677 36.4037274 57.7417083 39.7273717 57.7693095" stroke-linecap="round" />
</g>
<g transform="matrix(1 0 0 1 170.16 97.7)" id="3MGbSQFTPInEU1AuvbPD7"  >
<path style="stroke: none; stroke-width: 1; stroke-dasharray: none; stroke-linecap: butt; stroke-dashoffset: 0; stroke-linejoin: miter; stroke-miterlimit: 4; fill: rgb(253,188,183); fill-rule: evenodd; opacity: 1;" vector-effect="non-scaling-stroke"  transform=" translate(-58.73, -52.31)" d="M 68.6625827 39.7732587 L 68.6625827 39.8859636 C 68.6625827 50.5607273 62.8525303 59.876132 54.2202553 64.8443478 L 48.7943196 55.3978375 C 54.1604527 52.3111034 57.7716096 46.5194518 57.7716096 39.8859636 C 57.7716096 39.849162 57.7716096 39.8100603 57.7693095 39.7732587 L 68.6625827 39.7732587 Z" stroke-linecap="round" />
</g>
<g transform="matrix(1 0 0 1 158.41 107.43)" id="tKQ04es_qdluXuP561bNo"  >
<path style="stroke: none; stroke-width: 1; stroke-dasharray: none; stroke-linecap: butt; stroke-dashoffset: 0; stroke-linejoin: miter; stroke-miterlimit: 4; fill: rgb(254,194,189); fill-rule: evenodd; opacity: 1;" vector-effect="non-scaling-stroke"  transform=" translate(-46.97, -62.03)" d="M 54.2202323 64.8443478 C 49.999549 67.2755534 45.1026362 68.6648138 39.8837095 68.6648138 L 39.7273027 68.6648138 L 39.7273027 57.7692405 C 39.780205 57.7715406 39.8308072 57.7715406 39.8837095 57.7715406 C 43.1270804 57.7715406 46.1698826 56.9090031 48.7942966 55.3978375 L 54.2202323 64.8443478 Z" stroke-linecap="round" />
</g>
<g transform="matrix(1 0 0 1 151.32 85.28)" id="CfS0JaZ9IYJ_Q_f4tdTka"  >
<path style="stroke: none; stroke-width: 1; stroke-dasharray: none; stroke-linecap: butt; stroke-dashoffset: 0; stroke-linejoin: miter; stroke-miterlimit: 4; fill: rgb(255,255,255); fill-rule: evenodd; opacity: 1;" vector-effect="non-scaling-stroke"  transform=" translate(-39.88, -39.88)" d="M 57.7716786 39.8860326 C 57.7716786 46.5195208 54.1605217 52.3111724 48.7943886 55.3976765 C 46.1699746 56.9090721 43.1269424 57.7716096 39.8835715 57.7716096 C 39.8308992 57.7716096 39.780297 57.7716096 39.7273947 57.7693095 C 36.4037504 57.7417083 33.2963154 56.8078677 30.6397 55.202398 C 25.459875 52.0673618 21.9982246 46.3815148 21.9982246 39.8860326 C 21.9982246 39.849231 21.9982246 39.8101293 22.0002947 39.7733277 C 22.0393964 33.1858416 25.6415829 27.4424921 30.9755146 24.3741588 C 33.5973985 22.8629932 36.6406607 21.9981556 39.8835715 21.9981556 C 42.9682355 21.9981556 45.8732617 22.7801896 48.4079718 24.1579494 C 53.9532827 27.1687802 57.7300468 33.0271347 57.7691485 39.7733277 C 57.7716786 39.8101293 57.7716786 39.849231 57.7716786 39.8860326" stroke-linecap="round" />
</g>
<g transform="matrix(1 0 0 1 151.12 63.14)" id="mpY3RDAwbC_K455Kh_THJ"  >
<path style="stroke: none; stroke-width: 1; stroke-dasharray: none; stroke-linecap: butt; stroke-dashoffset: 0; stroke-linejoin: miter; stroke-miterlimit: 4; fill: rgb(9,172,142); fill-rule: evenodd; opacity: 1;" vector-effect="non-scaling-stroke"  transform=" translate(-39.68, -17.74)" d="M 53.8199689 14.6999386 L 48.4080638 24.1579494 C 45.8731237 22.7801896 42.9680975 21.9981556 39.8836635 21.9981556 C 36.6407527 21.9981556 33.5974905 22.8629932 30.9753766 24.3741588 L 25.5494409 14.9253484 C 29.7701242 12.4964428 34.6647368 11.1071825 39.8836635 11.1071825 C 44.9395132 11.1071825 49.6915196 12.4113391 53.8199689 14.6999386" stroke-linecap="round" />
</g>
<g transform="matrix(1 0 0 1 141.15 117.61)" id="gmWRUV3fTXhbG_fhgDh5D"  >
<path style="stroke: none; stroke-width: 1; stroke-dasharray: none; stroke-linecap: butt; stroke-dashoffset: 0; stroke-linejoin: miter; stroke-miterlimit: 4; fill: rgb(254,240,239); fill-rule: evenodd; opacity: 1;" vector-effect="non-scaling-stroke"  transform=" translate(-29.72, -72.21)" d="M 39.7273717 68.6649058 L 39.7273717 79.7695582 C 32.4245545 79.742187 25.5863575 77.7503004 19.7096022 74.2978505 L 25.2275419 64.6581317 C 29.4781265 67.1790412 34.4325417 68.6373046 39.7273717 68.6649058" stroke-linecap="round" />
</g>
<g transform="matrix(1 0 0 1 124.23 67.91)" id="qe3Hyt3CNrvI7ktSvZXeJ"  >
<path style="stroke: none; stroke-width: 1; stroke-dasharray: none; stroke-linecap: butt; stroke-dashoffset: 0; stroke-linejoin: miter; stroke-miterlimit: 4; fill: rgb(255,255,255); fill-rule: nonzero; opacity: 1;" vector-effect="non-scaling-stroke"  transform=" translate(-12.91, -22.63)" d="M 25.8218086 15.0826938 L 20.1731749 5.25040871 L 20.0734148 5.30784574 C 7.78827043 12.3810389 0.0408476723 25.4547355 0.000323803157 39.8879868 L -1.04596434e-13 40.0033147 L 11.3347685 40.0033147 L 11.3352149 39.8887578 C 11.3754661 29.5575952 16.927744 20.2003481 25.7221949 15.1400116 L 25.8218086 15.0826938 Z M 20.088706 5.56509175 L 25.5082014 14.9982615 L 25.3425198 15.0949699 C 16.7192793 20.1783471 11.2565303 29.3896259 11.1080884 39.5757407 L 11.1061258 39.7730977 L 0.231023371 39.7730977 L 0.230332888 39.8886326 C 0.270221158 25.6817605 7.82014779 12.7999411 19.8230952 5.71994296 L 20.088706 5.56509175 Z" stroke-linecap="round" />
</g>
<g transform="matrix(1 0 0 1 151.08 52.88)" id="A3YRXMkI-CVoMiC-cs2wg"  >
<path style="stroke: none; stroke-width: 1; stroke-dasharray: none; stroke-linecap: butt; stroke-dashoffset: 0; stroke-linejoin: miter; stroke-miterlimit: 4; fill: rgb(255,255,255); fill-rule: nonzero; opacity: 1;" vector-effect="non-scaling-stroke"  transform=" translate(-39.76, -7.6)" d="M 39.9989919 2.288047e-14 C 46.845099 2.288047e-14 53.4422461 1.72246019 59.3050769 4.95774854 L 59.5116947 5.07256301 L 59.4553761 5.1726947 L 59.5553424 5.23006519 L 53.9787449 14.9705223 L 53.8795387 14.9155275 C 49.6671513 12.5803972 44.9226525 11.3371925 39.9989919 11.3371925 C 34.9938398 11.3371925 30.1760279 12.6216897 25.915411 15.0297986 L 25.6223803 15.1974359 L 19.9737712 5.36519367 L 20.0733499 5.30786642 C 26.084507 1.8472553 32.905459 2.288047e-14 39.9989919 2.288047e-14 Z M 39.9989919 0.230009992 C 33.027071 0.230009992 26.3205122 2.02458249 20.3945113 5.38919663 L 20.2878946 5.45008675 L 25.7073901 14.8834865 L 25.8022418 14.8295554 C 30.0320789 12.4388448 34.806863 11.1466814 39.7698009 11.1080737 L 39.9989919 11.1071825 C 44.8855715 11.1071825 49.5975546 12.3221681 53.7946933 14.6064989 L 53.8914344 14.6594568 L 59.2975892 5.21685662 L 59.1915325 5.15779829 C 53.4324937 1.98030604 46.9610676 0.270985324 40.2419583 0.230737537 L 39.9989919 0.230009992 Z" stroke-linecap="round" />
</g>
<g transform="matrix(1 0 0 1 178.21 67.79)" id="VHvK10Xc-1PTBG7jjFVF3"  >
<path style="stroke: none; stroke-width: 1; stroke-dasharray: none; stroke-linecap: butt; stroke-dashoffset: 0; stroke-linejoin: miter; stroke-miterlimit: 4; fill: rgb(255,255,255); fill-rule: nonzero; opacity: 1;" vector-effect="non-scaling-stroke"  transform=" translate(-66.89, -22.51)" d="M 59.4124008 5.01685377 L 59.5117956 5.07251186 C 71.9014652 12.0103519 79.8004502 25.0221946 79.9965177 39.4503005 L 80.0000981 39.8879445 L 79.8848635 39.8883327 L 79.8850935 40.0032687 L 68.6633465 40.0032687 L 68.6629069 39.888705 C 68.6230477 29.5009736 63.0086902 20.1051974 54.149051 15.0667884 L 53.8795862 14.9154466 L 53.7776392 14.8589039 L 59.4124008 5.01685377 Z M 59.4983879 5.32910149 L 54.0926931 14.7712417 L 54.2627668 14.8668551 C 63.103074 19.8942742 68.7380703 29.2259311 68.88998 39.5708289 L 68.891766 39.7730977 L 79.7691685 39.7730977 L 79.7665292 39.4534525 C 79.5735589 25.253118 71.875947 12.4327695 59.7713391 5.48407577 L 59.4983879 5.32910149 Z" stroke-linecap="round" />
</g>
<g transform="matrix(1 0 0 1 178.41 102.54)" id="SIHlOkvfvTLGSDSMXOn3J"  >
<path style="stroke: none; stroke-width: 1; stroke-dasharray: none; stroke-linecap: butt; stroke-dashoffset: 0; stroke-linejoin: miter; stroke-miterlimit: 4; fill: rgb(255,255,255); fill-rule: nonzero; opacity: 1;" vector-effect="non-scaling-stroke"  transform=" translate(-67.09, -57.26)" d="M 80.0000985 39.7732587 L 68.662906 39.7732587 L 68.662906 40.0009686 C 68.662906 50.3755972 63.1067152 59.7785272 54.2782166 64.8596775 L 54.1786192 64.9169997 L 59.8272477 74.7492758 L 59.9270083 74.6918367 C 72.2455154 67.5992193 80.0000985 54.4767288 80.0000985 40.0009686 L 80.0000985 39.7732587 Z M 79.7698585 40.0031077 L 79.7677787 40.4323394 C 79.616975 54.5102926 72.09202 67.2511708 60.1783128 74.2791527 L 59.9114859 74.4344534 L 54.4922205 65.0010536 L 54.6589323 64.9040707 C 63.3151909 59.7996545 68.781687 50.5434798 68.8912381 40.3144041 L 68.892686 40.0031077 L 79.7698585 40.0031077 Z" stroke-linecap="round" />
</g>
<g transform="matrix(1 0 0 1 161.2 117.68)" id="9fqVw2sK3AWnuXy8_1HA6"  >
<path style="stroke: none; stroke-width: 1; stroke-dasharray: none; stroke-linecap: butt; stroke-dashoffset: 0; stroke-linejoin: miter; stroke-miterlimit: 4; fill: rgb(255,255,255); fill-rule: nonzero; opacity: 1;" vector-effect="non-scaling-stroke"  transform=" translate(-49.88, -72.4)" d="M 60.0267065 74.6345024 L 54.377831 64.802205 L 54.2780631 64.8596766 C 49.972003 67.3401963 45.0818225 68.6647908 39.9989459 68.6647908 L 39.7277641 68.6647908 L 39.7277641 79.9996832 L 39.9989459 79.9996832 C 47.0119242 79.9996832 53.7585908 78.1943729 59.7217878 74.8091814 L 60.0267065 74.6345024 Z M 54.2928018 65.1160586 L 59.7125272 74.5494584 L 59.6058919 74.6104855 C 53.7465939 77.9361711 47.1267937 79.7277311 40.2420462 79.7689457 L 39.9576591 79.7695352 L 39.9576591 68.8946628 L 39.9989459 68.8948008 C 45.0470347 68.8948008 49.907078 67.5984778 54.2009891 65.1685431 L 54.2928018 65.1160586 Z" stroke-linecap="round" />
</g>
<g transform="matrix(1 0 0 1 124.04 102.45)" id="gCZSWUErUJGvlcqLls1KR"  >
<path style="stroke: none; stroke-width: 1; stroke-dasharray: none; stroke-linecap: butt; stroke-dashoffset: 0; stroke-linejoin: miter; stroke-miterlimit: 4; fill: rgb(255,255,255); fill-rule: nonzero; opacity: 1;" vector-effect="non-scaling-stroke"  transform=" translate(-12.72, -57.17)" d="M 11.3352387 39.7733737 L 11.3352387 40.0010836 C 11.3352387 50.1403649 16.6431279 59.3577674 25.1429658 64.5190836 L 25.4015115 64.6742423 L 25.3428242 64.7731137 L 25.442657 64.8302925 L 19.8669369 74.5709523 L 19.7666535 74.512038 C 7.74083422 67.4471331 0.153179478 54.6107859 0.00262896461 40.4311754 L 0.000346350865 40.0010836 L 0.000346350865 39.7733737 L 11.3352387 39.7733737 Z M 11.1052057 40.0033377 L 0.230333341 40.0033377 L 0.232625808 40.4287058 C 0.380797202 54.384487 7.77461237 67.0313395 19.5221851 74.099106 L 19.7830227 74.2543556 L 25.1868774 64.8135955 L 25.0235705 64.715678 C 16.5423274 59.5656478 11.213649 50.4088944 11.1068643 40.3105088 L 11.1052057 40.0033377 Z" stroke-linecap="round" />
</g>
<g transform="matrix(1 0 0 1 169.95 72.61)" id="Iv5JlKAdTBuzUjUQ9Tw2J"  >
<path style="stroke: none; stroke-width: 1; stroke-dasharray: none; stroke-linecap: butt; stroke-dashoffset: 0; stroke-linejoin: miter; stroke-miterlimit: 4; fill: rgb(255,255,255); fill-rule: nonzero; opacity: 1;" vector-effect="non-scaling-stroke"  transform=" translate(-58.63, -27.33)" d="M 53.8919089 14.6592626 L 53.9911464 14.7143025 C 62.9875031 19.7039377 68.7365202 29.1203709 68.88998 39.5708289 L 68.8929152 39.8878224 L 68.777681 39.8881027 L 68.777911 40.0032687 L 57.7702975 40.0032687 L 57.7696348 39.8889303 C 57.7320783 33.4093383 54.1933657 27.5612939 48.6373381 24.46688 L 48.4683577 24.3739549 L 48.3650036 24.3178411 L 53.8919089 14.6592626 Z M 53.9783781 14.9708903 L 48.681018 24.2283325 L 48.7492664 24.2659405 C 54.3201695 27.3686435 57.8889741 33.2047625 57.9974041 39.6889029 L 57.9982628 39.7730977 L 68.661756 39.7730977 L 68.6599951 39.5742324 C 68.5092953 29.3116045 62.9191989 20.0543044 54.149051 15.0667884 L 53.9783781 14.9708903 Z" stroke-linecap="round" />
</g>
<g transform="matrix(1 0 0 1 132.3 97.63)" id="vGC6sYm6Qx8sCzNrMpOnT"  >
<path style="stroke: none; stroke-width: 1; stroke-dasharray: none; stroke-linecap: butt; stroke-dashoffset: 0; stroke-linejoin: miter; stroke-miterlimit: 4; fill: rgb(255,255,255); fill-rule: nonzero; opacity: 1;" vector-effect="non-scaling-stroke"  transform=" translate(-20.98, -52.35)" d="M 11.1051827 39.7732817 L 22.2381782 39.7732817 L 22.2293985 39.9193217 L 22.2284659 40.0009916 C 22.2284659 46.2323402 25.4610443 51.9040557 30.6564485 55.1222025 L 30.8144845 55.2189692 L 30.7547293 55.317403 L 30.8547483 55.374486 L 25.3845957 64.9315608 L 25.2841389 64.8719863 C 16.6516542 59.7526129 11.2146943 50.5119335 11.1068183 40.3104193 L 11.1051827 40.0009916 L 11.1051827 39.7732817 Z M 21.9982489 40.0031077 L 11.3349857 40.0031077 L 11.3368153 40.3079597 C 11.4427501 50.3261542 16.729017 59.4100862 25.1429202 64.5189988 L 25.3011924 64.6139468 L 30.5994726 55.3569647 L 30.5353152 55.3177308 C 25.3261004 52.0910239 22.0648101 46.4286631 21.9994569 40.1920847 L 21.9982489 40.0031077 Z" stroke-linecap="round" />
</g>
<g transform="matrix(1 0 0 1 132.5 72.72)" id="c_tzZpx7p7lc7Dal0C4if"  >
<path style="stroke: none; stroke-width: 1; stroke-dasharray: none; stroke-linecap: butt; stroke-dashoffset: 0; stroke-linejoin: miter; stroke-miterlimit: 4; fill: rgb(255,255,255); fill-rule: nonzero; opacity: 1;" vector-effect="non-scaling-stroke"  transform=" translate(-21.18, -27.44)" d="M 31.2477089 24.5315496 L 25.7072264 14.8832655 L 25.6074585 14.9406721 C 16.7426462 20.0414945 11.1457575 29.4739244 11.1051836 39.8878847 L 11.1047338 40.0033377 L 22.2300854 40.0033377 L 22.230764 39.8890154 C 22.2686859 33.5002866 25.7083257 27.7180685 31.1480962 24.5888517 L 31.2477089 24.5315496 Z M 25.6227464 15.1979102 L 30.9341371 24.447072 L 30.8687149 24.4853686 C 25.5087613 27.6440644 22.107986 33.3639939 22.0029428 39.6936953 L 22.0019291 39.7733277 L 11.3361358 39.7733277 L 11.3351919 39.8887808 C 11.3750406 29.6609299 16.8172266 20.3876134 25.4593133 15.2931305 L 25.6227464 15.1979102 Z" stroke-linecap="round" />
</g>
<g transform="matrix(1 0 0 1 143.89 107.31)" id="PTbmaCs_HENIohaeDX_ud"  >
<path style="stroke: none; stroke-width: 1; stroke-dasharray: none; stroke-linecap: butt; stroke-dashoffset: 0; stroke-linejoin: miter; stroke-miterlimit: 4; fill: rgb(255,255,255); fill-rule: nonzero; opacity: 1;" vector-effect="non-scaling-stroke"  transform=" translate(-32.57, -62.03)" d="M 30.7136952 55.1580635 L 30.8144879 55.2189755 C 33.4693635 56.8233938 36.501257 57.7093319 39.6644669 57.7669381 L 39.8436551 57.7693134 L 39.8426541 57.8843145 L 39.9577051 57.8843145 L 39.9577051 68.8954938 L 39.8421006 68.8948912 C 34.7225393 68.8682037 29.8033758 67.506781 25.4747879 64.9840792 L 25.2842052 64.8720307 L 25.1868056 64.8142655 L 30.7136952 55.1580635 Z M 30.7965911 55.4761099 L 25.499231 64.7314819 L 25.5905965 64.7853508 C 29.8214768 67.2511104 34.6209191 68.5984387 39.6193572 68.6628578 L 39.7276491 68.6637327 L 39.7276491 57.9977094 L 39.6602484 57.9969094 C 36.5167298 57.939657 33.5007938 57.0746338 30.8481549 55.5070469 L 30.7965911 55.4761099 Z" stroke-linecap="round" />
</g>
<g transform="matrix(1 0 0 1 170.14 97.72)" id="DBZRuLEgSIIT-47DyCpL2"  >
<path style="stroke: none; stroke-width: 1; stroke-dasharray: none; stroke-linecap: butt; stroke-dashoffset: 0; stroke-linejoin: miter; stroke-miterlimit: 4; fill: rgb(255,255,255); fill-rule: nonzero; opacity: 1;" vector-effect="non-scaling-stroke"  transform=" translate(-58.82, -52.44)" d="M 68.892916 39.7732587 L 57.7622206 39.7732587 L 57.7710003 39.9192987 L 57.7717973 39.9573426 L 57.7719329 40.0009686 C 57.7719329 46.4331204 54.3261364 52.2644684 48.8523044 55.4131536 L 48.7526785 55.4704609 L 54.2931889 65.116445 L 54.3929507 65.0590281 C 63.2920631 59.9372368 68.892916 50.4587235 68.892916 40.0009686 L 68.892916 39.7732587 Z M 68.662676 40.0031077 L 68.6612415 40.3119126 C 68.5525639 50.459675 63.1296552 59.6420439 54.5420876 64.7059498 L 54.3774455 64.801635 L 49.0662848 55.5545433 L 49.1327082 55.5160384 C 54.5258995 52.3374423 57.9326247 46.5690943 58.0008972 40.1962426 L 58.0017129 40.0031077 L 68.662676 40.0031077 Z" stroke-linecap="round" />
</g>
<g transform="matrix(1 0 0 1 158.43 107.41)" id="zCG6bzRLhdPHctJs6cwSb"  >
<path style="stroke: none; stroke-width: 1; stroke-dasharray: none; stroke-linecap: butt; stroke-dashoffset: 0; stroke-linejoin: miter; stroke-miterlimit: 4; fill: rgb(255,255,255); fill-rule: nonzero; opacity: 1;" vector-effect="non-scaling-stroke"  transform=" translate(-47.11, -62.13)" d="M 54.4924959 65.0016747 L 48.952008 55.3557299 L 48.8522376 55.4131788 C 46.2330442 56.9213384 43.2670509 57.7397127 40.1807236 57.7706308 L 39.9221122 57.7712602 L 39.8476266 57.769349 L 39.7276261 57.7641316 L 39.7276261 68.8948238 L 39.9990379 68.8948238 C 45.0468996 68.8948238 49.9069284 67.5985039 54.2010683 65.1685675 L 54.4924959 65.0016747 Z M 48.8668661 55.6693183 L 54.1782568 64.9164099 L 54.0849491 64.9699934 C 49.8903696 67.3429597 45.1517568 68.6256058 40.2264892 68.6639291 L 39.9574291 68.6646528 L 39.9574291 58.0013896 L 39.9990379 58.0015506 C 43.1297576 58.0015506 46.1436211 57.2018823 48.8105368 55.7015673 L 48.8668661 55.6693183 Z" stroke-linecap="round" />
</g>
<g transform="matrix(1 0 0 1 151.32 85.28)" id="3Zkvpn3cfFdUn4hDaTTgZ"  >
<path style="stroke: none; stroke-width: 1; stroke-dasharray: none; stroke-linecap: butt; stroke-dashoffset: 0; stroke-linejoin: miter; stroke-miterlimit: 4; fill: rgb(255,255,255); fill-rule: nonzero; opacity: 1;" vector-effect="non-scaling-stroke"  transform=" translate(-40, -40)" d="M 58.0009662 40.1963126 C 57.9319964 46.6342261 54.456063 52.4551939 48.9671109 55.6123413 C 46.3140463 57.1402368 43.3091491 57.9693731 40.1829331 58.0009376 L 39.8938073 58.0009376 L 39.8417681 57.9993155 C 36.5723397 57.9721645 33.4356083 57.0717298 30.6954801 55.4157908 C 25.3930821 52.2065685 22.0655689 46.4923477 21.9995489 40.1921307 L 21.9988174 39.9431171 L 21.9998296 39.9028402 C 22.0000625 39.8971217 22.0003266 39.8920057 22.0006201 39.8876501 C 22.039032 33.4163628 25.5234182 27.5591379 31.033414 24.3895241 C 33.7375183 22.8309694 36.8087039 21.9981556 39.9988999 21.9981556 C 43.0362242 21.9981556 45.9668157 22.7524625 48.5781754 24.1718858 C 54.3041262 27.2807952 57.9610535 33.2579784 57.999211 39.8804448 L 58.0007987 39.9102628 L 58.0019502 39.9675598 L 58.0009662 40.1963126 Z M 57.7720019 40.0010376 L 57.7712687 39.9280672 L 57.7694738 39.8889993 C 57.7315383 33.3440107 54.1214062 27.4433135 48.4683776 24.3739973 C 45.8904786 22.9727618 42.9976147 22.2281656 39.9988999 22.2281656 C 36.8492923 22.2281656 33.817674 23.0502499 31.1481882 24.5888517 C 25.7083345 27.7181163 22.2685474 33.5003707 22.2304465 39.8947916 L 22.2294045 39.918935 L 22.2285579 39.957293 L 22.2285579 40.0010376 C 22.2285579 46.2953292 25.5267708 52.0186247 30.8145109 55.2189755 C 33.5194785 56.8536658 36.6158252 57.7425077 39.8477186 57.769418 L 39.8983928 57.7709721 L 39.9988999 57.7716096 C 43.1506315 57.7716096 46.1819377 56.9508921 48.8523766 55.4129907 C 54.3261737 52.2645603 57.7720019 46.4332216 57.7720019 40.0010376 Z" stroke-linecap="round" />
</g>
<g transform="matrix(1 0 0 1 151.09 63.16)" id="ZEw5UN7xKGDkGpwS_ZoId"  >
<path style="stroke: none; stroke-width: 1; stroke-dasharray: none; stroke-linecap: butt; stroke-dashoffset: 0; stroke-linejoin: miter; stroke-miterlimit: 4; fill: rgb(255,255,255); fill-rule: nonzero; opacity: 1;" vector-effect="non-scaling-stroke"  transform=" translate(-39.77, -17.88)" d="M 39.9989919 11.1071825 C 44.8855715 11.1071825 49.5975546 12.3221681 53.7946933 14.6064989 L 53.9910558 14.7143596 L 53.9351363 14.8149436 L 54.0351162 14.8720603 L 48.5673309 24.4277292 L 48.4684734 24.3739994 C 45.8903325 22.9727595 42.9974774 22.2281656 39.9989919 22.2281656 C 36.9099829 22.2281656 33.9344435 23.0189192 31.3025493 24.5008375 L 31.0483331 24.6463202 L 25.507821 14.9979847 L 25.6074068 14.9406753 C 29.9500222 12.4416008 34.8774678 11.1071825 39.9989919 11.1071825 Z M 39.9989919 11.3371925 C 34.9938398 11.3371925 30.1760279 12.6216897 25.915411 15.0297986 L 25.821935 15.0831352 L 31.1333258 24.332527 L 31.1897062 24.3004104 C 33.803538 22.8286639 36.7521004 22.0298394 39.8150777 21.9990788 L 39.9989919 21.9981556 C 42.9741039 21.9981556 45.8470052 22.7219857 48.4180175 24.0858362 L 48.4790692 24.1186177 L 53.7771194 14.8593355 L 53.6847443 14.8085281 C 49.5861809 12.5778466 44.9928486 11.3751154 40.2261092 11.3380747 L 39.9989919 11.3371925 Z" stroke-linecap="round" />
</g>
<g transform="matrix(1 0 0 1 141.13 117.59)" id="Xx-oT_HtKaAzWxmCuF7ct"  >
<path style="stroke: none; stroke-width: 1; stroke-dasharray: none; stroke-linecap: butt; stroke-dashoffset: 0; stroke-linejoin: miter; stroke-miterlimit: 4; fill: rgb(255,255,255); fill-rule: nonzero; opacity: 1;" vector-effect="non-scaling-stroke"  transform=" translate(-29.81, -72.31)" d="M 19.6686281 74.454414 L 25.3010811 64.6146431 L 25.4015353 64.6742198 C 29.6782542 67.2106288 34.5463155 68.5975002 39.6193572 68.6628808 L 39.8432996 68.6649073 L 39.8426541 68.7798878 L 39.9577051 68.7799108 L 39.9577051 80 L 39.842269 79.9995673 C 32.766196 79.973046 25.9631633 78.1041997 19.970652 74.6310395 L 19.7666767 74.5120151 L 19.6686281 74.454414 Z M 25.384916 64.9311306 L 19.9812913 74.3709706 L 20.0882921 74.4333718 C 25.9772215 77.8459727 32.65311 79.7002801 39.6006652 79.7679244 L 39.7276491 79.7686151 L 39.7276491 68.8937427 L 39.6163689 68.8928714 C 34.5779858 68.8279337 29.7397201 67.4697054 25.4747879 64.9841022 L 25.384916 64.9311306 Z" stroke-linecap="round" />
</g>
</svg>