<?xml version="1.0" encoding="UTF-8"?>
<svg width="40px" height="26px" viewBox="0 0 40 26" version="1.1" xmlns="http://www.w3.org/2000/svg" xmlns:xlink="http://www.w3.org/1999/xlink">
    <title>np_balance_2465924_000000</title>
    <g id="Final" stroke="none" stroke-width="1" fill="none" fill-rule="evenodd">
        <g id="Modal-window" transform="translate(-758.000000, -603.000000)">
            <g id="Group-3-Copy" transform="translate(694.000000, 350.000000)">
                <g id="np_balance_2465924_000000" transform="translate(64.000000, 253.000000)">
                    <path d="M12.5803684,24.7304366 C12.4452257,24.9103941 12.4452257,25.1340327 12.5347367,25.3122548 C12.6242478,25.4904769 12.8050222,25.625 13.0296939,25.625 L21.6559493,25.625 C21.8806031,25.625 22.0596251,25.490468 22.1509065,25.3122548 C22.2404175,25.1340417 22.2404175,24.9104031 22.1052748,24.7304366 L18.3318104,19.2284795 L35.7653921,25.5793688 L36.169068,24.5502733 L33.8768806,23.7011623 C35.449457,23.4320982 36.9325313,22.7175102 38.0996526,21.4193328 C40.7954978,18.4665874 40.6164937,13.8612422 37.6046954,11.1775789 C36.1672707,9.88119056 34.3243909,9.21027472 32.3482465,9.29937234 C30.4158647,9.38847891 28.6186345,10.2393702 27.3164514,11.6702995 C26.0141785,13.1012288 25.3402172,14.935781 25.4297192,16.9029957 C25.5192303,18.5575636 26.1036805,20.0793797 27.1812997,21.2866703 L8.6262464,14.4885038 L8.8052685,14.4885038 C10.7376503,14.3993972 12.5348805,13.548506 13.8370636,12.1175767 C16.5329088,9.16483135 16.3539047,4.55948613 13.3421064,1.87582278 C10.3759578,-0.807840569 5.74970767,-0.584201956 3.05386245,2.36854337 C1.75158949,3.79772829 1.07762818,5.63228056 1.16713024,7.55606463 C1.25664129,9.47971452 2.11139496,11.2688234 3.54881963,12.5651223 L3.63833068,12.6542288 L0.403675863,11.4905924 L0,12.5196879 L16.7596204,18.6035527 L12.5803684,24.7304366 Z M14.375,25 L17.5,20 L20.625,25 L14.375,25 Z M27.9326686,12.6721498 C29.0699756,11.4442238 30.5715849,10.7156205 32.2544354,10.625 L32.5280988,10.625 C34.0741086,10.625 35.5757178,11.2167628 36.7130249,12.2634477 C39.2613206,14.5842786 39.4425619,18.5418285 37.1217458,21.0880279 C34.8009115,23.6363199 30.8433558,23.8175609 28.2971527,21.4967481 C27.069225,20.3594427 26.3406206,18.8578356 26.25,17.1749876 C26.25,15.4921395 26.8417636,13.8999119 27.9328505,12.671986 L27.9326686,12.6721498 Z M2.50909329,7.7900828 C2.41820945,6.1098215 3.01164143,4.5200414 4.15213737,3.29400299 C5.38350803,1.93133433 7.07107707,1.25 8.76065337,1.25 C10.266473,1.25 11.7722926,1.79470408 12.9573135,2.88592915 C15.5127543,5.20319262 15.6945037,9.15465919 13.3671804,11.6969447 C12.2266844,12.9229831 10.7208648,13.6504665 9.03329577,13.7409477 C7.34572674,13.8314289 5.74903242,13.2405757 4.51766176,12.1050185 C3.2862911,10.9694613 2.60199353,9.47016241 2.50933964,7.78990111 L2.50909329,7.7900828 Z" id="Shape" fill="#1DA4A8" fill-rule="nonzero"></path>
                    <circle id="Oval" fill="#1DA4A8" cx="8.4375" cy="7.1875" r="6.5625"></circle>
                    <circle id="Oval-Copy-2" fill="#1DA4A8" cx="32.1875" cy="16.5625" r="6.5625"></circle>
                    <path d="M7.65584215,7.85066592 L7.65584215,9.66160016 C7.26843224,9.52880008 6.83724662,9.26492185 6.87933202,8.95446336 L5.80132485,8.86650395 C5.71542061,9.88235082 6.61992038,10.6325799 7.61203194,10.808481 L7.6558249,10.808481 L7.6558249,11.25 L8.73383208,11.25 L8.73383208,10.808481 C9.20884516,10.7205216 9.68213343,10.4997621 10.0274407,10.1462026 C10.5883494,9.57187467 10.8039508,8.68883672 10.4586436,8.02655825 C10.2868351,7.62987994 9.81183925,7.05556971 8.73383208,6.87790248 L8.73383208,5.02387599 C9.07913071,5.15667607 9.38063638,5.37743555 9.33682617,5.64129613 L10.4148333,5.72925554 C10.5007376,4.758267 9.63832322,4.05113021 8.73383208,3.87522905 L8.73383208,3.125 L7.6558249,3.125 L7.6558249,3.83213679 C7.09491621,3.9200962 6.57781773,4.14085569 6.19042507,4.53927359 C5.62951638,5.11360147 5.45772515,5.99663943 5.80301516,6.6589179 C6.10283483,7.27633803 6.79344504,7.71785701 7.65585078,7.85066592 L7.65584215,7.85066592 Z M9.33376276,8.68335383 C9.43709619,8.93678701 9.33376276,9.39215574 9.161987,9.64558891 C9.05865357,9.79804417 8.8868778,9.89902209 8.75,10 L8.75,8.125 C8.9902181,8.17647735 9.23042246,8.32695583 9.33376276,8.68336397 L9.33376276,8.68335383 Z M7.17704089,5.36606751 C7.3993248,5.18392518 7.73492643,5.046427 8.125,5 L8.125,6.875 C7.56711446,6.78392883 7.12035972,6.55535949 6.95254774,6.23573727 C6.78692268,6.00538052 6.89806687,5.59469171 7.17700741,5.36612237 L7.17704089,5.36606751 Z" id="Shape" fill="#FFFFFF" fill-rule="nonzero"></path>
                    <path d="M32.7977795,16.875 L36.5244392,16.875 C36.8309986,16.875 37.0947497,16.7377406 37.2694204,16.5095682 C37.4441087,16.2813958 37.5331627,15.9623195 37.4886357,15.6877825 C37.3139474,14.5005559 36.7436545,13.4524232 35.8667934,12.6306375 C35.0344768,11.8552164 34.0257358,11.352507 32.9296594,11.2616031 C32.6659171,11.2152567 32.359349,11.3079495 32.1846782,11.5361219 C31.965463,11.7179479 31.8781188,11.9924667 31.8781188,12.311543 L31.8781188,15.9159367 C31.8335918,16.4186461 32.2720224,16.875 32.7978146,16.875 L32.7977795,16.875 Z M32.7977795,16.875 L36.5244392,16.875 C36.8309986,16.875 37.0947497,16.7377406 37.2694204,16.5095682 C37.4441087,16.2813958 37.5331627,15.9623195 37.4886357,15.6877825 C37.3139474,14.5005559 36.7436545,13.4524232 35.8667934,12.6306375 C35.0344768,11.8552164 34.0257358,11.352507 32.9296594,11.2616031 C32.6659171,11.2152567 32.359349,11.3079495 32.1846782,11.5361219 C31.965463,11.7179479 31.8781188,11.9924667 31.8781188,12.311543 L31.8781188,15.9159367 C31.8335918,16.4186461 32.2720224,16.875 32.7978146,16.875 L32.7977795,16.875 Z M33.1731692,12.5 C34.0740454,12.6270461 34.8822905,12.9653033 35.5458943,13.5130569 C36.2577118,14.0625 36.6840431,14.7802228 36.875,15.625 L33.1268536,15.625 L33.125,12.5 L33.1731692,12.5 Z" id="Shape" fill="#FDC231" fill-rule="nonzero"></path>
                    <polygon id="Path" fill="#FDC231" fill-rule="nonzero" points="31.25 6.875 33.75 6.875 33.75 8.125 31.25 8.125"></polygon>
                </g>
            </g>
        </g>
    </g>
</svg>