<?xml version="1.0" encoding="UTF-8"?>
<svg width="40px" height="35px" viewBox="0 0 40 35" version="1.1" xmlns="http://www.w3.org/2000/svg" xmlns:xlink="http://www.w3.org/1999/xlink">
    <title>np_dashboard_1293511_000000</title>
    <g id="Final" stroke="none" stroke-width="1" fill="none" fill-rule="evenodd">
        <g id="Modal-window" transform="translate(-758.000000, -429.000000)">
            <g id="Group-3-Copy" transform="translate(694.000000, 350.000000)">
                <g id="np_dashboard_1293511_000000" transform="translate(64.000000, 82.000000)">
                    <polyline id="Path-3" stroke="#FDC231" stroke-width="3" points="2 13 10.7492902 3.90189205 19.5 8.11364832 28.2527519 5.86197757e-14 37 8.11364832"></polyline>
                    <path d="M9,17 L14,17 L14,32 L9,32 L9,17 Z M18,19 L23,19 L23,32 L18,32 L18,19 Z M7.54951657e-15,23 L5,23 L5,32 L7.54951657e-15,32 L7.54951657e-15,23 Z M26,15 L31,15 L31,32 L26,32 L26,15 Z M35,19 L40,19 L40,32 L35,32 L35,19 Z" id="Combined-Shape" fill="#1DA4A8" fill-rule="nonzero"></path>
                </g>
            </g>
        </g>
    </g>
</svg>