<?xml version="1.0" encoding="UTF-8" standalone="no" ?>
<!DOCTYPE svg PUBLIC "-//W3C//DTD SVG 1.1//EN" "http://www.w3.org/Graphics/SVG/1.1/DTD/svg11.dtd">
<svg xmlns="http://www.w3.org/2000/svg" xmlns:xlink="http://www.w3.org/1999/xlink" version="1.1" width="100" height="83.45492" viewBox="201.49949052734095 200.50048370000002 97.20101894531801 81.1190326" xml:space="preserve">
<desc>Created with Fabric.js 4.6.0</desc>
<defs>
</defs>
<g transform="matrix(1 0 0 1 250.1 241.06)" id="vImaBbaIYdMnCAhPtKJvg"  >
<path style="stroke: none; stroke-width: 1; stroke-dasharray: none; stroke-linecap: butt; stroke-dashoffset: 0; stroke-linejoin: miter; stroke-miterlimit: 4; fill: rgb(242,209,207); fill-rule: evenodd; opacity: 1;" vector-effect="non-scaling-stroke"  transform=" translate(-48.1, -40.06)" d="M 19.299 0 L 19.2982475 11.111 L 38.3052475 11.111 L 38.3053471 0 L 38.597757099999995 0 L 38.59725219999999 11.111 L 57.60325219999999 11.111 L 57.604104199999995 0 L 57.89651419999999 0 L 57.89625679999999 11.111 L 76.90225679999999 11.111 L 76.90286129999998 0 L 77.19527129999999 0 L 77.19526149999999 11.111 L 96.20126149999999 11.1114029 L 96.20126149999999 11.4038129 L 77.19526149999999 11.403004600000001 L 77.19526149999999 20.760004600000002 L 96.20126149999999 20.760783800000002 L 96.20126149999999 21.053193800000003 L 77.19526149999999 21.053009300000003 L 77.19526149999999 30.410009300000002 L 96.20126149999999 30.410164700000003 L 96.20126149999999 30.702574700000003 L 77.19526149999999 30.702014000000002 L 77.19526149999999 40.059014000000005 L 96.20126149999999 40.05954560000001 L 96.20126149999999 40.351955600000004 L 77.19526149999999 40.3510186 L 77.19526149999999 49.7080186 L 96.20126149999999 49.708926500000004 L 96.20126149999999 50.0013365 L 77.19526149999999 50.0010233 L 77.19526149999999 59.3580233 L 96.20126149999999 59.3583074 L 96.20126149999999 59.6507174 L 77.19526149999999 59.650028 L 77.19526149999999 69.00702799999999 L 96.20126149999999 69.0076883 L 96.20126149999999 69.3000983 L 77.19526149999999 69.30003260000001 L 77.19527129999999 80.11903260000001 L 76.90286129999998 80.11903260000001 L 76.90225679999999 69.30003260000001 L 57.89625679999999 69.30003260000001 L 57.89651419999999 80.11903260000001 L 57.604104199999995 80.11903260000001 L 57.60325219999999 69.30003260000001 L 38.59725219999999 69.30003260000001 L 38.597757099999995 80.11903260000001 L 38.3053471 80.11903260000001 L 38.3052475 69.30003260000001 L 19.2982475 69.30003260000001 L 19.299 80.11903260000001 L 19.00659 80.11903260000001 L 19.0062429 69.30003260000001 L 0.00024289999999993483 69.3000983 L 0.00024289999999993483 69.0076883 L 19.0062429 69.00702799999999 L 19.0062429 59.65002799999999 L 0.00024289999999993483 59.65071739999999 L 0.00024289999999993483 59.358307399999994 L 19.0062429 59.35802329999999 L 19.0062429 50.00102329999999 L 0.00024289999999993483 50.001336499999994 L 0.00024289999999993483 49.7089265 L 19.0062429 49.708018599999996 L 19.0062429 40.351018599999996 L 0.00024289999999993483 40.3519556 L 0.00024289999999993483 40.0595456 L 19.0062429 40.059014 L 19.0062429 30.702014 L 0.00024289999999993483 30.7025747 L 0.00024289999999993483 30.4101647 L 19.0062429 30.4100093 L 19.0062429 21.0530093 L 0.00024289999999993483 21.0531938 L 0.00024289999999993483 20.7607838 L 19.0062429 20.7600046 L 19.0062429 11.4030046 L 0.00024289999999993483 11.403812899999998 L 0.00024289999999993483 11.111402899999998 L 19.0062429 11.110999999999999 L 19.00659 -1.7763568394002505e-15 L 19.299 -1.7763568394002505e-15 z M 38.305 59.65 L 19.298 59.65 L 19.298 69.007 L 38.305 69.007 L 38.305 59.650000000000006 z M 57.602999999999994 59.65 L 38.596999999999994 59.65 L 38.596999999999994 69.007 L 57.602999999999994 69.007 L 57.602999999999994 59.650000000000006 z M 76.90199999999999 59.65 L 57.89599999999999 59.65 L 57.89599999999999 69.007 L 76.90199999999999 69.007 L 76.90199999999999 59.650000000000006 z M 38.304999999999986 50.001 L 19.297999999999984 50.001 L 19.297999999999984 59.358 L 38.304999999999986 59.358 L 38.304999999999986 50.001 z M 57.60299999999998 50.001 L 38.59699999999998 50.001 L 38.59699999999998 59.358 L 57.60299999999998 59.358 L 57.60299999999998 50.001 z M 76.90199999999999 50.001 L 57.89599999999999 50.001 L 57.89599999999999 59.358 L 76.90199999999999 59.358 L 76.90199999999999 50.001 z M 38.304999999999986 40.351 L 19.297999999999984 40.351 L 19.297999999999984 49.708 L 38.304999999999986 49.708 L 38.304999999999986 40.351 z M 57.60299999999998 40.351 L 38.59699999999998 40.351 L 38.59699999999998 49.708 L 57.60299999999998 49.708 L 57.60299999999998 40.351 z M 76.90199999999999 40.351 L 57.89599999999999 40.351 L 57.89599999999999 49.708 L 76.90199999999999 49.708 L 76.90199999999999 40.351 z M 38.304999999999986 30.701999999999998 L 19.297999999999984 30.701999999999998 L 19.297999999999984 40.059 L 38.304999999999986 40.059 L 38.304999999999986 30.701999999999998 z M 57.60299999999998 30.701999999999998 L 38.59699999999998 30.701999999999998 L 38.59699999999998 40.059 L 57.60299999999998 40.059 L 57.60299999999998 30.701999999999998 z M 76.90199999999999 30.701999999999998 L 57.89599999999999 30.701999999999998 L 57.89599999999999 40.059 L 76.90199999999999 40.059 L 76.90199999999999 30.701999999999998 z M 38.304999999999986 21.052999999999997 L 19.297999999999984 21.052999999999997 L 19.297999999999984 30.409999999999997 L 38.304999999999986 30.409999999999997 L 38.304999999999986 21.052999999999997 z M 57.60299999999998 21.052999999999997 L 38.59699999999998 21.052999999999997 L 38.59699999999998 30.409999999999997 L 57.60299999999998 30.409999999999997 L 57.60299999999998 21.052999999999997 z M 76.90199999999999 21.052999999999997 L 57.89599999999999 21.052999999999997 L 57.89599999999999 30.409999999999997 L 76.90199999999999 30.409999999999997 L 76.90199999999999 21.052999999999997 z M 38.304999999999986 11.402999999999997 L 19.297999999999984 11.402999999999997 L 19.297999999999984 20.759999999999998 L 38.304999999999986 20.759999999999998 L 38.304999999999986 11.402999999999999 z M 57.60299999999998 11.402999999999997 L 38.59699999999998 11.402999999999997 L 38.59699999999998 20.759999999999998 L 57.60299999999998 20.759999999999998 L 57.60299999999998 11.402999999999999 z M 76.90199999999999 11.402999999999997 L 57.89599999999999 11.402999999999997 L 57.89599999999999 20.759999999999998 L 76.90199999999999 20.759999999999998 L 76.90199999999999 11.402999999999999 z" stroke-linecap="round" />
</g>
<g transform="matrix(1 0 0 1 211.94 243.71)" id="Su9W69aT8ft0EelZyP7vv"  >
<path style="stroke: none; stroke-width: 1; stroke-dasharray: none; stroke-linecap: butt; stroke-dashoffset: 0; stroke-linejoin: miter; stroke-miterlimit: 4; fill: rgb(222,224,218); fill-rule: evenodd; opacity: 1;" vector-effect="non-scaling-stroke"  transform=" translate(-9.94, -43.71)" d="M 7.5557 34.796 L 12.3279 34.796 C 13.4325 34.796 14.3279 35.69143 14.3279 36.796 L 14.3279 52.632999999999996 L 5.5557 52.632999999999996 L 5.5557 36.79599999999999 C 5.5557 35.691399999999994 6.45113 34.79599999999999 7.5557 34.79599999999999 z" stroke-linecap="round" />
</g>
<g transform="matrix(1 0 0 1 211.94 246.56)" id="VFLd5NNpJWe218mdDZFFK"  >
<linearGradient id="SVGID_97" gradientUnits="userSpaceOnUse" gradientTransform="matrix(1 0 0 1 5.56 40.42)"  x1="0.5" y1="1" x2="0.5" y2="-0.32576">
<stop offset="0%" style="stop-color:rgb(255,110,171);stop-opacity: 1"/>
<stop offset="100%" style="stop-color:rgb(253,239,230);stop-opacity: 1"/>
<stop offset="100%" style="stop-color:rgb(252,210,165);stop-opacity: 1"/>
</linearGradient>
<path style="stroke: none; stroke-width: 1; stroke-dasharray: none; stroke-linecap: butt; stroke-dashoffset: 0; stroke-linejoin: miter; stroke-miterlimit: 4; fill: url(#SVGID_97); fill-rule: evenodd; opacity: 1;" vector-effect="non-scaling-stroke"  transform=" translate(-9.94, -46.56)" d="M 5.5557 45.423 L 14.3279 40.4161 L 14.3279 50.6971 C 14.3279 51.8017 13.43247 52.6971 12.3279 52.6971 L 7.5557 52.6971 C 6.4511 52.6971 5.5557 51.80167 5.5557 50.6971 L 5.5557 45.423 z" stroke-linecap="round" />
</g>
<g transform="matrix(1 0 0 1 232.41 230.26)" id="_KnHKj5HvC4U5vYNw1LvY"  >
<path style="stroke: none; stroke-width: 1; stroke-dasharray: none; stroke-linecap: butt; stroke-dashoffset: 0; stroke-linejoin: miter; stroke-miterlimit: 4; fill: rgb(222,224,218); fill-rule: evenodd; opacity: 1;" vector-effect="non-scaling-stroke"  transform=" translate(-30.41, -30.26)" d="M 28.024 24.27 L 32.7962 24.27 C 33.9008 24.27 34.7962 25.16543 34.7962 26.27 L 34.7962 36.2586 L 26.024 34.7966 L 26.024 26.269999999999996 C 26.024 25.165399999999995 26.919430000000002 24.269999999999996 28.024 24.269999999999996 z" stroke-linecap="round" />
</g>
<g transform="matrix(1 0 0 1 267.5 243.86)" id="vznDlSX3NSq6C37ztTDp4"  >
<path style="stroke: none; stroke-width: 1; stroke-dasharray: none; stroke-linecap: butt; stroke-dashoffset: 0; stroke-linejoin: miter; stroke-miterlimit: 4; fill: rgb(222,224,218); fill-rule: evenodd; opacity: 1;" vector-effect="non-scaling-stroke"  transform=" translate(-65.5, -43.86)" d="M 63.113 25.732 L 67.8852 25.732 C 68.9898 25.732 69.8852 26.62743 69.8852 27.732 L 69.8852 61.99 L 61.113 61.99 L 61.113 27.732 C 61.113 26.627399999999998 62.00843 25.732 63.113 25.732 z" stroke-linecap="round" />
</g>
<g transform="matrix(1 0 0 1 287.38 235.09)" id="4IgOc4WYdc3TJuoW8EzKw"  >
<path style="stroke: none; stroke-width: 1; stroke-dasharray: none; stroke-linecap: butt; stroke-dashoffset: 0; stroke-linejoin: miter; stroke-miterlimit: 4; fill: rgb(222,224,218); fill-rule: evenodd; opacity: 1;" vector-effect="non-scaling-stroke"  transform=" translate(-85.38, -35.09)" d="M 82.996 16.96 L 87.7682 16.96 C 88.8728 16.96 89.7682 17.855430000000002 89.7682 18.96 L 89.7682 53.218 L 80.996 53.218 L 80.996 18.96 C 80.996 17.8554 81.89143 16.96 82.996 16.96 z" stroke-linecap="round" />
</g>
<g transform="matrix(1 0 0 1 232.41 245.62)" id="w9mnVSu-DhHnJP5EAHi2J"  >
<linearGradient id="SVGID_98" gradientUnits="userSpaceOnUse" gradientTransform="matrix(1 0 0 1 26.02 33.92)"  x1="0.5" y1="1" x2="0.5" y2="-0.32576">
<stop offset="0%" style="stop-color:rgb(255,110,171);stop-opacity: 1"/>
<stop offset="100%" style="stop-color:rgb(253,239,230);stop-opacity: 1"/>
<stop offset="100%" style="stop-color:rgb(252,210,165);stop-opacity: 1"/>
</linearGradient>
<path style="stroke: none; stroke-width: 1; stroke-dasharray: none; stroke-linecap: butt; stroke-dashoffset: 0; stroke-linejoin: miter; stroke-miterlimit: 4; fill: url(#SVGID_98); fill-rule: evenodd; opacity: 1;" vector-effect="non-scaling-stroke"  transform=" translate(-30.41, -45.62)" d="M 26.024 33.919 L 34.7962 35.673399999999994 L 34.7962 55.31139999999999 C 34.7962 56.41599999999999 33.90077 57.31139999999999 32.7962 57.31139999999999 L 28.024 57.31139999999999 C 26.9194 57.31139999999999 26.024 56.415969999999994 26.024 55.31139999999999 L 26.024 33.919399999999996 z" stroke-linecap="round" />
</g>
<g transform="matrix(1 0 0 1 267.5 255.12)" id="DzB-L_LzKU6mMyE-UmU1m"  >
<linearGradient id="SVGID_99" gradientUnits="userSpaceOnUse" gradientTransform="matrix(1 0 0 1 61.11 47.08)"  x1="0.5" y1="1" x2="0.5" y2="-0.32576">
<stop offset="0%" style="stop-color:rgb(255,110,171);stop-opacity: 1"/>
<stop offset="100%" style="stop-color:rgb(253,239,230);stop-opacity: 1"/>
<stop offset="100%" style="stop-color:rgb(252,210,165);stop-opacity: 1"/>
</linearGradient>
<path style="stroke: none; stroke-width: 1; stroke-dasharray: none; stroke-linecap: butt; stroke-dashoffset: 0; stroke-linejoin: miter; stroke-miterlimit: 4; fill: url(#SVGID_99); fill-rule: evenodd; opacity: 1;" vector-effect="non-scaling-stroke"  transform=" translate(-65.5, -55.12)" d="M 61.113 47.077 L 69.8852 47.077 L 69.8852 61.159 C 69.8852 62.2636 68.98977 63.159 67.8852 63.159 L 65.4991 63.159 L 63.113 63.159 C 62.0084 63.159 61.113 62.26357 61.113 61.159 L 61.113 47.077 z" stroke-linecap="round" />
</g>
<g transform="matrix(1 0 0 1 287.38 243.42)" id="fZl4kOh4OV83xZ4zZBQ85"  >
<linearGradient id="SVGID_100" gradientUnits="userSpaceOnUse" gradientTransform="matrix(1 0 0 1 81 30.41)"  x1="0.5" y1="1" x2="0.5" y2="-0.32576">
<stop offset="0%" style="stop-color:rgb(255,110,171);stop-opacity: 1"/>
<stop offset="100%" style="stop-color:rgb(253,239,230);stop-opacity: 1"/>
<stop offset="100%" style="stop-color:rgb(252,210,165);stop-opacity: 1"/>
</linearGradient>
<path style="stroke: none; stroke-width: 1; stroke-dasharray: none; stroke-linecap: butt; stroke-dashoffset: 0; stroke-linejoin: miter; stroke-miterlimit: 4; fill: url(#SVGID_100); fill-rule: evenodd; opacity: 1;" vector-effect="non-scaling-stroke"  transform=" translate(-85.38, -43.42)" d="M 80.996 30.41 L 89.7682 30.41 L 89.7682 54.434 C 89.7682 55.538599999999995 88.87276999999999 56.434 87.7682 56.434 L 82.996 56.434 C 81.89139999999999 56.434 80.996 55.53857 80.996 54.434 L 80.996 30.409999999999997 z" stroke-linecap="round" />
</g>
<g transform="matrix(1 0 0 1 250.54 246.93)" id="Xa6PeBhwqnZPRUxmakiEI"  >
<path style="stroke: none; stroke-width: 1; stroke-dasharray: none; stroke-linecap: butt; stroke-dashoffset: 0; stroke-linejoin: miter; stroke-miterlimit: 4; fill: rgb(222,224,218); fill-rule: evenodd; opacity: 1;" vector-effect="non-scaling-stroke"  transform=" translate(-48.54, -46.93)" d="M 46.153 35.381 L 50.9252 35.381 C 52.029799999999994 35.381 52.9252 36.27643 52.9252 37.381 L 52.9252 58.481 L 44.153 58.481 L 44.153 37.381 C 44.153 36.2764 45.048429999999996 35.381 46.153 35.381 z" stroke-linecap="round" />
</g>
<g transform="matrix(1 0 0 1 250.54 258.26)" id="aV0PTKUdD_uSaV05-xUQ2"  >
<linearGradient id="SVGID_101" gradientUnits="userSpaceOnUse" gradientTransform="matrix(1 0 0 1 44.15 49.86)"  x1="0.5" y1="1" x2="0.5" y2="-0.32576">
<stop offset="0%" style="stop-color:rgb(255,110,171);stop-opacity: 1"/>
<stop offset="100%" style="stop-color:rgb(253,239,230);stop-opacity: 1"/>
<stop offset="100%" style="stop-color:rgb(252,210,165);stop-opacity: 1"/>
</linearGradient>
<path style="stroke: none; stroke-width: 1; stroke-dasharray: none; stroke-linecap: butt; stroke-dashoffset: 0; stroke-linejoin: miter; stroke-miterlimit: 4; fill: url(#SVGID_101); fill-rule: evenodd; opacity: 1;" vector-effect="non-scaling-stroke"  transform=" translate(-48.54, -58.26)" d="M 44.153 49.855 L 52.9252 50.586009999999995 L 52.9252 64.66801 C 52.9252 65.77261 52.02977 66.66801 50.9252 66.66801 L 46.153 66.66801 C 45.0484 66.66801 44.153 65.77257999999999 44.153 64.66801 L 44.153 49.85500999999999 z" stroke-linecap="round" />
</g>
<g transform="matrix(1 0 0 1 250.03 240.35)" id="FKeYDuJNy_68-H6MGt42Z"  >
<path style="stroke: none; stroke-width: 1; stroke-dasharray: none; stroke-linecap: butt; stroke-dashoffset: 0; stroke-linejoin: miter; stroke-miterlimit: 4; fill: rgb(155,229,255); fill-rule: nonzero; opacity: 1;" vector-effect="non-scaling-stroke"  transform=" translate(-48.03, -40.35)" d="M 90.09 30.033 C 92.2867 30.904420000000002 94.2112 32.3436 95.66760000000001 34.2019 L 95.78465000000001 34.353480000000005 L 94.62105000000001 35.238710000000005 C 93.31265 33.518910000000005 91.55955000000002 32.18891000000001 89.55085000000001 31.392010000000006 C 83.45685000000002 28.974510000000006 76.55685000000001 31.954970000000007 74.13985000000001 38.04901000000001 C 71.44865000000001 44.83291000000001 68.17015 48.12201000000001 64.24575000000002 47.67031000000001 L 64.12663000000002 47.65546400000001 C 61.19093000000002 47.26199400000001 58.26443000000002 48.00451400000001 55.32223000000002 49.90416400000001 C 54.458660000000016 50.46172400000001 53.51923000000002 50.89183400000001 52.53293000000002 51.18116400000001 C 46.92373000000002 52.82686400000001 41.04493000000002 49.66236400000001 39.31493000000002 44.10136400000001 L 39.26378200000002 43.93211400000001 C 38.95019200000002 42.86331400000001 38.501682000000024 41.83871400000001 37.92908200000002 40.88331400000001 C 34.206582000000026 34.67161400000001 26.153082000000023 32.65381400000001 19.942082000000024 36.37641400000001 L 19.424852000000023 36.68770400000001 L 18.91701200000002 36.99602400000001 L 18.418562000000023 37.301364000000014 L 17.929502000000024 37.603724000000014 L 17.449832000000026 37.90310400000001 C 17.370670000000025 37.95275100000001 17.291902000000025 38.002274000000014 17.213522000000026 38.05167400000001 L 16.747952000000026 38.34657400000001 L 16.291772000000027 38.63848400000001 L 15.844992000000026 38.92740400000001 L 15.407612000000027 39.21333400000001 L 14.979642000000027 39.496274000000014 L 14.561072000000026 39.77621400000002 L 14.151912000000026 40.05315400000002 L 13.752152000000025 40.327094000000024 L 13.361802000000026 40.59803400000003 L 12.980862000000025 40.86597400000003 C 12.918156000000025 40.91038000000003 12.855842000000026 40.95466100000003 12.793922000000025 40.99881400000003 L 12.427102000000025 41.26224400000003 L 12.069692000000025 41.522664000000034 C 12.010909000000025 41.56581700000003 11.952522000000025 41.60884400000003 11.894522000000025 41.651744000000036 L 11.551242000000025 41.907654000000036 L 11.217372000000026 42.16054400000004 C 11.162512000000026 42.20244200000004 11.108042000000026 42.244214000000035 11.053972000000027 42.28586400000004 L 10.734232000000027 42.53423400000004 C 10.681728000000026 42.57537800000004 10.629612000000026 42.61639500000004 10.577892000000027 42.65728400000004 L 10.272292000000027 42.90112400000004 C 10.222143000000028 42.941513000000036 10.172387000000027 42.98177500000004 10.123022000000027 43.02191400000004 L 9.672582000000027 43.39026400000004 L 9.373952000000028 43.63274400000004 L 8.935132000000028 43.98551400000004 L 8.507192000000028 44.32514400000004 L 8.09003200000003 44.651624000000034 L 7.683572000000029 44.964954000000034 L 7.287722000000029 45.26513400000003 L 7.029672000000029 45.45794400000003 L 6.651302000000029 45.73619400000003 L 6.404822000000029 45.914384000000034 L 6.0436920000000285 46.17069400000003 L 5.808622000000028 46.33425400000003 L 5.578072000000028 46.49195400000003 L 5.352012000000028 46.64380400000003 L 5.130412000000028 46.78979400000003 L 4.913252000000028 46.92992400000003 L 4.700502000000029 47.06419400000003 L 4.492132000000028 47.19260400000003 L 4.288122000000028 47.31515400000003 L 4.088442000000028 47.43184400000003 L 3.893072000000028 47.54267400000003 L 3.701982000000028 47.647634000000025 C 3.638995000000028 47.681645000000024 3.576712000000028 47.71467800000003 3.515142000000028 47.746734000000025 L 3.332532000000028 47.83996700000002 L 3.154122000000028 47.927333000000026 C 3.036572000000028 47.98362100000003 2.921812000000028 48.035993000000026 2.8097920000000283 48.08446300000003 L 2.643822000000028 48.15422100000003 C 2.589182000000028 48.17649500000003 2.535222000000028 48.197790000000026 2.481942000000028 48.218107000000025 L 2.324132000000028 48.27612000000003 C 2.168342000000028 48.33119600000003 2.018622000000028 48.37746000000003 1.874842000000028 48.41491000000003 L 1.733032000000028 48.44942100000003 C 1.173702000000028 48.57571100000003 0.7088320000000281 48.56091100000003 0.330732000000028 48.40472300000003 L 0.283929000000028 48.38446300000003 L 0.887199000000028 47.05266300000003 C 0.9871430000000281 47.09793700000003 1.220499000000028 47.09217600000003 1.583709000000028 46.98680800000003 C 2.034649000000028 46.85598800000003 2.613609000000028 46.59020800000003 3.310909000000028 46.188598000000034 C 3.383247000000028 46.14693300000003 3.456759000000028 46.10386700000004 3.531439000000028 46.05939800000004 L 3.758999000000028 45.92179800000004 C 3.797511000000028 45.89816500000004 3.8363150000000283 45.87418300000004 3.8754090000000283 45.84985000000004 L 4.113499000000028 45.69966000000004 L 4.358599000000028 45.541080000000036 C 4.400033000000028 45.51395000000004 4.4417580000000285 45.48647100000004 4.483779000000029 45.45864200000003 L 4.739379000000029 45.28747200000004 C 4.782562000000029 45.25824500000004 4.826036000000029 45.22866900000004 4.869799000000029 45.198743000000036 L 5.1358790000000285 45.015003000000036 L 5.408939000000029 44.82287300000004 L 5.688969000000029 44.62237300000004 L 5.9759690000000285 44.41349300000004 L 6.269919000000028 44.19624300000004 L 6.570819000000029 43.97062300000004 L 7.035189000000028 43.61650300000004 L 7.353429000000029 43.36997300000004 L 7.678589000000029 43.115083000000034 L 8.010669000000028 42.851833000000035 L 8.34965900000003 42.580233000000035 C 8.40673200000003 42.534270000000035 8.46408900000003 42.48795900000003 8.521739000000029 42.44130300000003 L 8.871069000000029 42.157173000000036 L 9.04831900000003 42.011983000000036 C 9.247799000000029 41.848203000000034 9.453509000000029 41.682493000000036 9.66546900000003 41.514863000000034 L 9.98807900000003 41.26197300000003 C 10.04262700000003 41.21958400000003 10.097569000000028 41.17707400000003 10.152889000000028 41.13444300000003 L 10.489539000000029 40.87721300000003 L 10.835549000000029 40.61709300000003 C 10.952449000000028 40.52990300000003 11.07089900000003 40.44223300000003 11.19091900000003 40.354073000000035 L 11.555659000000029 40.088153000000034 L 11.929759000000029 39.819333000000036 C 12.05601900000003 39.72924400000004 12.183849000000029 39.63867300000003 12.313229000000028 39.547613000000034 L 12.706069000000028 39.272993000000035 L 13.108279000000028 38.995463000000036 L 13.519859000000029 38.715033000000034 L 13.94081900000003 38.43169300000003 L 14.37114900000003 38.14544300000003 L 14.810859000000029 37.85627300000003 L 15.259949000000029 37.56419300000003 L 15.71841900000003 37.26919300000003 L 16.186269000000028 36.97127300000003 C 16.265026000000027 36.92137600000003 16.34417900000003 36.87135800000003 16.423709000000027 36.82121300000003 L 16.905639000000026 36.518913000000026 L 17.396949000000024 36.213683000000024 L 17.897649000000023 35.90553300000003 L 18.407739000000024 35.59445300000003 L 18.927219000000026 35.28044300000003 C 19.014581000000025 35.22786300000003 19.102339000000025 35.175163000000026 19.190479000000025 35.12234300000003 C 26.094779000000024 30.98474300000003 35.04547900000003 33.227543000000026 39.18347900000002 40.13184300000003 C 39.77748900000002 41.12304300000003 40.25137900000002 42.181143000000034 40.59527900000002 43.28364300000003 L 40.66698600000002 43.52058300000003 C 42.101986000000025 48.41158300000003 47.230186000000025 51.21328300000003 52.12098600000002 49.77828300000003 C 52.97243600000002 49.528473000000034 53.78338600000002 49.15718300000003 54.52888600000002 48.67588300000003 C 57.695486000000024 46.631283000000025 60.90948600000002 45.79408300000003 64.14708600000002 46.18428300000003 L 64.32055600000001 46.20636100000003 C 66.723256 46.52839100000003 68.95975600000001 44.93406100000003 71.00255600000001 41.30716100000003 L 71.16134600000001 41.02043100000003 C 71.557326 40.29330100000003 71.945936 39.48893100000003 72.326946 38.60643100000003 L 72.47894600000001 38.24927100000003 C 72.52947900000001 38.12883100000003 72.57987600000001 38.00699100000003 72.63013600000001 37.88376100000003 L 72.780516 37.50990100000003 C 75.495716 30.665301000000028 83.24551600000001 27.317901000000028 90.09051600000001 30.033001000000027 z" stroke-linecap="round" />
</g>
</svg>