<svg width="32" height="24" viewBox="0 0 32 24" fill="none" xmlns="http://www.w3.org/2000/svg">
<path fill-rule="evenodd" clip-rule="evenodd" d="M3 15.4L9 14V21C9 21.5523 8.55228 22 8 22H4C3.44772 22 3 21.5523 3 21V15.4Z" fill="url(#paint0_linear_1_19111)"/>
<path fill-rule="evenodd" clip-rule="evenodd" d="M13 12L19 15.2V23C19 23.5523 18.5523 24 18 24H14C13.4477 24 13 23.5523 13 23V12Z" fill="url(#paint1_linear_1_19111)"/>
<path fill-rule="evenodd" clip-rule="evenodd" d="M3 7C3 6.44772 3.44772 6 4 6H8C8.55228 6 9 6.44772 9 7V11V13.5333L3 15V7Z" fill="#DDE1EA"/>
<path fill-rule="evenodd" clip-rule="evenodd" d="M13 3C13 2.44771 13.4477 2 14 2H18C18.5523 2 19 2.44772 19 3V15L13 11.3333V3Z" fill="#DDE1EA"/>
<path fill-rule="evenodd" clip-rule="evenodd" d="M23 10L29 10.7647V22C29 22.5523 28.5523 23 28 23H24C23.4477 23 23 22.5523 23 22V10Z" fill="url(#paint2_linear_1_19111)"/>
<path fill-rule="evenodd" clip-rule="evenodd" d="M23 1C23 0.447715 23.4477 0 24 0H28C28.5523 0 29 0.447715 29 1V12L23 10.5V1Z" fill="#DDE1EA"/>
<path d="M1 16L13 12L19 15L23 11L31 12" stroke="#FFCFCF" stroke-width="1.5" stroke-linecap="round" stroke-linejoin="round"/>
<defs>
<linearGradient id="paint0_linear_1_19111" x1="9.97729" y1="22" x2="9.97729" y2="11.3939" gradientUnits="userSpaceOnUse">
<stop stop-color="#FF6EAB"/>
<stop offset="1" stop-color="#FCD2A5"/>
<stop offset="1" stop-color="#FDEFE6"/>
</linearGradient>
<linearGradient id="paint1_linear_1_19111" x1="19.9773" y1="24" x2="19.9773" y2="8.09084" gradientUnits="userSpaceOnUse">
<stop stop-color="#FF6EAB"/>
<stop offset="1" stop-color="#FCD2A5"/>
<stop offset="1" stop-color="#FDEFE6"/>
</linearGradient>
<linearGradient id="paint2_linear_1_19111" x1="29.9773" y1="23" x2="29.9773" y2="5.76508" gradientUnits="userSpaceOnUse">
<stop stop-color="#FF6EAB"/>
<stop offset="1" stop-color="#FCD2A5"/>
<stop offset="1" stop-color="#FDEFE6"/>
</linearGradient>
</defs>
</svg>
