<svg width="32" height="33" viewBox="0 0 32 33" fill="none" xmlns="http://www.w3.org/2000/svg">
<rect y="0.0224609" width="32" height="32" fill="white" fill-opacity="0.01"/>
<path fill-rule="evenodd" clip-rule="evenodd" d="M3 18.0225L9 16.0225V25.0225C9 25.5747 8.55228 26.0225 8 26.0225H4C3.44772 26.0225 3 25.5747 3 25.0225V18.0225Z" fill="#DDE1EA"/>
<path fill-rule="evenodd" clip-rule="evenodd" d="M13 14.0225L19 17.2225V29.0225C19 29.5747 18.5523 30.0225 18 30.0225H14C13.4477 30.0225 13 29.5747 13 29.0225V14.0225Z" fill="#DDE1EA"/>
<path fill-rule="evenodd" clip-rule="evenodd" d="M3 4.02246C3 3.47018 3.44772 3.02246 4 3.02246H8C8.55228 3.02246 9 3.47018 9 4.02246V16.0225L3 18.0225V4.02246Z" fill="url(#paint0_linear_29_11490)"/>
<path d="M13 9.02246C13 8.47018 13.4477 8.02246 14 8.02246H18C18.5523 8.02246 19 8.47018 19 9.02246V18.0225H13V9.02246Z" fill="url(#paint1_linear_29_11490)"/>
<path fill-rule="evenodd" clip-rule="evenodd" d="M23 13.0225L29 15.4669V23.0225C29 23.5747 28.5523 24.0225 28 24.0225H24C23.4477 24.0225 23 23.5747 23 23.0225V13.0225Z" fill="#DDE1EA"/>
<path fill-rule="evenodd" clip-rule="evenodd" d="M23 9.02246C23 8.47018 23.4477 8.02246 24 8.02246H28C28.5523 8.02246 29 8.47018 29 9.02246V15.0225L23 14.1475V9.02246Z" fill="url(#paint2_linear_29_11490)"/>
<path d="M1 19.0225L13 15.0225L19 18.0225L23 14.0225L31 15.0225" stroke="#3FDC89" stroke-width="1.5" stroke-linecap="round" stroke-linejoin="round"/>
<defs>
<linearGradient id="paint0_linear_29_11490" x1="9.97189" y1="15.0963" x2="9.97189" y2="-4.76318" gradientUnits="userSpaceOnUse">
<stop stop-color="#56C491"/>
<stop offset="1" stop-color="#F3FFD4"/>
</linearGradient>
<linearGradient id="paint1_linear_29_11490" x1="19.9719" y1="16.0717" x2="19.9719" y2="2.83203" gradientUnits="userSpaceOnUse">
<stop stop-color="#56C491"/>
<stop offset="1" stop-color="#F3FFD4"/>
</linearGradient>
<linearGradient id="paint2_linear_29_11490" x1="29.9719" y1="13.6569" x2="29.9719" y2="4.38916" gradientUnits="userSpaceOnUse">
<stop stop-color="#56C491"/>
<stop offset="1" stop-color="#F3FFD4"/>
</linearGradient>
</defs>
</svg>
