<?xml version="1.0" encoding="UTF-8" standalone="no" ?>
<!DOCTYPE svg PUBLIC "-//W3C//DTD SVG 1.1//EN" "http://www.w3.org/Graphics/SVG/1.1/DTD/svg11.dtd">
<svg xmlns="http://www.w3.org/2000/svg" xmlns:xlink="http://www.w3.org/1999/xlink" version="1.1" width="100" height="83.45492" viewBox="352.91458486696354 41.95331388867925 97.20101894531805 81.11903260000003" xml:space="preserve">
<desc>Created with Fabric.js 4.6.0</desc>
<defs>
</defs>
<g transform="matrix(1 0 0 1 401.52 82.51)" id="TNQrn7_XRaDJ0PYeBjuyd"  >
<path style="stroke: none; stroke-width: 1; stroke-dasharray: none; stroke-linecap: butt; stroke-dashoffset: 0; stroke-linejoin: miter; stroke-miterlimit: 4; fill: rgb(242,209,207); fill-rule: evenodd; opacity: 1;" vector-effect="non-scaling-stroke"  transform=" translate(-48.1, -40.06)" d="M 19.299 0 L 19.2982475 11.111 L 38.3052475 11.111 L 38.3053471 0 L 38.597757099999995 0 L 38.59725219999999 11.111 L 57.60325219999999 11.111 L 57.604104199999995 0 L 57.89651419999999 0 L 57.89625679999999 11.111 L 76.90225679999999 11.111 L 76.90286129999998 0 L 77.19527129999999 0 L 77.19526149999999 11.111 L 96.20126149999999 11.1114029 L 96.20126149999999 11.4038129 L 77.19526149999999 11.403004600000001 L 77.19526149999999 20.760004600000002 L 96.20126149999999 20.760783800000002 L 96.20126149999999 21.053193800000003 L 77.19526149999999 21.053009300000003 L 77.19526149999999 30.410009300000002 L 96.20126149999999 30.410164700000003 L 96.20126149999999 30.702574700000003 L 77.19526149999999 30.702014000000002 L 77.19526149999999 40.059014000000005 L 96.20126149999999 40.05954560000001 L 96.20126149999999 40.351955600000004 L 77.19526149999999 40.3510186 L 77.19526149999999 49.7080186 L 96.20126149999999 49.708926500000004 L 96.20126149999999 50.0013365 L 77.19526149999999 50.0010233 L 77.19526149999999 59.3580233 L 96.20126149999999 59.3583074 L 96.20126149999999 59.6507174 L 77.19526149999999 59.650028 L 77.19526149999999 69.00702799999999 L 96.20126149999999 69.0076883 L 96.20126149999999 69.3000983 L 77.19526149999999 69.30003260000001 L 77.19527129999999 80.11903260000001 L 76.90286129999998 80.11903260000001 L 76.90225679999999 69.30003260000001 L 57.89625679999999 69.30003260000001 L 57.89651419999999 80.11903260000001 L 57.604104199999995 80.11903260000001 L 57.60325219999999 69.30003260000001 L 38.59725219999999 69.30003260000001 L 38.597757099999995 80.11903260000001 L 38.3053471 80.11903260000001 L 38.3052475 69.30003260000001 L 19.2982475 69.30003260000001 L 19.299 80.11903260000001 L 19.00659 80.11903260000001 L 19.0062429 69.30003260000001 L 0.00024289999999993483 69.3000983 L 0.00024289999999993483 69.0076883 L 19.0062429 69.00702799999999 L 19.0062429 59.65002799999999 L 0.00024289999999993483 59.65071739999999 L 0.00024289999999993483 59.358307399999994 L 19.0062429 59.35802329999999 L 19.0062429 50.00102329999999 L 0.00024289999999993483 50.001336499999994 L 0.00024289999999993483 49.7089265 L 19.0062429 49.708018599999996 L 19.0062429 40.351018599999996 L 0.00024289999999993483 40.3519556 L 0.00024289999999993483 40.0595456 L 19.0062429 40.059014 L 19.0062429 30.702014 L 0.00024289999999993483 30.7025747 L 0.00024289999999993483 30.4101647 L 19.0062429 30.4100093 L 19.0062429 21.0530093 L 0.00024289999999993483 21.0531938 L 0.00024289999999993483 20.7607838 L 19.0062429 20.7600046 L 19.0062429 11.4030046 L 0.00024289999999993483 11.403812899999998 L 0.00024289999999993483 11.111402899999998 L 19.0062429 11.110999999999999 L 19.00659 -1.7763568394002505e-15 L 19.299 -1.7763568394002505e-15 z M 38.305 59.65 L 19.298 59.65 L 19.298 69.007 L 38.305 69.007 L 38.305 59.650000000000006 z M 57.602999999999994 59.65 L 38.596999999999994 59.65 L 38.596999999999994 69.007 L 57.602999999999994 69.007 L 57.602999999999994 59.650000000000006 z M 76.90199999999999 59.65 L 57.89599999999999 59.65 L 57.89599999999999 69.007 L 76.90199999999999 69.007 L 76.90199999999999 59.650000000000006 z M 38.304999999999986 50.001 L 19.297999999999984 50.001 L 19.297999999999984 59.358 L 38.304999999999986 59.358 L 38.304999999999986 50.001 z M 57.60299999999998 50.001 L 38.59699999999998 50.001 L 38.59699999999998 59.358 L 57.60299999999998 59.358 L 57.60299999999998 50.001 z M 76.90199999999999 50.001 L 57.89599999999999 50.001 L 57.89599999999999 59.358 L 76.90199999999999 59.358 L 76.90199999999999 50.001 z M 38.304999999999986 40.351 L 19.297999999999984 40.351 L 19.297999999999984 49.708 L 38.304999999999986 49.708 L 38.304999999999986 40.351 z M 57.60299999999998 40.351 L 38.59699999999998 40.351 L 38.59699999999998 49.708 L 57.60299999999998 49.708 L 57.60299999999998 40.351 z M 76.90199999999999 40.351 L 57.89599999999999 40.351 L 57.89599999999999 49.708 L 76.90199999999999 49.708 L 76.90199999999999 40.351 z M 38.304999999999986 30.701999999999998 L 19.297999999999984 30.701999999999998 L 19.297999999999984 40.059 L 38.304999999999986 40.059 L 38.304999999999986 30.701999999999998 z M 57.60299999999998 30.701999999999998 L 38.59699999999998 30.701999999999998 L 38.59699999999998 40.059 L 57.60299999999998 40.059 L 57.60299999999998 30.701999999999998 z M 76.90199999999999 30.701999999999998 L 57.89599999999999 30.701999999999998 L 57.89599999999999 40.059 L 76.90199999999999 40.059 L 76.90199999999999 30.701999999999998 z M 38.304999999999986 21.052999999999997 L 19.297999999999984 21.052999999999997 L 19.297999999999984 30.409999999999997 L 38.304999999999986 30.409999999999997 L 38.304999999999986 21.052999999999997 z M 57.60299999999998 21.052999999999997 L 38.59699999999998 21.052999999999997 L 38.59699999999998 30.409999999999997 L 57.60299999999998 30.409999999999997 L 57.60299999999998 21.052999999999997 z M 76.90199999999999 21.052999999999997 L 57.89599999999999 21.052999999999997 L 57.89599999999999 30.409999999999997 L 76.90199999999999 30.409999999999997 L 76.90199999999999 21.052999999999997 z M 38.304999999999986 11.402999999999997 L 19.297999999999984 11.402999999999997 L 19.297999999999984 20.759999999999998 L 38.304999999999986 20.759999999999998 L 38.304999999999986 11.402999999999999 z M 57.60299999999998 11.402999999999997 L 38.59699999999998 11.402999999999997 L 38.59699999999998 20.759999999999998 L 57.60299999999998 20.759999999999998 L 57.60299999999998 11.402999999999999 z M 76.90199999999999 11.402999999999997 L 57.89599999999999 11.402999999999997 L 57.89599999999999 20.759999999999998 L 76.90199999999999 20.759999999999998 L 76.90199999999999 11.402999999999999 z" stroke-linecap="round" />
</g>
<g transform="matrix(1 0 0 1 363.22 94.5)" id="pdHwIvPYoepFJOsCgd_sm"  >
<linearGradient id="SVGID_60" gradientUnits="objectBoundingBox" gradientTransform="matrix(1 0 0 1 0 0)"  x1="0.5" y1="0.8049200000000001" x2="0.5" y2="-0.5190400000000001">
<stop offset="0%" style="stop-color:rgb(86,196,145);stop-opacity: 1"/>
<stop offset="100%" style="stop-color:rgb(243,255,212);stop-opacity: 1"/>
</linearGradient>
<path style="stroke: none; stroke-width: 1; stroke-dasharray: none; stroke-linecap: butt; stroke-dashoffset: 0; stroke-linejoin: miter; stroke-miterlimit: 4; fill: url(#SVGID_60); fill-rule: evenodd; opacity: 1;" vector-effect="non-scaling-stroke"  transform=" translate(-9.8, -52.05)" d="M 7.4095 41.668 L 12.1817 41.668 C 13.286299999999999 41.668 14.1817 42.56343 14.1817 43.668 L 14.1817 62.429 L 5.4094999999999995 62.429 L 5.4094999999999995 43.668000000000006 C 5.4094999999999995 42.56340000000001 6.30493 41.668000000000006 7.4094999999999995 41.668000000000006 z" stroke-linecap="round" />
</g>
<g transform="matrix(1 0 0 1 363.22 97.6)" id="o35ykf-fmLtSPTIAdcRov"  >
<linearGradient id="SVGID_61" gradientUnits="objectBoundingBox" gradientTransform="matrix(1 0 0 1 0 0)"  x1="0.5" y1="0.8049200000000001" x2="0.5" y2="-0.5190400000000001">
<stop offset="0%" style="stop-color:rgb(220,220,220);stop-opacity: 1"/>
<stop offset="100%" style="stop-color:rgb(243,255,212);stop-opacity: 1"/>
</linearGradient>
<path style="stroke: none; stroke-width: 1; stroke-dasharray: none; stroke-linecap: butt; stroke-dashoffset: 0; stroke-linejoin: miter; stroke-miterlimit: 4; fill: url(#SVGID_61); fill-rule: nonzero; opacity: 1;" vector-effect="non-scaling-stroke"  transform=" translate(-9.8, -55.15)" d="M 5.4095 53.483 L 14.182000000000002 46.117999999999995 L 14.182000000000002 64.18299999999999 L 5.409500000000001 64.18299999999999 z" stroke-linecap="round" />
</g>
<g transform="matrix(1 0 0 1 381.64 71.4)" id="lp4JXy90JBZXJe9lf6tYK"  >
<linearGradient id="SVGID_62" gradientUnits="objectBoundingBox" gradientTransform="matrix(1 0 0 1 0 0)"  x1="0.5" y1="0.8049200000000001" x2="0.5" y2="-0.5190400000000001">
<stop offset="0%" style="stop-color:rgb(86,196,145);stop-opacity: 1"/>
<stop offset="100%" style="stop-color:rgb(243,255,212);stop-opacity: 1"/>
</linearGradient>
<path style="stroke: none; stroke-width: 1; stroke-dasharray: none; stroke-linecap: butt; stroke-dashoffset: 0; stroke-linejoin: miter; stroke-miterlimit: 4; fill: url(#SVGID_62); fill-rule: evenodd; opacity: 1;" vector-effect="non-scaling-stroke"  transform=" translate(-28.22, -28.95)" d="M 25.831 18.568 L 30.6032 18.568 C 31.707800000000002 18.568 32.6032 19.463430000000002 32.6032 20.568 L 32.6032 39.329 L 23.831000000000003 39.329 L 23.831000000000003 20.568 C 23.831000000000003 19.4634 24.726430000000004 18.568 25.831000000000003 18.568 z" stroke-linecap="round" />
</g>
<g transform="matrix(1 0 0 1 418.48 79.44)" id="jSealx6ErVmkvBjtMHRw0"  >
<linearGradient id="SVGID_63" gradientUnits="objectBoundingBox" gradientTransform="matrix(1 0 0 1 0 0)"  x1="0.5" y1="0.8049200000000001" x2="0.5" y2="-0.5190400000000001">
<stop offset="0%" style="stop-color:rgb(86,196,145);stop-opacity: 1"/>
<stop offset="100%" style="stop-color:rgb(243,255,212);stop-opacity: 1"/>
</linearGradient>
<path style="stroke: none; stroke-width: 1; stroke-dasharray: none; stroke-linecap: butt; stroke-dashoffset: 0; stroke-linejoin: miter; stroke-miterlimit: 4; fill: url(#SVGID_63); fill-rule: evenodd; opacity: 1;" vector-effect="non-scaling-stroke"  transform=" translate(-65.06, -36.99)" d="M 62.674 18.86 L 67.4462 18.86 C 68.55080000000001 18.86 69.4462 19.75543 69.4462 20.86 L 69.4462 55.118 L 60.67400000000001 55.118 L 60.67400000000001 20.86 C 60.67400000000001 19.755399999999998 61.569430000000004 18.86 62.67400000000001 18.86 z" stroke-linecap="round" />
</g>
<g transform="matrix(1 0 0 1 438.36 79.44)" id="wINI_7Vf8HAi73Z2YKuk9"  >
<linearGradient id="SVGID_64" gradientUnits="objectBoundingBox" gradientTransform="matrix(1 0 0 1 0 0)"  x1="0.5" y1="0.8049200000000001" x2="0.5" y2="-0.5190400000000001">
<stop offset="0%" style="stop-color:rgb(86,196,145);stop-opacity: 1"/>
<stop offset="100%" style="stop-color:rgb(243,255,212);stop-opacity: 1"/>
</linearGradient>
<path style="stroke: none; stroke-width: 1; stroke-dasharray: none; stroke-linecap: butt; stroke-dashoffset: 0; stroke-linejoin: miter; stroke-miterlimit: 4; fill: url(#SVGID_64); fill-rule: evenodd; opacity: 1;" vector-effect="non-scaling-stroke"  transform=" translate(-84.94, -36.99)" d="M 82.558 18.86 L 87.3302 18.86 C 88.43480000000001 18.86 89.3302 19.75543 89.3302 20.86 L 89.3302 55.118 L 80.558 55.118 L 80.558 20.86 C 80.558 19.755399999999998 81.45343000000001 18.86 82.558 18.86 z" stroke-linecap="round" />
</g>
<g transform="matrix(1 0 0 1 381.64 91.43)" id="b-80KCWebdg4RRqsLUHU7"  >
<path style="stroke: none; stroke-width: 1; stroke-dasharray: none; stroke-linecap: butt; stroke-dashoffset: 0; stroke-linejoin: miter; stroke-miterlimit: 4; fill: rgb(222,224,218); fill-rule: nonzero; opacity: 1;" vector-effect="non-scaling-stroke"  transform=" translate(-28.22, -48.98)" d="M 23.831 38.744 L 32.603 38.744 L 32.603 59.212 L 23.831000000000003 59.212 z" stroke-linecap="round" />
</g>
<g transform="matrix(1 0 0 1 418.48 90.4)" id="Yr3ZCPrKAJg259K92dWrg"  >
<linearGradient id="SVGID_65" gradientUnits="objectBoundingBox" gradientTransform="matrix(1 0 0 1 0 0)"  x1="0.5" y1="0.8049200000000001" x2="0.5" y2="-1.1562999999999999">
<stop offset="0%" style="stop-color:rgb(222,224,218);stop-opacity: 1"/>
<stop offset="100%" style="stop-color:rgb(222,224,218);stop-opacity: 1"/>
</linearGradient>
<path style="stroke: none; stroke-width: 1; stroke-dasharray: none; stroke-linecap: butt; stroke-dashoffset: 0; stroke-linejoin: miter; stroke-miterlimit: 4; fill: url(#SVGID_65); fill-rule: nonzero; opacity: 1;" vector-effect="non-scaling-stroke"  transform=" translate(-65.06, -47.95)" d="M 60.674 40.206 L 69.446 40.206 L 69.446 55.703 L 60.674 55.703 z" stroke-linecap="round" />
</g>
<g transform="matrix(1 0 0 1 438.36 90.55)" id="J-LnyAFWk5XWYQiY5RKGj"  >
<linearGradient id="SVGID_66" gradientUnits="objectBoundingBox" gradientTransform="matrix(1 0 0 1 0 0)"  x1="0.5" y1="0.8049200000000001" x2="0.5" y2="-1.1562999999999999">
<stop offset="0%" style="stop-color:rgb(222,224,218);stop-opacity: 1"/>
<stop offset="100%" style="stop-color:rgb(222,224,218);stop-opacity: 1"/>
</linearGradient>
<path style="stroke: none; stroke-width: 1; stroke-dasharray: none; stroke-linecap: butt; stroke-dashoffset: 0; stroke-linejoin: miter; stroke-miterlimit: 4; fill: url(#SVGID_66); fill-rule: nonzero; opacity: 1;" vector-effect="non-scaling-stroke"  transform=" translate(-84.94, -48.1)" d="M 80.558 34.065 L 89.33000000000001 34.065 L 89.33000000000001 62.135999999999996 L 80.558 62.135999999999996 z" stroke-linecap="round" />
</g>
<g transform="matrix(1 0 0 1 400.35 91.14)" id="jGU6oZTSA5AFUujKVOK-W"  >
<linearGradient id="SVGID_67" gradientUnits="objectBoundingBox" gradientTransform="matrix(1 0 0 1 0 0)"  x1="0.5" y1="0.8049200000000001" x2="0.5" y2="-0.5190400000000001">
<stop offset="0%" style="stop-color:rgb(86,196,145);stop-opacity: 1"/>
<stop offset="100%" style="stop-color:rgb(243,255,212);stop-opacity: 1"/>
</linearGradient>
<path style="stroke: none; stroke-width: 1; stroke-dasharray: none; stroke-linecap: butt; stroke-dashoffset: 0; stroke-linejoin: miter; stroke-miterlimit: 4; fill: url(#SVGID_67); fill-rule: evenodd; opacity: 1;" vector-effect="non-scaling-stroke"  transform=" translate(-46.93, -48.69)" d="M 44.545 41.668 L 49.3172 41.668 C 50.4218 41.668 51.3172 42.56343 51.3172 43.668 L 51.3172 55.703 L 42.545 55.703 L 42.545 43.668000000000006 C 42.545 42.56340000000001 43.44043 41.668000000000006 44.545 41.668000000000006 z" stroke-linecap="round" />
</g>
<g transform="matrix(1 0 0 1 400.35 101.66)" id="VSEJIl32bEh3cd1Wb9m6I"  >
<path style="stroke: none; stroke-width: 1; stroke-dasharray: none; stroke-linecap: butt; stroke-dashoffset: 0; stroke-linejoin: miter; stroke-miterlimit: 4; fill: rgb(222,224,218); fill-rule: nonzero; opacity: 1;" vector-effect="non-scaling-stroke"  transform=" translate(-46.93, -59.21)" d="M 42.545 51.61 L 51.317 51.61 L 51.317 66.815 L 42.545 66.815 z" stroke-linecap="round" />
</g>
<g transform="matrix(1 0 0 1 401.86 86.97)" id="7TT3NVaB83VY9ITMcBrvT"  >
<path style="stroke: none; stroke-width: 1; stroke-dasharray: none; stroke-linecap: butt; stroke-dashoffset: 0; stroke-linejoin: miter; stroke-miterlimit: 4; fill: rgb(155,229,255); fill-rule: nonzero; opacity: 1;" vector-effect="non-scaling-stroke"  transform=" translate(-48.44, -44.52)" d="M 73.558 36.827 C 77.6093 33.9026 82.6406 32.6787 87.578 33.411 L 87.77284 33.440927 L 96.03394 34.753327 L 95.80456 36.197227 L 87.54346 34.884827 C 82.98966 34.161407000000004 78.33615999999999 35.244797 74.57245999999999 37.899327 L 74.41395999999999 38.012427 C 71.84805999999999 39.864627000000006 68.79835999999999 40.837227000000006 65.28455999999998 40.932127 L 65.07316999999999 40.9367686 C 62.84726999999999 40.9744546 60.40396999999999 42.2982686 57.76496999999999 44.9380686 L 57.52451999999999 45.1816786 L 57.28299999999999 45.4325386 C 56.839229999999986 45.8991086 56.39004999999999 46.4022786 55.93559999999999 46.9422386 L 55.687179999999984 47.2403786 C 55.56270999999998 47.3912786 55.43783999999999 47.5449086 55.312589999999986 47.7012686 L 55.061559999999986 48.0176586 C 55.01963499999999 48.070998599999996 54.977665999999985 48.1246386 54.93564999999999 48.1785886 L 54.68305999999999 48.5059386 C 54.64087599999999 48.5611056 54.59864799999999 48.6165786 54.55637999999999 48.6723586 C 53.47267999999999 50.1023586 52.02107999999999 51.211358600000004 50.35647999999999 51.8810586 C 45.32897999999999 53.9036586 39.620479999999986 51.5122586 37.52447999999999 46.5368586 L 37.46207599999999 46.3852986 C 36.92766599999999 45.0568986 36.15407599999999 43.837898599999995 35.179675999999986 42.7886986 C 30.780475999999986 38.0515986 23.37367599999999 37.777698599999994 18.636675999999987 42.1769286 L 17.93947599999999 42.82228859999999 L 17.48310599999999 43.242358599999996 L 16.81119599999999 43.8571986 L 15.938905999999989 44.648518599999996 L 15.512865999999988 45.0319686 L 14.886445999999989 45.5918986 L 14.477245999999989 45.9550186 L 14.074785999999989 46.3100086 L 13.483715999999989 46.827248600000004 L 12.907795999999989 47.3261886 L 12.53225599999999 47.648658600000005 L 12.16344599999999 47.962998600000006 L 11.80136599999999 48.269208600000006 L 11.27085599999999 48.713288600000006 L 10.75546599999999 49.13908860000001 L 10.420275999999989 49.41279860000001 L 9.793495999999989 49.91893860000001 L 9.196465999999988 50.39729860000001 L 8.762545999999988 50.74253860000001 L 8.202325999999989 51.18486860000001 L 7.795835999999989 51.50316860000001 L 7.1441959999999884 52.008128600000006 L 6.768605999999989 52.29582860000001 L 6.285655999999989 52.66167860000001 L 5.936735999999989 52.92277860000001 L 5.489095999999989 53.253268600000006 L 5.16647599999999 53.487928600000004 L 4.75367599999999 53.78326860000001 L 4.45700599999999 53.991648600000005 L 4.26534599999999 54.1243386 L 3.98699599999999 54.3140486 L 3.71954599999999 54.4925886 L 3.4629359999999902 54.659998599999994 L 3.2170959999999904 54.816298599999996 L 3.0591559999999904 54.91434159999999 L 2.9059559999999904 55.00746959999999 L 2.75746599999999 55.095691599999995 L 2.61367599999999 55.17901559999999 L 2.47456599999999 55.257451599999996 L 2.34012599999999 55.331006599999995 L 2.21032599999999 55.39969059999999 L 2.08514599999999 55.46351159999999 L 1.9645659999999903 55.52247759999999 L 1.8485759999999902 55.57659859999999 L 1.7371459999999903 55.62588259999999 L 1.6302659999999902 55.67033759999999 L 1.5279059999999902 55.70997359999999 L 1.43005199999999 55.74479759999999 L 1.3366839999999902 55.774819599999994 C 1.3063069999999901 55.78402749999999 1.2766749999999902 55.792436599999995 1.2477829999999903 55.80004759999999 L 1.1633299999999904 55.82049059999999 C 1.1496239999999904 55.82349959999999 1.1361029999999905 55.826309499999994 1.1227649999999905 55.82892059999999 L 1.0449469999999905 55.842202599999986 L 0.8363669999999905 54.39510259999999 C 0.8620819999999906 54.39139619999999 0.8898799999999906 54.38580359999999 0.9197499999999905 54.37832959999999 L 0.9822499999999905 54.360875599999986 C 0.9931259999999905 54.357548999999985 1.0042309999999905 54.354013899999984 1.0155659999999904 54.35027059999999 L 1.0863169999999904 54.325308599999985 L 1.1625429999999903 54.29535259999999 L 1.2442249999999904 54.26041159999998 L 1.3313419999999905 54.22049459999998 L 1.4238749999999905 54.17561059999998 L 1.5218029999999905 54.12576859999998 L 1.6251029999999904 54.07097659999998 L 1.7900929999999904 53.97952859999998 L 1.9670629999999905 53.87699859999998 L 2.1559529999999905 53.76340859999998 L 2.3566829999999905 53.63878859999998 L 2.5691929999999905 53.50317859999998 L 2.7173829999999906 53.40667759999997 L 2.9493829999999908 53.252807599999976 L 3.276742999999991 53.030677599999976 L 3.535692999999991 52.851387599999974 L 3.898752999999991 52.59546759999997 L 4.281992999999991 52.320337599999974 L 4.6852529999999915 52.02607759999997 L 5.108372999999991 51.71274759999997 L 5.664952999999992 51.29438759999997 L 6.132172999999992 50.93842759999997 L 6.618732999999992 50.56363759999997 L 7.384472999999992 49.96628759999997 L 8.192822999999992 49.326967599999975 L 8.755132999999992 48.877557599999975 L 9.335982999999992 48.40966759999998 L 9.818422999999992 48.016727599999975 L 10.148142999999992 47.745037599999975 L 10.484342999999992 47.46556759999997 L 10.827012999999992 47.17831759999997 L 11.353152999999992 46.73286759999997 L 11.893852999999991 46.26991759999997 L 12.262402999999992 45.95155759999997 L 12.827362999999991 45.45943759999997 L 13.212082999999991 45.12163759999997 L 13.80129299999999 44.60036759999997 L 14.40504299999999 44.06160759999997 L 15.02333299999999 43.50535759999997 L 15.65616299999999 42.93162759999997 L 16.30352299999999 42.340417599999974 L 16.96541299999999 41.73172759999997 L 17.64182299999999 41.10555759999997 C 22.970522999999993 36.15685759999997 31.30182299999999 36.46495759999997 36.250823 41.79373759999997 C 37.299223 42.92263759999997 38.141023 44.22643759999997 38.738322999999994 45.64533759999997 L 38.818256999999996 45.83953759999997 C 40.559856999999994 50.16863759999997 45.481156999999996 52.26623759999997 49.81025699999999 50.52463759999997 C 51.22935699999999 49.95374759999997 52.466756999999994 49.00833759999997 53.390556999999994 47.78933759999997 C 53.608096999999994 47.50228759999997 53.82489699999999 47.22258759999997 54.040966999999995 46.95026759999997 L 54.299896999999994 46.62701759999997 C 54.644676999999994 46.200727599999965 54.987587 45.793317599999966 55.32869699999999 45.404817599999966 L 55.584166999999994 45.11699759999996 C 55.62668899999999 45.06961859999996 55.66918199999999 45.02253659999996 55.71164699999999 44.97574759999996 L 55.96609699999999 44.698577599999965 L 56.219866999999994 44.428517599999964 C 56.81121699999999 43.80666759999996 57.39706699999999 43.24291759999996 57.97756699999999 42.73751759999996 L 58.22603699999999 42.52447759999996 C 60.54203699999999 40.56947759999996 62.77343699999999 39.54837759999996 64.93223699999999 39.47797759999996 L 65.04781699999998 39.47511239999996 C 68.29201699999999 39.420186399999956 71.07261699999998 38.572122399999955 73.40911699999998 36.93281239999996 L 73.55765699999998 36.82710239999996 z" stroke-linecap="round" />
</g>
</svg>