<svg aria-hidden="true" style="position: absolute; width: 0; height: 0; overflow: hidden;" version="1.1" xmlns="http://www.w3.org/2000/svg" xmlns:xlink="http://www.w3.org/1999/xlink">
<defs>
<symbol id="icon-billing" viewBox="0 0 32 32">
<path fill="#58595b" style="fill: var(--color1, #58595b)" d="M16 4c3.18 0.004 6.232 1.27 8.48 3.52 2.252 2.248 3.518 5.3 3.52 8.48 0 3.182-1.264 6.234-3.516 8.484-2.248 2.252-5.3 3.516-8.484 3.516-3.182 0-6.234-1.264-8.484-3.516-2.252-2.248-3.516-5.3-3.516-8.484 0-3.182 1.264-6.236 3.516-8.484 2.248-2.252 5.3-3.516 8.484-3.516zM16 5.66c-2.742 0-5.372 1.088-7.31 3.028-1.94 1.94-3.030 4.572-3.030 7.312s1.090 5.372 3.030 7.31c1.938 1.94 4.568 3.030 7.31 3.030 2.742-0.004 5.37-1.094 7.308-3.032 1.94-1.94 3.028-4.566 3.032-7.308 0-2.742-1.088-5.374-3.028-7.312-1.94-1.94-4.572-3.028-7.312-3.028zM16.196 14.096c0.714 0 1.294 0.622 1.294 1.39v5.502c0 0.768-0.58 1.39-1.294 1.39-0.712 0-1.292-0.622-1.292-1.39v-5.502c0-0.768 0.58-1.39 1.292-1.39zM16.196 10.058c0.714 0 1.294 0.58 1.294 1.292 0 0.714-0.58 1.292-1.294 1.292-0.712 0-1.292-0.578-1.292-1.292s0.58-1.292 1.292-1.292z"></path>
</symbol>
<symbol id="icon-thunder" viewBox="0 0 32 32">
<path fill="#58595b" style="fill: var(--color1, #58595b)" d="M19.932 4l-9.932 13.92h6.622l-2.838 10.080 9.93-13.92h-6.62z"></path>
</symbol>
<symbol id="icon-dollar" viewBox="0 0 32 32">
<path fill="#58595b" style="fill: var(--color1, #58595b)" d="M19.48 18.426c-0.004 1.56-1.122 2.894-2.658 3.168v0.762c0 0.46-0.37 0.83-0.83 0.83-0.456 0-0.83-0.372-0.83-0.83v-0.772c-1.068-0.268-1.946-1.028-2.366-2.048-0.092-0.206-0.098-0.438-0.016-0.648 0.080-0.208 0.244-0.374 0.45-0.46 0.208-0.088 0.44-0.086 0.648 0 0.206 0.090 0.368 0.256 0.448 0.466 0.284 0.678 0.948 1.118 1.68 1.116 0.878 0 1.82-0.502 1.82-1.596 0-0.29 0-1.162-1.992-1.62h-0.030c-2.838-0.664-3.26-2.304-3.26-3.23h-0.004c0-1.56 1.12-2.894 2.654-3.168v-0.754c0-0.456 0.372-0.828 0.83-0.828 0.46 0 0.83 0.372 0.83 0.828v0.776c1.072 0.26 1.954 1.014 2.38 2.030 0.18 0.422-0.020 0.91-0.442 1.088s-0.91-0.020-1.088-0.444c-0.282-0.676-0.946-1.116-1.68-1.116-0.876 0-1.82 0.502-1.82 1.598 0 0.288 0 1.16 1.994 1.62h0.028c2.826 0.664 3.25 2.31 3.25 3.232zM28 16c0 3.182-1.264 6.234-3.516 8.484-2.248 2.252-5.3 3.516-8.484 3.516-3.182 0-6.234-1.264-8.484-3.516-2.252-2.248-3.516-5.3-3.516-8.484 0-3.182 1.264-6.236 3.516-8.484 2.248-2.252 5.3-3.516 8.484-3.516 3.18 0.004 6.232 1.27 8.48 3.52 2.252 2.248 3.518 5.3 3.52 8.48zM26.34 16c0-2.742-1.088-5.374-3.028-7.312-1.94-1.94-4.572-3.028-7.312-3.028s-5.372 1.088-7.31 3.028c-1.94 1.94-3.030 4.572-3.030 7.312s1.090 5.372 3.030 7.31c1.938 1.94 4.568 3.030 7.31 3.030 2.742-0.004 5.37-1.094 7.308-3.032 1.94-1.94 3.028-4.566 3.032-7.308z"></path>
</symbol>
<symbol id="icon-bank" viewBox="0 0 32 32">
<path fill="#58595b" style="fill: var(--color1, #58595b)" d="M27.040 25.104v2.896h-22.080v-2.896h22.080zM11.39 12.734v10.8h-1.932v-10.8h1.932zM22.998 12.734v10.8h-1.932v-10.8h1.932zM17.194 12.734v10.8h-1.934v-10.8h1.932zM16.014 4l11.052 3.944v2.816h-22.106v-2.816l11.052-3.944z"></path>
</symbol>
<symbol id="icon-forecast" viewBox="0 0 32 32">
<path fill="#58595b" style="fill: var(--color1, #58595b)" d="M9.868 18.868c0.66 0 1.2 0.54 1.2 1.2v6.732c0 0.664-0.54 1.2-1.2 1.2h-3.51c-0.662 0-1.2-0.536-1.2-1.2v-6.732c0-0.66 0.536-1.2 1.2-1.2h3.51zM18.32 14.276c0.664 0 1.2 0.536 1.2 1.2v11.324c0 0.664-0.538 1.2-1.2 1.2h-3.512c-0.66 0-1.2-0.536-1.2-1.2v-11.324c0-0.664 0.54-1.2 1.2-1.2h3.512zM26.774 21.272c0.664 0 1.2 0.536 1.2 1.2v4.328c0 0.664-0.536 1.2-1.2 1.2h-3.508c-0.662 0-1.2-0.536-1.2-1.2v-4.328c0-0.664 0.538-1.2 1.2-1.2h3.51zM26.754 4c0.084 0 0.162 0.008 0.24 0.024 0.070 0.016 0.144 0.036 0.21 0.064l0.104 0.048c0.28 0.148 0.496 0.4 0.588 0.708 0.014 0.036 0.026 0.076 0.034 0.112 0 0.008 0 0.012 0.004 0.016 0.012 0.076 0.020 0.152 0.020 0.228v4.648c0 0.664-0.54 1.2-1.2 1.2-0.664 0-1.2-0.536-1.2-1.2v-1.752l-4.638 4.636c-0.472 0.472-1.226 0.472-1.7 0l-4.46-4.46-7.702 7.708c-0.236 0.236-0.544 0.352-0.852 0.352-0.306 0-0.614-0.116-0.85-0.352-0.466-0.468-0.466-1.228 0-1.696l8.558-8.556c0.468-0.468 1.228-0.468 1.696 0l4.46 4.46 3.788-3.788h-1.758c-0.66 0-1.2-0.536-1.2-1.2s0.54-1.2 1.2-1.2h4.654z"></path>
</symbol>
<symbol id="icon-ledger" viewBox="0 0 32 32">
<path fill="#4a4b4e" style="fill: var(--color2, #4a4b4e)" d="M23.076 28.026c0.344 0 0.624-0.284 0.624-0.634v-3.156h0.624c0.174 0 0.33-0.072 0.442-0.186 0.114-0.114 0.184-0.272 0.184-0.446v-18.948c0-0.348-0.28-0.63-0.626-0.63h-15.624c-1.38 0-2.5 1.13-2.5 2.526v18.946c0 1.396 1.12 2.528 2.5 2.528h14.376zM7.96 22.48v-15.624c0-0.65 0.528-1.176 1.178-1.176h6.94v4.34c0 0.104 0.060 0.2 0.16 0.272l0.112 0.060c0.168 0.066 0.372 0.064 0.536-0.008l2.194-0.956 2.196 0.956c0.084 0.038 0.18 0.056 0.274 0.056 0.090 0 0.18-0.016 0.26-0.048 0.166-0.068 0.27-0.194 0.27-0.33v-4.342l1.188-0.002v16.486h-14.128c-0.43 0-0.832 0.114-1.178 0.314zM20.64 8.648l-1.284-0.726c-0.17-0.074-0.382-0.074-0.552 0l-1.384 0.726v-2.966h3.22v2.966zM21.702 26.42h-12.652c-0.634 0-1.15-0.514-1.15-1.15s0.516-1.15 1.15-1.15h12.652v2.3z"></path>
</symbol>
<symbol id="icon-document" viewBox="0 0 32 32">
<path fill="#58595b" style="fill: var(--color1, #58595b)" d="M23.554 4c1.352 0 2.446 0.964 2.446 2.152v19.696c0 1.188-1.094 2.152-2.446 2.152h-6.934c-0.624 0-1.226-0.2-1.69-0.568l-8.092-6.4c-0.522-0.416-0.826-1.004-0.836-1.624v-13.256c-0.002-1.188 1.092-2.152 2.444-2.152h15.108zM23.154 6h-14.548c-0.336 0-0.606 0.238-0.606 0.53v11.47h7.048c0.968 0 1.752 0.836 1.752 1.868v6.132h6.356c0.334 0 0.604-0.238 0.604-0.53v-18.94c0-0.292-0.27-0.53-0.604-0.53zM15.050 19.706l-6.816-0.002 6.966 5.494 0.002-5.33c0-0.090-0.068-0.162-0.152-0.162zM19.2 14c0.44 0 0.8 0.36 0.8 0.8s-0.36 0.8-0.8 0.8h-6.4c-0.44 0-0.8-0.36-0.8-0.8s0.36-0.8 0.8-0.8h6.4zM14.4 10c0.44 0 0.8 0.36 0.8 0.8s-0.36 0.8-0.8 0.8h-1.6c-0.44 0-0.8-0.36-0.8-0.8s0.36-0.8 0.8-0.8h1.6z"></path>
</symbol>
<symbol id="icon-user" viewBox="0 0 32 32">
<path fill="#4a4b4e" style="fill: var(--color2, #4a4b4e)" d="M25.636 26.91c0 0.602-0.488 1.090-1.090 1.090-0.604 0-1.092-0.488-1.092-1.090 0-4.218-3.42-7.638-7.636-7.638s-7.636 3.42-7.636 7.638c0 0.602-0.488 1.090-1.092 1.090-0.602 0-1.090-0.488-1.090-1.090 0-5.424 4.396-9.82 9.82-9.82 5.42 0 9.816 4.396 9.816 9.82zM15.82 16c-3.314 0-6-2.686-6-6s2.686-6 6-6 6 2.686 6 6-2.686 6-6 6zM15.82 13.82c2.11 0 3.82-1.71 3.82-3.82s-1.71-3.82-3.82-3.82-3.82 1.712-3.82 3.82 1.708 3.82 3.82 3.82z"></path>
</symbol>
<symbol id="icon-success-outline" viewBox="0 0 32 32">
<path stroke-width="1" stroke-miterlimit="4" stroke-linecap="butt" stroke-linejoin="miter" d="M31.5 16c0 8.56-6.94 15.5-15.5 15.5s-15.5-6.94-15.5-15.5c0-8.56 6.94-15.5 15.5-15.5s15.5 6.94 15.5 15.5z"></path>
<path d="M21.838 12.366c0-0.754-0.611-1.366-1.366-1.366-0.427 0-0.809 0.197-1.060 0.504l-4.924 6.047-2.119-2.294c-0.25-0.27-0.606-0.44-1.003-0.44-0.754 0-1.366 0.611-1.366 1.366 0 0.357 0.139 0.682 0.363 0.925v0.001l3.187 3.45c0.25 0.27 0.606 0.441 1.003 0.441 0.428 0 0.809-0.197 1.060-0.504l5.919-7.268c0.191-0.235 0.306-0.535 0.306-0.862z"></path>
</symbol>
<symbol id="icon-close-icon" viewBox="0 0 32 32">
<path d="M26.861 5.311c0.595 0.595 0.595 1.56 0 2.155l-8.621 8.619 8.621 8.621c0.595 0.595 0.595 1.56 0 2.155s-1.56 0.595-2.155 0l-8.621-8.621-8.619 8.621c-0.595 0.595-1.56 0.595-2.155 0s-0.595-1.56 0-2.155l8.619-8.621-8.619-8.619c-0.595-0.595-0.595-1.56 0-2.155s1.56-0.595 2.155 0l8.619 8.619 8.621-8.619c0.595-0.595 1.56-0.595 2.155 0z"></path>
</symbol>
<symbol id="icon-define" viewBox="0 0 32 32">
<path d="M26.389 15.968c0-1.358 0.85-2.516 2.055-2.981-0.318-1.324-0.843-2.565-1.536-3.691-0.414 0.181-0.855 0.277-1.303 0.277-0.818 0-1.634-0.309-2.261-0.93-0.965-0.964-1.18-2.379-0.661-3.556-1.12-0.693-2.373-1.216-3.694-1.532-0.462 1.196-1.627 2.050-2.988 2.050s-2.528-0.853-2.987-2.050c-1.33 0.316-2.574 0.841-3.703 1.532 0.526 1.17 0.306 2.592-0.66 3.556-0.622 0.62-1.445 0.93-2.263 0.93-0.446 0-0.889-0.089-1.303-0.277-0.686 1.131-1.211 2.373-1.529 3.698 1.198 0.459 2.055 1.618 2.055 2.98 0 1.358-0.85 2.516-2.048 2.981 0.316 1.324 0.843 2.565 1.536 3.691 0.414-0.181 0.855-0.272 1.296-0.272 0.818 0 1.634 0.311 2.261 0.932 0.96 0.956 1.18 2.379 0.661 3.548 1.129 0.693 2.379 1.216 3.701 1.532 0.46-1.195 1.62-2.043 2.981-2.043s2.521 0.848 2.981 2.044c1.328-0.318 2.572-0.841 3.701-1.534-0.519-1.17-0.299-2.585 0.661-3.548 0.622-0.62 1.44-0.932 2.261-0.932 0.441 0 0.889 0.091 1.298 0.272 0.693-1.125 1.218-2.372 1.534-3.691-1.191-0.466-2.048-1.623-2.048-2.987zM16.059 21.132c-2.871 0-5.186-2.32-5.186-5.172 0-2.85 2.315-5.172 5.186-5.172s5.184 2.322 5.184 5.173c0 2.85-2.313 5.17-5.184 5.17z"></path>
</symbol>
<symbol id="icon-set" viewBox="0 0 32 32">
<path d="M13.867 19.911l-6.4-6.222 2.489-2.489 3.911 3.733 8.711-8.711 2.489 2.489z"></path>
<path d="M13.867 25.778l-6.933-6.933 1.244-1.244 5.689 5.689 9.422-9.422 1.244 1.244z"></path>
</symbol>
<symbol id="icon-dot" viewBox="0 0 32 32">
<path d="M32 16c0 8.837-7.163 16-16 16s-16-7.163-16-16c0-8.837 7.163-16 16-16s16 7.163 16 16z"></path>
</symbol>
<symbol id="icon-delete-fill" viewBox="0 0 32 32">
<path d="M20 8v-1.333h-8v1.333h-5.333v1.333h1.333v16c0 0.667 0.267 1.333 0.8 1.867s1.2 0.8 1.867 0.8h10.667c0.667 0 1.333-0.267 1.867-0.8s0.8-1.2 0.8-1.867v-16h1.333v-1.333h-5.333zM14.667 21.333h-1.333v-8h1.333v8zM18.667 21.333h-1.333v-8h1.333v8z"></path>
</symbol>
<symbol id="icon-delete" viewBox="0 0 32 32">
<path d="M13.333 13.333h1.333v8h-1.333v-8z"></path>
<path d="M17.333 13.333h1.333v8h-1.333v-8z"></path>
<path d="M20 8v-1.333h-8v1.333h-5.333v1.333h1.333v16c0 0.667 0.267 1.333 0.8 1.867s1.2 0.8 1.867 0.8h10.667c0.667 0 1.333-0.267 1.867-0.8s0.8-1.2 0.8-1.867v-16h1.333v-1.333h-5.333zM22.667 25.333c0 0.4-0.133 0.667-0.4 0.933s-0.533 0.4-0.933 0.4h-10.667c-0.4 0-0.667-0.133-0.933-0.4s-0.4-0.533-0.4-0.933v-16h13.333v16z"></path>
</symbol>
<symbol id="icon-reload" viewBox="0 0 32 32">
<path d="M15.988 3.556c6.276 0 11.467 4.64 12.331 10.667h-1.799c-0.848-5.042-5.239-8.889-10.53-8.889-5.886 0-10.656 4.779-10.656 10.667s4.77 10.667 10.656 10.667c4.649 0 8.604-2.969 10.069-7.111l1.868 0.002c-1.532 5.138-6.297 8.887-11.94 8.887-6.868 0-12.432-5.577-12.432-12.444s5.564-12.444 12.432-12.444z"></path>
<path d="M30.222 5.333v8.889h-8.889z"></path>
</symbol>
<symbol id="icon-cross" viewBox="0 0 32 32">
<path d="M0 0.597l15.426 15.38-15.426 15.426 0.597 0.597 15.38-15.426 15.426 15.426 0.597-0.597-15.426-15.426 15.426-15.38-0.597-0.597-15.426 15.426-15.38-15.426z"></path>
</symbol>
<symbol id="icon-window" viewBox="0 0 40 32">
<path d="M35.566 0.449c1.314 0 2.383 1.070 2.383 2.385v26.129c0 1.314-1.069 2.383-2.383 2.383h-32.982c-1.314 0-2.383-1.069-2.383-2.383v-26.129c0-1.314 1.069-2.383 2.383-2.383h32.982zM36.361 10.979h-34.572v17.983c0 0.437 0.358 0.794 0.794 0.794h32.982c0.437 0 0.794-0.358 0.794-0.794v-17.983zM35.566 2.039h-32.982c-0.437 0-0.794 0.358-0.794 0.794v6.557h34.571v-6.554c0-0.438-0.358-0.796-0.794-0.796zM5.548 4.39c0.663 0 1.201 0.537 1.201 1.201 0 0.662-0.537 1.201-1.201 1.201-0.662 0-1.199-0.537-1.199-1.201 0-0.662 0.537-1.201 1.199-1.201zM10.317 4.39c0.662 0 1.199 0.537 1.199 1.201 0 0.662-0.536 1.201-1.199 1.201-0.662 0-1.201-0.537-1.201-1.201 0-0.662 0.537-1.201 1.201-1.201zM32.57 4.39c0.662 0 1.199 0.537 1.199 1.201 0 0.662-0.537 1.201-1.199 1.201-0.663 0-1.201-0.537-1.201-1.201 0-0.662 0.537-1.201 1.201-1.201z"></path>
</symbol>
<symbol id="icon-bullet" viewBox="0 0 32 32">
<path d="M16 0c8.835 0 16 7.165 16 16s-7.165 16-16 16-16-7.165-16-16 7.165-16 16-16zM16 3.2c-7.072 0-12.8 5.728-12.8 12.8s5.728 12.8 12.8 12.8 12.8-5.728 12.8-12.8-5.728-12.8-12.8-12.8z"></path>
</symbol>
<symbol id="icon-tick" viewBox="0 0 38 32">
<path d="M35.546 5.824c0-2.112-1.712-3.824-3.824-3.824-1.197 0-2.266 0.55-2.966 1.411l-13.789 16.928-5.93-6.419-0.006 0.003c-0.698-0.755-1.696-1.232-2.806-1.232-2.112-0.003-3.824 1.709-3.824 3.821 0 1.002 0.387 1.91 1.018 2.592h-0.003l8.925 9.664c0.701 0.755 1.696 1.232 2.81 1.232 1.197 0 2.266-0.55 2.966-1.411l16.573-20.352c0.538-0.656 0.858-1.498 0.858-2.413z"></path>
</symbol>
<symbol id="icon-copy" viewBox="0 0 32 32">
<path d="M31.589 0.411h-23.405v23.405h23.405v-23.405zM28.845 21.075h-17.92v-17.92h17.92v17.92z"></path>
<path d="M4.616 10.925v-2.741h-4.205v23.405h23.405v-4.299h-2.741v1.555h-17.92v-17.92z"></path>
</symbol>
<symbol id="icon-startover" viewBox="0 0 32 32">
<path d="M18.901 0h-9.733c-5.035 0-9.168 4.101-9.168 9.168v1.141c0 0.733 0.6 1.333 1.333 1.333s1.333-0.6 1.333-1.333v-1.144c0-3.565 2.899-6.461 6.467-6.461h9.701c3.632 0 6.533 2.899 6.533 6.467v6.997c0 3.568-2.901 6.469-6.467 6.469h-12.035l4.035-4.035c0.533-0.533 0.533-1.365 0-1.899s-1.368-0.533-1.901 0l-6.333 6.325c-0.533 0.533-0.533 1.368 0 1.901l6.333 6.333c0.267 0.267 0.6 0.4 0.965 0.4 0.333 0 0.701-0.133 0.968-0.4 0.533-0.533 0.533-1.365 0-1.901l-4.067-4.029h12.035c5.067 0 9.165-4.099 9.165-9.168v-6.997c0-5.067-4.133-9.165-9.168-9.165z"></path>
</symbol>
<symbol id="icon-demo" viewBox="0 0 32 32">
<path d="M7.114 27.744c0.496-0.544 0.456-1.387-0.088-1.885-3.034-2.762-4.627-6.768-4.32-10.861 0.309-4.091 2.485-7.813 5.899-10.091 3.413-2.277 7.685-2.854 11.581-1.568 3.898 1.288 6.984 4.299 8.368 8.162 1.386 3.864 0.912 8.15-1.28 11.619-2.19 3.469-5.856 5.736-9.941 6.147v-5.294c1.718-0.069 3.342-0.797 4.534-2.035 1.192-1.237 1.861-2.886 1.866-4.605v-2.667c0-0.352-0.141-0.691-0.39-0.942-0.25-0.25-0.589-0.39-0.942-0.39h-2.4v-4c0-0.736-0.597-1.333-1.333-1.333s-1.334 0.597-1.334 1.333v4h-2.666v-4c0-0.736-0.597-1.333-1.334-1.333-0.736 0-1.333 0.597-1.333 1.333v4h-2.4c-0.736 0-1.333 0.597-1.333 1.333v2.667c0.005 1.718 0.675 3.368 1.866 4.605 1.194 1.238 2.816 1.968 4.534 2.035v6.693c0 0.355 0.141 0.693 0.39 0.944 0.25 0.25 0.589 0.39 0.944 0.39 5.018 0 9.744-2.355 12.768-6.362 3.024-4.005 3.994-9.197 2.618-14.022s-4.934-8.728-9.616-10.538c-4.678-1.811-9.936-1.322-14.203 1.322-4.264 2.645-7.040 7.136-7.501 12.134-0.459 4.998 1.451 9.92 5.163 13.299 0.544 0.494 1.389 0.454 1.883-0.090zM10.934 17.333v-1.333h10.131v1.333c0 2.21-1.79 4-4 4h-2.133c-2.208 0-4-1.79-4-4z"></path>
</symbol>
<symbol id="icon-sync" viewBox="0 0 32 32">
<path d="M29.080 7.584c-2.854-4.373-7.768-7.066-13.014-7.066-7.222-0.002-13.602 5.114-15.17 12.158-0.122 0.557 0.23 1.109 0.786 1.232 0.077 0.016 0.15 0.022 0.227 0.022 0.47 0 0.899-0.326 1.008-0.806 1.358-6.112 6.891-10.549 13.152-10.549 4.424 0 8.576 2.206 11.077 5.819l-1.856 0.782 4.925 3.728 0.77-6.128-1.904 0.808zM2.774 24.416c2.854 4.374 7.766 7.067 13.011 7.067 7.222 0 13.602-5.112 15.17-12.16 0.122-0.557-0.23-1.109-0.786-1.232-0.077-0.016-0.15-0.022-0.226-0.022-0.472 0-0.899 0.326-1.008 0.806-1.355 6.109-6.888 10.544-13.15 10.544-4.419 0-8.576-2.205-11.075-5.818l1.856-0.784-4.925-3.728-0.77 6.128 1.904-0.803z"></path>
</symbol>
<symbol id="icon-forward" viewBox="0 0 18 32">
<path d="M0.96 0.64c0.64-0.64 1.64-0.64 2.28 0l14.2 14.24c0.64 0.64 0.64 1.64 0 2.28l-14.24 14.2c-0.32 0.32-0.72 0.48-1.12 0.48s-0.8-0.16-1.12-0.48c-0.64-0.64-0.64-1.64 0-2.28l13.080-13.080-13.080-13.080c-0.64-0.64-0.64-1.64 0-2.28z"></path>
</symbol>
<symbol id="icon-back" viewBox="0 0 18 32">
<path d="M17.040 0.64c-0.64-0.64-1.64-0.64-2.28 0l-14.2 14.24c-0.64 0.64-0.64 1.64 0 2.28l14.24 14.2c0.32 0.32 0.72 0.48 1.12 0.48s0.8-0.16 1.12-0.48c0.64-0.64 0.64-1.64 0-2.28l-13.080-13.080 13.080-13.080c0.64-0.64 0.64-1.64 0-2.28z"></path>
</symbol>
<symbol id="icon-timer" viewBox="0 0 30 32">
<path d="M0.104 18.236c-0.002 7.434 6.020 13.516 13.578 13.716s13.9-5.56 14.304-12.982c0.4-7.424-5.284-13.812-12.822-14.402v-2.34h3.37v-2.178h-8.96v2.18h3.37v2.342c-7.244 0.574-12.83 6.518-12.84 13.664zM25.786 18.236c0 6.37-5.252 11.534-11.732 11.534s-11.732-5.164-11.732-11.534c0-6.37 5.254-11.534 11.732-11.534 6.476 0.008 11.724 5.168 11.732 11.534z"></path>
<path d="M12.16 11.018v9.156l7.778-0.014-0.006-2.182-5.552 0.012v-6.972z"></path>
</symbol>
<symbol id="icon-close-filled" viewBox="0 0 32 32">
<path d="M16 0c-8.854 0-16 7.146-16 16s7.146 16 16 16 16-7.146 16-16-7.146-16-16-16zM20.622 22.756l-4.622-4.622-4.622 4.62c-1.386 1.388-3.484-0.746-2.134-2.132l4.622-4.622-4.62-4.622c-1.388-1.386 0.746-3.484 2.132-2.134l4.622 4.622 4.622-4.62c1.386-1.388 3.484 0.746 2.134 2.132l-4.622 4.622 4.62 4.622c1.352 1.352-0.78 3.484-2.132 2.134z"></path>
</symbol>
<symbol id="icon-close" viewBox="0 0 32 32">
<path d="M16 0c8.854 0 16 7.146 16 16s-7.146 16-16 16-16-7.146-16-16 7.146-16 16-16zM16 2c-7.746 0-14 6.254-14 14s6.254 14 14 14 14-6.254 14-14-6.254-14-14-14zM22.756 11.378l-4.622 4.622 4.62 4.622c1.352 1.352-0.78 3.484-2.132 2.134l-4.622-4.622-4.622 4.62c-1.386 1.388-3.484-0.746-2.134-2.132l4.622-4.622-4.62-4.622c-1.388-1.386 0.746-3.484 2.132-2.134l4.622 4.622 4.622-4.62c1.386-1.388 3.484 0.746 2.134 2.132z"></path>
</symbol>
<symbol id="icon-error" viewBox="0 0 32 32">
<path d="M16 0c-8.836 0-16 7.162-16 16s7.164 16 16 16 16-7.162 16-16c0-8.838-7.164-16-16-16zM16 26.472c-1.284 0-2.328-1.040-2.328-2.328 0-1.284 1.040-2.328 2.328-2.328 1.284 0 2.328 1.042 2.328 2.328s-1.044 2.328-2.328 2.328zM18.526 8.484l-0.896 10.54c0 0.9-0.73 1.63-1.63 1.63s-1.63-0.73-1.63-1.63l-0.896-10.54c-0.020-0.13-0.034-0.262-0.034-0.396 0-1.414 1.148-2.56 2.56-2.56 1.414 0 2.56 1.146 2.56 2.56 0 0.134-0.014 0.266-0.034 0.396z"></path>
</symbol>
<symbol id="icon-success" viewBox="0 0 32 32">
<path d="M16 0c8.836 0 16 7.164 16 16s-7.164 16-16 16-16-7.164-16-16 7.164-16 16-16zM21.566 10c-0.44 0-0.84 0.174-1.132 0.456l-0.14 0.148-5.908 7.256-2.542-2.752c-0.3-0.324-0.728-0.528-1.204-0.528-0.906 0-1.64 0.734-1.64 1.64 0 0.428 0.166 0.818 0.436 1.11l3.824 4.142c0.3 0.324 0.728 0.528 1.204 0.528 0.44 0 0.84-0.174 1.132-0.456l0.14-0.148 7.102-8.722c0.23-0.282 0.368-0.642 0.368-1.034 0-0.906-0.734-1.64-1.64-1.64z"></path>
</symbol>
<symbol id="icon-stop" viewBox="0 0 32 32">
<path d="M24.488 7.512c-4.681-4.682-12.295-4.682-16.975 0-4.681 4.681-4.681 12.295 0 16.975 2.34 2.34 5.414 3.512 8.488 3.512s6.148-1.17 8.488-3.512c4.681-4.681 4.681-12.295 0-16.975zM8.472 8.472c2.077-2.074 4.801-3.112 7.528-3.112 2.514 0 5.027 0.883 7.033 2.647l-15.024 15.024c-3.679-4.177-3.526-10.57 0.464-14.56zM23.528 23.528c-3.991 3.988-10.384 4.142-14.56 0.464l15.023-15.024c3.679 4.178 3.524 10.571-0.465 14.561z"></path>
</symbol>
<symbol id="icon-info" viewBox="0 0 32 32">
<path d="M16 31.744c-8.683 0-15.744-7.063-15.744-15.744 0-8.683 7.063-15.744 15.744-15.744 8.683 0 15.746 7.063 15.746 15.744 0 8.683-7.063 15.744-15.746 15.744zM16 2.921c-7.211 0-13.079 5.867-13.079 13.079 0 7.214 5.867 13.079 13.079 13.079s13.081-5.863 13.081-13.079c-0.002-7.211-5.87-13.079-13.081-13.079z"></path>
<path d="M14.277 12.983h3.445v12.066h-3.445zM18.187 9.138c0 1.211-0.978 2.187-2.187 2.187s-2.187-0.978-2.187-2.187c0-1.209 0.978-2.187 2.187-2.187s2.187 0.978 2.187 2.187z"></path>
</symbol>
<symbol id="icon-eye-closed" viewBox="0 0 32 32">
<path d="M31.392 17.296l-1.101-1.296c-3.070 2.664-7.955 5.84-13.797 5.84-5.84 0-10.725-3.176-13.794-5.84l-1.101 1.296c0.874 0.757 1.89 1.552 3.024 2.315l-2.528 3.518 1.366 1.003 2.602-3.616c1.174 0.685 2.456 1.312 3.827 1.816l-1.408 4.384 1.605 0.528 1.414-4.4c1.315 0.365 2.701 0.606 4.15 0.674v4.618h1.688v-4.616c1.45-0.069 2.835-0.309 4.149-0.674l1.416 4.4 1.606-0.528-1.41-4.384c1.371-0.506 2.653-1.131 3.827-1.819l2.602 3.619 1.366-1.003-2.531-3.52c1.136-0.762 2.152-1.558 3.026-2.317z"></path>
</symbol>
<symbol id="icon-eye-open" viewBox="0 0 32 32">
<path d="M16.421 8c-6.038 0-12.624 3.21-14.821 8.022 2.195 4.813 8.784 8.022 14.821 8.022s12.624-3.21 14.819-8.022c-2.195-4.813-8.782-8.022-14.819-8.022zM16.421 22.544c-5.28 0-11.144-2.934-12.904-6.453 1.19-2.381 4.258-4.491 7.752-5.61-0.814 1.080-1.301 2.416-1.301 3.85 0 3.52 2.933 6.451 6.451 6.451 3.52 0 6.453-2.931 6.453-6.451 0-1.434-0.488-2.768-1.302-3.85 3.496 1.118 6.563 3.229 7.754 5.61-1.76 3.52-7.624 6.451-12.902 6.451z"></path>
</symbol>
<symbol id="icon-search" viewBox="0 0 30 32">
<path d="M30.284 30.64l-8.879-9.234c2.265-2.271 3.668-5.403 3.668-8.856 0-6.92-5.629-12.549-12.549-12.549s-12.549 5.629-12.549 12.549c0 6.92 5.629 12.549 12.549 12.549 3.037 0 5.825-1.086 7.998-2.887l8.901 9.257c0.117 0.122 0.274 0.183 0.431 0.183 0.149 0 0.298-0.056 0.414-0.167 0.238-0.229 0.245-0.607 0.017-0.845zM12.523 23.903c-6.261 0-11.354-5.093-11.354-11.354s5.093-11.354 11.354-11.354c6.261 0 11.354 5.093 11.354 11.354s-5.094 11.354-11.354 11.354z"></path>
</symbol>
<symbol id="icon-notifications" viewBox="0 0 25 32">
<path d="M23.67 24.081c-0.063-1.642-0.651-3.239-1.675-4.527-0.466-0.586-0.827-1.244-1.075-1.953-0.247-0.707-0.373-1.446-0.373-2.197v-1.308c0-3.787-2.585-6.981-6.083-7.911v-4.082c0-1.159-0.943-2.102-2.102-2.102s-2.102 0.943-2.102 2.102v4.080c-1.381 0.365-2.648 1.088-3.686 2.126-1.546 1.546-2.397 3.601-2.397 5.788v1.308c0 1.501-0.514 2.976-1.448 4.151-0.541 0.681-0.961 1.444-1.248 2.267-0.255 0.729-0.398 1.489-0.427 2.261-0.622 0.279-1.056 0.904-1.056 1.628 0 0.984 0.8 1.784 1.784 1.784h6.837c0.262 1.832 1.84 3.245 3.743 3.245s3.481-1.413 3.743-3.245h6.837c0.984 0 1.784-0.8 1.784-1.784-0-0.725-0.435-1.349-1.057-1.628v0zM11.336 2.102c0-0.566 0.461-1.027 1.027-1.027s1.027 0.461 1.027 1.027v3.872c-0.336-0.042-0.679-0.064-1.027-0.064-0.346 0-0.689 0.021-1.027 0.064v-3.872zM2.497 22.175c0.247-0.709 0.609-1.367 1.075-1.953 1.084-1.364 1.681-3.076 1.681-4.819v-1.308c0-1.899 0.74-3.685 2.082-5.028s3.129-2.083 5.028-2.083c3.921 0 7.11 3.19 7.11 7.11v1.308c0 0.872 0.146 1.731 0.433 2.552 0.287 0.823 0.707 1.586 1.248 2.267 0.84 1.058 1.34 2.359 1.431 3.703h-20.444c0.040-0.597 0.158-1.184 0.356-1.75v0zM12.364 29.663c-1.309 0-2.403-0.934-2.653-2.17h5.307c-0.25 1.236-1.345 2.17-2.653 2.17v0zM22.943 26.419h-21.159c-0.391 0-0.709-0.318-0.709-0.709s0.318-0.709 0.709-0.709h21.159c0.391 0 0.709 0.318 0.709 0.709s-0.318 0.709-0.709 0.709v0z"></path>
</symbol>
<symbol id="icon-settings" viewBox="0 0 32 32">
<path d="M30.353 12.444h-2.994c-0.481 0-0.878-0.265-1.062-0.709s-0.091-0.913 0.249-1.253l2.117-2.116c0.311-0.311 0.482-0.725 0.482-1.165s-0.171-0.854-0.482-1.166l-2.698-2.698c-0.622-0.622-1.707-0.623-2.331 0l-2.116 2.116c-0.34 0.34-0.809 0.434-1.253 0.249-0.444-0.184-0.709-0.581-0.709-1.062v-2.994c0-0.908-0.739-1.647-1.647-1.647h-3.816c-0.908 0-1.647 0.739-1.647 1.647v2.994c0 0.481-0.265 0.878-0.709 1.062-0.443 0.185-0.913 0.090-1.253-0.249l-2.116-2.116c-0.623-0.623-1.708-0.622-2.331 0l-2.698 2.698c-0.311 0.311-0.482 0.725-0.482 1.166s0.171 0.853 0.482 1.165l2.117 2.116c0.34 0.34 0.433 0.808 0.249 1.253s-0.581 0.709-1.062 0.709h-2.994c-0.908 0-1.647 0.739-1.647 1.647v3.816c0 0.909 0.739 1.648 1.647 1.648h2.994c0.481 0 0.878 0.265 1.062 0.709s0.091 0.913-0.249 1.253l-2.117 2.116c-0.311 0.311-0.482 0.725-0.482 1.165s0.171 0.854 0.482 1.166l2.698 2.698c0.623 0.623 1.707 0.624 2.331 0l2.116-2.117c0.34-0.34 0.808-0.433 1.253-0.249s0.709 0.581 0.709 1.062v2.994c0 0.908 0.739 1.647 1.647 1.647h3.816c0.908 0 1.647-0.739 1.647-1.647v-2.994c0-0.481 0.265-0.878 0.709-1.062s0.913-0.091 1.253 0.249l2.116 2.117c0.623 0.623 1.708 0.622 2.331 0l2.698-2.698c0.311-0.311 0.482-0.725 0.482-1.166s-0.171-0.853-0.482-1.165l-2.117-2.116c-0.34-0.34-0.433-0.808-0.249-1.253s0.581-0.709 1.063-0.709h2.994c0.908 0 1.647-0.739 1.647-1.647v-3.816c0-0.908-0.739-1.647-1.647-1.647v0zM30.815 17.908c0 0.255-0.207 0.462-0.462 0.462h-2.994c-0.962 0-1.789 0.552-2.157 1.441s-0.175 1.864 0.506 2.545l2.117 2.116c0.181 0.181 0.181 0.474 0 0.654l-2.698 2.698c-0.18 0.18-0.473 0.181-0.654 0l-2.116-2.117c-0.681-0.681-1.656-0.873-2.545-0.506s-1.441 1.195-1.441 2.157v2.994c0 0.255-0.207 0.462-0.462 0.462h-3.816c-0.255 0-0.462-0.207-0.462-0.462v-2.994c0-0.962-0.552-1.789-1.441-2.157-0.298-0.124-0.605-0.184-0.908-0.184-0.601 0-1.183 0.237-1.636 0.69l-2.116 2.117c-0.181 0.181-0.475 0.18-0.654 0l-2.698-2.698c-0.181-0.181-0.181-0.474 0-0.654l2.117-2.116c0.68-0.68 0.875-1.656 0.506-2.545s-1.195-1.441-2.157-1.441h-2.994c-0.255 0-0.462-0.207-0.462-0.462v-3.816c0-0.255 0.207-0.462 0.462-0.462h2.994c0.962 0 1.789-0.552 2.157-1.441s0.175-1.864-0.506-2.545l-2.117-2.116c-0.181-0.181-0.181-0.474 0-0.654l2.698-2.698c0.18-0.181 0.473-0.181 0.654 0l2.116 2.116c0.68 0.68 1.655 0.875 2.545 0.506 0.889-0.367 1.441-1.194 1.441-2.156v-2.994c0-0.255 0.207-0.462 0.462-0.462h3.816c0.255 0 0.463 0.207 0.463 0.462v2.994c0 0.962 0.552 1.789 1.441 2.157 0.89 0.369 1.864 0.174 2.545-0.506l2.116-2.116c0.181-0.181 0.475-0.181 0.654 0l2.698 2.698c0.181 0.181 0.181 0.474 0 0.654l-2.117 2.116c-0.68 0.68-0.875 1.656-0.506 2.545s1.195 1.441 2.157 1.441h2.994c0.255-0.001 0.462 0.207 0.462 0.462v3.816z"></path>
<path d="M16 10.667c-2.941 0-5.333 2.392-5.333 5.333s2.392 5.333 5.333 5.333c2.941 0 5.333-2.392 5.333-5.333s-2.392-5.333-5.333-5.333v0zM16 20.148c-2.287 0-4.148-1.861-4.148-4.148s1.861-4.148 4.148-4.148c2.287 0 4.148 1.861 4.148 4.148s-1.861 4.148-4.148 4.148v0z"></path>
</symbol>
<symbol id="icon-guide" viewBox="0 0 47 32">
<path d="M23.486 0.012c-0.042 0.003-0.084 0.011-0.126 0.022l-22.892 8.294c-0.279 0.092-0.468 0.356-0.468 0.659s0.189 0.567 0.468 0.659l8.984 3.262v12.355c0 0.904 0.552 1.679 1.326 2.29 0.773 0.608 1.807 1.115 3.072 1.534 2.53 0.84 5.954 1.339 9.742 1.339s7.212-0.5 9.742-1.339c1.265-0.419 2.299-0.926 3.072-1.534 0.773-0.61 1.326-1.385 1.326-2.29v-12.355l8.080-2.938v8.014c-0.003 0.186 0.068 0.364 0.195 0.494 0.126 0.132 0.297 0.208 0.479 0.208s0.352-0.076 0.479-0.208c0.126-0.13 0.197-0.308 0.195-0.494v-8.986c0.008-0.297-0.169-0.567-0.442-0.67l-22.892-8.294c-0.108-0.035-0.224-0.043-0.337-0.022l-0.001-0zM23.592 1.437l20.851 7.56-20.851 7.538-20.851-7.538 20.851-7.56zM10.799 13.382l12.561 4.558c0.15 0.057 0.313 0.057 0.463 0l12.561-4.558v11.88c0 0.332-0.213 0.726-0.8 1.188s-1.502 0.929-2.672 1.318c-2.338 0.775-5.649 1.274-9.321 1.274s-6.983-0.5-9.321-1.274c-1.17-0.389-2.086-0.856-2.672-1.318s-0.8-0.856-0.8-1.188l0.001-11.88z"></path>
</symbol>
<symbol id="icon-menu" viewBox="0 0 24 24">
<path d="M3 6h18v2.016h-18v-2.016zM3 12.984v-1.969h18v1.969h-18zM3 18v-2.016h18v2.016h-18z"></path>
</symbol>
<symbol id="icon-status-dot" viewBox="0 0 20 20">
<path d="M7.8 10c0 1.215 0.986 2.2 2.201 2.2s2.199-0.986 2.199-2.2c0-1.215-0.984-2.199-2.199-2.199s-2.201 0.984-2.201 2.199z"></path>
</symbol>
</defs>
</svg>
