<?xml version="1.0" encoding="UTF-8"?>
<svg width="44px" height="44px" viewBox="0 0 44 44" version="1.1" xmlns="http://www.w3.org/2000/svg" xmlns:xlink="http://www.w3.org/1999/xlink" style="background: #FFFFFF;">
    <title>latge-icon-admin</title>
    <defs>
        <polygon id="path-1" points="0.129716981 0.0400812369 8.08569182 0.0400812369 8.08569182 13.5455847 0.129716981 13.5455847"></polygon>
    </defs>
    <g id="latge-icon-admin" stroke="none" stroke-width="1" fill="none" fill-rule="evenodd">
        <rect fill="#FFFFFF" x="0" y="0" width="44" height="44"></rect>
        <g id="latge-icon">
            <rect id="Rectangle" fill-opacity="0" fill="#D8D8D8" x="0" y="0" width="44" height="44"></rect>
            <g id="Group-10" transform="translate(2.000000, 5.000000)">
                <path d="M20.4202305,17.7028897 C22.0000696,17.7028897 23.2810203,18.9668669 23.2810203,20.525772 C23.2810203,22.0846772 22.0000696,23.3486543 20.4202305,23.3486543 C18.8403914,23.3486543 17.5594407,22.0846772 17.5594407,20.525772 C17.5594407,18.9668669 18.8403914,17.7028897 20.4202305,17.7028897 M23.494512,24.1070406 C24.5192726,23.2222566 25.1597479,21.9582794 25.1597479,20.5679046 C25.1597479,17.9556852 23.0248301,15.8490566 20.3775321,15.8490566 C17.7302341,15.8490566 15.5953164,17.9556852 15.5953164,20.5679046 C15.5953164,22.000412 16.2357917,23.2643892 17.2605522,24.1070406 C15.5099197,24.7390291 14.1862707,26.2558017 13.9727789,28.1517674 L13.5884937,31.3959754 C13.5457953,31.9015663 13.8873822,32.3650246 14.4424608,32.4492897 C14.9548411,32.4914223 15.424523,32.1543617 15.5099197,31.6066383 L15.8942049,28.3624303 C16.0649983,26.8456577 17.3886473,25.6659457 18.9684864,25.6659457 L21.7865778,25.6659457 C23.366417,25.6659457 24.690066,26.8035251 24.8608594,28.3624303 L25.2451446,31.6066383 C25.2878429,32.0700966 25.7148265,32.4492897 26.1845084,32.4492897 L26.3126035,32.4492897 C26.8249837,32.4071571 27.2092689,31.9015663 27.1665706,31.3959754 L26.8249837,28.1517674 C26.5687936,26.2558017 25.2451446,24.6968966 23.494512,24.1070406" id="Fill-1" fill="#9457B0"></path>
                <g id="Group-5" transform="translate(15.849057, -0.000000)">
                    <mask id="mask-2" fill="white">
                        <use xlink:href="#path-1"></use>
                    </mask>
                    <g id="Clip-4"></g>
                    <path d="M4.1509434,2.04401238 C5.27515723,2.04401238 6.1831761,2.95891018 6.1831761,4.09164079 C6.1831761,5.2243714 5.27515723,6.1392692 4.1509434,6.1392692 C3.02672956,6.1392692 2.11871069,5.2243714 2.11871069,4.09164079 C2.11871069,2.95891018 3.02672956,2.04401238 4.1509434,2.04401238 M3.19968553,7.92549823 L3.19968553,12.5871203 C3.19968553,13.1099191 3.63207547,13.5455847 4.1509434,13.5455847 C4.66981132,13.5455847 5.10220126,13.1099191 5.10220126,12.5871203 L5.10220126,7.92549823 C6.83176101,7.48983261 8.08569182,5.92143639 8.08569182,4.04807423 C8.08569182,1.82617957 6.31289308,0.0399505372 4.1077044,0.0399505372 C1.90251572,0.0399505372 0.129716981,1.82617957 0.129716981,4.04807423 C0.172955975,5.92143639 1.47012579,7.48983261 3.19968553,7.92549823" id="Fill-3" fill="#4394DB" mask="url(#mask-2)"></path>
                </g>
                <path d="M6.98503578,7.75503362 C7.3597918,7.37953771 7.85946649,7.17092887 8.35914118,7.17092887 C8.90045543,7.17092887 9.35849057,7.37953771 9.73324658,7.75503362 C10.1080026,8.13052953 10.3162004,8.63119075 10.3162004,9.13185196 C10.3162004,9.67423495 10.1080026,10.1331744 9.73324658,10.5086703 C8.98373455,11.2596621 7.73454782,11.2596621 6.98503578,10.5086703 C6.23552375,9.75767848 6.23552375,8.50602544 6.98503578,7.75503362 M8.35914118,12.9285328 C9.02537411,12.9285328 9.69160703,12.719924 10.3162004,12.3861499 L13.4808068,15.5570042 C13.647365,15.7238913 13.8972023,15.8490566 14.1470397,15.8490566 C14.396877,15.8490566 14.6050748,15.7656131 14.8132726,15.5570042 C15.1880286,15.1815083 15.1880286,14.5974036 14.8132726,14.2219077 L11.6486662,11.0510533 C11.9817827,10.4669485 12.1899805,9.79940025 12.1899805,9.09013019 C12.1899805,8.047086 11.7735849,7.08748533 11.0657124,6.37821528 C9.60832791,4.9179534 7.10995446,4.9179534 5.65256994,6.37821528 C4.15354587,7.88019892 4.15354587,10.3000615 5.65256994,11.8020451 C6.40208198,12.5530369 7.3597918,12.9285328 8.35914118,12.9285328" id="Fill-6" fill="#4394DB"></path>
                <path d="M3.8490566,22.3051682 C2.77297626,22.3051682 1.90383445,21.4438064 1.90383445,20.3773585 C1.90383445,19.3109106 2.77297626,18.4495488 3.8490566,18.4495488 C4.92513694,18.4495488 5.79427876,19.3109106 5.79427876,20.3773585 C5.79427876,21.4438064 4.92513694,22.3051682 3.8490566,22.3051682 M11.9196592,19.4339623 L7.49117468,19.4339623 C7.07729763,17.7932732 5.58734023,16.6037736 3.8076689,16.6037736 C1.69689592,16.6037736 2.84217094e-14,18.2854799 2.84217094e-14,20.3773585 C2.84217094e-14,22.4692371 1.69689592,24.1509434 3.8076689,24.1509434 C5.58734023,24.1509434 7.07729763,22.9204266 7.49117468,21.3207547 L11.9196592,21.3207547 C12.4163116,21.3207547 12.8301887,20.9105824 12.8301887,20.4183757 C12.8301887,19.926169 12.4576993,19.4339623 11.9196592,19.4339623" id="Fill-8" fill="#4394DB"></path>
                <path d="M36.1509434,22.3678209 C35.0748631,22.3678209 34.2057212,21.4969936 34.2057212,20.4188265 C34.2057212,19.3406593 35.0748631,18.4698321 36.1509434,18.4698321 C37.2274376,18.4698321 38.0961656,19.3406593 38.0961656,20.4188265 C38.0961656,21.4969936 37.2274376,22.3678209 36.1509434,22.3678209 M36.1509434,16.6037736 C34.3712721,16.6037736 32.8817285,17.8478126 32.4678515,19.4650632 L28.0803408,19.4650632 C27.5836884,19.4650632 27.1698113,19.8797429 27.1698113,20.3773585 C27.1698113,20.8749741 27.5836884,21.2896537 28.0803408,21.2896537 L32.5088253,21.2896537 C32.9227024,22.9483724 34.4126598,24.1509434 36.192745,24.1509434 C38.3031041,24.1509434 40,22.4507568 40,20.3358905 C40,18.2210243 38.2621302,16.6037736 36.1509434,16.6037736" id="Fill-10" fill="#4394DB"></path>
                <path d="M30.2249042,7.79675539 C30.5996455,7.42125948 31.0997169,7.21265064 31.5989555,7.21265064 C32.0986105,7.21265064 32.5982655,7.42125948 32.9734231,7.79675539 C33.347748,8.1722513 33.5559376,8.67291251 33.5559376,9.17357373 C33.5559376,9.71595671 33.347748,10.1748962 32.9734231,10.5503921 C32.2235242,11.3013839 30.9743867,11.3013839 30.2249042,10.5503921 C29.4754217,9.79940025 29.4754217,8.54774721 30.2249042,7.79675539 M25.852923,15.8490566 C26.1031669,15.8490566 26.3113564,15.7656131 26.519546,15.5570042 L29.6836113,12.3861499 C30.2669585,12.7616458 30.9743867,12.9285328 31.6405934,12.9285328 C32.5982655,12.9285328 33.5979919,12.5530369 34.347058,11.8020451 C35.0553189,11.0927751 35.4716981,10.1331744 35.4716981,9.09013019 C35.4716981,8.047086 35.0553189,7.08748533 34.347058,6.37821528 C32.8897309,4.9179534 30.3914559,4.9179534 28.9341288,6.37821528 C27.6849913,7.62986832 27.4768017,9.54906964 28.351198,11.0510533 L25.1867163,14.2219077 C24.8119751,14.5974036 24.8119751,15.1815083 25.1867163,15.5570042 C25.353268,15.7656131 25.6030955,15.8490566 25.852923,15.8490566" id="Fill-12" fill="#4394DB"></path>
            </g>
        </g>
    </g>
</svg>