<?xml version="1.0" encoding="UTF-8"?>
<svg width="44px" height="44px" viewBox="0 0 44 44" version="1.1" xmlns="http://www.w3.org/2000/svg" xmlns:xlink="http://www.w3.org/1999/xlink" style="background: #FFFFFF;">
    <title>cash-flow-foucast</title>
    <g id="cash-flow-foucast" stroke="none" stroke-width="1" fill="none" fill-rule="evenodd">
        <rect fill="#FFFFFF" x="0" y="0" width="44" height="44"></rect>
        <rect id="Rectangle-Copy-3" fill="#1DA4A8" x="3.14415161e-13" y="20.7829139" width="29.6582278" height="4.59493671"></rect>
        <polygon id="Triangle-Copy-4" fill="#1DA4A8" transform="translate(30.911392, 23.080382) rotate(90.000000) translate(-30.911392, -23.080382) " points="30.9113924 21.2006354 35.5063291 24.9601291 26.3164557 24.9601291"></polygon>
        <g id="Group-3" transform="translate(0.000000, 7.471429)">
            <polygon id="Triangle-Copy-5" fill="#FDC231" transform="translate(25.533326, 3.272533) rotate(45.000000) translate(-25.533326, -3.272533) " points="25.5242439 1.8190851 28.6280572 4.72598162 22.4385948 4.70657892"></polygon>
            <path d="M0,9.47240098 L11.7000776,9.47240098 C16.7044523,9.47240098 21.5018945,7.4752378 25.02792,3.92405344 L25.02792,3.92405344 L25.02792,3.92405344" id="Path-5-Copy-2" stroke="#FDC231" stroke-width="4"></path>
        </g>
        <g id="Group-Copy" transform="translate(0.000000, 28.827037)">
            <polygon id="Triangle-Copy" fill="#B51E3A" transform="translate(15.898099, 5.069792) scale(1, -1) rotate(45.000000) translate(-15.898099, -5.069792) " points="15.8776373 3.63679176 18.9361605 6.50279128 12.8600369 6.45907816"></polygon>
            <path d="M2.77398625e-13,4.26119283 L4.72346845,4.26119283 C8.54980013,4.26119283 12.2161847,2.72614757 14.9011304,0 L14.9011304,0 L14.9011304,0" id="Path-5" stroke="#B51E3A" stroke-width="4" transform="translate(7.450565, 2.130596) scale(-1, 1) rotate(180.000000) translate(-7.450565, -2.130596) "></path>
        </g>
    </g>
</svg>