<svg width="849" height="127" viewBox="0 0 849 127" fill="none" xmlns="http://www.w3.org/2000/svg">
<rect width="849" height="126.851" fill="white"/>
<path d="M138 10H840V116H138V10Z" fill="white"/>
<path d="M189.77 93.9999L184.82 81.4899H160.16L155.48 93.9999H138.74L165.47 30.2799H180.41L206.87 93.9999H189.77ZM172.67 47.2899L164.57 69.1599H180.59L172.67 47.2899Z" fill="black"/>
<path d="M238.956 93.9999V69.5199C238.956 68.2599 238.836 67.0599 238.596 65.9199C238.416 64.7799 238.086 63.7899 237.606 62.9499C237.126 62.0499 236.436 61.3599 235.536 60.8799C234.696 60.3399 233.616 60.0699 232.296 60.0699C230.976 60.0699 229.806 60.3399 228.786 60.8799C227.826 61.3599 227.016 62.0499 226.356 62.9499C225.696 63.8499 225.186 64.8999 224.826 66.0999C224.526 67.2399 224.376 68.4399 224.376 69.6999V93.9999H209.526V49.1799H223.836V55.3899H224.016C224.556 54.4299 225.246 53.4999 226.086 52.5999C226.986 51.6399 228.006 50.8299 229.146 50.1699C230.346 49.5099 231.636 48.9699 233.016 48.5499C234.396 48.1299 235.866 47.9199 237.426 47.9199C240.426 47.9199 242.976 48.4599 245.076 49.5399C247.176 50.6199 248.856 52.0299 250.116 53.7699C251.436 55.4499 252.366 57.3999 252.906 59.6199C253.506 61.8399 253.806 64.0599 253.806 66.2799V93.9999H238.956Z" fill="black"/>
<path d="M310.705 89.7699C310.705 94.1499 310.075 97.9599 308.815 101.2C307.555 104.44 305.785 107.11 303.505 109.21C301.225 111.37 298.435 112.96 295.135 113.98C291.895 115.06 288.295 115.6 284.335 115.6C280.375 115.6 276.295 115 272.095 113.8C267.955 112.6 264.355 110.86 261.295 108.58L268.675 98.0499C270.835 99.9699 273.205 101.38 275.785 102.28C278.425 103.24 281.005 103.72 283.525 103.72C287.845 103.72 291.025 102.58 293.065 100.3C295.165 98.0199 296.215 94.9899 296.215 91.2099V88.5099H295.945C294.565 90.3099 292.705 91.7499 290.365 92.8299C288.025 93.9099 285.355 94.4499 282.355 94.4499C278.935 94.4499 275.905 93.8499 273.265 92.6499C270.625 91.3899 268.375 89.7099 266.515 87.6099C264.715 85.5099 263.335 83.0799 262.375 80.3199C261.415 77.4999 260.935 74.5299 260.935 71.4099C260.935 68.2899 261.415 65.3199 262.375 62.4999C263.335 59.6799 264.715 57.1899 266.515 55.0299C268.375 52.8699 270.625 51.1599 273.265 49.8999C275.905 48.5799 278.905 47.9199 282.265 47.9199C285.085 47.9199 287.785 48.4899 290.365 49.6299C292.945 50.7699 295.015 52.5399 296.575 54.9399H296.755V49.1799H310.705V89.7699ZM296.665 71.3199C296.665 69.8199 296.395 68.3799 295.855 66.9999C295.375 65.6199 294.655 64.4199 293.695 63.3999C292.735 62.3199 291.595 61.4799 290.275 60.8799C288.955 60.2799 287.455 59.9799 285.775 59.9799C284.095 59.9799 282.595 60.2799 281.275 60.8799C280.015 61.4799 278.935 62.2899 278.035 63.3099C277.135 64.3299 276.445 65.5299 275.965 66.9099C275.485 68.2899 275.245 69.7599 275.245 71.3199C275.245 72.8199 275.485 74.2599 275.965 75.6399C276.445 77.0199 277.135 78.2499 278.035 79.3299C278.935 80.3499 280.015 81.1899 281.275 81.8499C282.595 82.4499 284.095 82.7499 285.775 82.7499C287.455 82.7499 288.955 82.4499 290.275 81.8499C291.655 81.1899 292.795 80.3499 293.695 79.3299C294.655 78.3099 295.375 77.1099 295.855 75.7299C296.395 74.3499 296.665 72.8799 296.665 71.3199Z" fill="black"/>
<path d="M351.494 66.4599C351.494 64.1199 350.744 62.1099 349.244 60.4299C347.804 58.7499 345.614 57.9099 342.674 57.9099C341.234 57.9099 339.914 58.1499 338.714 58.6299C337.514 59.0499 336.464 59.6499 335.564 60.4299C334.664 61.2099 333.944 62.1399 333.404 63.2199C332.864 64.2399 332.564 65.3199 332.504 66.4599H351.494ZM365.084 72.1299C365.084 72.7299 365.084 73.3299 365.084 73.9299C365.084 74.5299 365.054 75.0999 364.994 75.6399H332.504C332.624 76.8999 332.984 78.0399 333.584 79.0599C334.244 80.0799 335.054 80.9799 336.014 81.7599C337.034 82.4799 338.144 83.0499 339.344 83.4699C340.604 83.8899 341.894 84.0999 343.214 84.0999C345.554 84.0999 347.534 83.6799 349.154 82.8399C350.774 81.9399 352.094 80.7999 353.114 79.4199L363.374 85.8999C361.274 88.9599 358.484 91.3299 355.004 93.0099C351.584 94.6299 347.594 95.4399 343.034 95.4399C339.674 95.4399 336.494 94.9299 333.494 93.9099C330.494 92.8299 327.854 91.2999 325.574 89.3199C323.354 87.2799 321.584 84.7899 320.264 81.8499C319.004 78.9099 318.374 75.5499 318.374 71.7699C318.374 68.1099 319.004 64.8099 320.264 61.8699C321.524 58.8699 323.234 56.3499 325.394 54.3099C327.554 52.2099 330.104 50.5899 333.044 49.4499C335.984 48.3099 339.164 47.7399 342.584 47.7399C345.884 47.7399 348.914 48.3099 351.674 49.4499C354.434 50.5299 356.804 52.1199 358.784 54.2199C360.764 56.3199 362.294 58.8699 363.374 61.8699C364.514 64.8699 365.084 68.2899 365.084 72.1299Z" fill="black"/>
<path d="M372.617 93.9999V28.9599H387.557V93.9999H372.617Z" fill="black"/>
<path d="M465.394 45.2199C463.714 42.9399 461.524 41.2899 458.824 40.2699C456.124 39.1899 453.484 38.6499 450.904 38.6499C447.604 38.6499 444.604 39.2499 441.904 40.4499C439.204 41.6499 436.864 43.2999 434.884 45.3999C432.964 47.4999 431.464 49.9599 430.384 52.7799C429.364 55.5999 428.854 58.6599 428.854 61.9599C428.854 65.4399 429.364 68.6199 430.384 71.4999C431.404 74.3799 432.844 76.8699 434.704 78.9699C436.624 81.0099 438.904 82.5999 441.544 83.7399C444.184 84.8799 447.154 85.4499 450.454 85.4499C453.874 85.4499 456.904 84.7899 459.544 83.4699C462.184 82.0899 464.314 80.2899 465.934 78.0699L475.024 84.4599C472.204 87.9999 468.754 90.7599 464.674 92.7399C460.594 94.6599 455.824 95.6199 450.364 95.6199C445.384 95.6199 440.794 94.8099 436.594 93.1899C432.454 91.5099 428.884 89.1999 425.884 86.2599C422.884 83.2599 420.544 79.7199 418.864 75.6399C417.184 71.4999 416.344 66.9399 416.344 61.9599C416.344 56.8599 417.214 52.2699 418.954 48.1899C420.754 44.0499 423.184 40.5399 426.244 37.6599C429.364 34.7799 433.024 32.5599 437.224 30.9999C441.424 29.4399 445.984 28.6599 450.904 28.6599C452.944 28.6599 455.074 28.8699 457.294 29.2899C459.514 29.6499 461.644 30.2499 463.684 31.0899C465.724 31.8699 467.644 32.8599 469.444 34.0599C471.244 35.2599 472.774 36.6999 474.034 38.3799L465.394 45.2199Z" fill="black"/>
<path d="M476.155 72.2199C476.155 68.7999 476.755 65.7099 477.955 62.9499C479.215 60.1299 480.895 57.7299 482.995 55.7499C485.095 53.7699 487.585 52.2399 490.465 51.1599C493.345 50.0799 496.405 49.5399 499.645 49.5399C502.885 49.5399 505.945 50.0799 508.825 51.1599C511.705 52.2399 514.195 53.7699 516.295 55.7499C518.395 57.7299 520.045 60.1299 521.245 62.9499C522.505 65.7099 523.135 68.7999 523.135 72.2199C523.135 75.6399 522.505 78.7599 521.245 81.5799C520.045 84.3999 518.395 86.8299 516.295 88.8699C514.195 90.8499 511.705 92.4099 508.825 93.5499C505.945 94.6899 502.885 95.2599 499.645 95.2599C496.405 95.2599 493.345 94.6899 490.465 93.5499C487.585 92.4099 485.095 90.8499 482.995 88.8699C480.895 86.8299 479.215 84.3999 477.955 81.5799C476.755 78.7599 476.155 75.6399 476.155 72.2199ZM487.135 72.2199C487.135 73.8999 487.375 75.5799 487.855 77.2599C488.395 78.9399 489.175 80.4399 490.195 81.7599C491.215 83.0799 492.505 84.1599 494.065 84.9999C495.625 85.8399 497.485 86.2599 499.645 86.2599C501.805 86.2599 503.665 85.8399 505.225 84.9999C506.785 84.1599 508.075 83.0799 509.095 81.7599C510.115 80.4399 510.865 78.9399 511.345 77.2599C511.885 75.5799 512.155 73.8999 512.155 72.2199C512.155 70.5399 511.885 68.8899 511.345 67.2699C510.865 65.5899 510.115 64.0899 509.095 62.7699C508.075 61.4499 506.785 60.3999 505.225 59.6199C503.665 58.7799 501.805 58.3599 499.645 58.3599C497.485 58.3599 495.625 58.7799 494.065 59.6199C492.505 60.3999 491.215 61.4499 490.195 62.7699C489.175 64.0899 488.395 65.5899 487.855 67.2699C487.375 68.8899 487.135 70.5399 487.135 72.2199Z" fill="black"/>
<path d="M531.807 50.7999H542.067V57.7299H542.247C543.207 55.5699 544.857 53.6799 547.197 52.0599C549.597 50.3799 552.417 49.5399 555.657 49.5399C558.477 49.5399 560.877 50.0499 562.857 51.0699C564.897 52.0299 566.547 53.3199 567.807 54.9399C569.127 56.5599 570.087 58.4199 570.687 60.5199C571.287 62.6199 571.587 64.7799 571.587 66.9999V93.9999H560.787V70.0599C560.787 68.7999 560.697 67.4799 560.517 66.0999C560.337 64.7199 559.947 63.4899 559.347 62.4099C558.747 61.2699 557.907 60.3399 556.827 59.6199C555.807 58.8999 554.427 58.5399 552.687 58.5399C550.947 58.5399 549.447 58.8999 548.187 59.6199C546.927 60.2799 545.877 61.1499 545.037 62.2299C544.257 63.3099 543.657 64.5699 543.237 66.0099C542.817 67.3899 542.607 68.7999 542.607 70.2399V93.9999H531.807V50.7999Z" fill="black"/>
<path d="M606.059 62.3199C605.099 61.0599 603.779 59.9799 602.099 59.0799C600.419 58.1199 598.589 57.6399 596.609 57.6399C594.869 57.6399 593.279 57.9999 591.839 58.7199C590.399 59.4399 589.679 60.6399 589.679 62.3199C589.679 63.9999 590.459 65.1999 592.019 65.9199C593.639 66.5799 595.979 67.2699 599.039 67.9899C600.659 68.3499 602.279 68.8299 603.899 69.4299C605.579 70.0299 607.079 70.8399 608.399 71.8599C609.779 72.8199 610.889 74.0499 611.729 75.5499C612.569 76.9899 612.989 78.7599 612.989 80.8599C612.989 83.4999 612.479 85.7499 611.459 87.6099C610.499 89.4099 609.179 90.8799 607.499 92.0199C605.879 93.1599 603.959 93.9699 601.739 94.4499C599.579 94.9899 597.329 95.2599 594.989 95.2599C591.629 95.2599 588.359 94.6599 585.179 93.4599C581.999 92.1999 579.359 90.4299 577.259 88.1499L584.369 81.4899C585.569 83.0499 587.129 84.3399 589.049 85.3599C590.969 86.3799 593.099 86.8899 595.439 86.8899C596.219 86.8899 596.999 86.7999 597.779 86.6199C598.619 86.4399 599.369 86.1699 600.029 85.8099C600.749 85.3899 601.319 84.8499 601.739 84.1899C602.159 83.5299 602.369 82.7199 602.369 81.7599C602.369 79.9599 601.529 78.6699 599.849 77.8899C598.229 77.1099 595.769 76.3299 592.469 75.5499C590.849 75.1899 589.259 74.7399 587.699 74.1999C586.199 73.5999 584.849 72.8499 583.649 71.9499C582.449 70.9899 581.489 69.8199 580.769 68.4399C580.049 67.0599 579.689 65.3499 579.689 63.3099C579.689 60.9099 580.169 58.8399 581.129 57.0999C582.149 55.3599 583.469 53.9499 585.089 52.8699C586.709 51.7299 588.539 50.8899 590.579 50.3499C592.619 49.8099 594.719 49.5399 596.879 49.5399C599.999 49.5399 603.029 50.0799 605.969 51.1599C608.969 52.2399 611.339 53.8899 613.079 56.1099L606.059 62.3199Z" fill="black"/>
<path d="M660 93.9999H649.74V87.0699H649.56C648.6 89.2299 646.92 91.1499 644.52 92.8299C642.18 94.4499 639.39 95.2599 636.15 95.2599C633.33 95.2599 630.9 94.7799 628.86 93.8199C626.88 92.7999 625.23 91.4799 623.91 89.8599C622.65 88.2399 621.72 86.3799 621.12 84.2799C620.52 82.1799 620.22 80.0199 620.22 77.7999V50.7999H631.02V74.7399C631.02 75.9999 631.11 77.3199 631.29 78.6999C631.47 80.0799 631.86 81.3399 632.46 82.4799C633.06 83.5599 633.87 84.4599 634.89 85.1799C635.97 85.8999 637.38 86.2599 639.12 86.2599C640.8 86.2599 642.27 85.9299 643.53 85.2699C644.85 84.5499 645.9 83.6499 646.68 82.5699C647.52 81.4899 648.15 80.2599 648.57 78.8799C648.99 77.4399 649.2 75.9999 649.2 74.5599V50.7999H660V93.9999Z" fill="black"/>
<path d="M671.342 28.9599H682.142V93.9999H671.342V28.9599Z" fill="black"/>
<path d="M687.234 59.4399V50.7999H694.794V28.9599H705.414V50.7999H716.214V59.4399H705.414V79.5099C705.414 81.4299 705.744 83.0199 706.404 84.2799C707.124 85.5399 708.684 86.1699 711.084 86.1699C711.804 86.1699 712.584 86.1099 713.424 85.9899C714.265 85.8099 715.015 85.5699 715.674 85.2699L716.034 93.7299C715.074 94.0899 713.935 94.3599 712.615 94.5399C711.295 94.7799 710.034 94.8999 708.834 94.8999C705.954 94.8999 703.614 94.5099 701.814 93.7299C700.014 92.8899 698.575 91.7799 697.495 90.3999C696.475 88.9599 695.754 87.3399 695.334 85.5399C694.974 83.6799 694.794 81.6999 694.794 79.5999V59.4399H687.234Z" fill="black"/>
<path d="M722.41 50.7999H733.21V93.9999H722.41V50.7999ZM720.88 36.1299C720.88 34.3899 721.51 32.8899 722.77 31.6299C724.09 30.3099 725.74 29.6499 727.72 29.6499C729.7 29.6499 731.35 30.2799 732.67 31.5399C734.05 32.7399 734.74 34.2699 734.74 36.1299C734.74 37.9899 734.05 39.5499 732.67 40.8099C731.35 42.0099 729.7 42.6099 727.72 42.6099C725.74 42.6099 724.09 41.9799 722.77 40.7199C721.51 39.3999 720.88 37.8699 720.88 36.1299Z" fill="black"/>
<path d="M744.512 50.7999H754.772V57.7299H754.952C755.912 55.5699 757.562 53.6799 759.902 52.0599C762.302 50.3799 765.122 49.5399 768.362 49.5399C771.182 49.5399 773.582 50.0499 775.562 51.0699C777.602 52.0299 779.252 53.3199 780.512 54.9399C781.832 56.5599 782.792 58.4199 783.392 60.5199C783.992 62.6199 784.292 64.7799 784.292 66.9999V93.9999H773.492V70.0599C773.492 68.7999 773.402 67.4799 773.222 66.0999C773.042 64.7199 772.652 63.4899 772.052 62.4099C771.452 61.2699 770.612 60.3399 769.532 59.6199C768.512 58.8999 767.132 58.5399 765.392 58.5399C763.652 58.5399 762.152 58.8999 760.892 59.6199C759.632 60.2799 758.582 61.1499 757.742 62.2299C756.962 63.3099 756.362 64.5699 755.942 66.0099C755.522 67.3899 755.312 68.7999 755.312 70.2399V93.9999H744.512V50.7999Z" fill="black"/>
<path d="M839.015 50.7999V90.1299C839.015 94.0299 838.535 97.5399 837.575 100.66C836.615 103.84 835.115 106.51 833.075 108.67C831.095 110.89 828.575 112.6 825.515 113.8C822.455 115 818.825 115.6 814.625 115.6C812.885 115.6 811.025 115.45 809.045 115.15C807.125 114.85 805.205 114.4 803.285 113.8C801.425 113.2 799.625 112.45 797.885 111.55C796.145 110.65 794.585 109.63 793.205 108.49L799.415 100.12C801.515 102.1 803.885 103.6 806.525 104.62C809.165 105.7 811.835 106.24 814.535 106.24C817.115 106.24 819.275 105.85 821.015 105.07C822.815 104.35 824.225 103.33 825.245 102.01C826.325 100.69 827.075 99.1299 827.495 97.3299C827.975 95.5299 828.215 93.5499 828.215 91.3899V88.2399H828.035C826.475 90.3399 824.465 91.9599 822.005 93.0999C819.605 94.1799 816.905 94.7199 813.905 94.7199C810.665 94.7199 807.725 94.1199 805.085 92.9199C802.445 91.7199 800.195 90.0999 798.335 88.0599C796.535 86.0199 795.125 83.6499 794.105 80.9499C793.085 78.1899 792.575 75.2799 792.575 72.2199C792.575 69.0999 793.055 66.1599 794.015 63.3999C795.035 60.6399 796.445 58.2399 798.245 56.1999C800.105 54.1599 802.325 52.5399 804.905 51.3399C807.545 50.1399 810.485 49.5399 813.725 49.5399C816.785 49.5399 819.635 50.1699 822.275 51.4299C824.915 52.6899 827.015 54.6399 828.575 57.2799H828.755V50.7999H839.015ZM815.975 58.3599C813.995 58.3599 812.225 58.7199 810.665 59.4399C809.165 60.1599 807.875 61.1499 806.795 62.4099C805.775 63.6099 804.965 65.0499 804.365 66.7299C803.825 68.4099 803.555 70.2099 803.555 72.1299C803.555 73.8699 803.825 75.5499 804.365 77.1699C804.965 78.7899 805.775 80.2599 806.795 81.5799C807.875 82.8399 809.165 83.8599 810.665 84.6399C812.225 85.4199 813.965 85.8099 815.885 85.8099C817.865 85.8099 819.635 85.4499 821.195 84.7299C822.815 83.9499 824.165 82.9299 825.245 81.6699C826.385 80.4099 827.255 78.9699 827.855 77.3499C828.455 75.6699 828.755 73.9299 828.755 72.1299C828.755 70.2699 828.455 68.4999 827.855 66.8199C827.255 65.1399 826.385 63.6699 825.245 62.4099C824.165 61.1499 822.845 60.1599 821.285 59.4399C819.725 58.7199 817.955 58.3599 815.975 58.3599Z" fill="black"/>
<path d="M10 10H116V116H10V10Z" fill="white"/>
<path fill-rule="evenodd" clip-rule="evenodd" d="M109.917 77.5022L96.562 100.502C96.383 100.81 96.0536 101 95.6972 101H64.812C64.4544 101 64.124 100.809 63.9455 100.499L39.7543 58.5071C39.5757 58.1971 39.5764 57.8152 39.7561 57.5058L53.1216 34.4874C53.5078 33.8222 54.4689 33.8239 54.8529 34.4903L76.7465 72.4943C77.996 74.6633 80.3087 76 82.812 76H109.052C109.823 76 110.304 76.8355 109.917 77.5022Z" fill="black"/>
<path fill-rule="evenodd" clip-rule="evenodd" d="M80.4378 50.5021L67.083 27.5021C66.6959 26.8355 67.1769 26 67.9478 26H106.552C107.323 26 107.804 26.8355 107.417 27.5021L94.0618 50.5021C93.8828 50.8103 93.5534 51 93.197 51H81.3026C80.9462 51 80.6168 50.8103 80.4378 50.5021Z" fill="black"/>
<path fill-rule="evenodd" clip-rule="evenodd" d="M16.0352 99.5028L30.3852 74.4644C30.7668 73.7987 31.725 73.793 32.1145 74.4541L46.8631 99.4925C47.2558 100.159 46.7752 101 46.0015 101H16.9028C16.1345 101 15.6532 100.169 16.0352 99.5028Z" fill="black"/>
</svg>
