<?xml version="1.0" encoding="UTF-8"?>
<svg width="92px" height="24px" viewBox="0 0 92 24" version="1.1" xmlns="http://www.w3.org/2000/svg" xmlns:xlink="http://www.w3.org/1999/xlink">
    <title>Centime</title>
    <g id="icons" stroke="none" stroke-width="1" fill="none" fill-rule="evenodd">
        <g transform="translate(-508.000000, -1361.000000)" id="Group">
            <g transform="translate(508.000000, 1361.000000)">
                <rect id="alpha" fill-opacity="0" fill="#FFFFFF" x="0" y="0" width="92" height="24"></rect>
                <g id="logo" fill-rule="nonzero">
                    <polygon id="icon" fill="#FDC231" points="55.2592109 0 45.2277199 7.79440267 49.2678241 7.79440267 52.6130382 5.19507081 52.6130382 7.79440267 55.2592109 7.79440267"></polygon>
                    <path d="M6.62373411,10.7698016 C8.56726804,10.7698016 10.4056414,11.6177283 11.667015,13.0963487 L10.1535327,14.3839922 C9.27073711,13.3489579 7.98418018,12.7552987 6.62373411,12.7552987 C4.06750131,12.7552987 1.98808882,14.8320004 1.98808882,17.3851772 C1.98808882,19.9378013 4.06750131,22.0142266 6.62373411,22.0142266 C8.03869765,22.0142266 9.35818645,21.3813217 10.2440261,20.2766403 L11.7956984,21.5181287 C10.5304504,23.0951396 8.64530827,24 6.62373411,24 C2.97134042,24 0,21.0325332 0,17.3851772 C0,13.7375448 2.97134042,10.7698016 6.62373411,10.7698016 Z M19.4074718,11.019343 C22.8628277,11.019343 25.1843863,13.6449308 25.1843863,17.5526344 C25.1843863,17.7192901 25.1843863,17.9077797 25.1605868,18.1930015 L25.1605868,18.1930015 L25.1459197,18.3696068 L15.6853399,18.3696068 C15.9916894,20.5297745 17.5760169,21.96528 19.6855939,21.96528 C21.1047085,21.96528 22.2606449,21.4476247 23.3230437,20.3357574 L23.3230437,20.3357574 L23.4517271,20.2008852 L24.8467654,21.4484539 L24.718082,21.5913411 C23.2843003,23.1885277 21.7179608,23.9004765 19.6391018,23.9004765 C16.121203,23.9004765 13.4686653,21.1317251 13.4686653,17.4597716 C13.4686653,13.7880944 16.0215771,11.019343 19.4074718,11.019343 Z M83.3305324,11.019343 C86.7856116,11.019343 89.107447,13.6449308 89.107447,17.5526344 C89.107447,17.7192901 89.107447,17.9077797 89.0833707,18.1930015 L89.0833707,18.1930015 L89.0689804,18.3696068 L79.6086774,18.3696068 C79.9141966,20.5297745 81.4988008,21.96528 83.6086546,21.96528 C85.0274925,21.96528 86.1839823,21.4476247 87.2466578,20.3357574 L87.2466578,20.3357574 L87.3753412,20.2008852 L88.7698261,21.4484539 L88.6411427,21.5913411 C87.2081912,23.1885277 85.641575,23.9004765 83.5624392,23.9004765 C80.0445404,23.9004765 77.3917259,21.1317251 77.3917259,17.4597716 C77.3917259,13.7880944 79.9449146,11.019343 83.3305324,11.019343 Z M44.0528269,8.71031823 L44.0528269,11.3013588 L47.750329,11.3013588 L47.750329,13.2746953 L44.0528269,13.2746953 L44.0528269,20.1705941 C44.0528269,21.3045716 44.6865579,21.8327293 46.0461737,21.8327293 C46.3990153,21.8327293 46.6594261,21.8053679 47.0676153,21.7473286 L47.0676153,21.7473286 L47.3000756,23.6040337 C46.4906156,23.7648855 45.86408,23.8367437 45.2707528,23.8367437 C42.9406153,23.8367437 41.8082016,22.5593263 41.8082016,19.9312511 L41.8082016,19.9312511 L41.8082016,10.452603 L44.0528269,8.71031823 Z M33.7495788,11.0196746 C36.6536718,11.0196746 38.530235,12.975323 38.530235,16.0022111 L38.530235,16.0022111 L38.530235,23.6224958 L36.3611593,23.6224958 L36.3611593,16.4413752 C36.3611593,14.301383 35.19443,13.0239654 33.2401033,13.0239654 C31.2387311,13.0239654 29.8409254,14.4865559 29.8409254,16.5806695 L29.8409254,16.5806695 L29.8409254,23.6224958 L27.6715729,23.6224958 L27.6715729,11.2744948 L29.8409254,11.2744948 L29.8409254,12.9236403 C30.8006542,11.659489 32.112671,11.0196746 33.7495788,11.0196746 Z M52.6126507,11.2741908 L52.6126507,23.6224681 L50.4441285,23.6224681 L50.4441285,11.2741908 L52.6126507,11.2741908 Z M70.3190667,11.0196746 C73.1819257,11.0196746 74.9605236,12.9377356 74.9605236,16.0251504 L74.9605236,16.0251504 L74.9605236,23.6224958 L72.7914478,23.6224958 L72.7914478,16.4413752 C72.7914478,14.2695995 71.7298792,13.0239654 69.8787759,13.0239654 C68.3248896,13.0239654 66.75772,14.1095769 66.75772,16.534238 L66.75772,16.534238 L66.75772,23.6224958 L64.6124437,23.6224958 L64.6124437,16.3960492 C64.6124437,14.2842476 63.5317803,13.0239654 61.7224644,13.0239654 C59.9006954,13.0239654 58.5778858,14.5291182 58.5778858,16.6033325 L58.5778858,16.6033325 L58.5778858,23.6224958 L56.4093635,23.6224958 L56.4093635,11.2744948 L58.5778858,11.2744948 L58.5778858,12.8805254 C59.3115193,11.9325501 60.3988245,11.0196746 62.2557393,11.0196746 C63.9585109,11.0196746 65.3203406,11.7985069 66.1237123,13.2221282 C67.1811298,11.740744 68.5567965,11.0196746 70.3190667,11.0196746 Z M19.2599701,12.908108 C17.3917091,12.908108 15.9050703,14.3947433 15.5857142,16.5502127 L15.5857142,16.5502127 L22.867809,16.5502127 C22.6325813,14.7515469 21.5751638,12.908108 19.2599701,12.908108 Z M83.2840404,12.908108 C81.4157793,12.908108 79.9288637,14.3950197 79.6100611,16.5502127 L79.6100611,16.5502127 L86.8924326,16.5502127 C86.6569282,14.7515469 85.599234,12.908108 83.2840404,12.908108 Z M90.2067073,11.3733275 L90.2067073,11.6383737 L89.666514,11.6383737 L89.666514,12.9660919 L89.3651458,12.9660919 L89.3651458,11.6383737 L88.8246757,11.6383737 L88.8246757,11.3733275 L90.2067073,11.3733275 Z M90.7663001,11.3733275 L91.2085281,12.1256275 L91.6438377,11.3733275 L91.9236201,11.3733275 L92,12.9660919 L91.7058271,12.9660919 L91.6532467,11.8627923 L91.2707942,12.5120035 L91.1296577,12.5120035 L90.7447145,11.8796513 L90.6921342,12.9660919 L90.4101378,12.9660919 L90.4865175,11.3733275 L90.7663001,11.3733275 Z" id="title" fill="#1DA4A8"></path>
                </g>
            </g>
        </g>
    </g>
</svg>