<svg xmlns="http://www.w3.org/2000/svg" width="106" height="28" viewBox="0 0 106 28">
    <g fill="none" fill-rule="evenodd">
        <path fill="#F5BD3D" d="M52.043 8.985L56.691 8.985 60.541 5.989 60.541 8.985 63.587 8.985 63.587 0 52.043 8.985"/>
        <path fill="#1F9998" d="M7.622 27.668C3.419 27.668 0 24.248 0 20.042c0-4.205 3.42-7.626 7.622-7.626 2.237 0 4.352.977 5.804 2.682l-1.742 1.485c-1.016-1.194-2.497-1.878-4.062-1.878-2.941 0-5.334 2.395-5.334 5.337 0 2.943 2.393 5.337 5.334 5.337 1.628 0 3.147-.73 4.166-2.003l1.785 1.431c-1.456 1.818-3.624 2.861-5.951 2.861M26.314 19.08h-8.38c.368-2.484 2.079-4.198 4.228-4.198 2.665 0 3.882 2.124 4.152 4.198m-3.982-6.376c-3.896 0-6.833 3.192-6.833 7.425s3.052 7.425 7.1 7.425c2.392 0 4.194-.82 5.844-2.662l.148-.165-1.605-1.439-.148.156c-1.222 1.282-2.553 1.879-4.185 1.879-2.428 0-4.251-1.655-4.604-4.146h10.886l.017-.203c.028-.329.028-.547.028-.738 0-4.505-2.672-7.532-6.648-7.532M38.836 12.704c-1.884 0-3.393.738-4.499 2.195v-1.901h-2.495v14.236h2.495v-8.12c0-2.414 1.609-4.1 3.913-4.1 2.248 0 3.591 1.473 3.591 3.941v8.279h2.495v-8.785c0-3.49-2.158-5.745-5.5-5.745M52.093 27.48c.682 0 1.403-.083 2.335-.267l-.268-2.142c-.469.067-.77.098-1.175.098-1.565 0-2.292-.607-2.292-1.915v-7.95h4.253v-2.276h-4.253v-2.986l-2.585 2.008v10.928c0 3.03 1.303 4.502 3.985 4.502M58.046 27.233L60.541 27.233 60.541 12.997 58.046 12.997zM80.915 12.704c-2.026 0-3.61.831-4.827 2.539-.924-1.64-2.492-2.539-4.45-2.539-2.138 0-3.388 1.052-4.232 2.145v-1.851h-2.497v14.236h2.497v-8.092c0-2.391 1.521-4.127 3.617-4.127 2.082 0 3.326 1.453 3.326 3.888v8.33h2.468v-8.17c0-2.797 1.804-4.048 3.592-4.048 2.13 0 3.352 1.436 3.352 3.94v8.279h2.496v-8.76c0-3.56-2.046-5.77-5.342-5.77M99.986 19.08h-8.378c.366-2.484 2.076-4.198 4.226-4.198 2.665 0 3.881 2.124 4.152 4.198m-4.098-6.376c-3.895 0-6.834 3.192-6.834 7.425s3.052 7.425 7.102 7.425c2.392 0 4.194-.82 5.842-2.662l.149-.165-1.605-1.439-.147.156c-1.224 1.282-2.554 1.879-4.187 1.879-2.428 0-4.25-1.655-4.602-4.146h10.886l.016-.203c.027-.329.027-.547.027-.738 0-4.505-2.672-7.532-6.647-7.532M102.864 13.4L102.243 13.4 102.243 13.095 103.833 13.095 103.833 13.4 103.211 13.4 103.211 14.932 102.864 14.932 102.864 13.4M104.154 13.095L104.476 13.095 104.985 13.962 105.486 13.095 105.808 13.095 105.896 14.932 105.558 14.932 105.497 13.659 105.056 14.408 104.895 14.408 104.452 13.678 104.391 14.932 104.066 14.932 104.154 13.095"/>
    </g>
</svg>
