<svg xmlns="http://www.w3.org/2000/svg" xmlns:xlink="http://www.w3.org/1999/xlink" width="726" height="900" fill="none" xmlns:v="https://vecta.io/nano"><style><![CDATA[.B{fill-rule:evenodd}.C{fill:#f5cfb5}.D{fill:#fefda9}]]></style><path fill="url(#A)" d="M0 0h726v900H0z"/><path opacity=".1" d="M11 809v92h309 3.524c1.851-31.544-17.919-46.235-36.024-48.5-21.5-2.689-34.5 9.001-34.5 9.001-20-45.501-66.5-43-86.5-35.5-20.639-38.607-52-53.001-85-53.001S21.288 790.996 11 809z" fill="#d3aa76"/><path d="M0 803v97h310.5 1.564c4.348-35.001-16.528-51.119-35.564-53.5-21.5-2.689-34.5 9.001-34.5 9.001-20-45.501-66.5-43-86.5-35.5-20.639-38.607-52-53.001-85-53.001S10.288 784.996 0 803z" fill="#ffffd7"/><path d="M0 803v20s23.5-42.873 78.5-41.5 74 41.5 74 41.5 27.5-9 51 2 36 36 36 36 14-13 42.5-4 28.5 43 28.5 43h1.564c4.348-35.001-16.528-51.119-35.564-53.5-21.5-2.689-34.5 9.001-34.5 9.001-20-45.501-66.5-43-86.5-35.5-20.639-38.607-52-53.001-85-53.001S10.288 784.996 0 803z" fill="#ffffe1"/><g style="mix-blend-mode:color-burn" class="C"><g class="B"><path d="M562.394 108.185c-5.197 8.845-14.81 14.784-25.811 14.784s-20.613-5.938-25.81-14.783c-3.601 4.134-8.904 6.746-14.817 6.746-10.849 0-19.644-8.795-19.644-19.644s8.795-19.644 19.644-19.644c5.136 0 9.813 1.971 13.313 5.199 4.671-10.432 15.144-17.7 27.314-17.7s22.643 7.268 27.315 17.701a19.57 19.57 0 0 1 13.314-5.2c10.849 0 19.644 8.795 19.644 19.644s-8.795 19.644-19.644 19.644c-5.914 0-11.217-2.613-14.818-6.747z"/><path d="M653.56 109.107c-5.487 8.668-15.293 14.283-26.288 13.917s-20.405-6.621-25.304-15.634c-3.737 4.012-9.124 6.447-15.035 6.25-10.843-.36-19.341-9.443-18.98-20.286s9.444-19.341 20.287-18.98c5.134.171 9.743 2.297 13.134 5.64 5.016-10.271 15.725-17.187 27.888-16.782s22.389 8.017 26.711 18.599c3.606-3.11 8.345-4.925 13.479-4.754 10.843.361 19.341 9.444 18.98 20.287s-9.443 19.341-20.287 18.98a19.6 19.6 0 0 1-14.585-7.236z"/></g><circle cx="578.066" cy="83.296" r="42.221"/></g><g style="mix-blend-mode:overlay" class="D"><g class="B"><use xlink:href="#B"/><use xlink:href="#C"/></g><circle cx="569.991" cy="75.221" r="42.221"/></g><g opacity=".2"><g fill="#fff" class="B"><use xlink:href="#B"/><use xlink:href="#C"/></g><circle cx="569.991" cy="75.221" r="42.221" fill="#fff"/></g><g style="mix-blend-mode:color-burn" class="C"><g class="B"><path d="M416.569 190.561c-3.564 6.066-10.156 10.137-17.7 10.137s-14.136-4.072-17.7-10.137c-2.469 2.835-6.106 4.627-10.161 4.627-7.44 0-13.472-6.032-13.472-13.472s6.032-13.471 13.472-13.471c3.522 0 6.729 1.352 9.13 3.565 3.203-7.154 10.385-12.138 18.731-12.138s15.528 4.984 18.731 12.138c2.401-2.213 5.607-3.565 9.13-3.565 7.44 0 13.471 6.031 13.471 13.471s-6.031 13.472-13.471 13.472c-4.055 0-7.692-1.792-10.161-4.627z"/><path d="M479.087 191.191c-3.763 5.944-10.488 9.795-18.028 9.544s-13.993-4.539-17.353-10.72c-2.562 2.751-6.256 4.42-10.309 4.285-7.436-.247-13.263-6.476-13.016-13.912s6.476-13.263 13.912-13.016c3.521.118 6.681 1.575 9.006 3.867 3.44-7.043 10.784-11.785 19.125-11.508s15.354 5.499 18.317 12.756c2.473-2.133 5.724-3.378 9.245-3.261 7.436.247 13.263 6.476 13.016 13.912s-6.476 13.263-13.912 13.016a13.44 13.44 0 0 1-10.003-4.963z"/></g><circle cx="427.317" cy="173.492" r="28.954"/></g><g style="mix-blend-mode:overlay" class="D"><g class="B"><use xlink:href="#D"/><use xlink:href="#E"/></g><circle cx="421.779" cy="167.954" r="28.954"/></g><g opacity=".2"><g fill="#fff" class="B"><use xlink:href="#D"/><use xlink:href="#E"/></g><circle cx="421.779" cy="167.954" r="28.954" fill="#fff"/></g><defs><linearGradient id="A" x1="-29.596" y1="13" x2="33.542" y2="910.878" gradientUnits="userSpaceOnUse"><stop stop-color="#fdfdb0"/><stop offset="1" stop-color="#ffded9"/></linearGradient><path id="B" d="M554.318 100.109c-5.196 8.846-14.809 14.784-25.81 14.784s-20.614-5.937-25.81-14.782c-3.601 4.133-8.904 6.746-14.817 6.746-10.85 0-19.645-8.795-19.645-19.644s8.795-19.644 19.645-19.644c5.136 0 9.812 1.971 13.313 5.199 4.671-10.432 15.144-17.7 27.314-17.7s22.643 7.268 27.315 17.701c3.5-3.228 8.177-5.2 13.314-5.2 10.849 0 19.644 8.795 19.644 19.644s-8.795 19.644-19.644 19.644c-5.914 0-11.217-2.613-14.819-6.748z"/><path id="C" d="M645.485 101.031c-5.487 8.668-15.293 14.283-26.288 13.917s-20.405-6.62-25.304-15.634c-3.737 4.012-9.125 6.447-15.035 6.251-10.843-.361-19.341-9.444-18.98-20.287s9.444-19.341 20.287-18.98c5.134.171 9.743 2.297 13.134 5.64 5.016-10.271 15.724-17.187 27.888-16.782s22.388 8.017 26.711 18.599A19.57 19.57 0 0 1 661.377 69c10.843.361 19.341 9.444 18.98 20.287s-9.444 19.341-20.287 18.98c-5.91-.197-11.123-2.984-14.585-7.236z"/><path id="D" d="M411.032 185.023c-3.563 6.065-10.156 10.137-17.699 10.137s-14.136-4.072-17.7-10.138c-2.469 2.835-6.106 4.627-10.162 4.627-7.44 0-13.471-6.031-13.471-13.471s6.031-13.472 13.471-13.472a13.42 13.42 0 0 1 9.13 3.566c3.204-7.154 10.386-12.139 18.732-12.139s15.528 4.984 18.731 12.139a13.42 13.42 0 0 1 9.13-3.566c7.44 0 13.471 6.032 13.471 13.472s-6.031 13.471-13.471 13.471a13.44 13.44 0 0 1-10.162-4.626z"/><path id="E" d="M473.549 185.653c-3.763 5.944-10.488 9.795-18.028 9.544s-13.993-4.54-17.353-10.721c-2.562 2.751-6.256 4.421-10.309 4.286-7.436-.248-13.263-6.476-13.016-13.912s6.476-13.264 13.912-13.016a13.42 13.42 0 0 1 9.006 3.867c3.44-7.043 10.784-11.786 19.125-11.508s15.354 5.498 18.317 12.755a13.42 13.42 0 0 1 9.245-3.26c7.436.247 13.263 6.476 13.016 13.912s-6.477 13.263-13.913 13.016a13.44 13.44 0 0 1-10.002-4.963z"/></defs></svg>