<svg xmlns="http://www.w3.org/2000/svg" width="144" height="37" viewBox="0 0 144 37">
    <g fill="none" fill-rule="evenodd">
        <g>
            <g>
                <g>
                    <path fill="#000" fill-rule="nonzero" d="M48.435 12.314L45.225 12.314 45.225 27.473 49.413 27.473 54.338 18.762 54.338 27.473 57.536 27.473 57.536 12.314 54.14 12.314 48.435 22.637z" transform="translate(-580 -278) translate(547 256) translate(33 22.275) matrix(1 0 0 -1 0 39.787)"/>
                    <path fill="#000" fill-rule="nonzero" d="M70.14 27.473L60.348 27.473 60.348 12.317 70.14 12.317 70.14 15.23 63.819 15.23 63.819 18.918 69.664 18.919 69.664 21.955 63.838 21.955 63.838 24.496 70.14 24.496z" transform="translate(-580 -278) translate(547 256) translate(33 22.275) matrix(1 0 0 -1 0 39.79)"/>
                    <path fill="#000" fill-rule="nonzero" d="M72.168 27.473H84.02v-2.977h-4.182V12.317h-3.463l.001 12.175-4.208.004v2.977z" transform="translate(-580 -278) translate(547 256) translate(33 22.275) matrix(1 0 0 -1 0 39.79)"/>
                    <path fill="#000" fill-rule="nonzero" d="M76.376 15.294l-4.208.004" transform="translate(-580 -278) translate(547 256) translate(33 22.275) matrix(1 0 0 -1 0 30.593)"/>
                    <path fill="#000" fill-rule="nonzero" d="M86.18 15.765c.837-.502 2.186-1.79 4.474-2.033 2.74-.29 3.892 1.206 4.026 2.486.197 1.895-1.434 2.302-3.85 2.784-2.672.533-4.389 1.039-4.638 4.293-.188 2.442 1.851 4.634 5.817 4.467 1.518-.064 3.123-.52 3.93-1.054l-.011-2.37c-.59.377-2.042 1.539-4.66 1.674-2.039.106-3.153-1.233-3.162-2.363-.021-2.576 2.079-2.287 4.119-2.818 2.829-.738 4.369-1.461 4.306-4.36-.058-2.7-2.394-4.456-5.898-4.456-1.643 0-3.399.573-4.453 1.201v2.549z" transform="translate(-580 -278) translate(547 256) translate(33 22.275) matrix(1 0 0 -1 0 39.786)"/>
                    <path fill="#000" fill-rule="nonzero" d="M101.925 27.77v-9.023c0-3.384 1.417-4.828 3.32-4.828 2.094 0 3.468 1.489 3.468 4.828v9.024h1.86v-8.889c0-4.67-2.304-6.565-5.391-6.565-2.919 0-5.118 1.76-5.118 6.498v8.956h1.86z" transform="translate(-580 -278) translate(547 256) translate(33 22.275) matrix(1 0 0 -1 0 40.088)"/>
                    <path fill="#000" fill-rule="nonzero" d="M117.744 12.317L115.97 12.317 115.97 27.473 117.744 27.473z" transform="translate(-580 -278) translate(547 256) translate(33 22.275) matrix(1 0 0 -1 0 39.79)"/>
                    <path fill="#000" fill-rule="nonzero" d="M120.841 27.473L132.264 27.473 132.264 25.692 127.431 25.692 127.431 12.317 125.651 12.317 125.651 25.692 120.841 25.692z" transform="translate(-580 -278) translate(547 256) translate(33 22.275) matrix(1 0 0 -1 0 39.79)"/>
                    <path fill="#000" fill-rule="nonzero" d="M143.816 27.473L135.035 27.473 135.035 12.317 143.816 12.317 143.816 14.065 136.739 14.065 136.739 19.71 143.816 19.71 143.816 21.487 136.739 21.487 136.739 25.692 143.816 25.692z" transform="translate(-580 -278) translate(547 256) translate(33 22.275) matrix(1 0 0 -1 0 39.79)"/>
                    <path fill="#00467F" d="M0 20.188L23.285 20.188 23.285 0 14.217 11.641 0 11.641z" transform="translate(-580 -278) translate(547 256) translate(33 22.275) matrix(1 0 0 -1 0 20.188)"/>
                    <path fill="#00467F" d="M14.166 36.299c3.023-3.787 5.925-7.696 8.914-11.516h14.294v-8.56H14.166V36.3z" transform="translate(-580 -278) translate(547 256) translate(33 22.275) matrix(1 0 0 -1 0 52.522)"/>
                    <path fill="#B9C7D4" d="M24.745 19.464L24.745 26.244 35.735 26.244 35.735 1.734 28.434 1.734 28.434 19.464z" transform="translate(-580 -278) translate(547 256) translate(33 22.275) matrix(1 0 0 -1 0 27.978)"/>
                    <path fill="#B9C7D4" d="M9.03 34.511V16.926h3.612v-6.925H1.729v24.51h7.3z" transform="translate(-580 -278) translate(547 256) translate(33 22.275) matrix(1 0 0 -1 0 44.512)"/>
                </g>
            </g>
        </g>
    </g>
</svg>
