<?xml version="1.0" encoding="UTF-8"?>
<svg width="110px" height="32px" viewBox="0 0 110 32" version="1.1" xmlns="http://www.w3.org/2000/svg" xmlns:xlink="http://www.w3.org/1999/xlink">
    <title>85DE4CFA-8290-409D-8123-6BAA88A13973</title>
    <g id="Page-1" stroke="none" stroke-width="1" fill="none" fill-rule="evenodd">
        <g id="GL_Choose_General_Ledger" transform="translate(-555.000000, -256.000000)" fill-rule="nonzero">
            <g id="oracle-netsuite-logo" transform="translate(555.000000, 256.000000)">
                <path d="M45.6621005,8.91324201 L52.6027397,8.91324201 L48.8767123,2.99543379 L42.0821918,13.7351598 L39.0136986,13.7351598 L47.2694064,0.803652968 C47.6347032,0.292237443 48.2191781,0 48.8767123,0 C49.5342466,0 50.1187215,0.292237443 50.4840183,0.803652968 L58.739726,13.7351598 L55.6712329,13.7351598 L54.2100457,11.3242009 L47.1232877,11.3242009 L45.6621005,8.91324201 M77.6621005,11.3242009 L77.6621005,0.146118721 L75.0319635,0.146118721 L75.0319635,12.4931507 C75.0319635,12.7853881 75.1780822,13.1506849 75.3972603,13.369863 C75.6894977,13.6621005 75.9817352,13.7351598 76.347032,13.7351598 L88.2557078,13.7351598 L89.7899543,11.3242009 L77.6621005,11.3242009 M34.4109589,9.35159817 C36.9680365,9.35159817 39.0136986,7.30593607 39.0136986,4.74885845 C39.0136986,2.19178082 36.9680365,0.146118721 34.4109589,0.146118721 L22.9406393,0.146118721 L22.9406393,13.7351598 L25.5707763,13.7351598 L25.5707763,2.55707763 L34.2648402,2.55707763 C35.5068493,2.55707763 36.456621,3.57990868 36.456621,4.74885845 C36.456621,5.99086758 35.43379,6.94063927 34.2648402,6.94063927 L26.8858447,6.94063927 L34.7031963,13.7351598 L38.5022831,13.7351598 L33.2420091,9.27853881 L34.4109589,9.27853881 M6.79452055,13.7351598 L14.6849315,13.7351598 C18.4109589,13.7351598 21.4794521,10.6666667 21.4794521,6.94063927 C21.4794521,3.21461187 18.4840183,0.146118721 14.6849315,0.146118721 L6.79452055,0.146118721 C3.06849315,0.146118721 0,3.21461187 0,7.01369863 C0,10.739726 3.06849315,13.7351598 6.79452055,13.7351598 M14.5388128,11.3242009 L7.01369863,11.3242009 C4.60273973,11.3242009 2.63013699,9.35159817 2.63013699,6.94063927 C2.63013699,4.52968037 4.60273973,2.55707763 7.01369863,2.55707763 L14.5388128,2.55707763 C16.9497717,2.55707763 18.9223744,4.52968037 18.9223744,6.94063927 C18.9954338,9.42465753 17.0228311,11.3242009 14.5388128,11.3242009 M64.2191781,13.7351598 L72.2557078,13.7351598 L73.7899543,11.3242009 L64.4383562,11.3242009 C62.0273973,11.3242009 60.0547945,9.35159817 60.0547945,6.94063927 C60.0547945,4.52968037 62.0273973,2.55707763 64.4383562,2.55707763 L72.109589,2.55707763 L73.6438356,0.146118721 L64.2922374,0.146118721 C60.56621,0.146118721 57.4977169,3.21461187 57.4977169,6.94063927 C57.4246575,10.739726 60.4931507,13.7351598 64.2191781,13.7351598 M96.2191781,11.3242009 C94.173516,11.3242009 92.4931507,10.0091324 91.9817352,8.10958904 L103.159817,8.10958904 L104.694064,5.69863014 L91.9817352,5.69863014 C92.4931507,3.79908676 94.173516,2.48401826 96.2191781,2.48401826 L103.890411,2.48401826 L105.424658,0.0730593607 L96,0.0730593607 C92.2739726,0.0730593607 89.2054795,3.14155251 89.2054795,6.86757991 C89.2054795,10.5936073 92.2739726,13.6621005 96,13.6621005 L104.03653,13.6621005 L105.570776,11.2511416 L96.2191781,11.3242009 M106.885845,1.60730594 C106.885845,0.949771689 107.39726,0.438356164 108.127854,0.438356164 C108.785388,0.438356164 109.296804,0.949771689 109.296804,1.60730594 C109.296804,2.26484018 108.785388,2.77625571 108.127854,2.77625571 C107.39726,2.77625571 106.885845,2.26484018 106.885845,1.60730594 M108.054795,3.14155251 C108.858447,3.14155251 109.589041,2.48401826 109.589041,1.60730594 C109.589041,0.730593607 108.931507,0.0730593607 108.054795,0.0730593607 C107.178082,0.0730593607 106.520548,0.730593607 106.520548,1.60730594 C106.520548,2.4109589 107.251142,3.14155251 108.054795,3.14155251 M107.908676,0.657534247 C108.127854,0.657534247 108.200913,0.657534247 108.347032,0.657534247 C108.639269,0.730593607 108.639269,1.02283105 108.639269,1.16894977 C108.639269,1.16894977 108.639269,1.24200913 108.639269,1.31506849 C108.639269,1.38812785 108.56621,1.53424658 108.420091,1.60730594 C108.420091,1.60730594 108.420091,1.60730594 108.347032,1.60730594 L108.712329,2.33789954 L108.347032,2.33789954 L107.981735,1.6803653 L107.835616,1.6803653 L107.835616,2.33789954 L107.47032,2.33789954 L107.47032,0.657534247 L107.908676,0.657534247 M108.054795,1.46118721 C108.127854,1.46118721 108.273973,1.46118721 108.347032,1.38812785 C108.347032,1.38812785 108.420091,1.31506849 108.420091,1.24200913 C108.420091,1.16894977 108.347032,1.09589041 108.273973,1.02283105 C108.200913,1.02283105 108.127854,1.02283105 107.981735,1.02283105 L107.908676,1.02283105 L107.908676,1.53424658 L108.054795,1.46118721" id="Shape" fill="#ED1C24"></path>
                <polygon id="Path" fill="#231F20" points="7.67123288 29.1506849 3.57990868 20.5296804 3.57990868 20.456621 0 20.456621 0 31.7808219 2.4109589 31.7808219 2.4109589 22.6484018 6.64840183 31.7808219 6.64840183 31.7808219 10.0091324 31.7808219 10.0091324 20.456621 7.67123288 20.456621"></polygon>
                <polygon id="Path" fill="#231F20" points="14.9771689 26.8858447 19.7260274 26.8858447 19.7260274 24.9863014 14.9771689 24.9863014 14.9771689 22.4292237 20.0913242 22.4292237 20.0913242 20.456621 12.4200913 20.456621 12.4200913 31.7808219 20.2374429 31.7808219 20.2374429 29.8082192 14.9771689 29.8082192"></polygon>
                <polygon id="Path" fill="#231F20" points="21.4063927 20.456621 21.4063927 22.4292237 24.7671233 22.4292237 24.7671233 31.7808219 27.2511416 31.7808219 27.2511416 22.4292237 30.6118721 22.4292237 30.6118721 20.456621"></polygon>
                <path d="M33.5342466,28.4931507 C33.5342466,29.2968037 33.6803653,30.6849315 36.2374429,30.6849315 C38.5753425,30.6849315 38.8675799,29.2237443 38.8675799,28.7123288 C38.8675799,27.4703196 37.8447489,27.1780822 36.3105023,26.8127854 C34.630137,26.3744292 33.826484,26.2283105 33.2420091,25.7899543 C32.3652968,25.2054795 32.0730594,24.3287671 32.0730594,23.5981735 C32.0730594,21.3333333 34.1917808,20.3105023 36.3835616,20.3105023 C37.1141553,20.3105023 38.6484018,20.456621 39.5251142,21.4063927 C40.109589,22.0639269 40.1826484,22.8675799 40.1826484,23.3059361 L38.5753425,23.3059361 C38.5022831,21.9178082 37.3333333,21.6255708 36.2374429,21.6255708 C34.7031963,21.6255708 33.7534247,22.3561644 33.7534247,23.4520548 C33.7534247,24.4748858 34.4109589,24.7671233 35.7990868,25.1324201 C38.5022831,25.7899543 38.7214612,25.8630137 39.4520548,26.3013699 C40.4748858,26.9589041 40.5479452,28.0547945 40.5479452,28.4931507 C40.5479452,30.4657534 39.0136986,32 36.0913242,32 C35.2146119,32 33.4611872,31.8538813 32.5844749,30.6849315 C31.9269406,29.8812785 31.9269406,28.9315068 31.9269406,28.4200913 L33.5342466,28.4931507 L33.5342466,28.4931507 Z" id="Path" fill="#231F20"></path>
                <path d="M44.4200913,20.5296804 L44.4200913,27.4703196 C44.4200913,28.6392694 44.7123288,29.1506849 44.9315068,29.5159817 C45.6621005,30.4657534 46.6849315,30.6118721 47.4885845,30.6118721 C50.4840183,30.6118721 50.4840183,28.2009132 50.4840183,27.3972603 L50.4840183,20.5296804 L52.0182648,20.5296804 L52.0182648,27.4703196 C52.0182648,28.0547945 52.0182648,29.369863 51.0684932,30.4657534 C49.9726027,31.8538813 48.2922374,32 47.4885845,32 C46.3926941,32 44.56621,31.7077626 43.543379,30.173516 C43.1780822,29.6621005 42.8858447,29.0045662 42.8858447,27.3242009 L42.8858447,20.5296804 L44.4200913,20.5296804 L44.4200913,20.5296804 Z" id="Path" fill="#231F20"></path>
                <polygon id="Path" fill="#231F20" points="55.2328767 20.5296804 56.7671233 20.5296804 56.7671233 31.7077626 55.2328767 31.7077626"></polygon>
                <polygon id="Path" fill="#231F20" points="62.8310502 31.7808219 62.8310502 21.8447489 59.1050228 21.8447489 59.1050228 20.5296804 68.1643836 20.5296804 68.1643836 21.8447489 64.4383562 21.8447489 64.4383562 31.7077626"></polygon>
                <polygon id="Path" fill="#231F20" points="69.9178082 20.5296804 76.9315068 20.5296804 76.9315068 21.8447489 71.4520548 21.8447489 71.4520548 25.3515982 76.6392694 25.3515982 76.6392694 26.6666667 71.4520548 26.6666667 71.4520548 30.3926941 77.0776256 30.3926941 77.0776256 31.7077626 69.9178082 31.7077626"></polygon>
            </g>
        </g>
    </g>
</svg>