<?xml version="1.0" encoding="UTF-8"?>
<svg fill="none" viewBox="0 0 64 28" xmlns="http://www.w3.org/2000/svg">
<rect width="64" height="28" fill="#fff" fill-opacity=".01"/>
<mask id="b" x="0" y="1" width="33" height="22" style="mask-type:luminance" maskUnits="userSpaceOnUse">
<path d="M0 1H32.2994V22.8711H0V1Z" clip-rule="evenodd" fill="#fff" fill-rule="evenodd"/>
</mask>
<g mask="url(#b)">
<path d="m28.234 5.0091c0.0013-0.93797-0.4285-1.5338-1.3188-1.8298-0.6602-0.21958-1.2979-0.11767-1.9052 0.1729-0.1873 0.08967-0.3586 0.2566-0.4826 0.4277-0.7534 1.0393-0.5431 2.7042 1.1387 3.0933 1.1434 0.26454 2.6148-0.35343 2.5679-1.8641zm-0.3582 7.0674c0-1.3027 5e-4 -2.6055-2e-4 -3.9083-2e-4 -0.46293-0.0119-0.47481-0.4622-0.47528-0.8056-9e-4 -1.6111-8.4e-4 -2.4166 6e-5 -0.4749 5.3e-4 -0.5127 0.03725-0.5128 0.50656-8e-4 2.0288-5e-4 4.0575-3e-4 6.0863 0 0.6265 0.0039 1.253-5e-4 1.8795-0.0017 0.2502 0.1033 0.361 0.3594 0.3547 0.4274-0.0106 0.8552-0.0028 1.2829-4e-3 0.4176-0.0011 0.8361 0.0125 1.2526-0.0099 0.4392-0.0236 0.4975-0.1005 0.4976-0.5214 4e-4 -1.3027 1e-4 -2.6055 1e-4 -3.9083zm-0.8311-11.076c0.4776 1.0715 0.9531 2.1439 1.4333 3.2143 0.8627 1.9232 1.7282 3.8452 2.5928 5.7677 0.3833 0.85243 0.7574 1.7093 1.1567 2.5542 0.1162 0.2458 0.0948 0.4068-0.0891 0.6078-0.8043 0.8795-1.5884 1.7777-2.3911 2.6587-0.1147 0.1259-0.2792 0.2322-0.4411 0.2851-1.2858 0.4197-2.574 0.8326-3.8688 1.2232-0.1668 0.0504-0.4135 0.0193-0.5583-0.0744-0.5171-0.3344-1.0162-0.6994-1.4987-1.0823-0.1193-0.0947-0.2022-0.2976-0.2118-0.4563-0.0279-0.456-0.0165-0.9149-0.0069-1.3724 0.0054-0.2523-0.0799-0.315-0.3218-0.232-0.718 0.2464-1.4503 0.4417-2.2181 0.4001-0.8817-0.0477-1.6824-0.2786-2.2438-1.0401-0.9376-1.2719-0.2742-3.1817 1.2516-3.5726 1.0119-0.25929 1.9726-0.07398 2.9019 0.35154 0.3602 0.1649 0.3873 0.1528 0.3885-0.2324 0.0019-0.56715-0.0071-1.1344 4e-3 -1.7014 0.0046-0.2375-0.0792-0.35982-0.3152-0.42293-1.7293-0.46257-3.4517-0.45075-5.1356 0.16006-1.4935 0.54173-2.6066 1.5097-2.953 3.134-0.5221 2.4474 0.798 4.5174 3.2538 5.1633 0.3267 0.0859 0.6672 0.1241 0.9871 0.228 0.1951 0.0633 0.411 0.1718 0.5346 0.3263 0.4157 0.5198 0.7966 1.0677 1.1861 1.6084 0.1937 0.2689 0.1817 0.3126-0.1266 0.4095-2.5715 0.8073-5.1446 1.6097-7.716 2.4172-1.3286 0.4172-2.6548 0.8422-3.9825 1.2626-0.2655 0.0841-0.53606 0.1534-0.79786 0.2475-0.26083 0.0938-0.40608 0.0173-0.49737-0.2437-0.20692-0.5914-0.43039-1.1769-0.64758-1.7646-0.4551-1.2315-0.91051-2.4628-1.3657-3.6943-0.01726-0.0466-0.03546-0.093-0.05081-0.1402-0.12334-0.3802-0.0631-0.4695 0.33314-0.471 0.79594-0.0031 1.592-1e-3 2.388-0.0012 0.5717-1e-4 0.57928-4e-4 0.57009-0.5873-0.0086-0.546-0.04203-1.0917-0.05206-1.6378-0.00663-0.359 0.04095-0.3804 0.38943-0.4053 0.70245-0.05 1.4166-0.0554 2.102-0.1954 1.1512-0.235 2.1446-0.7473 2.6105-1.9363 0.5534-1.4121-0.0428-2.8594-1.4271-3.4792-0.728-0.32603-1.4973-0.492-2.2853-0.51696-1.4406-0.04573-2.8825-0.04937-4.3239-0.06704-0.448-0.00543-0.46161 0.0126-0.46173 0.47528-4.2e-4 2.4378 4.1e-4 4.8756-0.00185 7.3133-1.2e-4 0.1388-0.02365 0.2776-0.0363 0.4164-0.03708 0.0082-0.07421 0.0164-0.11135 0.0246-0.06597-0.1101-0.1514-0.2129-0.19504-0.3312-0.74693-2.0249-1.4866-4.0524-2.2321-6.0778-0.81767-2.2213-1.6394-4.4412-2.4612-6.661-0.023642-0.064-0.06806-0.12036-0.10281-0.18024v-0.1194c0.56167-0.06012 1.122-0.14072 1.6852-0.17636 1.4557-0.09212 2.9126-0.16531 4.3691-0.24436 1.1097-0.06018 2.2198-0.11468 3.3294-0.17731 1.3671-0.07714 2.7339-0.16054 4.1009-0.24036 1.3669-0.07988 2.7338-0.15982 4.1009-0.23779 1.4164-0.08078 2.8326-0.17051 4.2499-0.23552 1.2496-0.05732 2.5006-0.08311 3.7506-0.13176 0.1293-0.00502 0.2561-0.07105 0.384-0.10878h1.0747z" clip-rule="evenodd" fill="#306B72" fill-rule="evenodd"/>
</g>
<path d="m27.165 26.85c-0.7084-1.0694-1.3879-2.1594-2.1318-3.2036-1.171-1.6439-2.3837-3.2582-3.5823-4.8824-0.3483-0.472-0.7024-0.94-1.0658-1.4004-0.1566-0.1983-0.1353-0.3546 0.0395-0.518 0.3341-0.312 0.6704-0.6219 0.9939-0.9446 0.165-0.1648 0.3095-0.17 0.4972-0.04 1.6352 1.1323 3.2763 2.2563 4.9098 3.3911 0.4397 0.3055 0.4454 0.3213 0.7787-0.0967 1.3762-1.7258 2.828-3.3824 4.3586-4.9754 1.871-1.947 3.8762-3.7362 6.0228-5.3688 0.6326-0.48114 1.2926-0.92711 1.9519-1.3716 0.1316-0.08871 0.3158-0.132 0.4776-0.13713 0.5306-0.01672 1.062-0.00627 1.5931-0.00627 0.0145 0.03469 0.029 0.06937 0.0435 0.104-0.1992 0.19809-0.4007 0.39409-0.5974 0.59469-0.89 0.90764-1.8142 1.785-2.6587 2.7332-1.03 1.1566-2.0252 2.3478-2.976 3.5704-1.1105 1.4281-2.2132 2.8683-3.2183 4.3708-1.7305 2.5866-3.383 5.2253-5.067 7.8429-0.0698 0.1085-0.1271 0.2251-0.1902 0.3378h-0.1791z" clip-rule="evenodd" fill="#5BB160" fill-rule="evenodd"/>
<path d="m8.5324 10.797c4.2e-4 -0.2876 0.00102-0.5752 2.4e-4 -0.86275-5.4e-4 -0.18239 0.08943-0.29487 0.27081-0.27356 0.3622 0.04257 0.7351 0.06502 1.0792 0.17344 0.46314 0.14585 0.71484 0.58187 0.68234 1.0397-0.0322 0.4545-0.3877 0.8811-0.86616 0.9785-0.28818 0.0587-0.58925 0.0575-0.88502 0.0739-0.20089 0.0113-0.28417-0.1032-0.28244-0.2962 0.0025-0.2776 6.5e-4 -0.5553 0.00107-0.833z" clip-rule="evenodd" fill="#306B72" fill-rule="evenodd"/>
<mask id="a" x="61" y="13" width="3" height="4" style="mask-type:luminance" maskUnits="userSpaceOnUse">
<path d="m61.668 13.591h2.3318v2.5272h-2.3318v-2.5272z" clip-rule="evenodd" fill="#fff" fill-rule="evenodd"/>
</mask>
<g mask="url(#a)">
<path d="m62.514 14.84h0.0015c0 0.1283-0.0064 0.257 0.0013 0.3849 0.0157 0.2571 0.1442 0.3254 0.3725 0.2043 0.3617-0.1919 0.3853-0.9022 0.0296-1.1206-0.0861-0.0529-0.2211-0.0998-0.2999-0.0674-0.062 0.0255-0.0857 0.1752-0.1012 0.2737-0.0166 0.106-0.0038 0.2165-0.0038 0.3251zm1.4862 0.5479c-0.2606 0.6031-0.7514 0.7665-1.3592 0.7233-0.2269-0.0161-0.4559-0.0049-0.6839-0.0038-0.1979 9e-4 -0.2891-0.0972-0.2887-0.293 0.0013-0.6444 0.0014-1.2889 3e-4 -1.9333-3e-4 -0.1973 0.0941-0.2906 0.2914-0.2893 0.3767 0.0027 0.7537-0.0068 1.1301 0.0044 0.5058 0.0149 0.7401 0.3613 0.91 0.7768v1.0149z" clip-rule="evenodd" fill="#306B72" fill-rule="evenodd"/>
</g>
<path d="m45.676 9.7223c0 0.33747-0.0039 0.67487 8e-4 1.0123 0.0122 0.8666-0.133 0.7711 0.7786 0.7663 0.612-0.0033 0.9959-0.3119 1.1039-0.9146 0.0624-0.3483 0.0714-0.70922 0.0727-1.0646 0.0046-1.1789-0.4643-1.6294-1.6346-1.5926-0.0099 3e-4 -0.0199 0.00101-0.0297 2.4e-4 -0.2217-0.01761-0.2964 0.09385-0.2934 0.30448 0.0072 0.49611 0.0023 0.99235 0.0017 1.4885zm-2.0986 0.00681c-1e-4 -0.98448-0.0016-1.969 6e-4 -2.9535 8e-4 -0.3695 0.0404-0.41147 0.4157-0.40609 1.1522 0.01635 2.3074-0.00508 3.4557 0.07253 0.9238 0.06245 1.6105 0.58974 1.9591 1.4482 0.5069 1.2487 0.5287 2.5258-0.0515 3.7584-0.3713 0.7888-1.0396 1.2822-1.9142 1.3365-1.1886 0.0738-2.3829 0.0566-3.5746 0.0792-0.273 0.0052-0.292-0.1759-0.2916-0.3818 0.0019-0.9844 9e-4 -1.969 8e-4 -2.9535z" clip-rule="evenodd" fill="#306B72" fill-rule="evenodd"/>
<path d="m55.48 8.3494c-0.1094 0-0.2195-0.00794-0.3282 0.00143-0.3574 0.03092-0.6307-0.00627-0.7922-0.42454-0.1548-0.4006-0.9991-0.5-1.3254-0.2123-0.2285 0.20138-0.1569 0.55947 0.1543 0.66472 0.3194 0.10806 0.6562 0.16418 0.9783 0.26549 0.4918 0.15463 0.9899 0.29934 1.4635 0.49988 1.2668 0.53654 1.3622 2.0784 0.7305 2.9884-0.5076 0.7312-1.2823 0.9534-2.0949 1.0369-0.6712 0.0691-1.3495 0.0353-2.0109-0.1589-0.8269-0.2427-1.3951-1.0037-1.5617-1.8045-0.0462-0.2227 0.0247-0.3717 0.2786-0.3855 0.4953-0.0269 0.9903-0.0633 1.4859-0.081 0.2314-0.0083 0.2783 0.1806 0.3276 0.3598 0.1065 0.3862 0.3802 0.6061 0.7576 0.6769 0.3599 0.0674 0.7159 0.0617 0.9839-0.262 0.222-0.2681 0.2233-0.5928-0.0733-0.7743-0.2732-0.1671-0.5906-0.2809-0.9032-0.3602-0.6578-0.1669-1.3025-0.347-1.8841-0.71797-1.0891-0.69462-0.8973-2.2708-0.0242-2.879 0.4845-0.33743 1.0276-0.47881 1.5972-0.51624 0.7769-0.0511 1.5492-0.04233 2.2721 0.33075 0.6055 0.31241 0.8803 0.83486 1.0036 1.468 0.0405 0.20806-0.0942 0.26847-0.2593 0.27444-0.2583 0.00938-0.5171 0.00245-0.7757 0.00245v0.00723z" clip-rule="evenodd" fill="#306B72" fill-rule="evenodd"/>
<path d="m60.607 6.2481c0.7941-0.00256 1.4885 0.05923 2.0945 0.5046 0.4296 0.3157 0.6285 0.7557 0.738 1.2532 0.0409 0.18585-0.0719 0.26203-0.2294 0.2714-0.4755 0.02824-0.9517 0.04454-1.4274 0.0683-0.2295 0.01146-0.3278-0.13553-0.4219-0.3132-0.2308-0.43588-0.6871-0.61641-1.1348-0.46567-0.2134 0.07182-0.3875 0.19057-0.3855 0.43493 0.0021 0.24704 0.1884 0.36304 0.3984 0.42304 0.6116 0.17487 1.2259 0.34048 1.8396 0.50818 1.0103 0.276 1.629 1.0158 1.6283 1.949-8e-4 0.9712-0.7005 1.8725-1.6539 2.1313-0.8312 0.2256-1.6742 0.2262-2.5119 0.0775-1.1567-0.2054-1.6936-0.9795-1.9107-1.9889-0.0354-0.1644 0.0366-0.2411 0.2003-0.2546 0.4548-0.0374 0.9099-0.0746 1.3639-0.1212 0.2765-0.0283 0.4312 0.0612 0.5255 0.3464 0.1907 0.5758 0.673 0.8324 1.2705 0.7276 0.33-0.058 0.5707-0.2677 0.6102-0.5316 0.0422-0.2819-0.094-0.5523-0.4229-0.6797-0.3967-0.1537-0.8137-0.2568-1.2246-0.372-0.5285-0.1483-1.0484-0.31001-1.4809-0.67072-0.877-0.73153-0.8087-2.1365 0.1368-2.7869 0.6286-0.43242 1.3403-0.52322 1.9979-0.51093z" clip-rule="evenodd" fill="#306B72" fill-rule="evenodd"/>
<path d="m49.772 14.661c0.0922-0.1008 0.2495-0.1938 0.2629-0.3042 0.0276-0.2268-0.1938-0.2385-0.3535-0.2621-0.1819-0.0269-0.2377 0.0937-0.2437 0.255-0.0073 0.1941 0.0889 0.2699 0.3343 0.3113zm1.2666 1.3694c-0.559 0.1909-0.8114 0.1045-1.0657-0.3224-0.1205-0.2023-0.2473-0.4009-0.3713-0.6012-0.0455 0.0149-0.0911 0.0298-0.1366 0.0448-0.0093 0.2082-0.0364 0.4176-0.0236 0.6245 0.0186 0.3019-0.1484 0.343-0.3905 0.3357-0.2377-0.0073-0.4672 0.0154-0.461-0.337 0.0108-0.6155 7e-3 -1.2312 9e-4 -1.8467-0.0024-0.2394 0.0982-0.3431 0.3388-0.3386 0.4268 0.0081 0.8539-0.0026 1.2807 0.0061 0.2735 0.0057 0.5254 0.0947 0.622 0.3738 0.101 0.2916 0.1091 0.6089-0.1378 0.8326-0.2088 0.1891-0.1728 0.3366-0.0423 0.5371 0.139 0.2135 0.2504 0.445 0.3864 0.6913z" clip-rule="evenodd" fill="#306B72" fill-rule="evenodd"/>
<path d="m59.102 14.83c0-0.2985 0.0056-0.5971-0.0018-0.8954-0.0059-0.2353 0.0857-0.3487 0.3325-0.3446 0.4874 8e-3 0.9751 0.0067 1.4626 1e-4 0.2125-0.0028 0.3093 0.077 0.3044 0.2984-0.0047 0.2107-0.0893 0.3142-0.3038 0.3116-0.2287-0.0028-0.4586-0.0101-0.6859 0.0089-0.0806 0.0068-0.1552 0.085-0.2326 0.1306 0.0744 0.0487 0.1453 0.132 0.2236 0.1396 0.217 0.0207 0.4371 0.0115 0.656 0.0111 0.2045-3e-4 0.2791 0.109 0.2793 0.302 2e-4 0.1956-0.0814 0.2993-0.2829 0.299-0.219-3e-4 -0.4401-0.0157-0.6556 0.0124-0.0874 0.0114-0.1619 0.1206-0.2423 0.1853 0.0788 0.0699 0.1521 0.1906 0.2375 0.2 0.2558 0.028 0.5165 0.0189 0.7749 0.0118 0.2226-6e-3 0.2936 0.1001 0.2943 0.3102 7e-4 0.2192-0.0922 0.3025-0.3053 0.2999-0.5074-0.0062-1.0149-0.0056-1.5223-7e-4 -0.227 0.0021-0.3299-0.1061-0.3304-0.325-8e-4 -0.3184-2e-4 -0.6368-2e-4 -0.9552h-2e-3z" clip-rule="evenodd" fill="#306B72" fill-rule="evenodd"/>
<path d="m46.027 14.846c-3e-4 -0.3083 0.0037-0.6168-0.0016-0.9251-0.0038-0.2199 0.0823-0.3334 0.3153-0.3309 0.4973 0.0055 0.9947 0.0045 1.4921 0 0.1967-0.0018 0.294 0.0736 0.2924 0.2807-0.0014 0.2002-0.0624 0.3288-0.2866 0.3273-0.2088-0.0014-0.4196-0.0149-0.6259 0.0087-0.1075 0.0123-0.2072 0.0931-0.3105 0.143 0.1077 0.0458 0.2123 0.1179 0.324 0.1315 0.1863 0.0228 0.3835-0.02 0.5638 0.0202 0.1028 0.0228 0.2248 0.1401 0.2603 0.2419 0.0548 0.1574-0.0271 0.3034-0.2125 0.3221-0.2268 0.0228-0.4593 9e-4 -0.6829 0.0373-0.0989 0.0162-0.1823 0.128-0.2727 0.1963 0.0917 0.0669 0.1781 0.1806 0.2759 0.1914 0.2557 0.0283 0.5163 0.0132 0.7749 0.0122 0.1755-7e-4 0.2504 0.086 0.2503 0.258 0 0.1729-0.0204 0.3366-0.2381 0.3397-0.5569 0.0079-1.1139 0.0057-1.6709 0.0027-0.1957-1e-3 -0.2476-0.1327-0.2473-0.302 7e-4 -0.3183 2e-4 -0.6366 0-0.955z" clip-rule="evenodd" fill="#306B72" fill-rule="evenodd"/>
<path d="m44.056 14.813c0.0108 0.1182-0.0128 0.2558 0.0407 0.3499 0.0721 0.1271 0.1881 0.2772 0.314 0.3112 0.1059 0.0286 0.2807-0.0654 0.3759-0.1565 0.2053-0.1964 0.5971-0.2309 0.7601-0.0077 0.0518 0.0709 0.0355 0.2308-0.0065 0.3244-0.1787 0.398-0.5469 0.481-0.934 0.5242-0.5688 0.0635-1.1178-0.2153-1.3014-0.6811-0.1937-0.4911-0.1768-1.2987 0.348-1.6895 0.4212-0.3135 1.175-0.355 1.5953-0.0306 0.1685 0.1301 0.4168 0.2654 0.3023 0.5432-0.0666 0.1615-0.5758 0.1563-0.7788 0.049-0.1276-0.0675-0.2931-0.1257-0.4282-0.1043-0.3275 0.0519-0.2784 0.3308-0.2874 0.5678z" clip-rule="evenodd" fill="#306B72" fill-rule="evenodd"/>
<path d="m55.338 14.82c-3e-4 -0.3076 0.0052-0.6153-0.0022-0.9228-0.0051-0.2105 0.0753-0.3111 0.2953-0.3077 0.4564 7e-3 0.9129 0.0037 1.3693 0.0021 0.1906-8e-4 0.309 0.0785 0.3038 0.2792-0.0049 0.1938-0.096 0.321-0.3079 0.3243-0.2084 0.0032-0.4181-9e-3 -0.6244 0.0132-0.0768 0.0083-0.1453 0.0945-0.2176 0.1452 0.0681 0.0609 0.1287 0.1593 0.206 0.1748 0.1532 0.0307 0.3156 0.0197 0.4742 0.0185 0.2072-0.0016 0.2798 0.1245 0.2889 0.3027 0.0106 0.2062-0.1317 0.2514-0.2952 0.2428-0.6499-0.0337-0.7457-0.0031-0.7046 0.7053 0.0166 0.2857-0.169 0.314-0.3902 0.3131-0.2176-9e-4 -0.4024-0.0193-0.3966-0.3083 0.0067-0.3273 0.0016-0.6549 0.0012-0.9824z" clip-rule="evenodd" fill="#306B72" fill-rule="evenodd"/>
<path d="m52.367 13.592c0.3083 0 0.6167 0.0036 0.925-0.0012 0.2163-0.0034 0.2691 0.1194 0.2667 0.3058-0.0024 0.1821-0.0197 0.3326-0.2544 0.3612-0.5254 0.0639-0.5246 0.0701-0.5249 0.5946-1e-4 0.3084-0.0096 0.6171 0.0018 0.925 0.0112 0.301-0.1658 0.3381-0.4037 0.3322-0.228-0.0056-0.4522 0.0141-0.4441-0.322 0.0091-0.3778-0.0125-0.7566 0.0054-1.1337 0.0141-0.2984-0.0976-0.4256-0.397-0.3964-0.2284 0.0222-0.3821-0.0397-0.3873-0.3191-0.0049-0.2571 0.0871-0.3633 0.3472-0.3509 0.2878 0.0136 0.5768 0.0031 0.8653 0.0031v0.0014z" clip-rule="evenodd" fill="#306B72" fill-rule="evenodd"/>
<path d="m54.751 14.842c2e-4 0.3282-0.0062 0.6566 0.0022 0.9846 0.0067 0.2581-0.1495 0.2969-0.3499 0.281-0.2016-0.016-0.4849 0.0837-0.4909-0.2659-0.0113-0.6562-0.0037-1.3127-0.0039-1.969-1e-4 -0.1806 0.0842-0.2794 0.271-0.2793 0.0795 1e-4 0.1595 0.0036 0.2385-0.0032 0.2401-0.0205 0.3466 0.078 0.336 0.3271-0.013 0.3077-0.0031 0.6164-3e-3 0.9247z" clip-rule="evenodd" fill="#306B72" fill-rule="evenodd"/>
<path d="m58.569 14.843c0 0.3174-0.0056 0.6349 0.0016 0.9521 7e-3 0.3097-0.1945 0.317-0.4194 0.3143-0.218-0.0026-0.4288 0.0094-0.4261-0.3066 0.0056-0.6447 0.0058-1.2894-4e-4 -1.9341-0.0025-0.2595 0.1562-0.2905 0.3532-0.2763 0.2023 0.0146 0.4763-0.0802 0.487 0.2688 0.0101 0.327 0.0022 0.6545 0.0022 0.9818h0.0019z" clip-rule="evenodd" fill="#306B72" fill-rule="evenodd"/>
</svg>
