<svg width="64" height="28" viewBox="0 0 64 28" fill="none" xmlns="http://www.w3.org/2000/svg">
<g id="pci-logo">
<rect id="logo-bg" width="64" height="28" fill="white" fill-opacity="0.01"/>
<g id="pci-icon">
<g id="Group 3">
<mask id="mask0_1074_14714" style="mask-type:luminance" maskUnits="userSpaceOnUse" x="0" y="1" width="33" height="22">
<path id="Clip 2" fill-rule="evenodd" clip-rule="evenodd" d="M0 1H32.2994V22.8711H0V1Z" fill="white"/>
</mask>
<g mask="url(#mask0_1074_14714)">
<path id="Fill 1" fill-rule="evenodd" clip-rule="evenodd" d="M28.2341 5.00907C28.2354 4.0711 27.8056 3.47528 26.9153 3.17928C26.2551 2.9597 25.6174 3.06161 25.0101 3.35218C24.8228 3.44185 24.6515 3.60878 24.5275 3.77988C23.7741 4.81922 23.9844 6.48406 25.6662 6.87319C26.8096 7.13773 28.281 6.51976 28.2341 5.00907ZM27.8759 12.0765C27.8759 10.7738 27.8764 9.47099 27.8757 8.16824C27.8755 7.70531 27.8638 7.69343 27.4135 7.69296C26.6079 7.69206 25.8024 7.69212 24.9969 7.69302C24.522 7.69355 24.4842 7.73027 24.4841 8.19958C24.4833 10.2284 24.4836 12.2571 24.4838 14.2859C24.4838 14.9124 24.4877 15.5389 24.4833 16.1654C24.4816 16.4156 24.5866 16.5264 24.8427 16.5201C25.2701 16.5095 25.6979 16.5173 26.1256 16.5161C26.5432 16.515 26.9617 16.5286 27.3782 16.5062C27.8174 16.4826 27.8757 16.4057 27.8758 15.9848C27.8762 14.6821 27.8759 13.3793 27.8759 12.0765ZM27.0448 1C27.5224 2.07146 27.9979 3.14388 28.4781 4.21427C29.3408 6.13749 30.2063 8.05952 31.0709 9.98197C31.4542 10.8344 31.8283 11.6913 32.2276 12.5362C32.3438 12.782 32.3224 12.943 32.1385 13.144C31.3342 14.0235 30.5501 14.9217 29.7474 15.8027C29.6327 15.9286 29.4682 16.0349 29.3063 16.0878C28.0205 16.5075 26.7323 16.9204 25.4375 17.311C25.2707 17.3614 25.024 17.3303 24.8792 17.2366C24.3621 16.9022 23.863 16.5372 23.3805 16.1543C23.2612 16.0596 23.1783 15.8567 23.1687 15.698C23.1408 15.242 23.1522 14.7831 23.1618 14.3256C23.1672 14.0733 23.0819 14.0106 22.84 14.0936C22.122 14.34 21.3897 14.5353 20.6219 14.4937C19.7402 14.446 18.9395 14.2151 18.3781 13.4536C17.4405 12.1817 18.1039 10.2719 19.6297 9.88096C20.6416 9.62167 21.6023 9.80698 22.5316 10.2325C22.8918 10.3974 22.9189 10.3853 22.9201 10.0001C22.922 9.43295 22.913 8.86567 22.9241 8.29875C22.9287 8.06125 22.8449 7.93893 22.6089 7.87582C20.8796 7.41325 19.1572 7.42507 17.4733 8.03588C15.9798 8.57761 14.8667 9.54561 14.5203 11.1699C13.9982 13.6173 15.3183 15.6873 17.7741 16.3332C18.1008 16.4191 18.4413 16.4573 18.7612 16.5612C18.9563 16.6245 19.1722 16.733 19.2958 16.8875C19.7115 17.4073 20.0924 17.9552 20.4819 18.4959C20.6756 18.7648 20.6636 18.8085 20.3553 18.9054C17.7838 19.7127 15.2107 20.5151 12.6393 21.3226C11.3107 21.7398 9.98448 22.1648 8.65684 22.5852C8.39134 22.6693 8.12078 22.7386 7.85898 22.8327C7.59815 22.9265 7.4529 22.85 7.36161 22.589C7.15469 21.9976 6.93122 21.4121 6.71403 20.8244C6.25893 19.5929 5.80352 18.3616 5.34836 17.1301C5.3311 17.0835 5.3129 17.0371 5.29755 16.9899C5.17421 16.6097 5.23445 16.5204 5.63069 16.5189C6.42663 16.5158 7.22269 16.5179 8.01869 16.5177C8.59039 16.5176 8.59797 16.5173 8.58878 15.9304C8.58018 15.3844 8.54675 14.8387 8.53672 14.2926C8.53009 13.9336 8.57767 13.9122 8.92615 13.8873C9.6286 13.8373 10.3427 13.8319 11.0282 13.6919C12.1794 13.4569 13.1728 12.9446 13.6387 11.7556C14.1921 10.3435 13.5959 8.89624 12.2116 8.27636C11.4836 7.95033 10.7143 7.78436 9.92633 7.7594C8.48573 7.71367 7.04382 7.71003 5.60239 7.69236C5.15439 7.68693 5.14078 7.70496 5.14066 8.16764C5.14024 10.6054 5.14107 13.0432 5.13881 15.4809C5.13869 15.6197 5.11516 15.7585 5.10251 15.8973C5.06543 15.9055 5.0283 15.9137 4.99116 15.9219C4.92519 15.8118 4.83976 15.709 4.79612 15.5907C4.04919 13.5658 3.30949 11.5383 2.564 9.5129C1.74633 7.29158 0.924597 5.0717 0.102806 2.85188C0.0791642 2.78788 0.0347463 2.73152 0 2.67164C0 2.63188 0 2.59206 0 2.55224C0.561672 2.49212 1.12203 2.41152 1.68525 2.37588C3.14096 2.28376 4.59785 2.21057 6.05439 2.13152C7.16412 2.07134 8.27415 2.01684 9.38376 1.95421C10.7509 1.87707 12.1177 1.79367 13.4847 1.71385C14.8516 1.63397 16.2185 1.55403 17.5856 1.47606C19.002 1.39528 20.4182 1.30555 21.8355 1.24054C23.0851 1.18322 24.3361 1.15743 25.5861 1.10878C25.7154 1.10376 25.8422 1.03773 25.9701 1H27.0448Z" fill="#306B72"/>
</g>
</g>
<path id="Fill 4" fill-rule="evenodd" clip-rule="evenodd" d="M27.1648 26.8505C26.4564 25.7811 25.7769 24.6911 25.033 23.6469C23.862 22.003 22.6493 20.3887 21.4507 18.7645C21.1024 18.2925 20.7483 17.8245 20.3849 17.3641C20.2283 17.1658 20.2496 17.0095 20.4244 16.8461C20.7585 16.5341 21.0948 16.2242 21.4183 15.9015C21.5833 15.7367 21.7278 15.7315 21.9155 15.8615C23.5507 16.9938 25.1918 18.1178 26.8253 19.2526C27.265 19.5581 27.2707 19.5739 27.604 19.1559C28.9802 17.4301 30.432 15.7735 31.9626 14.1805C33.8336 12.2335 35.8388 10.4443 37.9854 8.81173C38.618 8.33059 39.278 7.88462 39.9373 7.44008C40.0689 7.35137 40.2531 7.30808 40.4149 7.30295C40.9455 7.28623 41.4769 7.29668 42.008 7.29668C42.0225 7.33137 42.037 7.36605 42.0515 7.40068C41.8523 7.59877 41.6508 7.79477 41.4541 7.99537C40.5641 8.90301 39.6399 9.78032 38.7954 10.7286C37.7654 11.8852 36.7702 13.0764 35.8194 14.299C34.7089 15.7271 33.6062 17.1673 32.6011 18.6698C30.8706 21.2564 29.2181 23.8951 27.5341 26.5127C27.4643 26.6212 27.407 26.7378 27.3439 26.8505H27.1648Z" fill="#5BB160"/>
<path id="Fill 6" fill-rule="evenodd" clip-rule="evenodd" d="M8.53235 10.7966C8.53277 10.509 8.53337 10.2214 8.53259 9.93385C8.53205 9.75146 8.62202 9.63898 8.8034 9.66029C9.1656 9.70286 9.5385 9.72531 9.88256 9.83373C10.3457 9.97958 10.5974 10.4156 10.5649 10.8734C10.5327 11.3279 10.1772 11.7545 9.69874 11.8519C9.41056 11.9106 9.10949 11.9094 8.81372 11.9258C8.61283 11.9371 8.52955 11.8226 8.53128 11.6296C8.53378 11.352 8.53193 11.0743 8.53235 10.7966Z" fill="#306B72"/>
<g id="Group 14">
<mask id="mask1_1074_14714" style="mask-type:luminance" maskUnits="userSpaceOnUse" x="61" y="13" width="3" height="4">
<path id="Clip 13" fill-rule="evenodd" clip-rule="evenodd" d="M61.668 13.5908H63.9998V16.118H61.668V13.5908Z" fill="white"/>
</mask>
<g mask="url(#mask1_1074_14714)">
<path id="Fill 12" fill-rule="evenodd" clip-rule="evenodd" d="M62.5136 14.8402C62.5141 14.8402 62.5146 14.8402 62.5151 14.8402C62.5151 14.9685 62.5087 15.0972 62.5164 15.2251C62.5321 15.4822 62.6606 15.5505 62.8889 15.4294C63.2506 15.2375 63.2742 14.5272 62.9185 14.3088C62.8324 14.2559 62.6974 14.209 62.6186 14.2414C62.5566 14.2669 62.5329 14.4166 62.5174 14.5151C62.5008 14.6211 62.5136 14.7316 62.5136 14.8402ZM63.9998 15.3881C63.7392 15.9912 63.2484 16.1546 62.6406 16.1114C62.4137 16.0953 62.1847 16.1065 61.9567 16.1076C61.7588 16.1085 61.6676 16.0104 61.668 15.8146C61.6693 15.1702 61.6694 14.5257 61.6683 13.8813C61.668 13.684 61.7624 13.5907 61.9597 13.592C62.3364 13.5947 62.7134 13.5852 63.0898 13.5964C63.5956 13.6113 63.8299 13.9577 63.9998 14.3732V15.3881Z" fill="#306B72"/>
</g>
</g>
<path id="Fill 15" fill-rule="evenodd" clip-rule="evenodd" d="M45.6756 9.72233C45.6756 10.0598 45.6717 10.3972 45.6764 10.7346C45.6886 11.6012 45.5434 11.5057 46.455 11.5009C47.067 11.4976 47.4509 11.189 47.5589 10.5863C47.6213 10.238 47.6303 9.87708 47.6316 9.52168C47.6362 8.34281 47.1673 7.89224 45.997 7.92908C45.9871 7.92938 45.9771 7.93009 45.9673 7.92932C45.7456 7.91171 45.6709 8.02317 45.6739 8.2338C45.6811 8.72991 45.6762 9.22615 45.6756 9.72233ZM43.577 9.72914C43.5769 8.74466 43.5754 7.76012 43.5776 6.77565C43.5784 6.40615 43.618 6.36418 43.9933 6.36956C45.1455 6.38591 46.3007 6.36448 47.449 6.44209C48.3728 6.50454 49.0595 7.03183 49.4081 7.89033C49.915 9.13899 49.9368 10.4161 49.3566 11.6487C48.9853 12.4375 48.317 12.9309 47.4424 12.9852C46.2538 13.059 45.0595 13.0418 43.8678 13.0644C43.5948 13.0696 43.5758 12.8885 43.5762 12.6826C43.5781 11.6982 43.5771 10.7136 43.577 9.72914Z" fill="#306B72"/>
<path id="Fill 17" fill-rule="evenodd" clip-rule="evenodd" d="M55.4796 8.34938C55.3702 8.34938 55.2601 8.34144 55.1514 8.35081C54.794 8.38173 54.5207 8.34454 54.3592 7.92627C54.2044 7.52567 53.3601 7.42627 53.0338 7.71397C52.8053 7.91535 52.8769 8.27344 53.1881 8.37869C53.5075 8.48675 53.8443 8.54287 54.1664 8.64418C54.6582 8.79881 55.1563 8.94352 55.6299 9.14406C56.8967 9.6806 56.9921 11.2225 56.3604 12.1325C55.8528 12.8637 55.0781 13.0859 54.2655 13.1694C53.5943 13.2385 52.916 13.2047 52.2546 13.0105C51.4277 12.7678 50.8595 12.0068 50.6929 11.206C50.6467 10.9833 50.7176 10.8343 50.9715 10.8205C51.4668 10.7936 51.9618 10.7572 52.4574 10.7395C52.6888 10.7312 52.7357 10.9201 52.785 11.0993C52.8915 11.4855 53.1652 11.7054 53.5426 11.7762C53.9025 11.8436 54.2585 11.8379 54.5265 11.5142C54.7485 11.2461 54.7498 10.9214 54.4532 10.7399C54.18 10.5728 53.8626 10.459 53.55 10.3797C52.8922 10.2128 52.2475 10.0327 51.6659 9.66173C50.5768 8.96711 50.7686 7.39093 51.6417 6.78275C52.1262 6.44532 52.6693 6.30394 53.2389 6.26651C54.0158 6.21541 54.7881 6.22418 55.511 6.59726C56.1165 6.90967 56.3913 7.43212 56.5146 8.06526C56.5551 8.27332 56.4204 8.33373 56.2553 8.3397C55.997 8.34908 55.7382 8.34215 55.4796 8.34215C55.4796 8.3446 55.4796 8.34699 55.4796 8.34938Z" fill="#306B72"/>
<path id="Fill 19" fill-rule="evenodd" clip-rule="evenodd" d="M60.6066 6.24812C61.4007 6.24556 62.0951 6.30735 62.7011 6.75272C63.1307 7.06842 63.3296 7.50842 63.4391 8.00592C63.48 8.19177 63.3672 8.26795 63.2097 8.27732C62.7342 8.30556 62.258 8.32186 61.7823 8.34562C61.5528 8.35708 61.4545 8.21009 61.3604 8.03242C61.1296 7.59654 60.6733 7.41601 60.2256 7.56675C60.0122 7.63857 59.8381 7.75732 59.8401 8.00168C59.8422 8.24872 60.0285 8.36472 60.2385 8.42472C60.8501 8.59959 61.4644 8.7652 62.0781 8.9329C63.0884 9.2089 63.7071 9.94872 63.7064 10.8819C63.7056 11.8531 63.0059 12.7544 62.0525 13.0132C61.2213 13.2388 60.3783 13.2394 59.5406 13.0907C58.3839 12.8853 57.847 12.1112 57.6299 11.1018C57.5945 10.9374 57.6665 10.8607 57.8302 10.8472C58.285 10.8098 58.7401 10.7726 59.1941 10.726C59.4706 10.6977 59.6253 10.7872 59.7196 11.0724C59.9103 11.6482 60.3926 11.9048 60.9901 11.8C61.3201 11.742 61.5608 11.5323 61.6003 11.2684C61.6425 10.9865 61.5063 10.7161 61.1774 10.5887C60.7807 10.435 60.3637 10.3319 59.9528 10.2167C59.4243 10.0684 58.9044 9.90669 58.4719 9.54598C57.5949 8.81445 57.6632 7.40944 58.6087 6.75905C59.2373 6.32663 59.949 6.23583 60.6066 6.24812Z" fill="#306B72"/>
<path id="Fill 21" fill-rule="evenodd" clip-rule="evenodd" d="M49.7721 14.661C49.8643 14.5602 50.0216 14.4672 50.035 14.3568C50.0626 14.13 49.8412 14.1183 49.6815 14.0947C49.4996 14.0678 49.4438 14.1884 49.4378 14.3497C49.4305 14.5438 49.5267 14.6196 49.7721 14.661ZM51.0387 16.0304C50.4797 16.2213 50.2273 16.1349 49.973 15.708C49.8525 15.5057 49.7257 15.3071 49.6017 15.1068C49.5562 15.1217 49.5106 15.1366 49.4651 15.1516C49.4558 15.3598 49.4287 15.5692 49.4415 15.7761C49.4601 16.078 49.2931 16.1191 49.051 16.1118C48.8133 16.1045 48.5838 16.1272 48.59 15.7748C48.6008 15.1593 48.597 14.5436 48.5909 13.9281C48.5885 13.6887 48.6891 13.585 48.9297 13.5895C49.3565 13.5976 49.7836 13.5869 50.2104 13.5956C50.4839 13.6013 50.7358 13.6903 50.8324 13.9694C50.9334 14.261 50.9415 14.5783 50.6946 14.802C50.4858 14.9911 50.5218 15.1386 50.6523 15.3391C50.7913 15.5526 50.9027 15.7841 51.0387 16.0304Z" fill="#306B72"/>
<path id="Fill 23" fill-rule="evenodd" clip-rule="evenodd" d="M59.1017 14.8295C59.1017 14.531 59.1073 14.2324 59.0999 13.9341C59.094 13.6988 59.1856 13.5854 59.4324 13.5895C59.9198 13.5975 60.4075 13.5962 60.895 13.5896C61.1075 13.5868 61.2043 13.6666 61.1994 13.888C61.1947 14.0987 61.1101 14.2022 60.8956 14.1996C60.6669 14.1968 60.437 14.1895 60.2097 14.2085C60.1291 14.2153 60.0545 14.2935 59.9771 14.3391C60.0515 14.3878 60.1224 14.4711 60.2007 14.4787C60.4177 14.4994 60.6378 14.4902 60.8567 14.4898C61.0612 14.4895 61.1358 14.5988 61.136 14.7918C61.1362 14.9874 61.0546 15.0911 60.8531 15.0908C60.6341 15.0905 60.413 15.0751 60.1975 15.1032C60.1101 15.1146 60.0356 15.2238 59.9552 15.2885C60.034 15.3584 60.1073 15.4791 60.1927 15.4885C60.4485 15.5165 60.7092 15.5074 60.9676 15.5003C61.1902 15.4943 61.2612 15.6004 61.2619 15.8105C61.2626 16.0297 61.1697 16.113 60.9566 16.1104C60.4492 16.1042 59.9417 16.1048 59.4343 16.1097C59.2073 16.1118 59.1044 16.0036 59.1039 15.7847C59.1031 15.4663 59.1037 15.1479 59.1037 14.8295C59.103 14.8295 59.1023 14.8295 59.1017 14.8295Z" fill="#306B72"/>
<path id="Fill 25" fill-rule="evenodd" clip-rule="evenodd" d="M46.0271 14.8464C46.0268 14.5381 46.0308 14.2296 46.0255 13.9213C46.0217 13.7014 46.1078 13.5879 46.3408 13.5904C46.8381 13.5959 47.3355 13.5949 47.8329 13.5904C48.0296 13.5886 48.1269 13.664 48.1253 13.8711C48.1239 14.0713 48.0629 14.1999 47.8387 14.1984C47.6299 14.197 47.4191 14.1835 47.2128 14.2071C47.1053 14.2194 47.0056 14.3002 46.9023 14.3501C47.01 14.3959 47.1146 14.468 47.2263 14.4816C47.4126 14.5044 47.6098 14.4616 47.7901 14.5018C47.8929 14.5246 48.0149 14.6419 48.0504 14.7437C48.1052 14.9011 48.0233 15.0471 47.8379 15.0658C47.6111 15.0886 47.3786 15.0667 47.155 15.1031C47.0561 15.1193 46.9727 15.2311 46.8823 15.2994C46.974 15.3663 47.0604 15.48 47.1582 15.4908C47.4139 15.5191 47.6745 15.504 47.9331 15.503C48.1086 15.5023 48.1835 15.589 48.1834 15.761C48.1834 15.9339 48.163 16.0976 47.9453 16.1007C47.3884 16.1086 46.8314 16.1064 46.2744 16.1034C46.0787 16.1024 46.0268 15.9707 46.0271 15.8014C46.0278 15.4831 46.0273 15.1648 46.0271 14.8464Z" fill="#306B72"/>
<path id="Fill 27" fill-rule="evenodd" clip-rule="evenodd" d="M44.0561 14.8126C44.0669 14.9308 44.0433 15.0684 44.0968 15.1625C44.1689 15.2896 44.2849 15.4397 44.4108 15.4737C44.5167 15.5023 44.6915 15.4083 44.7867 15.3172C44.992 15.1208 45.3838 15.0863 45.5468 15.3095C45.5986 15.3804 45.5823 15.5403 45.5403 15.6339C45.3616 16.0319 44.9934 16.1149 44.6063 16.1581C44.0375 16.2216 43.4885 15.9428 43.3049 15.477C43.1112 14.9859 43.1281 14.1783 43.6529 13.7875C44.0741 13.474 44.8279 13.4325 45.2482 13.7569C45.4167 13.887 45.665 14.0223 45.5505 14.3001C45.4839 14.4616 44.9747 14.4564 44.7717 14.3491C44.6441 14.2816 44.4786 14.2234 44.3435 14.2448C44.016 14.2967 44.0651 14.5756 44.0561 14.8126Z" fill="#306B72"/>
<path id="Fill 29" fill-rule="evenodd" clip-rule="evenodd" d="M55.3384 14.8204C55.3381 14.5128 55.3436 14.2051 55.3362 13.8976C55.3311 13.6871 55.4115 13.5865 55.6315 13.5899C56.0879 13.5969 56.5444 13.5936 57.0008 13.592C57.1914 13.5912 57.3098 13.6705 57.3046 13.8712C57.2997 14.065 57.2086 14.1922 56.9967 14.1955C56.7883 14.1987 56.5786 14.1865 56.3723 14.2087C56.2955 14.217 56.227 14.3032 56.1547 14.3539C56.2228 14.4148 56.2834 14.5132 56.3607 14.5287C56.5139 14.5594 56.6763 14.5484 56.8349 14.5472C57.0421 14.5456 57.1147 14.6717 57.1238 14.8499C57.1344 15.0561 56.9921 15.1013 56.8286 15.0927C56.1787 15.059 56.0829 15.0896 56.124 15.798C56.1406 16.0837 55.955 16.112 55.7338 16.1111C55.5162 16.1102 55.3314 16.0918 55.3372 15.8028C55.3439 15.4755 55.3388 15.1479 55.3384 14.8204Z" fill="#306B72"/>
<path id="Fill 31" fill-rule="evenodd" clip-rule="evenodd" d="M52.367 13.5924C52.6753 13.5924 52.9837 13.596 53.292 13.5912C53.5083 13.5878 53.5611 13.7106 53.5587 13.897C53.5563 14.0791 53.539 14.2296 53.3043 14.2582C52.7789 14.3221 52.7797 14.3283 52.7794 14.8528C52.7793 15.1612 52.7698 15.4699 52.7812 15.7778C52.7924 16.0788 52.6154 16.1159 52.3775 16.11C52.1495 16.1044 51.9253 16.1241 51.9334 15.788C51.9425 15.4102 51.9209 15.0314 51.9388 14.6543C51.9529 14.3559 51.8412 14.2287 51.5418 14.2579C51.3134 14.2801 51.1597 14.2182 51.1545 13.9388C51.1496 13.6817 51.2416 13.5755 51.5017 13.5879C51.7895 13.6015 52.0785 13.591 52.367 13.591V13.5924Z" fill="#306B72"/>
<path id="Fill 33" fill-rule="evenodd" clip-rule="evenodd" d="M54.7511 14.8423C54.7513 15.1705 54.7449 15.4989 54.7533 15.8269C54.76 16.085 54.6038 16.1238 54.4034 16.1079C54.2018 16.0919 53.9185 16.1916 53.9125 15.842C53.9012 15.1858 53.9088 14.5293 53.9086 13.873C53.9085 13.6924 53.9928 13.5936 54.1796 13.5937C54.2591 13.5938 54.3391 13.5973 54.4181 13.5905C54.6582 13.57 54.7647 13.6685 54.7541 13.9176C54.7411 14.2253 54.751 14.534 54.7511 14.8423Z" fill="#306B72"/>
<path id="Fill 35" fill-rule="evenodd" clip-rule="evenodd" d="M58.5689 14.8428C58.5689 15.1602 58.5633 15.4777 58.5705 15.7949C58.5775 16.1046 58.376 16.1119 58.1511 16.1092C57.9331 16.1066 57.7223 16.1186 57.725 15.8026C57.7306 15.1579 57.7308 14.5132 57.7246 13.8685C57.7221 13.609 57.8808 13.578 58.0778 13.5922C58.2801 13.6068 58.5541 13.512 58.5648 13.861C58.5749 14.188 58.567 14.5155 58.567 14.8428C58.5676 14.8428 58.5683 14.8428 58.5689 14.8428Z" fill="#306B72"/>
</g>
</g>
</svg>
