<svg xmlns="http://www.w3.org/2000/svg" width="166" height="45" viewBox="0 0 166 45">
    <g fill="none" fill-rule="evenodd">
        <g fill-rule="nonzero">
            <g>
                <g>
                    <g transform="translate(-808 -278) translate(547 256) translate(238) translate(23 22.275)">
                        <path fill="#000" d="M164.38 24.557c0-.34-.288-.465-.581-.465h-.55v1.586h.282v-.663h.201l.366.663h.342l-.421-.694c.22-.05.36-.199.36-.428v.001zm-.85.229v-.452h.257c.147 0 .312.043.312.217 0 .191-.184.235-.342.235h-.226zm.263-1.3c-.77 0-1.392.625-1.392 1.405s.622 1.394 1.392 1.394c.77 0 1.392-.613 1.392-1.394 0-.78-.623-1.406-1.392-1.406zm0 2.594c-.647 0-1.173-.538-1.173-1.189 0-.656.526-1.189 1.173-1.189s1.172.533 1.172 1.19c0 .65-.525 1.189-1.172 1.189zm-89.567-2.357c-2.037 0-3.063-1.846-3.063-3.63 0-1.785 1.114-3.553 2.965-3.553.867 0 1.963.442 2.394 1.062l2.156-2.179c-1.044-1.116-2.707-1.781-4.55-1.781-3.75 0-6.47 2.73-6.47 6.49 0 3.821 2.69 6.49 6.544 6.49 1.833 0 3.527-.544 4.532-1.64L76.637 22.7c-.485.599-1.5 1.024-2.411 1.024zm-12.058 2.553h3.345V13.987h-3.345v12.289zm-6.082-5.551c0 1.444-.928 2.998-2.658 2.998-1.333 0-2.044-.965-2.044-2.949v-6.787h-3.347v7.627c0 2.538 1.249 5.008 4.587 5.008 1.574 0 2.893-1.257 3.557-2.185h.05v1.839h3.199V13.987h-3.345v6.738zm-14.083-5.177h-.074c-.473-.53-1.752-1.906-3.831-1.906-3.41 0-6.039 2.708-6.039 6.44 0 3.79 2.425 6.54 5.878 6.54 1.568 0 3.04-.843 3.895-1.823h.05v7.528h3.344v-18.34h-3.223v1.56zm-3.247 8.175c-2.069 0-3.244-1.832-3.244-3.64 0-1.73 1.079-3.592 3.244-3.592 1.99 0 3.223 1.89 3.223 3.64 0 1.766-1.206 3.592-3.223 3.592zM114.95 13.64c-3.807 0-6.569 2.709-6.569 6.441 0 3.862 2.824 6.573 6.569 6.573 3.744 0 6.568-2.737 6.568-6.573 0-3.732-2.762-6.44-6.568-6.44zm0 10.082c-2.182 0-3.175-1.887-3.175-3.64 0-1.73.993-3.592 3.175-3.592 2.181 0 3.174 1.861 3.174 3.591 0 1.754-.993 3.64-3.175 3.64zm41.82-5.01c-1.721-.418-2.328-.642-2.328-1.35 0-.974 1.218-1.188 1.77-1.188 1.037 0 2.21.629 2.65 1.226l1.974-1.92c-.913-1.163-2.707-1.84-4.6-1.84-2.422 0-4.964 1.235-4.964 3.995 0 2.37 1.831 3.084 3.623 3.52 1.888.446 2.561.771 2.561 1.543 0 1.137-1.272 1.323-1.71 1.323-1.094 0-2.362-.635-3.046-1.46l-2.03 2.09c1.108 1.248 3.007 1.998 4.954 1.998 3.27 0 5.21-1.581 5.21-4.19 0-2.497-2.374-3.337-4.064-3.747zm-6.324-4.726h-4.314l-4.319 5.1h-.074V7.214h-3.345v19.06h3.345v-6.06h.074l4.481 6.06h4.402l-5.207-6.715 4.957-5.573zm-49.603-.346c-1.53 0-2.657.678-3.721 1.69h-.063V7.215h-3.344v19.06h3.198V24.54h.05c.754 1.254 2.253 2.083 3.807 2.083 3.453 0 6.07-2.751 6.07-6.54 0-3.732-2.586-6.441-5.997-6.441zm-.658 10.082c-2.017 0-3.223-1.827-3.223-3.592 0-1.75 1.232-3.64 3.223-3.64 2.165 0 3.241 1.86 3.241 3.591 0 1.809-1.172 3.64-3.24 3.64zm-7.729-9.736h-4.314l-4.319 5.1h-.074V7.214h-3.345v19.06h3.345v-6.06h.074l4.481 6.06h4.402l-5.208-6.715 4.958-5.573zm37.193-.346c-3.807 0-6.57 2.709-6.57 6.441 0 3.862 2.825 6.573 6.57 6.573 3.743 0 6.568-2.737 6.568-6.573 0-3.732-2.763-6.441-6.57-6.441h.002zm0 10.082c-2.182 0-3.176-1.888-3.176-3.641 0-1.73.994-3.592 3.176-3.592 2.18 0 3.174 1.862 3.174 3.592 0 1.753-.993 3.64-3.175 3.64z"/>
                        <path fill="#464D4B" d="M124.165 41.513c.77 0 1.452-.169 2.048-.505.596-.336 1.055-.815 1.377-1.435.322-.621.483-1.341.483-2.16v-.433c0-.807-.16-1.523-.48-2.148-.32-.625-.773-1.107-1.357-1.447-.584-.34-1.253-.51-2.007-.51h-2.519v8.638h2.455zm-.006-1.199h-.967v-6.23h1.037c.766 0 1.35.248 1.752.742.403.495.604 1.21.604 2.148v.48c-.008.922-.22 1.63-.636 2.122-.416.492-1.012.738-1.79.738zm8.045 1.317c.527 0 1.003-.106 1.427-.317.424-.212.763-.51 1.016-.893l-.767-.742c-.41.534-.942.801-1.594.801-.465 0-.85-.154-1.157-.463-.307-.308-.482-.727-.525-1.257h4.143v-.582c0-1.02-.235-1.81-.706-2.367-.47-.557-1.138-.836-2.001-.836-.543 0-1.035.14-1.477.421-.44.28-.784.673-1.028 1.178-.244.504-.366 1.076-.366 1.717v.178c0 .957.28 1.723.84 2.299.561.575 1.293.863 2.195.863zm1.137-3.927h-2.713c.066-.495.22-.88.46-1.157.24-.277.556-.415.946-.415.395 0 .703.123.926.37.223.248.35.612.38 1.095v.107zm4.898 3.927c.766 0 1.385-.179 1.858-.537.472-.358.709-.825.709-1.403 0-.344-.077-.637-.232-.878-.154-.241-.39-.448-.709-.62-.318-.172-.757-.32-1.315-.445-.559-.124-.93-.248-1.113-.37-.184-.123-.276-.295-.276-.517 0-.245.099-.44.296-.587.197-.146.452-.22.765-.22.336 0 .605.092.808.276.203.184.305.415.305.692h1.424c0-.606-.234-1.098-.7-1.478-.467-.38-1.08-.57-1.837-.57-.711 0-1.297.187-1.758.558-.461.372-.692.835-.692 1.389 0 .66.356 1.164 1.067 1.512.324.159.728.29 1.213.392.484.103.83.222 1.04.356.209.134.313.33.313.587 0 .234-.097.423-.293.567-.195.144-.48.216-.855.216-.387 0-.697-.092-.932-.275-.234-.184-.361-.446-.38-.787h-1.383c0 .384.113.742.34 1.074.226.333.542.594.949.783.406.19.869.285 1.388.285zm5.233-.118v-2.095l.632-.658 1.881 2.753h1.647l-2.608-3.744 2.356-2.676h-1.711l-1.752 2-.445.563V32.4h-1.424v9.113h1.424zm6.838.118c.3 0 .613-.045.937-.136v-1.116c-.168.04-.334.06-.498.06-.246 0-.417-.055-.513-.163-.095-.11-.143-.286-.143-.531V36.16h1.119v-1.068h-1.12v-1.56h-1.423v1.56h-1.043v1.068h1.043v3.637c0 1.222.547 1.833 1.64 1.833zm4.675 0c.586 0 1.103-.136 1.55-.41.447-.272.791-.658 1.031-1.156.24-.498.36-1.064.36-1.697l-.005-.338c-.043-.921-.331-1.661-.864-2.219-.534-.557-1.228-.836-2.083-.836-.578 0-1.09.135-1.536.406-.445.271-.79.659-1.037 1.163-.246.504-.369 1.07-.369 1.7v.07c0 1.005.269 1.81.806 2.412.537.604 1.253.905 2.147.905zm0-1.15c-.48 0-.855-.188-1.125-.561-.27-.374-.404-.891-.404-1.552 0-.743.137-1.302.41-1.676.274-.374.643-.56 1.108-.56.472 0 .846.19 1.122.57.275.379.413.893.413 1.542 0 .731-.134 1.287-.402 1.667-.267.38-.641.57-1.122.57zm5.567 3.5v-3.044c.418.463.974.694 1.67.694.75 0 1.347-.295 1.793-.887.445-.591.668-1.383.668-2.376v-.089c0-1.036-.22-1.846-.66-2.43-.439-.583-1.045-.874-1.819-.874-.719 0-1.287.257-1.705.771l-.059-.653h-1.312v8.887h1.424zm1.265-3.5c-.586 0-1.007-.25-1.265-.748v-2.848c.254-.486.672-.73 1.254-.73.468 0 .829.188 1.08.564.253.376.379.884.379 1.525 0 .751-.128 1.312-.384 1.682-.256.37-.61.554-1.064.554z"/>
                        <ellipse cx="14.207" cy="14.366" fill="#2CA01C" rx="14.091" ry="14.294"/>
                        <path fill="#FFF" d="M4.029 14.365c0 3.07 2.453 5.56 5.48 5.56h.782v-2.066H9.51c-1.9 0-3.445-1.567-3.445-3.494 0-1.926 1.545-3.494 3.445-3.494h1.88v10.8c0 1.14.912 2.065 2.036 2.065V8.806H9.509c-3.027 0-5.48 2.49-5.48 5.56zm14.877-5.558h-.783v2.065h.783c1.898 0 3.444 1.568 3.444 3.494 0 1.927-1.546 3.494-3.444 3.494h-1.882V7.06c0-1.14-.912-2.064-2.036-2.064v14.929h3.918c3.026 0 5.48-2.489 5.48-5.559 0-3.07-2.454-5.559-5.48-5.559z"/>
                        <path fill="#000" d="M45.855 3.327c.514 0 .93-.423.93-.945 0-.521-.416-.944-.93-.944s-.931.423-.931.944c0 .521.417.945.93.945zm-5.556.636c-.911 0-1.644.56-1.913 1.185h-.026V4.146h-1.463v6.252h1.54V6.96c0-.833.463-1.693 1.438-1.693.99 0 1.156.925 1.156 1.667v3.465h1.54V6.49c0-1.276-.667-2.527-2.273-2.527zm-6.522 6.435h1.54V4.145h-1.54v6.253zm28.02-7.071c.514 0 .931-.423.931-.945 0-.521-.416-.944-.93-.944s-.932.423-.932.944c0 .521.417.945.931.945zm-2.498.815v1.385h1.728v4.87h1.541v-4.87h1.728V4.142h-4.997zm-2.62 6.256h1.54V4.145h-1.54v6.253zm-13.322-4.87h1.727v4.87h1.54v-4.87h1.728V4.141h-4.996v1.385zM53.56 7.583c0 .834-.462 1.694-1.438 1.694-.989 0-1.155-.925-1.155-1.668V4.146h-1.541v3.907c0 1.277.667 2.528 2.273 2.528.911 0 1.643-.56 1.913-1.186h.026v1.003H55.1V4.145h-1.54v3.44z"/>
                    </g>
                </g>
            </g>
        </g>
    </g>
</svg>
