<svg width="126" height="32" viewBox="0 0 126 32" fill="none" xmlns="http://www.w3.org/2000/svg">
    <g clip-path="url(#clip0_272_153)">
        <path d="M14.2701 28.5403C22.1496 28.5403 28.5403 22.1496 28.5403 14.2701C28.5403 6.39073 22.1496 0 14.2701 0C6.39073 0 0 6.39073 0 14.2701C0 22.1496 6.38609 28.5403 14.2701 28.5403Z" fill="#2CA01C"/>
        <path d="M9.51188 8.71879C6.44637 8.71879 3.96057 11.2046 3.96057 14.2701C3.96057 17.3356 6.44173 19.8168 9.51188 19.8168H10.3049V17.7576H9.51188C7.58724 17.7576 6.02434 16.1947 6.02434 14.2701C6.02434 12.3455 7.58724 10.7826 9.51188 10.7826H11.418V21.5652C11.418 22.7014 12.3409 23.6243 13.4771 23.6243V8.71879H9.51188ZM19.0284 19.8168C22.0939 19.8168 24.5797 17.331 24.5797 14.2701C24.5797 11.2092 22.0985 8.72343 19.0284 8.72343H18.2354V10.7826H19.0284C20.953 10.7826 22.5159 12.3455 22.5159 14.2701C22.5159 16.1947 20.953 17.7576 19.0284 17.7576H17.1223V6.97502C17.1223 5.83879 16.1994 4.91589 15.0632 4.91589V19.8168H19.0284Z" fill="white"/>
        <path d="M42.087 32.0001H39.8794V26.4116H39.8423C39.2719 27.2928 38.1496 27.8447 36.9159 27.8447C34.2307 27.8447 32.5751 25.7114 32.5751 23.1374C32.5751 20.5635 34.342 18.4998 36.8603 18.4998C38.4788 18.4998 39.4713 19.2882 39.9119 19.9885H39.9675V18.7548H42.0823V32.0001H42.087ZM37.3612 26.0035C38.9797 26.0035 39.9536 24.5519 39.9536 23.1699C39.9536 21.7879 38.9797 20.2992 37.3612 20.2992C35.6545 20.2992 34.8243 21.7508 34.8243 23.1328C34.8243 24.5102 35.6499 26.0035 37.3612 26.0035ZM51.993 27.585H49.8968V26.1658H49.8597C49.4748 27.047 48.4267 27.8401 47.1188 27.8401C44.8186 27.8401 43.8632 26.0731 43.8632 24.2737V18.7548H46.0707V23.6476C46.0707 24.6957 46.3072 25.9989 47.7264 25.9989C49.1455 25.9989 49.7855 24.7838 49.7855 23.6105V18.7548H51.993V27.5803V27.585ZM54.2099 18.5647H56.4174V27.3948H54.2099V18.5647ZM64.6678 21.2035C64.32 20.7073 63.5641 20.3363 62.8452 20.3363C61.2267 20.3363 60.4151 21.7879 60.4151 23.1699C60.4151 24.5519 61.2452 26.0035 62.9148 26.0035C63.5965 26.0035 64.3478 25.7253 64.7745 25.2151L66.1519 26.6111C65.4145 27.3995 64.1994 27.8447 62.8962 27.8447C60.2852 27.8447 58.1148 26.1148 58.1148 23.1745C58.1148 20.2343 60.2481 18.5044 62.8406 18.5044C64.1299 18.5044 65.4701 19.0192 66.1704 19.8818L64.6632 21.2035H64.6678ZM67.2649 13.6812H69.4725V22.4696H69.5281L72.8765 18.7548H75.7101L71.8841 22.7479L75.9513 27.585H73.0296L69.5328 23.0586H69.4771V27.585H67.2696V13.6859L67.2649 13.6812ZM79.1606 13.6812V19.8818H79.2162C79.6754 19.3114 80.5565 18.5044 82.1797 18.5044C84.698 18.5044 86.4649 20.5264 86.4649 23.1421C86.4649 25.7577 84.8093 27.8493 82.1241 27.8493C80.8904 27.8493 79.6939 27.2789 79.091 26.2679H79.0539V27.5943H76.9577V13.6859H79.1652L79.1606 13.6812ZM81.6788 20.3038C80.0603 20.3038 79.0864 21.7925 79.0864 23.1745C79.0864 24.5566 80.0603 26.0082 81.6788 26.0082C83.3901 26.0082 84.2156 24.5195 84.2156 23.1374C84.2156 21.7554 83.3901 20.3038 81.6788 20.3038ZM92.2157 18.4998C94.8823 18.4998 97.0157 20.3595 97.0157 23.1374C97.0157 25.9154 94.8823 27.8447 92.2157 27.8447C89.549 27.8447 87.4157 25.9154 87.4157 23.1374C87.4157 20.3595 89.549 18.4998 92.2157 18.4998ZM92.2157 26.0035C93.9641 26.0035 94.771 24.5148 94.771 23.1328C94.771 21.7508 93.9641 20.2992 92.2157 20.2992C90.4672 20.2992 89.6603 21.7508 89.6603 23.1328C89.6603 24.5148 90.4672 26.0035 92.2157 26.0035ZM102.78 18.4998C105.447 18.4998 107.58 20.3595 107.58 23.1374C107.58 25.9154 105.447 27.8447 102.78 27.8447C100.114 27.8447 97.9803 25.9154 97.9803 23.1374C97.9803 20.3595 100.114 18.4998 102.78 18.4998ZM102.78 26.0035C104.529 26.0035 105.336 24.5148 105.336 23.1328C105.336 21.7508 104.529 20.2992 102.78 20.2992C101.032 20.2992 100.225 21.7508 100.225 23.1328C100.225 24.5102 101.032 26.0035 102.78 26.0035ZM108.916 13.6812H111.123V22.4696H111.179L114.528 18.7548H117.357L113.535 22.7479L117.598 27.585H114.676L111.179 23.0586H111.123V27.585H108.916V13.6859V13.6812ZM123.622 21.1108C123.237 20.596 122.5 20.1554 121.693 20.1554C120.997 20.1554 120.274 20.4151 120.274 21.1154C120.274 21.8157 120.955 21.9827 122.184 22.2748C123.492 22.5902 125.037 23.1745 125.037 24.9044C125.037 27.0563 123.288 27.8493 121.359 27.8493C120 27.8493 118.581 27.3345 117.732 26.3977L119.184 25.0389C119.661 25.665 120.492 26.1427 121.447 26.1427C122.092 26.1427 122.866 25.883 122.866 25.0945C122.866 24.3572 122.184 24.1392 120.844 23.8238C119.536 23.5085 118.233 22.9798 118.233 21.3241C118.233 19.3531 120 18.5137 121.748 18.5137C123.014 18.5137 124.341 18.9543 125.06 19.854L123.631 21.1247L123.622 21.1108ZM56.7559 6.70614C56.7559 8.94614 58.5461 10.5786 60.8232 10.5786C63.1003 10.5786 64.8951 8.94614 64.8951 6.70614V1.56759H62.6875V6.44643C62.6875 7.65223 61.8806 8.46382 60.8186 8.46382C59.7565 8.46382 58.9449 7.65686 58.9449 6.44643V1.56759H56.742L56.7559 6.70614ZM70.7942 3.63136H73.4284V10.4024H75.6313V3.63136H78.2609V1.56759H70.7942V3.63136ZM69.3658 1.56759H67.1629V10.407H69.3658V1.56759ZM47.8562 3.63136H50.4904V10.4024H52.6933V3.63136H55.3229V1.56759H47.8609V3.63136H47.8562ZM36.2899 1.56759H34.087V10.407H36.2899V1.56759ZM46.6968 5.26382C46.6968 3.02382 44.902 1.39136 42.6249 1.39136C40.3478 1.39136 38.553 3.02382 38.553 5.26382V10.4024H40.7559V5.52353C40.7559 4.31773 41.5629 3.50614 42.6249 3.50614C43.687 3.50614 44.4939 4.3131 44.4939 5.52353V10.4024H46.6968V5.26382Z" fill="black"/>
    </g>
    <defs>
        <clipPath id="clip0_272_153">
            <rect width="125.055" height="32" fill="white"/>
        </clipPath>
    </defs>
</svg>
