<?xml version="1.0" encoding="UTF-8"?>
<svg width="164px" height="32px" viewBox="0 0 164 32" version="1.1" xmlns="http://www.w3.org/2000/svg" xmlns:xlink="http://www.w3.org/1999/xlink">
    <title>7D1B470E-4EB0-458D-9093-D524CFC33EC5</title>
    <g id="Page-1" stroke="none" stroke-width="1" fill="none" fill-rule="evenodd">
        <g id="GL_Choose_General_Ledger" transform="translate(-876.000000, -288.000000)" fill-rule="nonzero">
            <g id="qb-logo" transform="translate(876.000000, 288.000000)">
                <path d="M162.963965,24.2918143 C162.963965,23.9536752 162.679406,23.8304577 162.388323,23.8304577 L161.843125,23.8304577 L161.843125,25.4039234 L162.122092,25.4039234 L162.122092,24.7459229 L162.321843,24.7459229 L162.685308,25.4036082 L163.024543,25.4036082 L162.606402,24.7147246 C162.824481,24.6655637 162.963655,24.5180808 162.963655,24.2908689 L162.963965,24.2918143 Z M162.122092,24.5187111 L162.122092,24.0702749 L162.376207,24.0702749 C162.522215,24.0702749 162.685619,24.1131332 162.685619,24.2851965 C162.685619,24.4755376 162.503886,24.5183959 162.346384,24.5183959 L162.122713,24.5183959 L162.122092,24.5187111 Z M162.38211,23.228236 C161.618832,23.228236 161.001251,23.8490506 161.001251,24.6233356 C161.001251,25.3976207 161.618832,26.0061451 162.38211,26.0061451 C163.145387,26.0061451 163.763589,25.3979358 163.763589,24.6233356 C163.763589,23.8487355 163.145387,23.228236 162.38211,23.228236 L162.38211,23.228236 Z M162.38211,25.8028834 C161.740298,25.8028834 161.21902,25.2684156 161.21902,24.6233356 C161.21902,23.971953 161.740298,23.4434728 162.38211,23.4434728 C163.024543,23.4434728 163.54551,23.971953 163.54551,24.6233356 C163.54551,25.2684156 163.024543,25.8031986 162.38211,25.8031986 L162.38211,25.8028834 Z M73.5234854,23.4639565 C71.5033004,23.4639565 70.4846652,21.633026 70.4846652,19.8619711 C70.4846652,18.0915465 71.589973,16.3381391 73.4265612,16.3381391 C74.2870737,16.3381391 75.3743637,16.7761758 75.8015135,17.3916332 L77.9403683,15.2298117 C76.9052681,14.1230599 75.2547618,13.4625384 73.4265612,13.4625384 C69.7070974,13.4625384 67.0072008,16.1704876 67.0072008,19.9013629 C67.0072008,23.6924289 69.6769638,26.3405026 73.4998758,26.3405026 C75.3184461,26.3405026 76.9993963,25.8003624 77.9959754,24.7134641 L75.9155236,22.4485937 C75.4349414,23.0423067 74.4274893,23.4642716 73.5234854,23.4642716 L73.5234854,23.4639565 Z M61.5614309,25.9966911 L64.8801508,25.9966911 L64.8801508,13.8054045 L61.5614309,13.8054045 L61.5614309,25.9966911 L61.5614309,25.9966911 Z M55.5269711,20.4894036 C55.5269711,21.9220042 54.6065025,23.4642716 52.8907587,23.4642716 C51.5679928,23.4642716 50.8621862,22.5072086 50.8621862,20.5385645 L50.8621862,13.8054045 L47.5425342,13.8054045 L47.5425342,21.3717797 C47.5425342,23.8897029 48.781113,26.3401875 52.0926878,26.3401875 C53.654347,26.3401875 54.9625123,25.0928858 55.6217207,24.1720633 L55.6714254,24.1720633 L55.6714254,25.9966911 L58.844759,25.9966911 L58.844759,13.8054045 L55.526039,13.8054045 L55.526039,20.4894036 L55.5269711,20.4894036 Z M41.5562259,15.3533443 L41.4826007,15.3533443 C41.0135127,14.82707 39.7438685,13.4625384 37.6814348,13.4625384 C34.2977882,13.4625384 31.6904666,16.1493736 31.6904666,19.852202 C31.6904666,23.6117545 34.096484,26.3401875 37.5223798,26.3401875 C39.0778259,26.3401875 40.5388331,25.503821 41.3859873,24.5313164 L41.4350706,24.5313164 L41.4350706,32 L44.7537906,32 L44.7537906,13.8054045 L41.5562259,13.8054045 L41.5562259,15.3533443 L41.5562259,15.3533443 Z M38.3341194,23.4639565 C36.2819372,23.4639565 35.1157409,21.6468919 35.1157409,19.8525171 C35.1157409,18.1359804 36.1865661,16.2889782 38.3341194,16.2889782 C40.3092596,16.2889782 41.5316843,18.1640274 41.5316843,19.9010478 C41.5316843,21.6522492 40.335665,23.4639565 38.3344302,23.4639565 L38.3341194,23.4639565 Z M113.92563,13.4622233 C110.149317,13.4622233 107.408725,16.1493736 107.408725,19.852202 C107.408725,23.6836051 110.210205,26.3729614 113.92532,26.3729614 C117.640124,26.3729614 120.441915,23.6577641 120.441915,19.852202 C120.441915,16.1493736 117.701323,13.4622233 113.92532,13.4622233 L113.92563,13.4622233 Z M113.92563,23.4639565 C111.761302,23.4639565 110.775596,21.5920586 110.775596,19.8525171 C110.775596,18.1359804 111.761302,16.2889782 113.92563,16.2889782 C116.089648,16.2889782 117.075044,18.1356653 117.075044,19.852202 C117.075044,21.5917434 116.089648,23.4636413 113.925009,23.4636413 L113.92563,23.4639565 Z M155.415066,18.4930276 C153.707089,18.0792563 153.105351,17.8564563 153.105351,17.1552824 C153.105351,16.18782 154.313796,15.9754195 154.860548,15.9754195 C155.890367,15.9754195 157.053767,16.5993855 157.491169,17.191838 L159.448291,15.2871661 C158.543044,14.1337745 156.763616,13.4625384 154.884779,13.4625384 C152.4828,13.4625384 149.960908,14.6874655 149.960908,17.4250374 C149.960908,19.7759394 151.777304,20.4849917 153.554557,20.9167257 C155.427802,21.3594895 156.095709,21.6825021 156.095709,22.4482785 C156.095709,23.5764594 154.833521,23.760813 154.399537,23.760813 C153.3138,23.760813 152.05565,23.1305444 151.37687,22.3130859 L149.362277,24.3850941 C150.462615,25.623572 152.346423,26.3682344 154.278382,26.3682344 C157.522545,26.3682344 159.447669,24.7994957 159.447669,22.2106673 C159.447669,19.7337115 157.091356,18.9008114 155.414755,18.4933428 L155.415066,18.4930276 Z M149.141091,13.8050894 L144.861207,13.8050894 L140.576663,18.8639407 L140.502727,18.8639407 L140.502727,7.08674071 L137.184318,7.08674071 L137.184318,25.9963759 L140.502727,25.9963759 L140.502727,19.983613 L140.576663,19.983613 L145.022126,25.9963759 L149.388994,25.9963759 L144.222812,19.333806 L149.141091,13.8050894 L149.141091,13.8050894 Z M99.9303436,13.461593 C98.4124868,13.461593 97.2944419,14.1347199 96.2385279,15.1381076 L96.1763972,15.1381076 L96.1763972,7.08642559 L92.858609,7.08642559 L92.858609,25.9963759 L96.0316323,25.9963759 L96.0316323,24.2732214 L96.0813367,24.2732214 C96.8293924,25.518002 98.3161838,26.3398723 99.8579613,26.3398723 C103.283546,26.3398723 105.880616,23.6108091 105.880616,19.8518868 C105.880616,16.1490585 103.314612,13.4619081 99.9306542,13.4619081 L99.9303436,13.461593 Z M99.2779696,23.4639565 C97.2761134,23.4639565 96.0797835,21.6519341 96.0797835,19.9007327 C96.0797835,18.1637122 97.3025188,16.288663 99.2779696,16.288663 C101.425212,16.288663 102.493242,18.1353502 102.493242,19.8518868 C102.493242,21.6465768 101.329841,23.4633262 99.2779696,23.4633262 L99.2779696,23.4639565 Z M91.6097789,13.8050894 L87.3295839,13.8050894 L83.0450397,18.8639407 L82.9711041,18.8639407 L82.9711041,7.08674071 L79.6526948,7.08674071 L79.6526948,25.9963759 L82.9711041,25.9963759 L82.9711041,19.983613 L83.0450397,19.983613 L87.4905027,25.9963759 L91.8573703,25.9963759 L86.6911894,19.333806 L91.6097789,13.8050894 L91.6097789,13.8050894 Z M128.508054,13.461593 C124.73174,13.461593 121.991148,16.1490585 121.991148,19.8518868 C121.991148,23.68329 124.792629,26.3726463 128.507743,26.3726463 C132.222237,26.3726463 135.024028,23.6574489 135.024028,19.8518868 C135.024028,16.1490585 132.283436,13.4619081 128.507433,13.4619081 L128.508054,13.461593 Z M128.508054,23.4639565 C126.343726,23.4639565 125.35802,21.5914283 125.35802,19.8518868 C125.35802,18.1356653 126.343726,16.288663 128.508054,16.288663 C130.671761,16.288663 131.657467,18.1353502 131.657467,19.8518868 C131.657467,21.5914283 130.671761,23.4633262 128.507433,23.4633262 L128.508054,23.4639565 Z" id="Shape" fill="#000000"></path>
                <ellipse id="Oval" fill="#2CA01C" cx="13.9794436" cy="14.1810446" rx="13.9794436" ry="14.1810446"></ellipse>
                <path d="M3.88193614,14.1804144 C3.88193614,17.2261876 6.31591259,19.6952651 9.31838643,19.6952651 L10.0950222,19.6952651 L10.0950222,17.646892 L9.31838643,17.646892 C7.43395742,17.646892 5.90118911,16.0920192 5.90118911,14.1804144 C5.90118911,12.2691247 7.43395742,10.7139368 9.31838643,10.7139368 L11.1844868,10.7139368 L11.1844868,21.4285039 C11.1844868,22.5598361 12.0884908,23.476877 13.2037398,23.476877 L13.2037398,8.66556369 L9.31838643,8.66556369 C6.31591259,8.66556369 3.88193614,11.1349563 3.88193614,14.1804144 L3.88193614,14.1804144 Z M18.641122,8.66650909 L17.8644862,8.66650909 L17.8644862,10.7148822 L18.641122,10.7148822 C20.5249297,10.7148822 22.0583193,12.2700701 22.0583193,14.1813598 C22.0583193,16.0926495 20.5249297,17.6478374 18.641122,17.6478374 L16.7740896,17.6478374 L16.7740896,6.93327031 C16.7740896,5.80193809 15.8700856,4.88489718 14.7548367,4.88489718 L14.7548367,19.6962105 L18.641122,19.6962105 C21.6432852,19.6962105 24.0775723,17.227133 24.0775723,14.1813598 C24.0775723,11.1355865 21.6432852,8.66650909 18.641122,8.66650909 L18.641122,8.66650909 Z" id="Shape" fill="#FFFFFF"></path>
                <path d="M45.3772739,3.22918145 C45.8873682,3.22918145 46.3008489,2.80942251 46.3008489,2.2922871 C46.3008489,1.77483654 45.8876788,1.35507761 45.3772739,1.35507761 C44.8671795,1.35507761 44.453388,1.77483654 44.453388,2.2922871 C44.453388,2.8091074 44.8671795,3.22918145 45.3772739,3.22918145 L45.3772739,3.22918145 Z M39.8650238,3.86039551 C38.9610199,3.86039551 38.2347101,4.41629245 37.9675473,5.0364768 L37.941763,5.0364768 L37.941763,4.04159772 L36.4900754,4.04159772 L36.4900754,10.2447018 L38.0184947,10.2447018 L38.0184947,6.83305758 C38.0184947,6.00614512 38.4770205,5.15339164 39.444398,5.15339164 C40.4260656,5.15339164 40.5916442,6.07043252 40.5916442,6.80721657 L40.5916442,10.2447018 L42.1200635,10.2447018 L42.1200635,6.36791932 C42.1200635,5.10107935 41.4577485,3.86071062 39.8647133,3.86071062 L39.8650238,3.86039551 Z M33.3947161,10.2443866 L34.9231353,10.2443866 L34.9231353,4.04128261 L33.3947161,4.04128261 L33.3947161,10.2443866 L33.3947161,10.2443866 Z M61.192995,3.22949657 C61.7033999,3.22949657 62.1168809,2.80942251 62.1168809,2.2922871 C62.1168809,1.77483654 61.7037105,1.35507761 61.1933056,1.35507761 C60.6838324,1.35507761 60.2700409,1.77483654 60.2700409,2.2922871 C60.2700409,2.8091074 60.6832112,3.22918145 61.1936162,3.22918145 L61.192995,3.22949657 Z M58.7149056,4.03781612 L58.7149056,5.41180179 L60.4290961,5.41180179 L60.4290961,10.2440715 L61.9581365,10.2440715 L61.9581365,5.41211691 L63.6720162,5.41211691 L63.6720162,4.03813127 L58.7149056,4.03813127 L58.7149056,4.03781612 Z M56.1153503,10.2440715 L57.6437695,10.2440715 L57.6437695,4.04128261 L56.1153503,4.04128261 L56.1153503,10.2443866 L56.1153503,10.2440715 Z M42.8988739,5.41211691 L44.6127535,5.41211691 L44.6127535,10.2443866 L46.1411728,10.2443866 L46.1411728,5.41211691 L47.8550524,5.41211691 L47.8550524,4.03813127 L42.898563,4.03813127 L42.898563,5.41211691 L42.8988739,5.41211691 Z M53.0215442,7.45324193 C53.0215442,8.28015442 52.5627078,9.1329079 51.5950197,9.1329079 C50.6139733,9.1329079 50.4487052,8.21586702 50.4487052,7.47845269 L50.4487052,4.04159772 L48.9196648,4.04159772 L48.9196648,7.9183802 C48.9196648,9.1852202 49.5819798,10.4255889 51.175015,10.4255889 C52.0790189,10.4255889 52.8053287,9.87000709 53.0724915,9.2495076 L53.0982758,9.2495076 L53.0982758,10.2447018 L54.5505846,10.2447018 L54.5505846,4.04128261 L53.0221654,4.04128261 L53.0221654,7.45324193 L53.0215442,7.45324193 Z" id="Shape" fill="#000000"></path>
            </g>
        </g>
    </g>
</svg>