<svg xmlns="http://www.w3.org/2000/svg" width="166" height="42" viewBox="0 0 166 42">
    <g fill="none" fill-rule="evenodd">
        <g fill-rule="nonzero">
            <g transform="translate(-679 -227) translate(679 227)">
                <path fill="#000" d="M164.38 24.254c0-.337-.288-.46-.581-.46h-.55v1.567h.282v-.655h.201l.366.655h.342l-.421-.686c.22-.049.36-.196.36-.422v.001zm-.85.226v-.446h.257c.147 0 .312.042.312.214 0 .189-.184.232-.342.232h-.226zm.263-1.285c-.77 0-1.392.618-1.392 1.39 0 .77.622 1.376 1.392 1.376.77 0 1.392-.606 1.392-1.377s-.623-1.389-1.392-1.389zm0 2.563c-.647 0-1.173-.532-1.173-1.174 0-.648.526-1.174 1.173-1.174s1.172.526 1.172 1.174c0 .642-.525 1.175-1.172 1.175zM74.226 23.43c-2.037 0-3.063-1.823-3.063-3.586 0-1.762 1.114-3.508 2.965-3.508.867 0 1.963.436 2.394 1.049l2.156-2.152c-1.044-1.102-2.707-1.76-4.55-1.76-3.75 0-6.47 2.696-6.47 6.41 0 3.774 2.69 6.41 6.544 6.41 1.833 0 3.527-.537 4.532-1.62l-2.097-2.254c-.485.591-1.5 1.011-2.411 1.011zm-12.058 2.521h3.345V13.815h-3.345V25.95zm-6.082-5.482c0 1.426-.928 2.961-2.658 2.961-1.333 0-2.044-.953-2.044-2.912v-6.703h-3.347v7.532c0 2.507 1.249 4.946 4.587 4.946 1.574 0 2.893-1.241 3.557-2.158h.05v1.816h3.199V13.815h-3.345v6.654zm-14.083-5.113h-.074c-.473-.524-1.752-1.883-3.831-1.883-3.41 0-6.039 2.675-6.039 6.361 0 3.743 2.425 6.46 5.878 6.46 1.568 0 3.04-.833 3.895-1.801h.05v7.435h3.344V13.815h-3.223v1.54zm-3.247 8.074c-2.069 0-3.244-1.809-3.244-3.595 0-1.71 1.079-3.548 3.244-3.548 1.99 0 3.223 1.867 3.223 3.596 0 1.743-1.206 3.547-3.223 3.547zm76.194-9.957c-3.807 0-6.569 2.675-6.569 6.361 0 3.815 2.824 6.492 6.569 6.492 3.744 0 6.568-2.703 6.568-6.492 0-3.686-2.762-6.361-6.568-6.361zm0 9.957c-2.182 0-3.175-1.864-3.175-3.595 0-1.71.993-3.548 3.175-3.548 2.181 0 3.174 1.838 3.174 3.547 0 1.732-.993 3.596-3.175 3.596zm41.82-4.949c-1.721-.412-2.328-.633-2.328-1.332 0-.963 1.218-1.174 1.77-1.174 1.037 0 2.21.621 2.65 1.21l1.974-1.895c-.913-1.149-2.707-1.817-4.6-1.817-2.422 0-4.964 1.22-4.964 3.945 0 2.34 1.831 3.046 3.623 3.476 1.888.44 2.561.762 2.561 1.525 0 1.123-1.272 1.306-1.71 1.306-1.094 0-2.362-.627-3.046-1.44l-2.03 2.062c1.108 1.233 3.007 1.974 4.954 1.974 3.27 0 5.21-1.561 5.21-4.139 0-2.466-2.374-3.295-4.064-3.7zm-6.324-4.667h-4.314l-4.319 5.037h-.074V7.126h-3.345v18.825h3.345v-5.986h.074l4.481 5.986h4.402l-5.207-6.633 4.957-5.504zm-49.603-.342c-1.53 0-2.657.67-3.721 1.67h-.063V7.125h-3.344V25.95h3.198v-1.715h.05c.754 1.239 2.253 2.057 3.807 2.057 3.453 0 6.07-2.717 6.07-6.459 0-3.686-2.586-6.361-5.997-6.361zm-.658 9.958c-2.017 0-3.223-1.804-3.223-3.547 0-1.73 1.232-3.596 3.223-3.596 2.165 0 3.241 1.838 3.241 3.547 0 1.787-1.172 3.595-3.24 3.595v.001zm-7.729-9.616h-4.314l-4.319 5.037h-.074V7.126h-3.345v18.825h3.345v-5.986h.074l4.481 5.986h4.402l-5.208-6.633 4.958-5.504zm37.193-.342c-3.807 0-6.57 2.676-6.57 6.362 0 3.814 2.825 6.492 6.57 6.492 3.743 0 6.568-2.703 6.568-6.492 0-3.686-2.763-6.361-6.57-6.361h.002zm0 9.958c-2.182 0-3.176-1.864-3.176-3.596 0-1.709.994-3.547 3.176-3.547 2.18 0 3.174 1.838 3.174 3.547 0 1.732-.993 3.595-3.175 3.595v.001z"/>
                <path fill="#464D4B" d="M135.048 41.117c.7 0 1.317-.169 1.854-.507.537-.338.95-.822 1.24-1.453.289-.63.433-1.364.433-2.2v-.475c-.004-.832-.152-1.561-.445-2.188-.293-.627-.708-1.107-1.245-1.441-.537-.334-1.154-.501-1.849-.501-.695 0-1.311.169-1.849.506-.537.338-.953.826-1.248 1.462-.294.637-.442 1.371-.442 2.203v.48c.004.817.153 1.538.448 2.163.295.625.713 1.106 1.254 1.444.541.338 1.157.507 1.849.507zm0-1.219c-.649 0-1.155-.255-1.52-.767-.366-.512-.549-1.236-.549-2.174v-.492c.008-.918.193-1.628.554-2.13.362-.502.863-.753 1.503-.753.656 0 1.163.252 1.52.756.358.504.537 1.228.537 2.174v.445c0 .961-.177 1.691-.53 2.191-.354.5-.859.75-1.515.75zm6.27 1.102v-4.512c.28-.52.708-.779 1.283-.779.394 0 .678.097.852.29.174.193.26.491.26.894V41h1.425v-4.19c-.024-1.511-.696-2.267-2.016-2.267-.762 0-1.377.283-1.846.85l-.04-.733h-1.342V41h1.423zm6.785 0v-9h-1.424v9h1.424zm2.355-7.236c.258 0 .457-.072.598-.214.14-.143.21-.321.21-.536 0-.22-.07-.4-.21-.545-.141-.145-.34-.217-.598-.217-.258 0-.456.072-.595.217-.138.144-.208.326-.208.545 0 .215.07.393.208.536.139.142.337.214.595.214zm.709 7.236v-6.34h-1.424V41h1.424zm2.953 0v-4.512c.281-.52.71-.779 1.283-.779.395 0 .679.097.853.29.174.193.26.491.26.894V41h1.424v-4.19c-.023-1.511-.695-2.267-2.015-2.267-.762 0-1.377.283-1.846.85l-.04-.733h-1.343V41h1.424zm8.063.117c.527 0 1.003-.104 1.426-.313.424-.21.763-.503 1.017-.882l-.768-.733c-.41.528-.941.791-1.593.791-.465 0-.85-.152-1.158-.457-.306-.304-.481-.718-.524-1.242h4.143v-.574c0-1.008-.236-1.787-.706-2.338-.471-.55-1.138-.826-2.001-.826-.543 0-1.036.139-1.477.416-.441.277-.784.665-1.028 1.163s-.367 1.064-.367 1.696v.176c0 .945.28 1.702.841 2.27.56.569 1.292.853 2.195.853zm1.136-3.879h-2.713c.067-.488.22-.869.46-1.142.24-.274.556-.41.947-.41.394 0 .703.122.925.366.223.244.35.604.381 1.08v.106z"/>
                <ellipse cx="14.207" cy="14.189" fill="#2CA01C" rx="14.091" ry="14.118"/>
                <path fill="#FFF" d="M4.029 14.188c0 3.032 2.453 5.49 5.48 5.49h.782v-2.04H9.51c-1.9 0-3.445-1.547-3.445-3.45 0-1.903 1.545-3.451 3.445-3.451h1.88v10.667c0 1.126.912 2.039 2.036 2.039V8.698H9.509c-3.027 0-5.48 2.458-5.48 5.49zm14.877-5.49h-.783v2.04h.783c1.898 0 3.444 1.548 3.444 3.45 0 1.904-1.546 3.452-3.444 3.452h-1.882V6.973c0-1.126-.912-2.039-2.036-2.039v14.745h3.918c3.026 0 5.48-2.458 5.48-5.49s-2.454-5.49-5.48-5.49z"/>
                <path fill="#000" d="M45.855 3.286c.514 0 .93-.418.93-.933 0-.515-.416-.933-.93-.933s-.931.418-.931.933c0 .514.417.933.93.933zm-5.556.628c-.911 0-1.644.553-1.913 1.17h-.026v-.99h-1.463v6.176h1.54V6.873c0-.823.463-1.672 1.438-1.672.99 0 1.156.913 1.156 1.647v3.422h1.54V6.41c0-1.26-.667-2.496-2.273-2.496zm-6.522 6.355h1.54V4.094h-1.54v6.175zm28.02-6.983c.514 0 .931-.418.931-.933 0-.515-.416-.933-.93-.933s-.932.418-.932.933c0 .514.417.933.931.933zm-2.498.805v1.368h1.728v4.81h1.541V5.46h1.728V4.09h-4.997zm-2.62 6.178h1.54V4.094h-1.54v6.175zM43.357 5.46h1.727v4.81h1.54V5.46h1.728V4.09h-4.996v1.368zM53.56 7.49c0 .823-.462 1.672-1.438 1.672-.989 0-1.155-.913-1.155-1.647V4.094h-1.541v3.86c0 1.261.667 2.496 2.273 2.496.911 0 1.643-.553 1.913-1.17h.026v.99H55.1V4.094h-1.54v3.397z"/>
            </g>
        </g>
    </g>
</svg>
