<?xml version="1.0" encoding="UTF-8"?>
<svg width="173px" height="32px" viewBox="0 0 173 32" version="1.1" xmlns="http://www.w3.org/2000/svg" xmlns:xlink="http://www.w3.org/1999/xlink">
    <title>sage-intact-logo</title>
    <g id="Page-1" stroke="none" stroke-width="1" fill="none" fill-rule="evenodd">
        <g id="GL_Choose_General_Ledger_Sage" transform="translate(-756, -256)" fill-rule="nonzero">
            <g id="sage-intact-logo" transform="translate(756, 256)">
                <path d="M53.8196099,14.432703 C53.8196099,11.3276593 56.1770928,9.8326383 58.7070745,9.8326383 C61.2370562,9.8326383 63.5370395,11.3564097 63.5370395,14.432703 L53.8196099,14.432703 Z M58.2758276,6.5550922 C53.1008651,6.5550922 49.7371395,10.0913919 49.7371395,15.9564744 C49.7371395,23.2015763 54.912102,25.3003559 58.5920753,25.3003559 C63.2782914,25.3003559 65.952022,22.1665618 65.952022,22.1665618 L63.5657893,19.7802782 C62.3007985,20.901544 60.8345591,21.5915537 58.6495749,21.5915537 C55.7745958,21.5915537 53.8196099,19.8952798 53.8196099,17.5952475 L66.642017,17.5952475 C66.642017,17.5664971 68.8845008,6.5550922 58.2758276,6.5550922" id="Shape" fill="#00DB00"></path>
                <path d="M11.0111702,14.1164486 C9.37243207,13.9151957 4.59996666,14.0876982 4.59996666,11.9314178 C4.59996666,10.6376496 6.58370228,9.94763992 8.42368895,9.94763992 C11.3561677,9.94763992 13.3111535,11.1264065 13.8573996,11.5001618 L16.3298816,9.02762698 C15.6111369,8.42386849 12.8799067,6.5263418 8.42368895,6.5263418 C4.36996833,6.5263418 0.718744791,8.65387172 0.718744791,12.0464194 C0.718744791,17.278993 7.01494916,17.2502426 9.65992999,17.5089963 C11.2411685,17.6527483 12.7074079,17.7677499 12.7074079,19.3490222 C12.7074079,20.7865424 10.4936739,21.6203041 8.76868645,21.6203041 C5.95120687,21.6203041 4.28371895,20.7002912 2.64498083,19.2052701 L0,21.8503073 C2.44373229,24.2078405 5.51995999,25.2428551 8.56743791,25.2428551 C13.2824037,25.2428551 16.7036289,23.1728259 16.7036289,18.9752669 C16.6748791,16.2439785 14.8061427,14.6052054 11.0111702,14.1164486" id="Path" fill="#00DB00"></path>
                <path d="M28.692292,18.3715084 C28.692292,21.8503073 26.21981,21.6490545 24.006076,21.6490545 C21.7635923,21.6490545 20.3548525,21.045296 20.3548525,19.4927742 C20.3548525,18.055254 21.5048441,17.5664971 23.9198266,17.5664971 L28.692292,17.5664971 L28.692292,18.3715084 Z M24.5810718,6.5550922 C20.4986014,6.5550922 17.8248708,8.65387172 17.3361244,9.05637739 L19.8086064,11.5289122 C20.2973529,11.1264065 21.9935906,9.97639033 24.6098216,9.97639033 C27.7435489,9.97639033 28.692292,11.2126577 28.692292,12.6501779 L28.692292,14.4039526 L23.1148325,14.4039526 C21.0448475,14.4039526 16.9911269,14.9214599 16.9911269,19.4640238 C16.9911269,22.7990707 18.9173629,25.2716055 23.4885798,25.2716055 C25.7885631,25.2716055 27.5135506,24.524095 28.7210418,23.0865747 L28.7210418,24.8978502 L32.7747625,24.8978502 L32.7747625,12.9089316 C32.7172629,8.71137253 30.1585314,6.5550922 24.5810718,6.5550922" id="Shape" fill="#00DB00"></path>
                <path d="M45.252172,15.8989736 C45.252172,17.3077434 45.2234222,18.342758 45.1084231,18.8602653 C44.8496749,20.0390319 43.5271845,21.5628033 41.1409518,21.5628033 C40.5372062,21.5628033 37.4609785,21.2177984 37.115981,18.5440108 C37.0584814,17.9977532 37.0009818,17.3077434 37.0009818,15.8989736 C37.0009818,13.8289445 37.0872312,13.1676852 37.2022304,12.6214275 C37.4034789,11.586413 38.7834689,10.0338911 41.1697016,10.0338911 C44.0734306,10.0338911 45.0221737,12.017669 45.1659227,12.79393 C45.2234222,13.3401876 45.252172,14.5189542 45.252172,15.8989736 M45.252172,6.92884746 L45.252172,8.94137577 C43.872182,7.33135312 42.2334439,6.5550922 39.9622104,6.5550922 C36.1097383,6.5550922 34.1260027,8.71137253 33.4647575,11.0114049 C33.2060093,11.873917 33.11976,13.4839397 33.11976,15.8989736 C33.11976,18.1702556 33.1485098,20.2402847 33.9247541,21.8215569 C35.0172462,24.0353381 37.7197266,25.2716055 39.9334606,25.2716055 C42.0896949,25.2716055 43.9296816,24.4378437 45.2234222,22.9715731 L45.2234222,24.0928389 C45.2234222,25.4153575 44.7634256,26.2778696 43.9296816,26.9678793 C43.0671879,27.657889 42.0034456,28.0891451 40.5372062,28.0891451 C39.185966,28.0891451 37.9209752,27.370385 37.1734806,26.8528777 L34.4422504,29.5841661 C36.1959877,31.0216863 38.3234722,31.9992001 40.5947058,31.9992001 C43.0096883,32.0279505 44.9646741,31.28044 46.6609118,29.9579214 C48.2996499,28.6641532 49.3346424,26.2491192 49.3346424,23.6903332 L49.3346424,6.92884746 L45.252172,6.92884746 L45.252172,6.92884746 Z" id="Shape" fill="#00DB00"></path>
                <rect id="Rectangle" fill="#8F8A87" x="77.9981847" y="0" width="1.66748791" height="25.3003559"></rect>
                <path d="M98.9567828,25.2716055 L97.2317953,25.2716055 L97.2317953,13.3976884 C97.2317953,10.4651472 96.2830522,8.74012294 93.2930738,8.74012294 C90.7343424,8.74012294 87.9456126,10.4076464 86.7956209,11.5001618 L86.7956209,25.2716055 L85.0706334,25.2716055 L85.0706334,7.53260595 L86.5656226,7.53260595 L86.6806218,9.8326383 C88.7506068,8.36636768 91.1080897,7.1876011 93.6093216,7.1876011 C97.3467945,7.1876011 98.9567828,9.34388143 98.9567828,13.3401876 L98.9567828,25.2716055 Z" id="Path" fill="#8F8A87"></path>
                <path d="M112.124187,24.6390966 C111.290443,25.2428551 109.565456,25.6741111 108.329215,25.6741111 C105.051739,25.6741111 103.815498,24.3228421 103.815498,21.189048 L103.815498,8.99887658 L100.998018,8.99887658 L100.998018,7.50385555 L103.815498,7.50385555 L103.815498,2.47253478 L105.540485,2.18503073 L105.540485,7.53260595 L110.571699,7.53260595 L110.571699,9.02762698 L105.540485,9.02762698 L105.540485,20.8727936 C105.540485,23.0003235 106.029232,24.2653413 108.444214,24.2653413 C109.536706,24.2653413 110.859197,23.8053348 111.664191,23.316578 L112.124187,24.6390966 Z" id="Path" fill="#8F8A87"></path>
                <path d="M123.940352,16.4739817 C123.135358,16.4164809 122.301614,16.3589801 121.209122,16.3589801 C117.644147,16.3589801 114.596669,17.1064906 114.596669,20.7002912 C114.596669,22.6265683 115.344164,24.2365909 118.276643,24.2365909 C120.519127,24.2365909 122.704111,23.2015763 123.940352,21.7065553 L123.940352,16.4739817 Z M125.665339,22.7703203 C125.665339,23.747834 125.837838,24.2365909 126.757831,24.2365909 C127.074079,24.2365909 127.390327,24.1790901 127.850323,24.0353381 L127.994072,25.1566038 C127.304077,25.5016087 126.844081,25.5878599 126.096586,25.5878599 C124.572847,25.5878599 123.997851,24.4378437 124.084101,23.3453284 C122.73286,24.6965974 120.576626,25.7316119 118.075394,25.7316119 C113.532927,25.7316119 112.842932,22.5978179 112.842932,20.901544 C112.842932,15.8414728 117.414149,14.9502103 121.554119,14.9502103 C122.387863,14.9502103 123.192857,14.9789607 123.969102,15.0077111 L123.969102,13.4264389 C123.969102,9.91888952 123.106608,8.59637091 119.742882,8.59637091 C116.781654,8.59637091 115.631662,9.71763669 115.229165,11.9026674 L113.590427,11.6151634 C114.136673,8.33761728 116.321657,7.13010029 119.886631,7.13010029 C124.055351,7.13010029 125.722839,8.65387172 125.722839,13.081434 L125.722839,22.7703203 L125.665339,22.7703203 Z" id="Shape" fill="#8F8A87"></path>
                <path d="M129.000315,16.4739817 C129.000315,10.2063936 132.076543,7.1876011 137.251505,7.1876011 C140.615231,7.1876011 143.375211,9.11387819 143.54771,12.9664324 L141.707723,13.1676852 C141.391475,10.1201423 139.925236,8.68262213 137.050257,8.68262213 C134.089028,8.68262213 130.782802,10.3501456 130.782802,16.2152281 C130.782802,22.540317 133.85903,24.0640885 136.820258,24.0640885 C139.551489,24.0640885 141.420225,22.7990707 141.908971,20.0102815 L143.662709,20.3552863 C143.001464,24.1503397 139.953986,25.674271 136.849008,25.674271 C131.04155,25.7028615 129.000315,21.8503073 129.000315,16.4739817" id="Path" fill="#8F8A87"></path>
                <path d="M145.790193,16.4739817 C145.790193,10.2063936 148.866421,7.1876011 154.041384,7.1876011 C157.405109,7.1876011 160.165089,9.11387819 160.337588,12.9664324 L158.497601,13.1676852 C158.181354,10.1201423 156.715114,8.68262213 153.840135,8.68262213 C150.878906,8.68262213 147.60143,10.3501456 147.60143,16.2152281 C147.60143,22.540317 150.677658,24.0640885 153.638886,24.0640885 C156.370117,24.0640885 158.238853,22.7990707 158.7276,20.0102815 L160.481337,20.3552863 C159.820092,24.1503397 156.772614,25.674271 153.667636,25.674271 C147.802679,25.7028615 145.790193,21.8503073 145.790193,16.4739817" id="Path" fill="#8F8A87"></path>
                <path d="M172.47,24.6390966 C171.636256,25.2428551 169.911269,25.6741111 168.675028,25.6741111 C165.397551,25.6741111 164.16131,24.3228421 164.16131,21.189048 L164.16131,8.99887658 L161.343831,8.99887658 L161.343831,7.50385555 L164.16131,7.50385555 L164.16131,2.47253478 L165.886298,2.18503073 L165.886298,7.53260595 L170.917511,7.53260595 L170.917511,9.02762698 L165.857548,9.02762698 L165.857548,20.8727936 C165.857548,23.0003235 166.346294,24.2653413 168.761277,24.2653413 C169.853769,24.2653413 171.176259,23.8053348 171.981254,23.316578 L172.47,24.6390966 Z" id="Path" fill="#8F8A87"></path>
            </g>
        </g>
    </g>
</svg>