<?xml version="1.0" encoding="utf-8"?>
<!-- Generator: Adobe Illustrator 19.2.1, SVG Export Plug-In . SVG Version: 6.00 Build 0)  -->
<svg version="1.1" id="layer" xmlns="http://www.w3.org/2000/svg" xmlns:xlink="http://www.w3.org/1999/xlink" x="0px" y="0px"
	 viewBox="0 0 652 652" style="enable-background:new 0 0 652 652;" xml:space="preserve">
<style type="text/css">
	.st0{fill:#00DB00;}
	.st1{fill:#8F8A87;}
</style>
<path class="st0" d="M207.3,315.6c0-10.8,8.2-16,17-16c8.8,0,16.8,5.3,16.8,16H207.3z M222.8,288.2c-18,0-29.7,12.3-29.7,32.7
	c0,25.2,18,32.5,30.8,32.5c16.3,0,25.6-10.9,25.6-10.9l-8.3-8.3c-4.4,3.9-9.5,6.3-17.1,6.3c-10,0-16.8-5.9-16.8-13.9h44.6
	C251.9,326.5,259.7,288.2,222.8,288.2"/>
<path class="st0" d="M58.4,314.5c-5.7-0.7-22.3-0.1-22.3-7.6c0-4.5,6.9-6.9,13.3-6.9c10.2,0,17,4.1,18.9,5.4l8.6-8.6
	c-2.5-2.1-12-8.7-27.5-8.7c-14.1,0-26.8,7.4-26.8,19.2c0,18.2,21.9,18.1,31.1,19c5.5,0.5,10.6,0.9,10.6,6.4c0,5-7.7,7.9-13.7,7.9
	c-9.8,0-15.6-3.2-21.3-8.4l-9.2,9.2c8.5,8.2,19.2,11.8,29.8,11.8c16.4,0,28.3-7.2,28.3-21.8C78.1,321.9,71.6,316.2,58.4,314.5"/>
<path class="st0" d="M119.9,329.3c0,12.1-8.6,11.4-16.3,11.4c-7.8,0-12.7-2.1-12.7-7.5c0-5,4-6.7,12.4-6.7h16.6V329.3z M105.6,288.2
	c-14.2,0-23.5,7.3-25.2,8.7l8.6,8.6c1.7-1.4,7.6-5.4,16.7-5.4c10.9,0,14.2,4.3,14.2,9.3v6.1l-19.4,0c-7.2,0-21.3,1.8-21.3,17.6
	c0,11.6,6.7,20.2,22.6,20.2c8,0,14-2.6,18.2-7.6v6.3h14.1v-41.7C133.9,295.7,125,288.2,105.6,288.2"/>
<path class="st0" d="M177.5,320.7c0,4.9-0.1,8.5-0.5,10.3c-0.9,4.1-5.5,9.4-13.8,9.4c-2.1,0-12.8-1.2-14-10.5
	c-0.2-1.9-0.4-4.3-0.4-9.2c0-7.2,0.3-9.5,0.7-11.4c0.7-3.6,5.5-9,13.8-9c10.1,0,13.4,6.9,13.9,9.6
	C177.4,311.8,177.5,315.9,177.5,320.7 M177.5,289.5v7c-4.8-5.6-10.5-8.3-18.4-8.3c-13.4,0-20.3,7.5-22.6,15.5c-0.9,3-1.2,8.6-1.2,17
	c0,7.9,0.1,15.1,2.8,20.6c3.8,7.7,13.2,12,20.9,12c7.5,0,13.9-2.9,18.4-8v3.9c0,4.6-1.6,7.6-4.5,10c-3,2.4-6.7,3.9-11.8,3.9
	c-4.7,0-9.1-2.5-11.7-4.3l-9.5,9.5c6.1,5,13.5,8.4,21.4,8.4c8.4,0.1,15.2-2.5,21.1-7.1c5.7-4.5,9.3-12.9,9.3-21.8v-58.3H177.5z"/>
<rect x="291.4" y="265.4" class="st1" width="5.8" height="88"/>
<path class="st1" d="M364.3,353.3h-6V312c0-10.2-3.3-16.2-13.7-16.2c-8.9,0-18.6,5.8-22.6,9.6v47.9h-6v-61.7h5.2l0.4,8
	c7.2-5.1,15.4-9.2,24.1-9.2c13,0,18.6,7.5,18.6,21.4V353.3z"/>
<path class="st1" d="M410.1,351.1c-2.9,2.1-8.9,3.6-13.2,3.6c-11.4,0-15.7-4.7-15.7-15.6v-42.4h-9.8v-5.2h9.8V274l6-1v18.6h17.5v5.2
	h-17.5V338c0,7.4,1.7,11.8,10.1,11.8c3.8,0,8.4-1.6,11.2-3.3L410.1,351.1z"/>
<path class="st1" d="M451.2,322.7c-2.8-0.2-5.7-0.4-9.5-0.4c-12.4,0-23,2.6-23,15.1c0,6.7,2.6,12.3,12.8,12.3
	c7.8,0,15.4-3.6,19.7-8.8V322.7z M457.2,344.6c0,3.4,0.6,5.1,3.8,5.1c1.1,0,2.2-0.2,3.8-0.7l0.5,3.9c-2.4,1.2-4,1.5-6.6,1.5
	c-5.3,0-7.3-4-7-7.8c-4.7,4.7-12.2,8.3-20.9,8.3c-15.8,0-18.2-10.9-18.2-16.8c0-17.6,15.9-20.7,30.3-20.7c2.9,0,5.7,0.1,8.4,0.2
	v-5.5c0-12.2-3-16.8-14.7-16.8c-10.3,0-14.3,3.9-15.7,11.5l-5.7-1c1.9-11.4,9.5-15.6,21.9-15.6c14.5,0,20.3,5.3,20.3,20.7V344.6z"/>
<path class="st1" d="M468.8,322.7c0-21.8,10.7-32.3,28.7-32.3c11.7,0,21.3,6.7,21.9,20.1l-6.4,0.7c-1.1-10.6-6.2-15.6-16.2-15.6
	c-10.3,0-21.8,5.8-21.8,26.2c0,22,10.7,27.3,21,27.3c9.5,0,16-4.4,17.7-14.1l6.1,1.2c-2.3,13.2-12.9,18.5-23.7,18.5
	C475.9,354.8,468.8,341.4,468.8,322.7"/>
<path class="st1" d="M527.2,322.7c0-21.8,10.7-32.3,28.7-32.3c11.7,0,21.3,6.7,21.9,20.1l-6.4,0.7c-1.1-10.6-6.2-15.6-16.2-15.6
	c-10.3,0-21.7,5.8-21.7,26.2c0,22,10.7,27.3,21,27.3c9.5,0,16-4.4,17.7-14.1l6.1,1.2c-2.3,13.2-12.9,18.5-23.7,18.5
	C534.2,354.8,527.2,341.4,527.2,322.7"/>
<path class="st1" d="M620,351.1c-2.9,2.1-8.9,3.6-13.2,3.6c-11.4,0-15.7-4.7-15.7-15.6v-42.4h-9.8v-5.2h9.8V274l6-1v18.6h17.5v5.2
	H597V338c0,7.4,1.7,11.8,10.1,11.8c3.8,0,8.4-1.6,11.2-3.3L620,351.1z"/>
</svg>
