<svg width="712" height="900" viewBox="0 0 712 900" fill="none" xmlns="http://www.w3.org/2000/svg">
<g clip-path="url(#clip0_434_11758)">
<rect width="712" height="900" fill="url(#paint0_linear_434_11758)"/>
<mask id="mask0_434_11758" style="mask-type:alpha" maskUnits="userSpaceOnUse" x="0" y="0" width="712" height="900">
<rect width="712" height="900" fill="url(#paint1_linear_434_11758)"/>
</mask>
<g mask="url(#mask0_434_11758)">
<path d="M218 737C60.8 687.4 -90.1667 739.333 -146 771.5V927.5H810V838.5C596 842.5 414.5 799 218 737Z" fill="url(#paint2_linear_434_11758)"/>
<path d="M587 755C227 850.2 27.3333 806.333 -27.5 772.5V1240.5H1247.5C1177.33 1039 947 659.8 587 755Z" fill="url(#paint3_linear_434_11758)"/>
<g opacity="0.5" filter="url(#filter0_f_434_11758)">
<circle cx="752" cy="-5" r="455" fill="#F0B531" fill-opacity="0.6"/>
</g>
<g style="mix-blend-mode:multiply" opacity="0.3">
<g filter="url(#filter1_f_434_11758)">
<path fill-rule="evenodd" clip-rule="evenodd" d="M639.597 135.103C633.162 146.057 621.258 153.41 607.635 153.41C594.014 153.41 582.109 146.057 575.675 135.104C571.215 140.223 564.648 143.459 557.326 143.459C543.891 143.459 533 132.568 533 119.133C533 105.698 543.891 94.8068 557.326 94.8068C563.687 94.8068 569.477 97.2481 573.811 101.245C579.596 88.3265 592.565 79.3267 607.635 79.3267C622.706 79.3267 635.675 88.3272 641.46 101.246C645.794 97.2488 651.586 94.8068 657.947 94.8068C671.382 94.8068 682.273 105.698 682.273 119.133C682.273 132.568 671.382 143.459 657.947 143.459C650.624 143.459 644.057 140.223 639.597 135.103Z" fill="#ECFCF6"/>
<path fill-rule="evenodd" clip-rule="evenodd" d="M752.489 136.244C745.694 146.978 733.551 153.931 719.937 153.478C706.322 153.025 694.669 145.28 688.602 134.118C683.974 139.087 677.304 142.102 669.985 141.858C656.558 141.411 646.035 130.164 646.482 116.737C646.929 103.309 658.176 92.7864 671.603 93.2333C677.961 93.4448 683.667 96.0777 687.867 100.217C694.078 87.4979 707.338 78.9343 722.401 79.4355C737.463 79.9368 750.125 89.363 755.477 102.467C759.942 98.6157 765.811 96.368 772.169 96.5795C785.596 97.0264 796.119 108.274 795.672 121.701C795.225 135.128 783.978 145.651 770.55 145.204C763.232 144.961 756.776 141.509 752.489 136.244Z" fill="#ECFCF6"/>
<circle cx="659.004" cy="104.283" r="52.2825" fill="#ECFCF6"/>
</g>
<g filter="url(#filter2_f_434_11758)">
<path fill-rule="evenodd" clip-rule="evenodd" d="M639.597 135.103C633.162 146.057 621.258 153.41 607.635 153.41C594.014 153.41 582.109 146.057 575.675 135.104C571.215 140.223 564.648 143.459 557.326 143.459C543.891 143.459 533 132.568 533 119.133C533 105.698 543.891 94.8068 557.326 94.8068C563.687 94.8068 569.477 97.2481 573.811 101.245C579.596 88.3265 592.565 79.3267 607.635 79.3267C622.706 79.3267 635.675 88.3272 641.46 101.246C645.794 97.2488 651.586 94.8068 657.947 94.8068C671.382 94.8068 682.273 105.698 682.273 119.133C682.273 132.568 671.382 143.459 657.947 143.459C650.624 143.459 644.057 140.223 639.597 135.103Z" fill="#32BDCA"/>
<path fill-rule="evenodd" clip-rule="evenodd" d="M752.489 136.244C745.694 146.978 733.551 153.931 719.937 153.478C706.322 153.025 694.669 145.28 688.602 134.118C683.974 139.087 677.304 142.102 669.985 141.858C656.558 141.411 646.035 130.164 646.482 116.737C646.929 103.309 658.176 92.7864 671.603 93.2333C677.961 93.4448 683.667 96.0777 687.867 100.217C694.078 87.4979 707.338 78.9343 722.401 79.4355C737.463 79.9368 750.125 89.363 755.477 102.467C759.942 98.6157 765.811 96.368 772.169 96.5795C785.596 97.0264 796.119 108.274 795.672 121.701C795.225 135.128 783.978 145.651 770.55 145.204C763.232 144.961 756.776 141.509 752.489 136.244Z" fill="#32BDCA"/>
<circle cx="659.004" cy="104.283" r="52.2825" fill="#32BDCA"/>
</g>
<g style="mix-blend-mode:soft-light" filter="url(#filter3_f_434_11758)">
<path fill-rule="evenodd" clip-rule="evenodd" d="M629.597 125.103C623.162 136.057 611.258 143.41 597.635 143.41C584.014 143.41 572.109 136.057 565.675 125.104C561.215 130.223 554.648 133.459 547.326 133.459C533.891 133.459 523 122.568 523 109.133C523 95.6979 533.891 84.8068 547.326 84.8068C553.687 84.8068 559.477 87.2481 563.811 91.2447C569.596 78.3265 582.565 69.3267 597.635 69.3267C612.706 69.3267 625.675 78.3272 631.46 91.2464C635.794 87.2488 641.586 84.8068 647.947 84.8068C661.382 84.8068 672.273 95.6979 672.273 109.133C672.273 122.568 661.382 133.459 647.947 133.459C640.624 133.459 634.057 130.223 629.597 125.103Z" fill="#71F4D5"/>
<path fill-rule="evenodd" clip-rule="evenodd" d="M742.489 126.244C735.694 136.978 723.551 143.931 709.937 143.478C696.322 143.025 684.669 135.28 678.602 124.118C673.974 129.087 667.304 132.102 659.985 131.858C646.558 131.411 636.035 120.164 636.482 106.737C636.929 93.3093 648.176 82.7864 661.603 83.2333C667.961 83.4448 673.667 86.0777 677.867 90.2167C684.078 77.4979 697.338 68.9343 712.401 69.4355C727.463 69.9368 740.125 79.363 745.477 92.4666C749.942 88.6157 755.811 86.368 762.169 86.5795C775.596 87.0264 786.119 98.2736 785.672 111.701C785.225 125.128 773.978 135.651 760.55 135.204C753.232 134.961 746.776 131.509 742.489 126.244Z" fill="#71F4D5"/>
<circle cx="649.004" cy="94.2825" r="52.2825" fill="#71F4D5"/>
</g>
</g>
<g style="mix-blend-mode:multiply" opacity="0.2">
<g filter="url(#filter4_f_434_11758)">
<path fill-rule="evenodd" clip-rule="evenodd" d="M386.492 196.087C382.546 202.804 375.247 207.312 366.894 207.312C358.541 207.312 351.242 202.804 347.297 196.088C344.562 199.227 340.536 201.21 336.046 201.21C327.808 201.21 321.13 194.532 321.13 186.295C321.13 178.057 327.808 171.379 336.046 171.379C339.946 171.379 343.497 172.876 346.154 175.327C349.701 167.406 357.653 161.887 366.894 161.887C376.135 161.887 384.087 167.406 387.634 175.327C390.291 172.876 393.842 171.379 397.743 171.379C405.981 171.379 412.659 178.057 412.659 186.295C412.659 194.532 405.981 201.21 397.743 201.21C393.253 201.21 389.226 199.226 386.492 196.087Z" fill="#ECFCF6"/>
<path fill-rule="evenodd" clip-rule="evenodd" d="M455.714 196.787C451.547 203.369 444.102 207.632 435.753 207.354C427.406 207.077 420.26 202.328 416.54 195.484C413.703 198.53 409.612 200.379 405.125 200.23C396.892 199.956 390.439 193.059 390.713 184.826C390.987 176.593 397.884 170.141 406.117 170.415C410.015 170.544 413.514 172.159 416.089 174.697C419.898 166.898 428.029 161.647 437.264 161.954C446.5 162.262 454.264 168.042 457.545 176.076C460.283 173.715 463.882 172.337 467.781 172.466C476.014 172.74 482.466 179.637 482.192 187.87C481.918 196.103 475.022 202.555 466.788 202.281C462.301 202.132 458.342 200.015 455.714 196.787Z" fill="#ECFCF6"/>
<circle cx="398.392" cy="177.189" r="32.0577" fill="#ECFCF6"/>
</g>
<g filter="url(#filter5_f_434_11758)">
<path fill-rule="evenodd" clip-rule="evenodd" d="M386.492 196.087C382.546 202.804 375.247 207.312 366.894 207.312C358.541 207.312 351.242 202.804 347.297 196.088C344.562 199.227 340.536 201.21 336.046 201.21C327.808 201.21 321.13 194.532 321.13 186.295C321.13 178.057 327.808 171.379 336.046 171.379C339.946 171.379 343.497 172.876 346.154 175.327C349.701 167.406 357.653 161.887 366.894 161.887C376.135 161.887 384.087 167.406 387.634 175.327C390.291 172.876 393.842 171.379 397.743 171.379C405.981 171.379 412.659 178.057 412.659 186.295C412.659 194.532 405.981 201.21 397.743 201.21C393.253 201.21 389.226 199.226 386.492 196.087Z" fill="#32BDCA"/>
<path fill-rule="evenodd" clip-rule="evenodd" d="M455.714 196.787C451.547 203.369 444.102 207.632 435.753 207.354C427.406 207.077 420.26 202.328 416.54 195.484C413.703 198.53 409.612 200.379 405.125 200.23C396.892 199.956 390.439 193.059 390.713 184.826C390.987 176.593 397.884 170.141 406.117 170.415C410.015 170.544 413.514 172.159 416.089 174.697C419.898 166.898 428.029 161.647 437.264 161.954C446.5 162.262 454.264 168.042 457.545 176.076C460.283 173.715 463.882 172.337 467.781 172.466C476.014 172.74 482.466 179.637 482.192 187.87C481.918 196.103 475.022 202.555 466.788 202.281C462.301 202.132 458.342 200.015 455.714 196.787Z" fill="#32BDCA"/>
<circle cx="398.392" cy="177.189" r="32.0577" fill="#32BDCA"/>
</g>
<g style="mix-blend-mode:soft-light" filter="url(#filter6_f_434_11758)">
<path fill-rule="evenodd" clip-rule="evenodd" d="M380.361 189.955C376.416 196.672 369.116 201.181 360.763 201.181C352.411 201.181 345.112 196.672 341.166 189.956C338.432 193.095 334.405 195.079 329.915 195.079C321.678 195.079 315 188.401 315 180.163C315 171.925 321.678 165.247 329.915 165.247C333.816 165.247 337.366 166.744 340.024 169.195C343.571 161.274 351.523 155.755 360.763 155.755C370.004 155.755 377.956 161.274 381.503 169.196C384.161 166.744 387.712 165.247 391.613 165.247C399.85 165.247 406.528 171.925 406.528 180.163C406.528 188.401 399.85 195.079 391.613 195.079C387.122 195.079 383.096 193.095 380.361 189.955Z" fill="#71F4D5"/>
<path fill-rule="evenodd" clip-rule="evenodd" d="M449.582 190.655C445.416 197.236 437.97 201.5 429.622 201.222C421.274 200.944 414.129 196.196 410.409 189.352C407.571 192.398 403.481 194.247 398.994 194.097C390.761 193.823 384.308 186.927 384.582 178.694C384.856 170.461 391.753 164.008 399.986 164.282C403.884 164.412 407.383 166.026 409.958 168.564C413.766 160.766 421.897 155.515 431.133 155.822C440.368 156.129 448.132 161.909 451.414 169.944C454.152 167.583 457.75 166.204 461.649 166.334C469.882 166.608 476.334 173.505 476.06 181.738C475.786 189.971 468.89 196.423 460.657 196.149C456.169 196 452.211 193.883 449.582 190.655Z" fill="#71F4D5"/>
<circle cx="392.261" cy="171.058" r="32.0577" fill="#71F4D5"/>
</g>
</g>
</g>
<path fill-rule="evenodd" clip-rule="evenodd" d="M156.886 135.092C158.796 126.551 164.624 121.929 171.101 120.656C173.653 120.154 176.307 120.173 178.86 120.679C181.412 121.184 183.865 122.176 186.018 123.618C191.531 127.312 195.071 133.955 193.27 142.943C193.259 142.997 193.234 143.048 193.196 143.089C193.164 143.125 193.123 143.152 193.079 143.168C193.021 143.253 192.95 143.33 192.864 143.397L178.976 154.351C178.557 153.782 178.08 153.255 177.551 152.782L191.337 141.909C190.022 140.931 188.647 140.239 187.2 139.903C185.542 139.519 183.78 139.601 181.889 140.258L175.873 151.565C175.269 151.215 174.623 150.926 173.939 150.704L179.711 139.853C178.479 138.658 177.125 137.854 175.63 137.516C174.061 137.161 172.323 137.317 170.389 138.071L171.494 150.227C170.778 150.176 170.072 150.203 169.381 150.301L168.214 137.457C166.94 136.356 165.598 135.613 164.177 135.294C162.639 134.948 160.994 135.098 159.23 135.826L167.422 150.779C166.753 151.015 166.111 151.319 165.507 151.687L156.928 136.025C156.914 136 156.901 135.972 156.889 135.945C156.795 135.878 156.744 135.759 156.768 135.638L156.797 135.494C156.801 135.356 156.83 135.219 156.884 135.093L156.886 135.092Z" fill="#16B09E"/>
<path d="M168.438 175.072C161.206 175.072 155.344 169.21 155.344 161.978C155.344 154.747 161.206 148.885 168.438 148.885C175.669 148.885 181.531 154.747 181.531 161.978C181.531 169.21 175.669 175.072 168.438 175.072Z" fill="url(#paint4_linear_434_11758)"/>
<path d="M168.437 173.108C162.291 173.108 157.308 168.125 157.308 161.978C157.308 155.832 162.291 150.849 168.437 150.849C174.584 150.849 179.567 155.832 179.567 161.978C179.567 168.125 174.584 173.108 168.437 173.108Z" fill="#F5BE00"/>
<path d="M171.875 164.172C171.875 160.806 166.906 161.464 166.906 159.475C166.906 158.438 168.073 158.383 168.438 158.383C169.315 158.383 170.162 158.618 170.807 158.921C171.011 159.016 171.245 158.875 171.245 158.65L171.245 157.671C171.245 157.342 171.121 157.148 170.924 157.071C170.481 156.899 169.846 156.773 168.906 156.742L168.906 155.665C168.906 155.536 168.801 155.431 168.672 155.431L168.205 155.431C168.076 155.431 167.971 155.536 167.971 155.665L167.971 156.76C166.513 156.901 165.001 157.724 165.001 159.638C165.001 163.126 169.97 162.434 169.97 164.272C169.97 164.85 169.601 165.347 168.438 165.347C167.269 165.347 166.194 164.939 165.6 164.635C165.4 164.533 165.164 164.681 165.164 164.906L165.164 166.021C165.164 166.235 165.292 166.425 165.49 166.508C166.194 166.807 167.14 167.034 167.971 167.1L167.971 168.291C167.971 168.42 168.075 168.525 168.204 168.525L168.672 168.525C168.801 168.525 168.905 168.42 168.905 168.291L168.905 167.103C171.086 166.921 171.875 165.46 171.875 164.172Z" fill="#FEE119"/>
<path fill-rule="evenodd" clip-rule="evenodd" d="M88.3223 50.6667C87.2117 45.7005 83.8235 43.0133 80.0578 42.2734C78.574 41.9814 77.0306 41.9929 75.5465 42.2866C74.0629 42.5803 72.6366 43.1573 71.3851 43.9957C68.1799 46.1434 66.1214 50.0052 67.1687 55.2311C67.175 55.2626 67.1897 55.2918 67.2115 55.3157C67.2305 55.3368 67.254 55.3526 67.2795 55.3619C67.3135 55.411 67.3549 55.4559 67.4044 55.4948L75.4789 61.8633C75.7225 61.5325 76.0001 61.2264 76.3076 60.9516L68.2925 54.6299C69.057 54.0613 69.8563 53.6586 70.6977 53.4636C71.6615 53.2402 72.6862 53.2882 73.7854 53.6699L77.2831 60.2437C77.6341 60.0405 78.0102 59.8721 78.4078 59.7432L75.0516 53.4347C75.7683 52.7399 76.5552 52.2721 77.4244 52.0759C78.3366 51.8695 79.3473 51.9603 80.4716 52.3985L79.8293 59.4658C80.2453 59.4363 80.656 59.4522 81.0573 59.5087L81.7359 52.0412C82.4768 51.4014 83.257 50.9692 84.0829 50.784C84.9774 50.5827 85.9336 50.67 86.9592 51.093L82.1968 59.787C82.5856 59.9241 82.9589 60.101 83.3097 60.3144L88.2975 51.2091C88.306 51.1941 88.3132 51.1782 88.3205 51.1624C88.3747 51.1233 88.4048 51.0541 88.3908 50.9837L88.374 50.9001C88.3717 50.8197 88.3547 50.7405 88.323 50.6671L88.3223 50.6667Z" fill="#16B09E"/>
<path d="M81.6065 73.9104C85.8107 73.9104 89.219 70.5022 89.219 66.2979C89.219 62.0936 85.8107 58.6854 81.6065 58.6854C77.4022 58.6854 73.994 62.0936 73.994 66.2979C73.994 70.5022 77.4022 73.9104 81.6065 73.9104Z" fill="url(#paint5_linear_434_11758)"/>
<path d="M81.6065 72.7685C85.1801 72.7685 88.0771 69.8715 88.0771 66.2979C88.0771 62.7243 85.1801 59.8273 81.6065 59.8273C78.0329 59.8273 75.1359 62.7243 75.1359 66.2979C75.1359 69.8715 78.0329 72.7685 81.6065 72.7685Z" fill="#F5BE00"/>
<path d="M79.6079 67.5734C79.6079 65.6166 82.4969 65.9988 82.4969 64.8428C82.4969 64.2395 81.8182 64.2076 81.6062 64.2076C81.0962 64.2076 80.604 64.3442 80.2287 64.5204C80.1104 64.576 79.9745 64.4938 79.9745 64.3632L79.9745 63.7938C79.9745 63.6028 80.0464 63.4897 80.161 63.4448C80.4183 63.3451 80.7875 63.2716 81.3341 63.2537L81.3341 62.6272C81.3341 62.5522 81.395 62.4913 81.47 62.4913L81.7417 62.4913C81.8167 62.4913 81.8776 62.5522 81.8776 62.6272L81.8776 63.264C82.7256 63.3462 83.6045 63.8247 83.6045 64.9372C83.6045 66.9656 80.7156 66.5632 80.7156 67.6317C80.7156 67.9674 80.9302 68.2566 81.6062 68.2566C82.286 68.2566 82.9106 68.0191 83.2562 67.8425C83.3727 67.7831 83.5097 67.8692 83.5097 68.0001L83.5097 68.6483C83.5097 68.7728 83.4351 68.8831 83.3202 68.9315C82.9106 69.1054 82.361 69.2371 81.878 69.2756L81.878 69.9683C81.878 70.0433 81.8171 70.1042 81.7421 70.1042L81.4703 70.1042C81.3954 70.1042 81.3345 70.0433 81.3345 69.9683L81.3345 69.2775C80.0666 69.1717 79.6079 68.3225 79.6079 67.5734Z" fill="#FEE119"/>
</g>
<defs>
<filter id="filter0_f_434_11758" x="-303" y="-1060" width="2110" height="2110" filterUnits="userSpaceOnUse" color-interpolation-filters="sRGB">
<feFlood flood-opacity="0" result="BackgroundImageFix"/>
<feBlend mode="normal" in="SourceGraphic" in2="BackgroundImageFix" result="shape"/>
<feGaussianBlur stdDeviation="300" result="effect1_foregroundBlur_434_11758"/>
</filter>
<filter id="filter1_f_434_11758" x="527" y="46" width="274.686" height="116.565" filterUnits="userSpaceOnUse" color-interpolation-filters="sRGB">
<feFlood flood-opacity="0" result="BackgroundImageFix"/>
<feBlend mode="normal" in="SourceGraphic" in2="BackgroundImageFix" result="shape"/>
<feGaussianBlur stdDeviation="3" result="effect1_foregroundBlur_434_11758"/>
</filter>
<filter id="filter2_f_434_11758" x="527" y="46" width="274.686" height="116.565" filterUnits="userSpaceOnUse" color-interpolation-filters="sRGB">
<feFlood flood-opacity="0" result="BackgroundImageFix"/>
<feBlend mode="normal" in="SourceGraphic" in2="BackgroundImageFix" result="shape"/>
<feGaussianBlur stdDeviation="3" result="effect1_foregroundBlur_434_11758"/>
</filter>
<filter id="filter3_f_434_11758" x="517" y="36" width="274.686" height="116.565" filterUnits="userSpaceOnUse" color-interpolation-filters="sRGB">
<feFlood flood-opacity="0" result="BackgroundImageFix"/>
<feBlend mode="normal" in="SourceGraphic" in2="BackgroundImageFix" result="shape"/>
<feGaussianBlur stdDeviation="3" result="effect1_foregroundBlur_434_11758"/>
</filter>
<filter id="filter4_f_434_11758" x="317.451" y="141.453" width="168.428" height="71.4734" filterUnits="userSpaceOnUse" color-interpolation-filters="sRGB">
<feFlood flood-opacity="0" result="BackgroundImageFix"/>
<feBlend mode="normal" in="SourceGraphic" in2="BackgroundImageFix" result="shape"/>
<feGaussianBlur stdDeviation="1.83949" result="effect1_foregroundBlur_434_11758"/>
</filter>
<filter id="filter5_f_434_11758" x="317.451" y="141.453" width="168.428" height="71.4734" filterUnits="userSpaceOnUse" color-interpolation-filters="sRGB">
<feFlood flood-opacity="0" result="BackgroundImageFix"/>
<feBlend mode="normal" in="SourceGraphic" in2="BackgroundImageFix" result="shape"/>
<feGaussianBlur stdDeviation="1.83949" result="effect1_foregroundBlur_434_11758"/>
</filter>
<filter id="filter6_f_434_11758" x="311.321" y="135.321" width="168.427" height="71.4734" filterUnits="userSpaceOnUse" color-interpolation-filters="sRGB">
<feFlood flood-opacity="0" result="BackgroundImageFix"/>
<feBlend mode="normal" in="SourceGraphic" in2="BackgroundImageFix" result="shape"/>
<feGaussianBlur stdDeviation="1.83949" result="effect1_foregroundBlur_434_11758"/>
</filter>
<linearGradient id="paint0_linear_434_11758" x1="625.5" y1="-107.5" x2="258.491" y2="867.286" gradientUnits="userSpaceOnUse">
<stop stop-color="#17A1A5"/>
<stop offset="1" stop-color="#084B6F"/>
</linearGradient>
<linearGradient id="paint1_linear_434_11758" x1="625.5" y1="-107.5" x2="258.491" y2="867.286" gradientUnits="userSpaceOnUse">
<stop stop-color="#17A1A5"/>
<stop offset="1" stop-color="#084B6F"/>
</linearGradient>
<linearGradient id="paint2_linear_434_11758" x1="181.5" y1="657" x2="254" y2="927" gradientUnits="userSpaceOnUse">
<stop offset="0.120829" stop-color="#136382"/>
<stop offset="1" stop-color="#0A5172" stop-opacity="0.3"/>
</linearGradient>
<linearGradient id="paint3_linear_434_11758" x1="787.5" y1="581" x2="157.5" y2="1118" gradientUnits="userSpaceOnUse">
<stop stop-color="#2B8081"/>
<stop offset="1" stop-color="#0C5776" stop-opacity="0"/>
</linearGradient>
<linearGradient id="paint4_linear_434_11758" x1="177.424" y1="152.991" x2="159.199" y2="171.218" gradientUnits="userSpaceOnUse">
<stop stop-color="#FEDE00"/>
<stop offset="1" stop-color="#FFD000"/>
</linearGradient>
<linearGradient id="paint5_linear_434_11758" x1="76.3817" y1="61.0727" x2="86.9779" y2="71.6696" gradientUnits="userSpaceOnUse">
<stop stop-color="#FEDE00"/>
<stop offset="1" stop-color="#FFD000"/>
</linearGradient>
<clipPath id="clip0_434_11758">
<rect width="712" height="900" fill="white"/>
</clipPath>
</defs>
</svg>
