<?xml version="1.0" encoding="UTF-8"?>
<svg fill="none" viewBox="0 0 27 28" xmlns="http://www.w3.org/2000/svg">
<g clip-rule="evenodd" fill-rule="evenodd">
<path d="m1.9781 7.5312c0.93646 3.6177 1.3823 5.1349 2.544 8.716 1.1147 3.4379 2.9839 6.1691 5.5569 8.118 1.5091 1.143 2.8318 1.6672 3.3418 1.8424 0.5092-0.1752 1.8319-0.6994 3.341-1.8424 2.573-1.9489 4.4422-4.6801 5.5569-8.118 1.1616-3.5811 1.6075-5.0983 2.5439-8.716-1.8222-1.1355-7.9487-4.8538-11.442-5.7612-3.4939 0.90738-9.6197 4.6257-11.443 5.7612zm11.443 20.469-0.2207-0.0582c-0.0761-0.0201-1.9035-0.5159-4.0859-2.1495-1.9915-1.4904-4.689-4.264-6.2287-9.0142-1.2384-3.8182-1.6716-5.3154-2.7304-9.4258l-0.15508-0.60244 0.52341-0.33551c0.3385-0.21772 8.3536-5.3452 12.7-6.3674l0.1976-0.046972 0.1968 0.046972c4.3461 1.0222 12.361 6.1496 12.7 6.3674l0.5234 0.33551-0.155 0.60244c-1.0588 4.1104-1.4927 5.6076-2.7304 9.4258-1.5404 4.7502-4.2379 7.5238-6.2294 9.0142-2.1816 1.6336-4.0091 2.1294-4.0859 2.1495l-0.2199 0.0582z" fill="#C8CCD7"/>
<path d="m9.5958 18.947c-0.02013 0.1715-0.08351 0.3035-0.19013 0.3967-0.10587 0.0932-0.24753 0.1401-0.42424 0.1401-0.19162 0-0.34521-0.0686-0.46078-0.2065-0.11556-0.1372-0.17297-0.3206-0.17297-0.551v-0.1558c0-0.1506 0.02684-0.2834 0.08052-0.3974 0.05443-0.1141 0.13048-0.2021 0.2289-0.2632 0.09916-0.0612 0.21324-0.0917 0.34297-0.0917 0.17223 0 0.31017 0.0477 0.41455 0.1439 0.10364 0.0962 0.16403 0.2296 0.18118 0.3996h-0.21473c-0.01864-0.1297-0.0589-0.2237-0.12079-0.2818-0.06188-0.0582-0.14912-0.0873-0.26021-0.0873-0.13644 0-0.24381 0.0507-0.32135 0.1521-0.07754 0.1007-0.11631 0.2446-0.11631 0.431v0.1573c0 0.176 0.03728 0.3161 0.11034 0.4198 0.07382 0.1036 0.17671 0.1558 0.30868 0.1558 0.11855 0 0.20951-0.0268 0.27289-0.0805 0.06337-0.0537 0.10587-0.1476 0.12675-0.2811h0.21473z" fill="#000"/>
<path d="m10.006 18.872c0 0.1335 0.0313 0.2408 0.0932 0.3221 0.0619 0.0805 0.1446 0.1208 0.2483 0.1208 0.1051 0 0.1879-0.041 0.2498-0.123 0.0618-0.082 0.0924-0.1969 0.0924-0.3445 0-0.132-0.0313-0.2393-0.0939-0.3213-0.0627-0.0821-0.1462-0.1231-0.2506-0.1231-0.1014 0-0.1834 0.041-0.246 0.1216-0.0619 0.0812-0.0932 0.1968-0.0932 0.3474zm-0.20727-0.0246c0-0.1178 0.02311-0.2244 0.07008-0.3184 0.04623-0.0939 0.11035-0.167 0.19309-0.2184 0.0828-0.0507 0.1775-0.0768 0.2833-0.0768 0.1641 0 0.2968 0.0574 0.3982 0.1707 0.1014 0.1134 0.1521 0.2647 0.1521 0.4533v0.0142c0 0.1171-0.0224 0.2222-0.0671 0.3154s-0.1096 0.1663-0.1931 0.2177c-0.0835 0.0522-0.179 0.0783-0.2878 0.0783-0.1633 0-0.2953-0.0567-0.39667-0.1707-0.1014-0.1134-0.1521-0.264-0.1521-0.4504v-0.0149z" fill="#000"/>
<path d="m11.349 18.256 6e-3 0.1334c0.0879-0.1036 0.2072-0.1558 0.3571-0.1558 0.1685 0 0.2833 0.0649 0.3437 0.1938 0.0403-0.0581 0.0925-0.1043 0.1566-0.1401s0.1402-0.0537 0.2274-0.0537c0.2647 0 0.3989 0.1402 0.4034 0.4198v0.8074h-0.2058v-0.7948c0-0.0865-0.0201-0.1506-0.0589-0.1938-0.0395-0.0425-0.1059-0.0634-0.1983-0.0634-0.0768 0-0.1402 0.0224-0.1909 0.0679-0.05 0.0462-0.0798 0.1073-0.088 0.1849v0.7992h-0.2065v-0.7896c0-0.1752-0.0858-0.2624-0.2573-0.2624-0.1349 0-0.2274 0.0574-0.2773 0.1722v0.8798h-0.2058v-1.2048h0.1946z" fill="#000"/>
<path d="m13.964 18.849c0-0.1357-0.0291-0.243-0.0872-0.3221-0.0575-0.0782-0.1372-0.1178-0.2379-0.1178-0.1245 0-0.2184 0.0552-0.2803 0.1663v0.5756c0.0611 0.1096 0.1558 0.1648 0.2826 0.1648 0.0984 0 0.1774-0.0395 0.2356-0.1178 0.0581-0.0783 0.0872-0.1946 0.0872-0.349zm0.2058 0.0232c0 0.1834-0.0418 0.331-0.126 0.4436-0.0835 0.1118-0.1969 0.1677-0.34 0.1677-0.1469 0-0.2617-0.0462-0.3452-0.1386v0.5793h-0.2066v-1.6672h0.1887l0.0097 0.1335c0.0842-0.1044 0.2005-0.1558 0.3497-0.1558 0.1446 0 0.2594 0.0544 0.3437 0.1633 0.0842 0.1096 0.126 0.2609 0.126 0.4555v0.0187z" fill="#000"/>
<path d="m14.452 19.461h0.2058v-1.7104h-0.2058v1.7104z" fill="#000"/>
<path d="m15.009 19.461h0.276v-1.2049h-0.276v1.2049zm-0.023-1.5248c0-0.0328 0.014-0.0611 0.041-0.0842s0.068-0.0343 0.122-0.0343 0.094 0.0112 0.122 0.0343 0.042 0.0514 0.042 0.0842c0 0.0336-0.014 0.0612-0.042 0.0835-0.028 0.0224-0.068 0.0336-0.122 0.0336s-0.095-0.0112-0.122-0.0336c-0.027-0.0223-0.041-0.0499-0.041-0.0835z" fill="#000"/>
<path d="m15.943 19.304c0.0652 0 0.1267-0.0164 0.1845-0.0499 0.0585-0.0336 0.1005-0.0768 0.1268-0.1305v-0.2468h-0.162c-0.2544 0-0.3811 0.0738-0.3811 0.2214 0 0.0642 0.0217 0.1149 0.0652 0.1514 0.0428 0.0365 0.0983 0.0544 0.1666 0.0544zm0.3436 0.1573c-0.0113-0.0238-0.0211-0.0663-0.0286-0.1275-0.0967 0.0999-0.2115 0.1492-0.345 0.1492-0.1201 0-0.2176-0.0336-0.2941-0.1007s-0.1148-0.1521-0.1148-0.255c0-0.126 0.048-0.2229 0.144-0.2923 0.0953-0.0693 0.2303-0.1043 0.4044-0.1043h0.2018v-0.0947c0-0.0724-0.0218-0.129-0.0645-0.1723-0.0435-0.0425-0.1073-0.0633-0.1921-0.0633-0.0735 0-0.1358 0.0178-0.186 0.0551-0.0495 0.0373-0.075 0.082-0.075 0.135h-0.2078c0-0.0604 0.021-0.1186 0.0637-0.1745 0.0435-0.0559 0.1013-0.0999 0.1748-0.1327s0.1546-0.0492 0.2431-0.0492c0.1395 0 0.249 0.035 0.3278 0.1044 0.0795 0.0693 0.12 0.1647 0.123 0.2863v0.5547c0 0.1103 0.0143 0.1983 0.0428 0.2639v0.0179h-0.2175z" fill="#000"/>
<path d="m16.974 18.256 0.0067 0.1513c0.0917-0.1156 0.2125-0.1737 0.3609-0.1737 0.2542 0 0.3825 0.1439 0.3847 0.4309v0.7963h-0.2058v-0.797c-7e-4 -0.0872-0.0201-0.1514-0.0596-0.1931-0.0388-0.0418-0.0992-0.0619-0.182-0.0619-0.0663 0-0.1252 0.0179-0.1759 0.0529-0.05 0.0358-0.0895 0.0828-0.1178 0.1402v0.8589h-0.2058v-1.2048h0.1946z" fill="#000"/>
<path d="m18.318 17.964v0.2915h0.2251v0.1595h-0.2251v0.7479c0 0.0484 0.0096 0.0842 0.0298 0.1088 0.0201 0.0239 0.0544 0.0358 0.1029 0.0358 0.0238 0 0.0559-0.0045 0.0976-0.0134v0.1663c-0.0544 0.0149-0.1066 0.0223-0.158 0.0223-0.0917 0-0.1611-0.0276-0.208-0.0835-0.047-0.0559-0.0701-0.1349-0.0701-0.2371v-0.7471h-0.2192v-0.1595h0.2192v-0.2915h0.2058z" fill="#000"/>
<path d="m7.1073 15.277c-0.31762-0.0917-0.5495-0.2036-0.69414-0.337-0.14465-0.1327-0.21697-0.2975-0.21697-0.4929 0-0.2214 0.08872-0.4048 0.26543-0.5495 0.1767-0.1446 0.40709-0.2169 0.69042-0.2169 0.19311 0 0.36459 0.0372 0.51595 0.1118 0.15135 0.0746 0.26841 0.1775 0.35117 0.3087 0.08351 0.1312 0.12452 0.2751 0.12452 0.4309h-0.37205c0-0.1707-0.05443-0.3049-0.16254-0.4026-0.10811-0.0969-0.26022-0.1461-0.45705-0.1461-0.18342 0-0.32583 0.0402-0.42797 0.1208-0.10215 0.0812-0.15359 0.1931-0.15359 0.3355 0 0.1148 0.04846 0.2117 0.14613 0.2915 0.09693 0.079 0.26245 0.1514 0.49582 0.2177 0.23337 0.0656 0.41604 0.138 0.54801 0.217s0.23039 0.1715 0.29377 0.2773c0.06337 0.1052 0.09543 0.2297 0.09543 0.3721 0 0.2281-0.08872 0.4108-0.26618 0.5473-0.17745 0.1372-0.41529 0.2057-0.71278 0.2057-0.19237 0-0.3728-0.0372-0.53981-0.111-0.16776-0.0739-0.29675-0.1753-0.38771-0.3042-0.09022-0.1283-0.1357-0.2744-0.1357-0.4377h0.3728c0 0.17 0.06263 0.3042 0.18789 0.4026s0.29302 0.1476 0.50253 0.1476c0.19609 0 0.34595-0.0402 0.45034-0.12 0.10438-0.0798 0.15582-0.1886 0.15582-0.3258 0-0.138-0.04771-0.2446-0.14464-0.3199-0.09618-0.0753-0.2714-0.1499-0.5249-0.2229z" fill="#000"/>
<path d="m9.453 15.277c-0.31763-0.0917-0.54951-0.2036-0.69415-0.337-0.14465-0.1327-0.21697-0.2975-0.21697-0.4929 0-0.2214 0.08873-0.4048 0.26543-0.5495 0.17671-0.1446 0.4071-0.2169 0.69042-0.2169 0.19311 0 0.3646 0.0372 0.516 0.1118 0.1513 0.0746 0.2684 0.1775 0.3511 0.3087 0.0835 0.1312 0.1245 0.2751 0.1245 0.4309h-0.372c0-0.1707-0.0544-0.3049-0.16255-0.4026-0.10811-0.0969-0.26021-0.1461-0.45705-0.1461-0.18342 0-0.32582 0.0402-0.42797 0.1208-0.10215 0.0812-0.15359 0.1931-0.15359 0.3355 0 0.1148 0.04846 0.2117 0.14613 0.2915 0.09693 0.079 0.26245 0.1514 0.49582 0.2177 0.23337 0.0656 0.41604 0.138 0.54801 0.217 0.132 0.079 0.2304 0.1715 0.2938 0.2773 0.0633 0.1052 0.0954 0.2297 0.0954 0.3721 0 0.2281-0.0887 0.4108-0.2662 0.5473-0.1774 0.1372-0.41527 0.2057-0.71276 0.2057-0.19236 0-0.3728-0.0372-0.53981-0.111-0.16776-0.0739-0.29674-0.1753-0.38771-0.3042-0.09021-0.1283-0.1357-0.2744-0.1357-0.4377h0.3728c0 0.17 0.06263 0.3042 0.18789 0.4026s0.29302 0.1476 0.50253 0.1476c0.19609 0 0.34596-0.0402 0.45034-0.12 0.10442-0.0798 0.15582-0.1886 0.15582-0.3258 0-0.138-0.0477-0.2446-0.14464-0.3199-0.09618-0.0753-0.27139-0.1499-0.52489-0.2229z" fill="#000"/>
<path d="m11.456 15.492h0.9558l-0.4786-1.3145-0.4772 1.3145zm1.0654 0.3027h-1.1773l-0.2646 0.7359h-0.3825l1.0736-2.8109h0.3244l1.0751 2.8109h-0.3803l-0.2684-0.7359z" fill="#000"/>
<path d="m15.138 15.231h-1.2183v0.9962h1.4151v0.3027h-1.7857v-2.8102h1.7663v0.3027h-1.3957v0.9059h1.2183v0.3027z" fill="#000"/>
<path d="m17.856 16.53h-0.3594v-2.38l-0.7195 0.264v-0.3244l1.023-0.3839h0.0559v2.8243z" fill="#000"/>
<path d="m19.779 13.974c-0.1401 0-0.2535 0.0433-0.3407 0.1305-0.0865 0.0865-0.1305 0.205-0.1305 0.3542 0 0.1424 0.0433 0.2579 0.1283 0.3467 0.0857 0.0879 0.1998 0.1319 0.3429 0.1319 0.1432 0 0.2573-0.044 0.343-0.1319 0.085-0.0888 0.1282-0.2043 0.1282-0.3467 0-0.1432-0.0447-0.2595-0.1334-0.3497s-0.2013-0.135-0.3378-0.135zm0.5369 1.7895c0-0.1566-0.05-0.2849-0.1499-0.384-0.0999-0.0992-0.2296-0.1484-0.3907-0.1484-0.161 0-0.29 0.0485-0.387 0.1461-0.0976 0.0977-0.1461 0.2267-0.1461 0.3863 0 0.1595 0.0477 0.2848 0.1424 0.3765 0.094 0.0917 0.2259 0.1372 0.3944 0.1372 0.167 0 0.2983-0.0463 0.3937-0.138 0.0954-0.0924 0.1432-0.2177 0.1432-0.3757zm0.2915-1.3108c0 0.1402-0.0373 0.2654-0.1111 0.3743-0.0738 0.1096-0.1745 0.1953-0.3005 0.2572 0.1469 0.0626 0.2632 0.1551 0.349 0.2759 0.085 0.1208 0.1282 0.258 0.1282 0.4108 0 0.2438-0.082 0.4369-0.246 0.5816-0.1641 0.1439-0.3803 0.2162-0.648 0.2162-0.2699 0-0.4868-0.0723-0.6494-0.2177-0.1633-0.1447-0.2445-0.3378-0.2445-0.5801 0-0.1513 0.0417-0.2885 0.1245-0.4108 0.0835-0.1223 0.1983-0.2147 0.3444-0.2781-0.1245-0.0619-0.2229-0.1469-0.2952-0.2565-0.0716-0.1096-0.1081-0.2334-0.1081-0.3728 0-0.2364 0.076-0.425 0.2281-0.5637 0.1514-0.1387 0.3519-0.2087 0.6002-0.2087 0.2468 0 0.4466 0.07 0.5995 0.2087 0.1521 0.1387 0.2289 0.3273 0.2289 0.5637z" fill="#000"/>
<path d="m12.92 10.068c-0.091 0-0.1774-0.0357-0.2416-0.09987l-1.5821-1.5822c-0.1335-0.13346-0.1335-0.35042 0-0.48389 0.1335-0.13346 0.3504-0.13346 0.4839 0l1.3398 1.3398 2.3397-2.3397c0.1342-0.13346 0.3504-0.13346 0.4839 0 0.1334 0.13346 0.1334 0.35043 0 0.48389l-2.582 2.582c-0.0641 0.06417-0.1506 0.09987-0.2416 0.09987z" fill="#5BB160"/>
</g>
</svg>
