<?xml version="1.0" encoding="UTF-8"?>
<svg version="1.1" viewBox="0 0 436 332" xmlns="http://www.w3.org/2000/svg" xmlns:xlink="http://www.w3.org/1999/xlink">
<defs>
<rect id="d" width="436" height="332" rx="4"/>
<linearGradient id="g" x1="50.009%" x2="50%" y1="48.029%" y2="49.689%">
<stop stop-color="#FCF6FF" offset="0"/>
<stop stop-color="#FFFFFE" offset="1"/>
</linearGradient>
<linearGradient id="f" x1="50.009%" x2="50%" y1="48.029%" y2="49.689%">
<stop stop-color="#F8F0FD" offset="0"/>
<stop stop-color="#FFFFFE" offset="1"/>
</linearGradient>
<path id="c" d="m-35.609 188.86c54.494-37.839 99.684-52.319 135.57-43.441 53.827 13.317 98.029 42.884 169.66 13.317s219.25-8.2075 253.91 35.575c23.107 29.188-60.232 49.297-250.02 60.325l-252.31-15.006-56.817-50.77z"/>
<filter id="i" x="-.3%" y="-1.3%" width="100.5%" height="102.7%">
<feOffset dx="0" dy="0" in="SourceAlpha" result="shadowOffsetOuter1"/>
<feGaussianBlur in="shadowOffsetOuter1" result="shadowBlurOuter1" stdDeviation="0.5"/>
<feColorMatrix in="shadowBlurOuter1" values="0 0 0 0 0.941891879   0 0 0 0 0.844092996   0 0 0 0 0.981011432  0 0 0 1 0"/>
</filter>
<linearGradient id="e" x1="50.009%" x2="50%" y1="42.282%" y2="47.387%">
<stop stop-color="#fff" offset="0"/>
<stop stop-color="#FBF2FF" offset=".49861"/>
<stop stop-color="#FBF4FF" offset=".5469"/>
<stop stop-color="#fff" offset="1"/>
</linearGradient>
<path id="b" d="m-69.785 205.22c54.494-37.839 99.684-52.319 135.57-43.441 53.827 13.317 98.029 42.884 169.66 13.317 71.633-29.567 219.25-8.2075 253.91 35.575 12.445 15.72-5.0506 138.27-54.358 160.33-28.163 12.597-93.382 12.597-195.66 0l-252.31-15.006-56.817-150.77z"/>
<filter id="h" x="-.5%" y="-1.4%" width="101.1%" height="102.7%">
<feOffset dx="0" dy="0" in="SourceAlpha" result="shadowOffsetOuter1"/>
<feGaussianBlur in="shadowOffsetOuter1" result="shadowBlurOuter1" stdDeviation="1"/>
<feColorMatrix in="shadowBlurOuter1" values="0 0 0 0 0.925711011   0 0 0 0 0.861427183   0 0 0 0 0.953261223  0 0 0 1 0"/>
</filter>
</defs>
<g fill="none" fill-rule="evenodd">
<g transform="translate(-44 -185)">
<g transform="translate(44 185)">
<mask id="a" fill="white">
<use xlink:href="#d"/>
</mask>
<use fill="#FFFFFF" xlink:href="#d"/>
<path d="m-68.329 173.97c54.494-37.839 99.684-52.319 135.57-43.441 53.827 13.317 98.029 42.884 169.66 13.317 71.633-29.567 219.25-8.2075 253.91 35.575 23.107 29.188-60.232 49.297-250.02 60.325l-252.31-15.006-56.817-50.77z" fill="url(#g)" mask="url(#a)"/>
<g mask="url(#a)">
<g transform="translate(156 81)">
<g transform="translate(.17588 .17538)">
<path d="m38.963 22.761c-13.119 7.5485-21.965 21.688-22.028 37.893h-16.935c0.063138-22.488 12.326-42.106 30.524-52.583l8.4394 14.69z" fill="#E3FBF1"/>
<path d="m90.494 7.7133-8.4184 14.704c-6.2959-3.4901-13.543-5.479-21.253-5.479-7.9589 0-15.423 2.1186-21.86 5.8227l-8.4394-14.69c8.92-5.1352 19.264-8.0711 30.299-8.0711 10.776 0 20.895 2.8026 29.671 7.7133" fill="#18D2B5"/>
<path d="m121.65 60.654h-16.938c-0.063138-16.454-9.183-30.776-22.635-38.237l8.4184-14.704c18.541 10.383 31.092 30.194 31.155 52.941" fill="#B2ECE3"/>
<path d="m121.65 60.654v0.17187c0 22.562-12.284 42.25-30.524 52.752l-8.4394-14.69c13.164-7.5765 22.025-21.783 22.025-38.062v-0.17187h16.938z" fill="#FCE5E3"/>
<path d="m91.125 113.58c-8.9235 5.1356-19.268 8.0711-30.303 8.0711h-0.23817v-16.935h0.23817c7.9592 0 15.427-2.1186 21.863-5.8262l8.4398 14.69z" fill="#FEEEED"/>
<path d="m38.472 98.604-8.4149 14.701c-17.984-10.565-30.057-30.11-30.057-52.478v-0.17187h16.935v0.17187c0 16.076 8.6429 30.13 21.537 37.777" fill="#A4EECC"/>
<path d="m104.71 60.654h-16.612c-0.05963-10.288-5.8192-19.222-14.276-23.813l8.2535-14.423c13.452 7.4608 22.572 21.783 22.635 38.237" fill="#09AC8E"/>
<path d="m46.725 84.184-8.2535 14.42c-12.894-7.6467-21.537-21.702-21.537-37.777v-0.17188h16.616c-0.0035077 0.056122-0.0035077 0.11575-0.0035077 0.17188 0 9.9056 5.279 18.577 13.178 23.357" fill="#D6F0EC"/>
<path d="m47.238 37.171c-8.1342 4.6792-13.627 13.438-13.687 23.484h-16.616c0.063138-16.205 8.9094-30.345 22.028-37.893l8.2746 14.409z" fill="#D6F0EC"/>
<path d="m60.584 88.098v16.616c-8.0746-0.042092-15.63-2.2659-22.112-6.1103l8.2535-14.42c4.0513 2.4483 8.7902 3.8724 13.859 3.9145" fill="#FEE1DF"/>
<path d="m104.71 60.654v0.17187c0 16.279-8.8603 30.485-22.025 38.062l-8.2746-14.406c8.1834-4.7073 13.69-13.54 13.69-23.656 0-0.056122 0-0.11575-0.0035076-0.17187h16.612z" fill="#FDBCB7"/>
<path d="m82.686 98.888c-6.4365 3.7076-13.904 5.8262-21.863 5.8262h-0.23852v-16.616c0.080676 0.0035077 0.15784 0.0035077 0.23852 0.0035077 4.9461 0 9.5864-1.3154 13.589-3.6199l8.2746 14.406z" fill="#FEC2BD"/>
<path d="m82.075 22.417-8.2532 14.423c-3.8658-2.1011-8.2959-3.2937-13-3.2937-4.9454 0-9.5864 1.3189-13.585 3.6234l-8.2746-14.409c6.4365-3.7041 13.901-5.8227 21.86-5.8227 7.7102 0 14.957 1.9888 21.253 5.479" fill="#09AC8E"/>
<path d="m60.584 104.71v16.935c-11.137-0.041741-21.565-3.0794-30.527-8.3444l8.4149-14.701c6.4821 3.8444 14.038 6.0682 22.112 6.1103" fill="#FEF0EF"/>
</g>
<g fill="#fff" fill-rule="nonzero">
<path d="m39.378 23.001-8.6142-14.994-0.15213 0.087591c-18.735 10.787-30.55 30.724-30.611 52.735l-4.938e-4 0.17588h17.286l6.807e-4 -0.1747c0.061383-15.755 8.5286-30.025 21.94-37.742l0.15191-0.08741zm-8.743-14.514 8.2647 14.386-0.25266 0.14748c-13.15 7.7522-21.481 21.799-21.708 37.333l-0.0029931 0.30097h-16.585l-0.001053 0.17619c0.06083-21.665 11.574-41.31 29.879-52.107l0.40506-0.23615z"/>
<path d="m60.998 3.4893e-14c10.44 0 20.501 2.6268 29.442 7.5606l0.31509 0.17509-0.085886 0.1527 0.15245 0.08749-8.5043 14.854-0.15129-0.083867c-6.4239-3.5611-13.659-5.457-21.168-5.457-7.6329 0-14.98 1.9589-21.477 5.6312l-0.44687 0.25565-8.6141-14.994 0.15186-0.087424c9.167-5.2774 19.569-8.0945 30.387-8.0945zm0 0.35077c-10.632 0-20.86 2.7367-29.897 7.8678l-0.16259 0.092857 8.2647 14.386 0.14465-0.082245c6.4505-3.6458 13.732-5.6164 21.301-5.6753l0.34952-0.0013591c7.452 0 14.638 1.8529 21.038 5.3365l0.14753 0.080761 8.2444-14.4-0.16174-0.090064c-8.7825-4.8457-18.651-7.4524-28.898-7.5138l-0.37052-0.0011095z"/>
<path d="m90.604 7.6507 0.15158 0.084879c18.894 10.58 30.94 30.423 31.239 52.426l0.00546 0.66741-0.17573 5.92e-4 3.51e-4 0.17528h-17.113l-6.7e-4 -0.17471c-0.060785-15.841-8.6227-30.17-22.134-37.853l-0.41093-0.2308-0.15547-0.086228 8.593-15.009zm0.13113 0.47618-8.2437 14.399 0.25936 0.14581c13.481 7.6668 22.075 21.898 22.307 37.674l0.002723 0.30846h16.588l-0.004025-0.48746c-0.29428-21.656-12.033-41.207-30.493-51.803l-0.41625-0.23634z"/>
<path d="m122 60.654h-17.289v0.34726c0 15.821-8.4732 30.161-21.937 37.91l-0.15189 0.087416 8.6142 14.994 0.15213-0.087595c18.786-10.816 30.611-30.828 30.611-52.904v-0.34726zm-0.35112 0.35052-0.003171 0.65458c-0.22998 21.469-11.706 40.899-29.874 51.616l-0.40691 0.23683-8.2644-14.386 0.25424-0.1479c13.201-7.7842 21.537-21.9 21.704-37.499l0.002208-0.47473h16.588z"/>
<path d="m91.541 113.82-8.6145-14.994-0.15215 0.087644c-6.5667 3.7828-14.024 5.8028-21.776 5.8028h-0.41355v17.286h0.41355c10.695 0 20.983-2.7531 30.077-7.9155l0.465-0.26639zm-8.7442-14.516 8.2651 14.386-0.16262 0.093066c-8.9354 5.0717-19.031 7.8038-29.53 7.8667l-0.43369 8.99e-4v-16.584l0.062962 2.1e-4c7.6983 0 15.11-1.9769 21.658-5.6825l0.14001-0.080039z"/>
<path d="m17.286 60.654v0.34726c0 15.462 8.0945 29.519 21.057 37.39l0.39428 0.23662-0.089498 0.15078 0.15224 0.087198-8.503 14.855-0.15293-0.089844c-18.339-10.774-29.911-30.349-30.14-51.973l-0.003481-0.65589v-0.34726h17.286zm-0.3508 0.3507h-16.584l0.003496 0.64869c0.22596 21.283 11.502 40.569 29.417 51.347l0.39778 0.23676 8.2409-14.397-0.24904-0.14932c-12.934-7.8538-21.06-21.818-21.223-37.218l-0.0025293-0.46844z"/>
<path d="m82.185 22.355 0.15134 0.083936c13.719 7.6092 22.487 21.969 22.721 37.906l0.004476 0.48342-0.17573 4.275e-4 3.5e-4 0.17563h-16.787l-0.0010107-0.17437c-0.057274-9.8814-5.4538-18.8-13.927-23.519l-0.2577-0.14171-0.15762-0.085574 8.4285-14.729zm0.13187 0.47523-8.0785 14.118 0.10408 0.057352c8.4956 4.7316 13.938 13.632 14.103 23.52l0.0013095 0.1284h16.262l-0.002685-0.30327c-0.22982-15.651-8.7547-29.768-22.129-37.374l-0.26028-0.14624z"/>
<path d="m16.935 60.654h16.978l-0.013389 0.22271-0.0014222 0.12455c0 9.5028 4.9297 18.152 12.853 23.06l0.241 0.14757-0.091127 0.15011 0.15253 0.087052-8.342 14.575-0.1532-0.090851c-13.165-7.807-21.456-21.899-21.62-37.456l-0.0024942-0.47188v-0.34726zm16.612 0.35048h-16.261l0.0027901 0.4649c0.16155 15.278 8.2231 29.131 21.054 36.922l0.24137 0.1448 8.0799-14.117-0.09784-0.059832c-7.9441-4.9207-12.918-13.556-13.017-23.067l-0.0018422-0.28819z"/>
<path d="m47.653 37.411-8.4492-14.714-0.15215 0.087545c-13.519 7.7788-22.054 22.163-22.116 38.044l-6.86e-4 0.17607h16.966l0.0010348-0.17434c0.057831-9.7428 5.3033-18.561 13.599-23.333l0.15191-0.087386zm-8.5781-14.234 8.0999 14.105-0.099769 0.058402c-8.1739 4.817-13.36 13.54-13.52 23.193l-0.0015458 0.12144h-16.265l-0.0014395 0.17607c0.060769-15.597 8.3601-29.739 21.539-37.508l0.24924-0.14521z"/>
<path d="m46.838 84.116 0.15371 0.092891c4.0487 2.4467 8.6723 3.7978 13.496 3.8856l0.27326 0.0036224-0.0015265 0.17538h0.17545v16.792l-0.1763-9.19e-4c-7.8073-0.040698-15.309-2.1169-21.91-5.964l-0.29064-0.17087-0.14853-0.088092 8.4285-14.726zm0.12642 0.48502-8.0785 14.114 0.13933 0.08215c6.4521 3.7603 13.771 5.815 21.394 5.9132l0.16515 0.001334v-16.266l-0.10279-0.0012199c-4.7939-0.08731-9.3932-1.4065-13.438-3.797l-0.078635-0.047179z"/>
<path d="m105.06 60.654h-16.974l0.013389 0.22271 0.0012153 0.058017 2.069e-4 0.06653c0 9.809-5.2548 18.702-13.602 23.504l-0.15193 0.087394 8.4493 14.71 0.15214-0.087561c13.571-7.8107 22.112-22.265 22.112-38.214v-0.34726zm-0.35112 0.35052-0.002188 0.47093c-0.16573 15.475-8.4357 29.478-21.532 37.201l-0.25108 0.14592-8.0995-14.102 0.1013-0.05872c8.2246-4.8474 13.42-13.644 13.524-23.363l0.001244-0.29453h16.258z"/>
<path d="m83.101 99.128-8.4492-14.71-0.15215 0.08761c-3.9943 2.2999-8.5174 3.548-13.224 3.5951l-0.39438 9.597e-4 -0.11359-0.0029144-0.183-0.0079566v16.974h0.4139c7.698 0 15.11-1.9769 21.658-5.6825l0.44443-0.25451zm-8.5791-14.232 8.0999 14.102-0.14229 0.081715c-6.3967 3.6188-13.623 5.5748-21.134 5.6333l-0.41032 0.001103v-16.261l0.063454 2.455e-4c4.7743 0 9.3705-1.2195 13.438-3.5075l0.085902-0.04918z"/>
<path d="m88.451 61.299c-0.10518 9.8178-5.406 18.695-13.777 23.509-4.0459 2.33-8.6284 3.5945-13.396 3.6426h-0.44092l-0.07936-0.0024738c-4.9859-0.041405-9.7694-1.4146-13.948-3.9399-8.0862-4.8941-13.161-13.608-13.261-23.216l-0.0011156-0.37975 0.0015436-0.061422c3.553e-4 -0.0087207 7.579e-4 -0.016523 0.0012055-0.023165 0.058578-9.8687 5.3723-18.801 13.775-23.635 4.1238-2.3768 8.8073-3.6468 13.672-3.6468 4.6319 0 9.1011 1.1503 13.083 3.3149 8.7321 4.7411 14.309 13.856 14.367 23.956l0.0024214 0.045472 0.001756 0.087378-0.0015006 0.34885zm-0.34917-0.29779-0.0011181-0.11128-0.0027373-0.059578c-0.057852-9.9811-5.5633-18.98-14.184-23.66-3.9313-2.1369-8.3429-3.2724-12.916-3.2724-4.8032 0-9.4264 1.2537-13.497 3.6-8.2958 4.7721-13.541 13.59-13.6 23.342l-0.001589 0.036819-0.001291 0.058496v0.06671c0 9.5988 5.0298 18.327 13.094 23.207 4.1251 2.4929 8.847 3.8484 13.776 3.8894l0.077278 0.00237 0.15327 9.721e-4c4.8064 0 9.4291-1.2516 13.502-3.5969 8.3475-4.8014 13.602-13.694 13.602-23.503z"/>
<path d="m60.998 16.938c7.452 0 14.638 1.8529 21.038 5.3365l0.29945 0.16449-0.085277 0.15339 0.15247 0.087103-8.3384 14.572-0.15076-0.081938c-3.9317-2.1369-8.3433-3.2724-12.916-3.2724-4.7107 0-9.2484 1.2059-13.262 3.4658l-0.38768 0.22186-8.4493-14.714 0.15187-0.087397c6.6225-3.8111 14.137-5.8461 21.947-5.8461zm0 0.35077c-7.6329 0-14.98 1.9589-21.477 5.6312l-0.14255 0.081338 8.0999 14.105 0.08598-0.048978c3.9861-2.2444 8.4827-3.4626 13.154-3.5095l0.28047-0.0014079c4.537 0 8.9182 1.1038 12.839 3.1837l0.093104 0.049992 8.0795-14.12-0.14087-0.077481c-6.2503-3.4018-13.255-5.236-20.524-5.2924l-0.34635-0.0013454z"/>
<path d="m29.995 113.54 8.5895-15.006 0.15319 0.090854c6.522 3.868 13.946 5.983 21.682 6.0827l0.34151 0.003091-9.844e-4 0.17534 0.17545 3.5e-5v17.111l-0.17604-6.6e-4c-10.791-0.040445-21.166-2.8904-30.304-8.187l-0.31106-0.18151-0.14952-0.087842zm8.7173-14.523-8.2405 14.396 0.16318 0.095162c8.9806 5.2042 19.161 8.032 29.756 8.1352l0.19365 0.001053v-16.584l-0.1697-0.001329c-7.6835-0.09903-15.062-2.1703-21.566-5.9609l-0.13705-0.080782z"/>
</g>
</g>
</g>
<g mask="url(#a)">
<use fill="black" filter="url(#i)" xlink:href="#c"/>
<use fill="url(#f)" fill-rule="evenodd" xlink:href="#c"/>
</g>
<g mask="url(#a)">
<use fill="black" filter="url(#h)" xlink:href="#b"/>
<use fill="url(#e)" fill-rule="evenodd" xlink:href="#b"/>
</g>
</g>
</g>
</g>
</svg>
