<svg width="436" height="332" viewBox="0 0 436 332" fill="none" xmlns="http://www.w3.org/2000/svg">
<g clip-path="url(#clip0_1169_4525)">
<g filter="url(#filter0_d_1169_4525)">
<rect width="436" height="332" rx="4" fill="#FBFDFE"/>
<rect x="-0.5" y="-0.5" width="437" height="333" rx="4.5" stroke="#AFB2BA"/>
</g>
<rect x="-74.1744" width="584.349" height="444.963" rx="5.361" fill="white"/>
<mask id="mask0_1169_4525" style="mask-type:luminance" maskUnits="userSpaceOnUse" x="-75" y="0" width="586" height="445">
<rect x="-74.1744" width="584.349" height="444.963" rx="5.361" fill="white"/>
</mask>
<g mask="url(#mask0_1169_4525)">
<path opacity="0.4" fill-rule="evenodd" clip-rule="evenodd" d="M-165.752 242.836C-165.752 242.836 -56.1985 166.766 15.9434 184.614C88.0853 202.462 147.327 242.09 243.333 202.462C339.34 162.835 537.184 191.462 583.638 250.141C630.092 308.821 248.553 330.993 248.553 330.993L-89.6029 310.88L-165.752 242.836Z" fill="url(#paint0_linear_1169_4525)"/>
<path fill-rule="evenodd" clip-rule="evenodd" d="M131.683 153.21H155.95V233.214H131.683V153.21Z" fill="#7CCB8E"/>
<path fill-rule="evenodd" clip-rule="evenodd" d="M104.385 182.874H128.652V233.214H104.385V182.874Z" fill="#DF7E8A"/>
<path fill-rule="evenodd" clip-rule="evenodd" d="M104.372 166.873C104.372 166.277 104.855 165.795 105.45 165.795H127.56C128.156 165.795 128.639 166.277 128.639 166.873V181.975H104.372V166.873Z" fill="#F4B7BE"/>
<path fill-rule="evenodd" clip-rule="evenodd" d="M190.087 186.651C190.087 186.055 190.57 185.572 191.166 185.572H213.276C213.871 185.572 214.354 186.055 214.354 186.651V207.146H190.087V186.651Z" fill="#F4B7BE"/>
<path fill-rule="evenodd" clip-rule="evenodd" d="M275.77 147.995C275.77 147.4 276.252 146.917 276.848 146.917H298.958C299.553 146.917 300.036 147.4 300.036 147.995V181.975H275.77V147.995Z" fill="#F4B7BE"/>
<path fill-rule="evenodd" clip-rule="evenodd" d="M217.379 192.764H241.645V233.215H217.379V192.764Z" fill="#7CCB8E"/>
<path fill-rule="evenodd" clip-rule="evenodd" d="M190.074 208.044H214.341V233.214H190.074V208.044Z" fill="#DF7E8A"/>
<path fill-rule="evenodd" clip-rule="evenodd" d="M303.061 149.615H327.327V233.215H303.061V149.615Z" fill="#7CCB8E"/>
<path fill-rule="evenodd" clip-rule="evenodd" d="M303.081 129.118C303.081 128.523 303.563 128.04 304.159 128.04H326.269C326.865 128.04 327.347 128.523 327.347 129.118V148.715H303.081V129.118Z" fill="#BDEACA"/>
<path fill-rule="evenodd" clip-rule="evenodd" d="M217.385 172.266C217.385 171.671 217.868 171.188 218.463 171.188H240.574C241.169 171.188 241.652 171.671 241.652 172.266V191.864H217.385V172.266Z" fill="#BDEACA"/>
<path fill-rule="evenodd" clip-rule="evenodd" d="M131.69 142.602C131.69 142.007 132.172 141.524 132.768 141.524H154.878C155.474 141.524 155.956 142.007 155.956 142.602V152.311H131.69V142.602Z" fill="#BDEACA"/>
<path fill-rule="evenodd" clip-rule="evenodd" d="M275.763 182.874H300.03V233.214H275.763V182.874Z" fill="#DF7E8A"/>
<path d="M85.3492 134.283C85.3492 134.283 119.818 119.651 142.767 119.452C169.982 119.216 183.361 136.207 210.473 139.025C267.465 144.948 302.777 78.4466 350.651 81.5874" stroke="#CCE5FF" stroke-width="1.70155" stroke-linecap="round" stroke-linejoin="round"/>
<path d="M85.3492 134.283C85.3492 134.283 119.818 119.651 142.767 119.452C169.982 119.216 189.399 121.585 216.413 125.224C283.659 134.283 299.27 81.5874 350.651 81.5874" stroke="#6D6FCC" stroke-width="1.70155" stroke-linecap="round" stroke-linejoin="round"/>
<g filter="url(#filter1_d_1169_4525)">
<path fill-rule="evenodd" clip-rule="evenodd" d="M-121.899 262.795C-121.899 262.795 -79.3578 193.427 -7.21594 211.275C64.9259 229.123 124.167 262.049 220.174 222.422C316.181 182.794 581.037 211.422 627.491 270.101C673.946 328.78 292.406 350.952 292.406 350.952L-45.7498 330.84L-121.899 262.795Z" fill="url(#paint1_linear_1169_4525)"/>
</g>
<g filter="url(#filter2_d_1169_4525)">
<path fill-rule="evenodd" clip-rule="evenodd" d="M-167.704 284.722C-167.704 284.722 62.4725 208.652 134.614 226.5C206.756 244.348 225.79 266.552 321.797 226.925C417.804 187.297 535.233 233.348 581.687 292.027C598.366 313.096 574.918 477.344 508.834 506.903C452.216 532.228 246.602 506.903 246.602 506.903L-91.5545 486.791L-167.704 284.722Z" fill="url(#paint2_linear_1169_4525)"/>
</g>
</g>
</g>
<defs>
<filter id="filter0_d_1169_4525" x="-1" y="-1" width="438" height="335" filterUnits="userSpaceOnUse" color-interpolation-filters="sRGB">
<feFlood flood-opacity="0" result="BackgroundImageFix"/>
<feColorMatrix in="SourceAlpha" type="matrix" values="0 0 0 0 0 0 0 0 0 0 0 0 0 0 0 0 0 0 127 0" result="hardAlpha"/>
<feOffset dy="1"/>
<feColorMatrix type="matrix" values="0 0 0 0 0 0 0 0 0 0 0 0 0 0 0 0 0 0 0.08 0"/>
<feBlend mode="normal" in2="BackgroundImageFix" result="effect1_dropShadow_1169_4525"/>
<feBlend mode="normal" in="SourceGraphic" in2="effect1_dropShadow_1169_4525" result="shape"/>
</filter>
<filter id="filter1_d_1169_4525" x="-123.24" y="202.755" width="755.993" height="149.537" filterUnits="userSpaceOnUse" color-interpolation-filters="sRGB">
<feFlood flood-opacity="0" result="BackgroundImageFix"/>
<feColorMatrix in="SourceAlpha" type="matrix" values="0 0 0 0 0 0 0 0 0 0 0 0 0 0 0 0 0 0 127 0" result="hardAlpha"/>
<feOffset/>
<feGaussianBlur stdDeviation="0.670125"/>
<feColorMatrix type="matrix" values="0 0 0 0 0.697324 0 0 0 0 0.901491 0 0 0 0 0.925511 0 0 0 1 0"/>
<feBlend mode="normal" in2="BackgroundImageFix" result="effect1_dropShadow_1169_4525"/>
<feBlend mode="normal" in="SourceGraphic" in2="effect1_dropShadow_1169_4525" result="shape"/>
</filter>
<filter id="filter2_d_1169_4525" x="-170.384" y="209.426" width="759.929" height="311.413" filterUnits="userSpaceOnUse" color-interpolation-filters="sRGB">
<feFlood flood-opacity="0" result="BackgroundImageFix"/>
<feColorMatrix in="SourceAlpha" type="matrix" values="0 0 0 0 0 0 0 0 0 0 0 0 0 0 0 0 0 0 127 0" result="hardAlpha"/>
<feOffset/>
<feGaussianBlur stdDeviation="1.34025"/>
<feColorMatrix type="matrix" values="0 0 0 0 0.751668 0 0 0 0 0.88923 0 0 0 0 0.915023 0 0 0 1 0"/>
<feBlend mode="normal" in2="BackgroundImageFix" result="effect1_dropShadow_1169_4525"/>
<feBlend mode="normal" in="SourceGraphic" in2="effect1_dropShadow_1169_4525" result="shape"/>
</filter>
<linearGradient id="paint0_linear_1169_4525" x1="-165.688" y1="181.216" x2="-165.69" y2="330.986" gradientUnits="userSpaceOnUse">
<stop stop-color="#E1F9F7"/>
<stop offset="0.357556" stop-color="#EFF2FC"/>
<stop offset="0.625249" stop-color="#F7EFFF"/>
<stop offset="1" stop-color="#FFFFFE"/>
</linearGradient>
<linearGradient id="paint1_linear_1169_4525" x1="-121.835" y1="204.089" x2="-121.837" y2="350.946" gradientUnits="userSpaceOnUse">
<stop stop-color="#E1F9F7"/>
<stop offset="0.357556" stop-color="#EFF2FC"/>
<stop offset="0.625249" stop-color="#F7EFFF"/>
<stop offset="1" stop-color="#FFFFFE"/>
</linearGradient>
<linearGradient id="paint2_linear_1169_4525" x1="59.8584" y1="212.107" x2="113.563" y2="519.566" gradientUnits="userSpaceOnUse">
<stop stop-color="#EFFFFE"/>
<stop offset="0.723958" stop-color="#EFF2FC"/>
<stop offset="1" stop-color="#FBF8FF"/>
</linearGradient>
<clipPath id="clip0_1169_4525">
<rect width="436" height="332" fill="white"/>
</clipPath>
</defs>
</svg>
