<?xml version="1.0" encoding="UTF-8"?>
<svg version="1.1" viewBox="0 0 436 332" xmlns="http://www.w3.org/2000/svg" xmlns:xlink="http://www.w3.org/1999/xlink">
<defs>
<rect id="f" width="436" height="332" rx="4"/>
<linearGradient id="g" x1="50.009%" x2="50%" y1="48.029%" y2="51.971%">
<stop stop-color="#F8D2D0" offset="0"/>
<stop stop-color="#FAF7ED" offset=".46501"/>
<stop stop-color="#FFFFFE" offset="1"/>
</linearGradient>
<linearGradient id="a" x1="50%" x2="50%" y1="100%" y2="-32.576%">
<stop stop-color="#FF6EAB" offset="0"/>
<stop stop-color="#FCD2A5" offset="1"/>
<stop stop-color="#FDEFE6" offset="1"/>
</linearGradient>
<path id="e" d="m216.94 35.043c15.615-0.43251 29.13 2.4393 41.923 7.7771l0.81556 0.34405c0.15756 0.067192 0.32243 0.13864 0.49397 0.21398l1.104 0.49596 1.5579 0.72526 2.4049 1.1518 2.8752 1.4036 5.1983 2.5536 1.2285 0.59223 0.77467 0.36292 0.4393 0.19624 0.21815 0.090625c0.062218 0.02455 0.11372 0.043321 0.15387 0.055956 5.3316 1.6779 12.939-0.59279 16.003-3.888 13.567-14.591 28.173-14.662 43.405-0.2517l0.46176 0.44112-1.1529 1.1594c-14.749-14.226-28.44-14.297-41.498-0.25288-3.484 3.7471-11.753 6.2155-17.719 4.3379l-0.068966-0.023278-0.17805-0.068356-0.22913-0.096082-0.43316-0.19258-1.1527-0.5397-2.2986-1.1144-6.5744-3.2214-2.275-1.093-1.2579-0.5912-1.1407-0.52223-0.68057-0.30156c-0.10748-0.046808-0.21186-0.09182-0.31297-0.13493-12.825-5.4692-26.348-8.4227-42.037-7.9881-0.99035 0.02743-2.1209 0.11974-3.3847 0.27371l-0.86213 0.11175-0.90111 0.12981-0.93962 0.14766-0.97767 0.16529c-0.16609 0.029007-0.33374 0.05874-0.50295 0.089195l-1.0339 0.19135-1.0707 0.20846-1.1071 0.22536-1.1431 0.24205-1.1785 0.25852-1.2135 0.27479-1.2481 0.29084-1.2821 0.30668-1.3157 0.32231-1.3488 0.33773-0.68669 0.17458c-1.2003 0.30667-2.43 0.62861-3.6902 0.96567l-2.9357 0.79733-2.133 0.59724-4.0229 1.1498-11.829 3.4425-0.5621 0.14743-1.0782 0.27304c-3.4968 0.86245-6.0522 1.2536-8.6222 1.3368l-0.65022 0.014947-0.65849 0.0025897c-0.22201-0.0012225-0.44711-0.0045437-0.677-0.010003l-0.70575-0.02283-0.74473-0.035892-0.79394-0.049188-0.85339-0.06272-0.92308-0.076486-7.2741-0.69715c-0.27964-0.025984-0.55618-0.051379-0.83084-0.07628l-1.6351-0.14424-1.6485-0.13696c-2.1757-0.1752-4.4119-0.33272-6.7842-0.47448l-2.8379-0.16529-2.1693-0.13674-2.2002-0.15048-2.8783-0.21294-2.4727-0.19464-4.1226-0.34094-12.989-1.0877-2.9727-0.21164c-9.6948-0.66872-17.653-0.81802-26.066-0.35783-9.5918 0.52469-19.137 2.7248-29.491 6.5442-1.275 0.47032-2.5157 0.94331-3.7545 1.4328l-1.2304 0.49187-0.81104 0.33048-1.6377 0.6823-1.672 0.71644-1.7223 0.75741-1.3345 0.59904-1.3786 0.6288-2.4141 1.1219-1.5294 0.72222-2.7057 1.2947-2.9288 1.42-9.6885 4.7599-0.73386-1.4529 8.5274-4.1929 3.6876-1.793 2.8085-1.3465 2.098-0.99092 1.9844-0.92212 1.4241-0.65085 1.3772-0.61936 1.7759-0.78217 1.2961-0.5579 1.2735-0.53671 1.6754-0.68799 1.6654-0.66314 0.83438-0.32454c0.83601-0.32265 1.678-0.6401 2.5357-0.95646 10.501-3.8734 20.205-6.1102 29.978-6.6448 8.1353-0.44502 15.844-0.3253 25.062 0.27789l3.0857 0.21244 6.1117 0.48897 8.6357 0.73484 2.6376 0.21856 3.0066 0.23912 2.7727 0.20707 2.6341 0.18124 2.1165 0.1333 1.6339 0.095363c2.4314 0.13721 4.714 0.28998 6.9232 0.46022l1.9326 0.15478 1.6424 0.1407 1.6579 0.15027 6.2726 0.60679 0.98177 0.088607 0.9019 0.07484 0.83202 0.061334c0.1334 0.0091112 0.26431 0.01767 0.39293 0.025683l0.74594 0.041562 0.70105 0.028706 0.66616 0.01611c0.10867 0.00165 0.21631 0.0027859 0.32312 0.0034133l0.63256-0.002295 0.62266-0.01424c0.36696-0.011892 0.73397-0.03044 1.1042-0.056212l0.74581-0.061342c1.7548-0.16638 3.6266-0.49829 5.9399-1.0532l1.0194-0.25166c0.17472-0.044275 0.35192-0.08973 0.53173-0.13639l0.76192-0.20531 9.4496-2.7559 5.6055-1.61 2.6894-0.75488 1.6825-0.45997 2.5318-0.67714c0.41525-0.10949 0.82718-0.2173 1.2358-0.32342l1.9117-0.49013 1.3663-0.34211 1.3329-0.32649 1.2991-0.31066 1.8844-0.43585 1.2128-0.27016 1.1777-0.25359 1.1421-0.23681 1.1061-0.21982 1.0698-0.20262c0.17525-0.032324 0.34897-0.063924 0.52116-0.094792l1.0146-0.17642 0.97727-0.15869 0.93959-0.14075 0.90151-0.12259c0.44117-0.056722 0.86792-0.10656 1.28-0.14939l0.80464-0.076283 0.76521-0.05739 0.7254-0.038286c0.11756-0.0047772 0.23344-0.0087495 0.34765-0.011913z"/>
<linearGradient id="i" x1="50.009%" x2="50%" y1="48.105%" y2="51.895%">
<stop stop-color="#FFE9E7" offset="0"/>
<stop stop-color="#FAF7ED" offset=".46501"/>
<stop stop-color="#FFFFFE" offset="1"/>
</linearGradient>
<path id="d" d="m-28.824 179.28c21.161-34.505 49.684-47.319 85.569-38.441 53.827 13.317 98.029 37.884 169.66 8.3169 71.633-29.567 269.25-8.2075 303.91 35.575 23.107 29.188-60.232 49.297-250.02 60.325l-252.31-15.006-56.817-50.77z"/>
<filter id="k" x="-.3%" y="-1.4%" width="100.5%" height="102.7%">
<feOffset dx="0" dy="0" in="SourceAlpha" result="shadowOffsetOuter1"/>
<feGaussianBlur in="shadowOffsetOuter1" result="shadowBlurOuter1" stdDeviation="0.5"/>
<feColorMatrix in="shadowBlurOuter1" values="0 0 0 0 0.942740178   0 0 0 0 0.825208552   0 0 0 0 0.806650927  0 0 0 1 0"/>
</filter>
<linearGradient id="h" x1="49.003%" x2="49.047%" y1="42.636%" y2="49.007%">
<stop stop-color="#FFF5F4" offset="0"/>
<stop stop-color="#FDEEEA" offset=".29869"/>
<stop stop-color="#FAF7ED" offset=".63541"/>
<stop stop-color="#fff" offset="1"/>
</linearGradient>
<path id="c" d="m-63 195.64c114.49-37.839 189.68-52.319 225.57-43.441 53.827 13.317 68.029 29.884 139.66 0.31691 71.633-29.567 159.25 4.7925 193.91 48.575 12.445 15.72-5.0506 138.27-54.358 160.33-28.163 12.597-93.382 12.597-195.66 0l-252.31-15.006-56.817-150.77z"/>
<filter id="j" x="-.5%" y="-1.3%" width="101.1%" height="102.6%">
<feOffset dx="0" dy="0" in="SourceAlpha" result="shadowOffsetOuter1"/>
<feGaussianBlur in="shadowOffsetOuter1" result="shadowBlurOuter1" stdDeviation="1"/>
<feColorMatrix in="shadowBlurOuter1" values="0 0 0 0 0.932393834   0 0 0 0 0.845056976   0 0 0 0 0.823222762  0 0 0 1 0"/>
</filter>
</defs>
<g fill="none" fill-rule="evenodd">
<g transform="translate(-44 -545)">
<g transform="translate(44 545)">
<mask id="b" fill="white">
<use xlink:href="#f"/>
</mask>
<use fill="#FFFFFF" xlink:href="#f"/>
<path d="m-61.544 167.39c54.494-37.839 99.684-52.319 135.57-43.441 53.827 13.317 98.029 42.884 169.66 13.317 71.633-29.567 219.25-8.2075 253.91 35.575 23.107 29.188-60.232 49.297-250.02 60.325l-252.31-15.006-56.817-50.77z" fill="url(#g)" mask="url(#b)" opacity=".3"/>
<g mask="url(#b)">
<g transform="translate(43 75)">
<g transform="translate(25 21)" fill-rule="evenodd">
<path d="m130.89 9.7999h6.9974c1.1046 0 2 0.89543 2 2v16.511h-10.997v-16.511c0-1.1046 0.89543-2 2-2z" fill="#DEE0DA"/>
<path d="m163.11 3.2666h6.9974c1.1046 0 2 0.89543 2 2v16.511h-10.997v-16.511c0-1.1046 0.89543-2 2-2z" fill="#DEE0DA"/>
<path d="m98.668 5.4444h6.9974c1.1046 0 2 0.89543 2 2v19.6h-10.997v-19.6c0-1.1046 0.89543-2 2-2z" fill="#DEE0DA"/>
<path d="m66.445 8.711h6.9974c1.1046 0 2 0.89543 2 2v11.978h-10.997v-11.978c0-1.1046 0.89543-2 2-2z" fill="#DEE0DA"/>
<path d="m34.223 8.711h6.9974c1.1046 0 2 0.89543 2 2v17.422h-10.997v-17.422c0-1.1046 0.89543-2 2-2z" fill="#DEE0DA"/>
<path d="m2 18.511h6.9974c1.1046 0 2 0.89543 2 2v20.689h-10.997v-20.689c-1.3527e-16 -1.1046 0.89543-2 2-2z" fill="#DEE0DA"/>
<path d="m195.34 0h6.9974c1.1046-4.2495e-16 2 0.89543 2 2v16.498l-10.997-2.2559v-14.243c0-1.1046 0.89543-2 2-2z" fill="#DEE0DA"/>
<path d="m259.78 16.689h6.9974c1.1046 0 2 0.89543 2 2v12.889h-10.997v-12.889c0-1.1046 0.89543-2 2-2z" fill="#DEE0DA"/>
<path d="m292 5.711h6.9974c1.1046 0 2 0.89543 2 2v18.703l-10.997 2.1777v-20.881c0-1.1046 0.89543-2 2-2z" fill="#DEE0DA"/>
<path d="m227.56 10.889h6.9974c1.1046 0 2 0.89543 2 2v19.777h-10.997v-19.777c0-1.1046 0.89543-2 2-2z" fill="#DEE0DA"/>
<path d="m161.11 22.472 10.997-2.8089v19.866c0 1.1046-0.89543 2-2 2h-6.9974c-1.1046 0-2-0.89543-2-2v-17.057z" fill="url(#a)"/>
<path d="m0 40.649 10.997-4.894v9.5924c0 1.1046-0.89543 2-2 2h-6.9974c-1.1046 0-2-0.89543-2-2v-4.6984z" fill="url(#a)"/>
<path d="m32.223 27.798 10.997-4.0205v13.244c0 1.1046-0.89543 2-2 2h-6.9974c-1.1046 0-2-0.89543-2-2v-9.2237z" fill="url(#a)"/>
<path d="m64.445 22.777 10.997-0.088892v11.568c0 1.1046-0.89543 2-2 2h-6.9974c-1.1046 0-2-0.89543-2-2v-11.48z" fill="url(#a)"/>
<path d="m128.89 27.222 10.997 0.279v14.217c0 1.1046-0.89543 2-2 2h-6.9974c-1.1046 0-2-0.89543-2-2v-14.496z" fill="url(#a)"/>
<path d="m96.668 24.917 10.997 1.2162v13.672c0 1.1046-0.89543 2-2 2h-6.9974c-1.1046 0-2-0.89543-2-2v-14.889z" fill="url(#a)"/>
<path d="m257.78 31.577 10.997-4.0303v18.453c0 1.1046-0.89543 2-2 2h-3.4987-3.4987c-1.1046 0-2-0.89543-2-2v-14.423z" fill="url(#a)"/>
<path d="m290 15.525c4.2166 0.59883 5.4987 2.973 10.997 3.2666v15.448c0 1.1046-0.89543 2-2 2h-6.9974c-1.1046 0-2-0.89543-2-2v-18.715z" fill="url(#a)"/>
<path d="m225.56 19.663c1.7216 1.6081 4.7306 1.0253 10.997 4.2919v16.537c0 1.1046-0.89543 2-2 2h-6.9974c-1.1046 0-2-0.89543-2-2v-20.829z" fill="url(#a)"/>
<path d="m193.34 15.132c4.6797-0.98928 7.2286 0.099592 10.997 0.099592v16.6c0 1.1046-0.89543 2-2 2h-6.9974c-1.1046 0-2-0.89543-2-2v-16.7z" fill="url(#a)"/>
</g>
<g fill-rule="nonzero">
<use fill="#9BE5FF" style="mix-blend-mode:hue" xlink:href="#e"/>
<use fill="#FFCFCF" xlink:href="#e"/>
</g>
</g>
</g>
<g mask="url(#b)">
<use fill="black" filter="url(#k)" xlink:href="#d"/>
<use fill="url(#i)" fill-rule="evenodd" xlink:href="#d"/>
</g>
<g mask="url(#b)">
<use fill="black" filter="url(#j)" xlink:href="#c"/>
<use fill="url(#h)" fill-rule="evenodd" xlink:href="#c"/>
</g>
</g>
</g>
</g>
</svg>
