<?xml version="1.0" encoding="UTF-8"?>
<svg version="1.1" viewBox="0 0 436 332" xmlns="http://www.w3.org/2000/svg" xmlns:xlink="http://www.w3.org/1999/xlink">
<defs>
<rect id="f" width="436" height="332" rx="4"/>
<linearGradient id="g" x1="50.009%" x2="50%" y1="48.029%" y2="51.971%">
<stop stop-color="#DDFDE3" offset="0"/>
<stop stop-color="#D1FEE5" offset=".41465"/>
<stop stop-color="#DBFEF0" offset=".58428"/>
<stop stop-color="#FFFFFE" offset="1"/>
</linearGradient>
<linearGradient id="a" x1="50%" x2="50%" y1="80.492%" y2="-51.904%">
<stop stop-color="#56C491" offset="0"/>
<stop stop-color="#F3FFD4" offset="1"/>
</linearGradient>
<path id="e" d="m318.37 13.532 0.63001 1.5285-2.0517 0.85081-2.0293 0.83199-3.0019 1.2127c-0.33074 0.13239-0.66055 0.264-0.98943 0.39483l-1.962 0.77554-1.9396 0.75672-1.9172 0.7379-1.8948 0.71908c-0.31394 0.11828-0.62695 0.23577-0.93902 0.35248l-1.8612 0.69085c-0.30834 0.11357-0.61575 0.22636-0.92223 0.33836l-1.8277 0.66261c-0.30274 0.10887-0.60456 0.21695-0.90544 0.32425l-1.7941 0.63437-1.7717 0.61555-1.7493 0.59672c-0.28969 0.097884-0.57845 0.19498-0.86627 0.2913l-1.7158 0.56847-1.6934 0.54964c-0.28037 0.090038-0.55981 0.17929-0.83831 0.26776l-1.6598 0.5214c-0.27478 0.08533-0.54862 0.16988-0.82154 0.25364l-1.6263 0.49315-1.604 0.47431-1.5816 0.45548c-0.26174 0.074343-0.52254 0.1479-0.78242 0.22067l-1.5481 0.42722-1.5257 0.40838c-0.25243 0.066494-0.50392 0.1322-0.75449 0.19713l-1.4922 0.38012-1.4699 0.36128-1.4476 0.34244-1.4252 0.3236c-0.94272 0.20945-1.8706 0.40634-2.7835 0.59067l-1.3583 0.26707c-2.6942 0.51528-5.2546 0.91749-7.6812 1.2066l-1.2022 0.13512-1.1799 0.11626c-0.58436 0.053418-1.1604 0.099765-1.728 0.13904l-1.1242 0.069123c-2.7825 0.14924-5.3562 0.12168-7.7213-0.082729-6.5502-0.56613-11.787-1.3455-17.026-2.4345l-1.2053-0.25686-2.86-0.64766-5.6511-1.2908-0.3339-0.072347c-5.3551-1.1317-9.7872-1.549-16.005-1.3148-0.31134 0.011728-0.62025 0.027788-0.93047 0.048998l-0.56059 0.043917-0.5682 0.056104-0.58064 0.069352-0.59789 0.083662-0.41056 0.064249-0.85624 0.15025-0.67854 0.13296-0.47235 0.098884-0.9991 0.22377-1.0811 0.26053-1.1746 0.29981-1.2795 0.34161-1.0353 0.28515-2.2861 0.64933-3.0736 0.90026-4.1237 1.2336-4.4852 1.3456-1.9408 0.56754-1.2419 0.35541-1.202 0.33719-1.1635 0.3191-1.1263 0.30113-1.0905 0.28328-1.0561 0.26555-1.0231 0.24794c-0.16785 0.039864-0.33438 0.078999-0.49962 0.11741l-0.9762 0.22176-0.94665 0.20446-0.91848 0.18729c-0.15081 0.02979-0.3005 0.058868-0.44911 0.087239l-0.87882 0.16175-0.85411 0.14487c-0.28074 0.045493-0.55759 0.088194-0.83079 0.12812l-0.80884 0.1115c-0.13306 0.017204-0.26525 0.03372-0.39662 0.04955l-0.77852 0.086781-0.76004 0.070458c-0.62605 0.051948-1.2343 0.087019-1.8283 0.10553l-0.8372 0.018167-1.2501 0.013226-0.64936-0.0020308-0.6379-0.010139-0.63542-0.019487-0.79195-0.038647-0.97639-0.069908-0.68566-0.062887-0.91077-0.09894-0.98559-0.12362-0.85326-0.11817-1.9147-0.2926-1.6509-0.2732-2.8889-0.50543-2.6426-0.47981-9.2924-1.7363-2.1319-0.40117-2.7505-0.50631-1.7607-0.31493-1.7073-0.29726-1.658-0.27994-1.6128-0.26297-1.5719-0.24636-1.5351-0.2301c-0.25302-0.037014-0.50467-0.073366-0.75506-0.10906l-1.4878-0.20637-1.4614-0.191c-0.24161-0.030571-0.48229-0.060517-0.72214-0.089844l-1.4297-0.1686-1.4138-0.15411-1.4021-0.13998c-0.46588-0.044342-0.93051-0.086388-1.3946-0.1262l-1.3912-0.11277-1.392-0.099697c-0.4646-0.031093-0.93003-0.060066-1.397-0.086979-9.9396-0.57286-19.054-0.557-29.875-0.060583l-2.7157 0.13257-4.1108 0.22622-17.403 1.0796-3.3133 0.19125c-2.8982 0.16191-5.5045 0.35776-7.9747 0.59244l-1.6284 0.16226-1.5984 0.17408-1.0839 0.12744-6.3935 0.82955-2.4936 0.30853-0.8337 0.095134-0.6234 0.062772c-0.39361 0.034685-0.78569 0.064699-1.1782 0.089854l-0.78609 0.043777c-0.13129 0.006198-0.26278 0.011842-0.39452 0.016926l-0.79412 0.023717c-0.26612 0.0056258-0.53386 0.0089531-0.80377 0.0099263l-0.81683-0.0041984c-0.27484-0.0037906-0.55242-0.009991-0.83332-0.018657l-0.85324-0.033449-0.87658-0.048575-0.90335-0.064035-0.93354-0.079829c-0.1583-0.01464-0.31799-0.029951-0.47916-0.045941l-0.98525-0.10415-1.024-0.12077-1.0662-0.13774-1.1118-0.15503-1.1608-0.17266-1.2133-0.19063-1.2692-0.20892-0.65661-0.11143 0.27619-1.6312 1.278 0.21483 1.2203 0.1966 1.166 0.1787 1.1151 0.16115 1.0676 0.14393c0.17417 0.022574 0.3465 0.044444 0.51707 0.065619l1.0028 0.11876c0.16379 0.01842 0.32596 0.036159 0.48658 0.053224l0.94566 0.094352c0.1547 0.014396 0.30798 0.028131 0.45993 0.041213l0.8962 0.070715c0.14688 0.010499 0.29256 0.020359 0.43712 0.029587l0.85442 0.047848c0.56137 0.026922 1.107 0.043966 1.6415 0.051588l0.79391 0.0044237c0.39334-0.0012642 0.78167-0.0077 1.1669-0.019115l0.76696-0.029411c0.12733-0.0059893 0.25446-0.012518 0.38147-0.019578l0.76104-0.048686 0.9165-0.075482 0.37258-0.038244 0.69637-0.07845 2.0965-0.25666 7.2682-0.93916c0.49537-0.05845 0.99287-0.1151 1.4939-0.16998l1.5151-0.15942c0.25474-0.025705 0.5107-0.05098 0.76807-0.075832l1.5624-0.14407c1.8457-0.16225 3.7773-0.30426 5.8543-0.4279l4.2073-0.24282 15.146-0.94549 4.3741-0.25392 2.659-0.14027 0.64595-0.032081c11.506-0.56405 21.036-0.60756 31.471-0.0061365l1.411 0.087837c0.93842 0.062781 1.8732 0.13409 2.81 0.21439l1.4074 0.12726c0.23504 0.022354 0.47039 0.045286 0.70612 0.068801l1.4197 0.14817 1.4332 0.16254c0.24023 0.028309 0.4812 0.057231 0.72299 0.086775l1.4614 0.18478 1.4854 0.20004c0.2498 0.034631 0.50077 0.069913 0.75301 0.10585l1.5293 0.2236 1.5638 0.23974 1.6025 0.25624c0.27055 0.044102 0.5429 0.088905 0.81712 0.13442l1.6685 0.28165c0.28208 0.048381 0.56621 0.097487 0.85248 0.14732l1.744 0.30786 1.7996 0.32578 3.4289 0.63921 7.9517 1.4908 5.5305 1.006 2.4971 0.42942 2.3468 0.37247 1.3423 0.19014 1.0092 0.12656 0.92905 0.10023 0.69763 0.062909 0.49789 0.037613c0.37981 0.026264 0.74789 0.046073 1.1121 0.06052l0.31144 0.011096c0.41449 0.013111 0.8269 0.019628 1.249 0.021181l0.47961-2.605e-4 0.99872-0.011018 0.86828-0.018553 0.69465-0.029424 0.71072-0.045213 0.72809-0.061125c0.24574-0.023041 0.49459-0.048754 0.74678-0.07716l0.76678-0.093316 0.78808-0.10959c0.39959-0.058887 0.80766-0.12392 1.2249-0.19518l0.84708-0.15082 0.87298-0.16753c0.14773-0.029321 0.29659-0.059343 0.44661-0.090068l0.91427-0.19282 0.94344-0.20983 0.97392-0.22696 1.0057-0.24422c0.17034-0.042148 0.34206-0.08502 0.51518-0.12862l1.0558-0.27033 1.0909-0.28789 1.1273-0.30558 1.165-0.32338 1.204-0.34131 1.8819-0.54585 2.6149-0.77753 5.7271-1.721 3.2525-0.95909 2.4204-0.69457 1.7885-0.49558 0.98373-0.26329 1.2178-0.31359 0.84942-0.2085 0.80019-0.18684 0.50858-0.11307 0.72926-0.15317 0.46593-0.091629 0.67222-0.12253 0.8543-0.13722 0.61571-0.084724 0.59983-0.070342 0.58896-0.057052 0.38906-0.03119 0.58194-0.037328 0.5844-0.02695c6.0807-0.22907 10.522 0.15431 15.695 1.202l1.0483 0.22025 8.2691 1.8849 0.66047 0.14464c5.4402 1.1624 10.803 1.9818 17.612 2.5702 2.4692 0.21341 5.179 0.22773 8.1291 0.042855l1.1175-0.078664c0.18813-0.014667 0.3772-0.030112 0.56721-0.046335l1.1513-0.10668c2.7127-0.2707 5.6092-0.69393 8.6895-1.2697l1.3314-0.25612 1.3538-0.2748c0.45503-0.094715 0.9138-0.19254 1.3763-0.29349l1.3988-0.31217c0.47002-0.10717 0.94378-0.21746 1.4213-0.33086l1.4438-0.34955 1.4662-0.36824c0.24624-0.062931 0.49343-0.12664 0.74154-0.19113l1.4999-0.39628 1.5224-0.41497c0.2556-0.070719 0.51215-0.14222 0.76962-0.21449l1.5561-0.44301 1.5785-0.4617 1.601-0.4804 1.6234-0.4991 1.6459-0.51779 1.6683-0.53649 1.6908-0.55519c0.28366-0.09409 0.56826-0.18896 0.85379-0.28461l1.7244-0.58324 1.7468-0.60195 1.7693-0.62065 1.7917-0.63935 1.8141-0.65806 1.8365-0.67677 1.8589-0.69547 1.8813-0.71418 1.9037-0.73289 1.9261-0.7516 1.9485-0.77032 1.9709-0.78903 1.9933-0.80774 2.0157-0.82646 2.0381-0.84517z"/>
<linearGradient id="i" x1="50.009%" x2="50%" y1="48.029%" y2="51.971%">
<stop stop-color="#E7FFEC" offset="0"/>
<stop stop-color="#D1FEE5" offset=".41465"/>
<stop stop-color="#DBFEF0" offset=".58428"/>
<stop stop-color="#FFFFFE" offset="1"/>
</linearGradient>
<path id="d" d="m-35.609 185.79c54.494-37.839 99.684-52.319 135.57-43.441 53.827 13.317 98.029 42.884 169.66 13.317 71.633-29.567 219.25-8.2075 253.91 35.575 23.107 29.188-60.232 49.297-250.02 60.325l-252.31-15.006-56.817-50.77z"/>
<filter id="k" x="-.3%" y="-1.3%" width="100.5%" height="102.7%">
<feOffset dx="0" dy="0" in="SourceAlpha" result="shadowOffsetOuter1"/>
<feGaussianBlur in="shadowOffsetOuter1" result="shadowBlurOuter1" stdDeviation="0.5"/>
<feColorMatrix in="shadowBlurOuter1" values="0 0 0 0 0.68900587   0 0 0 0 0.924459706   0 0 0 0 0.753958652  0 0 0 1 0"/>
</filter>
<linearGradient id="h" x1="50.009%" x2="50%" y1="42.282%" y2="48.471%">
<stop stop-color="#FAFFFB" offset="0"/>
<stop stop-color="#DEFFEC" offset=".35549"/>
<stop stop-color="#EAFFF7" offset=".67449"/>
<stop stop-color="#FFFFFE" offset="1"/>
</linearGradient>
<path id="c" d="m-69.785 202.15c54.494-37.839 99.684-52.319 135.57-43.441 53.827 13.317 98.029 42.884 169.66 13.317s219.25-8.2075 253.91 35.575c12.445 15.72-5.0506 138.27-54.358 160.33-28.163 12.597-93.382 12.597-195.66 0l-252.31-15.006-56.817-150.77z"/>
<filter id="j" x="-.5%" y="-1.4%" width="101.1%" height="102.7%">
<feOffset dx="0" dy="0" in="SourceAlpha" result="shadowOffsetOuter1"/>
<feGaussianBlur in="shadowOffsetOuter1" result="shadowBlurOuter1" stdDeviation="1"/>
<feColorMatrix in="shadowBlurOuter1" values="0 0 0 0 0.684877174   0 0 0 0 0.900251748   0 0 0 0 0.771027004  0 0 0 1 0"/>
</filter>
</defs>
<g fill="none" fill-rule="evenodd">
<g transform="translate(-508 -545)">
<g transform="translate(508 545)">
<mask id="b" fill="white">
<use xlink:href="#f"/>
</mask>
<use fill="#FFFFFF" xlink:href="#f"/>
<path d="m-68.329 170.9c54.494-37.839 99.684-52.319 135.57-43.441 53.827 13.317 98.029 42.884 169.66 13.317 71.633-29.567 219.25-8.2075 253.91 35.575 23.107 29.188-60.232 49.297-250.02 60.325l-252.31-15.006-56.817-50.77z" fill="url(#g)" mask="url(#b)" opacity=".3"/>
<g mask="url(#b)">
<g transform="translate(43 78)">
<g transform="translate(17 23)">
<g transform="translate(8.5535)">
<path d="m130.1 18.753h6.9672c1.1046 0 2 0.89543 2 2v16.753l-10.967 1.1031v-17.856c0-1.1046 0.89543-2 2-2z" fill="url(#a)"/>
<path d="m162.12 16.547h6.9672c1.1046 0 2 0.89543 2 2v14.547l-10.967 2.2062v-16.753c0-1.1046 0.89543-2 2-2z" fill="url(#a)"/>
<path d="m98.073 11.031h6.9672c1.1046 0 2 0.89543 2 2v18.779h-10.967v-18.779c0-1.1046 0.89543-2 2-2z" fill="url(#a)"/>
<path d="m66.049 12.134h6.9672c1.1046 0 2 0.89543 2 2v15.351l-10.967 1.2215v-16.573c0-1.1046 0.89543-2 2-2z" fill="url(#a)"/>
<path d="m34.024 14.34h6.9672c1.1046 0 2 0.89543 2 2v15.47h-10.967v-15.47c0-1.1046 0.89543-2 2-2z" fill="url(#a)"/>
<path d="m2 23.165h6.9672c1.1046 0 2 0.89543 2 2v9.9541h-10.967v-9.9541c-1.3527e-16 -1.1046 0.89543-2 2-2z" fill="url(#a)"/>
<path d="m194.15 9.928h6.9672c1.1046 0 2 0.89543 2 2v16.74l-10.967-0.079184v-16.661c0-1.1046 0.89543-2 2-2z" fill="url(#a)"/>
<path d="m258.19 12.134h6.9672c1.1046 0 2 0.89543 2 2v15.65l-10.967 2.2062v-17.856c0-1.1046 0.89543-2 2-2z" fill="url(#a)"/>
<path d="m290.22 0h6.9672c1.1046-2.0291e-16 2 0.89543 2 2v15.935l-10.967 5.5156v-21.45c0-1.1046 0.89543-2 2-2z" fill="url(#a)"/>
<path d="m226.17 13.237h6.9672c1.1046 0 2 0.89543 2 2v27.784h-10.967v-27.784c0-1.1046 0.89543-2 2-2z" fill="url(#a)"/>
<path d="m160.12 34.9 10.967-2.0282v17.128c0 1.1046-0.89543 2-2 2h-6.9672c-1.1046 0-2-0.89543-2-2v-15.1z" fill="#DEE0DA"/>
<path d="m0 33.459 10.967 1.6606v6.4347c0 1.1046-0.89543 2-2 2h-6.9672c-1.1046 0-2-0.89543-2-2v-8.0953z" fill="#DEE0DA"/>
<path d="m32.024 32.574 10.967-1.8669v12.34c0 1.1046-0.89543 2-2 2h-6.9672c-1.1046 0-2-0.89543-2-2v-10.474z" fill="#DEE0DA"/>
<path d="m64.049 30.256 10.967-0.65209v14.312c0 1.1046-0.89543 2-2 2h-6.9672c-1.1046 0-2-0.89543-2-2v-13.66z" fill="#DEE0DA"/>
<path d="m128.1 37.069 10.967 1.7297v10.11c0 1.1046-0.89543 2-2 2h-6.9672c-1.1046 0-2-0.89543-2-2v-11.84z" fill="#DEE0DA"/>
<path d="m96.073 31.861 10.967 0.53908v17.317c0 1.1046-0.89543 2-2 2h-6.9672c-1.1046 0-2-0.89543-2-2v-17.856z" fill="#DEE0DA"/>
<path d="m256.19 32.007 10.967-1.7233v18.551c0 1.1046-0.89543 2-2 2h-3.4836-3.4836c-1.1046 0-2-0.89543-2-2v-16.827z" fill="#DEE0DA"/>
<path d="m288.22 23.45c3.4803-1.1031 5.4836-4.1742 10.967-3.679v16.046c0 1.1046-0.89543 2-2 2h-6.9672c-1.1046 0-2-0.89543-2-2v-12.367z" fill="#DEE0DA"/>
<path d="m224.17 33.159c1.8279-1.3042 5.4836 1.6527 10.967 1.038v13.47c0 1.1046-0.89543 2-2 2h-6.9672c-1.1046 0-2-0.89543-2-2v-14.508z" fill="#DEE0DA"/>
<path d="m192.15 28.692c4.6669-1.298 7.2087 0.13067 10.967 0.13067v13.38c0 1.1046-0.89543 2-2 2h-6.9672c-1.1046 0-2-0.89543-2-2v-13.511z" fill="#DEE0DA"/>
</g>
<g fill-rule="nonzero">
<use fill="#9BE5FF" xlink:href="#e"/>
<use fill="#278755" style="mix-blend-mode:color" xlink:href="#e"/>
</g>
</g>
</g>
</g>
<g mask="url(#b)">
<use fill="black" filter="url(#k)" xlink:href="#d"/>
<use fill="url(#i)" fill-rule="evenodd" xlink:href="#d"/>
</g>
<g mask="url(#b)">
<use fill="black" filter="url(#j)" xlink:href="#c"/>
<use fill="url(#h)" fill-rule="evenodd" xlink:href="#c"/>
</g>
</g>
</g>
</g>
</svg>
